<svg width="500" height="1100" viewBox="0 0 500 1100" fill="none" xmlns="http://www.w3.org/2000/svg">
<g clip-path="url(#clip0_109_57)">
<rect width="500" height="1100" fill="white"/>
<ellipse cx="15.9906" cy="19.7807" rx="92.9274" ry="100.5" transform="rotate(-21.2085 15.9906 19.7807)" fill="#1E1E1E"/>
<ellipse cx="-17.8735" cy="1.8146" rx="52.8563" ry="100.5" transform="rotate(-21.2085 -17.8735 1.8146)" fill="#FAF9F7"/>
<ellipse cx="483.012" cy="22.9171" rx="113.5" ry="85.9701" transform="rotate(-33 483.012 22.9171)" fill="#1E1E1E"/>
<ellipse cx="482.788" cy="-14.9949" rx="103.735" ry="51.118" transform="rotate(-38.996 482.788 -14.9949)" fill="#FAF9F7"/>
<ellipse cx="-7.20647" cy="325.459" rx="218" ry="116" transform="rotate(-30 -7.20647 325.459)" fill="#1E1E1E"/>
<ellipse cx="-83.4171" cy="356.577" rx="218" ry="89.5787" transform="rotate(-30 -83.4171 356.577)" fill="#FAF9F7"/>
<ellipse cx="469.03" cy="320.451" rx="101.511" ry="185.5" transform="rotate(-29.16 469.03 320.451)" fill="#1E1E1E"/>
<ellipse cx="494.277" cy="326.961" rx="80.3524" ry="150.198" transform="rotate(-43.16 494.277 326.961)" fill="#FAF9F7"/>
<ellipse cx="22.7562" cy="812.119" rx="309.5" ry="141.055" transform="rotate(-98 22.7562 812.119)" fill="#1E1E1E"/>
<ellipse cx="-0.466444" cy="782.408" rx="222.069" ry="95.9454" transform="rotate(-90 -0.466444 782.408)" fill="#FAF9F7"/>
<ellipse rx="196.474" ry="269.665" transform="matrix(0.888508 -0.458861 0.581703 0.813402 411.433 701.5)" fill="#1E1E1E"/>
<ellipse cx="245.5" cy="23" rx="118.5" ry="147" fill="#1E1E1E"/>
<ellipse cx="219.5" cy="-21" rx="76.5" ry="130" fill="#FAF9F7"/>
<ellipse rx="133.892" ry="222.735" transform="matrix(0.897276 -0.441469 0.563055 0.82642 441.551 696.367)" fill="#FAF9F7"/>
<ellipse cx="543" cy="1061.5" rx="359" ry="103.5" fill="#1E1E1E"/>
<ellipse cx="625" cy="1082.5" rx="359" ry="103.5" fill="#FAF9F7"/>
</g>
<defs>
<clipPath id="clip0_109_57">
<rect width="500" height="1100" fill="white"/>
</clipPath>
</defs>
</svg>
