<svg width="45" height="40" viewBox="0 0 45 40" fill="none" xmlns="http://www.w3.org/2000/svg">
<path d="M20.1614 14.3594L18.3952 31.7201C17.5139 31.8523 16.457 31.9155 15.3059 31.7903L17.5906 26.6905L14.8362 31.7282C14.0293 31.6053 13.184 31.3876 12.3259 31.033C10.4028 30.2394 8.90287 28.3409 7.81573 26.4283L14.7397 23.2106L7.46459 25.7857C6.77511 24.4701 6.28445 23.206 5.98679 22.355C12.7549 21.3999 18.5464 17.2318 18.5464 17.2318C11.7457 20.9259 5.64379 21.291 5.64379 21.291L4.25087 20.6192C0.822036 18.3789 0 13.011 0 13.011C4.36016 20.3172 16.1268 16.0882 20.1614 14.3606V14.3594Z" fill="black"/>
<path d="M23.2065 33.6501L39.967 38.1729L44.6318 13.9076C44.6318 13.9076 43.1191 12.606 40.2856 11.2518C40.2995 10.759 40.3018 10.2159 40.2821 9.64352C40.1739 6.57334 39.5019 4.25461 38.2822 2.75171C36.3207 0.332321 33.4442 -0.374651 31.6176 0.176647C30.6106 0.480973 29.9828 1.14815 29.8956 2.00845C29.7781 3.16021 30.4723 4.56596 31.2757 6.1941C31.6769 7.00759 32.1036 7.8714 32.4512 8.75863C31.5385 8.5971 30.5793 8.46718 29.5735 8.38056C29.3817 7.19955 29.0015 6.02087 28.2887 5.14301C26.8667 3.38962 24.775 2.87929 23.4449 3.28077C22.6891 3.50901 22.217 4.01466 22.1496 4.66896C22.0636 5.51756 22.5624 6.52769 23.1402 7.69934C23.4181 8.26235 23.7123 8.85929 23.9553 9.47145L22.9461 10.1691L22.4275 18.1705V10.2545L20.6137 9.90687L20.1602 14.3594L18.3941 31.72L18.0208 35.3883L23.2042 33.649L23.2065 33.6501ZM39.5984 10.9334C37.8857 10.1691 35.7568 9.42112 33.2477 8.90962C32.8663 7.85268 32.364 6.83436 31.8943 5.88275C31.1699 4.41614 30.4862 3.03029 30.5827 2.07868C30.6618 1.30382 31.3897 0.971405 31.8152 0.842652C32.6198 0.600362 33.6616 0.660056 34.6743 1.00769C35.4975 1.28978 36.6974 1.89843 37.7462 3.19064C39.3659 5.18749 39.6391 8.5538 39.5972 10.9334H39.5984ZM39.0089 13.7308C39.0089 13.4172 39.2031 13.1503 39.4763 13.0426C39.4368 13.4335 39.4031 13.6665 39.4019 13.6782C39.3728 13.8678 39.503 14.0457 39.6914 14.0738C39.7088 14.0761 39.7263 14.0773 39.7437 14.0773C39.9123 14.0773 40.0588 13.9532 40.0856 13.7812C40.0891 13.7543 40.1251 13.5178 40.1646 13.1245C40.3542 13.258 40.4774 13.4792 40.4774 13.7297C40.4774 14.1382 40.1484 14.4694 39.7426 14.4694C39.3368 14.4694 39.0077 14.1382 39.0077 13.7297L39.0089 13.7308ZM32.7965 11.9072C32.7965 11.645 32.9326 11.4156 33.1361 11.2845C33.1616 11.4952 33.1791 11.7071 33.1849 11.9178C33.1907 12.1097 33.3477 12.2607 33.5407 12.256C33.7314 12.2502 33.8813 12.091 33.8767 11.8979C33.8709 11.6755 33.8534 11.4531 33.8267 11.2307C34.0848 11.3454 34.265 11.6052 34.265 11.9072C34.265 12.3157 33.936 12.647 33.5302 12.647C33.1244 12.647 32.7954 12.3157 32.7954 11.9072H32.7965ZM24.5029 25.8231L25.7122 8.25532L24.5401 9.06647C24.3006 8.48357 24.0239 7.92174 23.76 7.38917C23.2519 6.36031 22.7717 5.38764 22.8379 4.74036C22.8879 4.24759 23.3646 4.03222 23.6437 3.94794C24.7273 3.62138 26.5353 4.08372 27.7539 5.58428C28.3457 6.31349 28.6794 7.30606 28.8608 8.32789C28.1492 8.28224 27.4167 8.25649 26.6632 8.25649L24.5029 25.8243V25.8231ZM23.2065 34.4332L18.0232 36.0859L36.5974 40L39.6216 38.8693L23.2065 34.4344V34.4332Z" fill="black"/>
<path d="M32.3861 22.3983L31.8594 22.2929C31.8001 22.2812 31.7559 22.2578 31.7246 22.2227C31.6932 22.1876 31.6734 22.1466 31.6629 22.0998L31.592 21.5508L30.477 21.3273L30.2026 21.8072C30.1805 21.8423 30.1468 21.8704 30.1026 21.8938C30.0584 21.916 30.0084 21.9219 29.9514 21.9113L29.4201 21.8048L31.1397 19.0811L31.8362 19.2204L32.3861 22.3994V22.3983ZM31.5292 21.0534L31.4176 20.1907C31.4083 20.1357 31.3978 20.0702 31.3897 19.9964C31.3804 19.9227 31.3722 19.8419 31.3664 19.7565C31.3304 19.8349 31.2932 19.9063 31.2571 19.9719C31.2199 20.0374 31.1874 20.0936 31.156 20.1416L30.7269 20.8919L31.5304 21.0534H31.5292Z" fill="white"/>
<path d="M35.2138 23.5407L34.6546 23.4283C34.5743 23.4119 34.5046 23.3873 34.4441 23.3534C34.3848 23.3195 34.3325 23.2691 34.2895 23.2012L34.0069 22.7167C33.8883 22.719 33.7628 22.7073 33.6314 22.6815C33.4035 22.6359 33.2035 22.5551 33.0303 22.4404C32.857 22.3257 32.7175 22.1876 32.6117 22.0249C32.5047 21.8622 32.4338 21.6819 32.3966 21.4841C32.3594 21.2863 32.3629 21.0803 32.4047 20.8661C32.4466 20.6531 32.5233 20.4611 32.6326 20.2926C32.7419 20.124 32.8768 19.9847 33.0372 19.8771C33.1977 19.7694 33.3791 19.6945 33.5826 19.6558C33.786 19.616 34.0011 19.6196 34.229 19.6652C34.4569 19.7109 34.6569 19.7916 34.829 19.9063C35.0011 20.0222 35.1394 20.1603 35.2452 20.3218C35.351 20.4834 35.4231 20.6636 35.4592 20.8614C35.4964 21.0592 35.4929 21.2653 35.451 21.4771C35.4254 21.6035 35.3882 21.7229 35.3394 21.8353C35.2906 21.9465 35.2313 22.0495 35.1615 22.1419C35.0917 22.2344 35.0127 22.3175 34.9243 22.3913C34.8348 22.465 34.7383 22.5259 34.6336 22.575L35.215 23.5407H35.2138ZM33.1012 21.0066C33.0721 21.1541 33.0651 21.2898 33.0791 21.4139C33.0931 21.538 33.1279 21.648 33.1826 21.7428C33.2372 21.8376 33.3116 21.9172 33.4058 21.9804C33.5 22.0436 33.6128 22.0881 33.7442 22.115C33.8744 22.1408 33.9942 22.1431 34.1046 22.1209C34.2151 22.0986 34.3139 22.0542 34.3999 21.9874C34.486 21.9207 34.5604 21.8329 34.6209 21.7229C34.6813 21.6141 34.7267 21.4853 34.7557 21.3378C34.7848 21.1915 34.7918 21.0569 34.7778 20.9328C34.7639 20.8088 34.729 20.6987 34.6743 20.6039C34.6197 20.5091 34.5464 20.4295 34.4523 20.3652C34.3592 20.3019 34.2476 20.2563 34.1174 20.2305C33.986 20.2036 33.8651 20.2025 33.7535 20.2247C33.6418 20.2469 33.543 20.2926 33.457 20.3593C33.3709 20.426 33.2965 20.5138 33.2361 20.6238C33.1756 20.7327 33.1303 20.8603 33.1012 21.0066V21.0066Z" fill="white"/>
<path d="M36.6475 22.6909C36.7393 22.7096 36.823 22.7108 36.9009 22.6944C36.9788 22.678 37.0474 22.6476 37.109 22.6008C37.1695 22.554 37.2218 22.4919 37.2637 22.4159C37.3055 22.3398 37.3369 22.2496 37.3579 22.1455L37.7044 20.3979L38.3845 20.5349L38.0381 22.2824C38.002 22.4638 37.9404 22.6242 37.852 22.7635C37.7637 22.9028 37.6544 23.0163 37.5241 23.1041C37.3939 23.1919 37.2451 23.2504 37.0765 23.2797C36.9091 23.3089 36.7277 23.3042 36.5335 23.2656C36.3382 23.2258 36.1684 23.1603 36.0242 23.069C35.8812 22.9765 35.765 22.8653 35.6789 22.7342C35.5917 22.6031 35.5347 22.4556 35.5068 22.293C35.4789 22.1303 35.4836 21.9582 35.5185 21.7768L35.8649 20.0292L36.5451 20.1662L36.1998 21.9125C36.1789 22.0167 36.1742 22.1115 36.1835 22.1993C36.194 22.2859 36.2173 22.3632 36.2556 22.4311C36.294 22.499 36.3463 22.554 36.4114 22.5996C36.4765 22.6441 36.5556 22.6757 36.6463 22.6944L36.6475 22.6909Z" fill="white"/>
<path d="M38.7741 23.68L38.0904 23.543L38.6752 20.5922L39.3589 20.7292L38.7741 23.68Z" fill="white"/>
<path d="M27.1202 22.9718L26.9842 23.6601L27.9062 23.845L27.8062 24.3518L26.8842 24.1669L26.7446 24.8692L27.948 25.1103L27.8434 25.637L25.9563 25.2578L26.5412 22.307L28.4282 22.6862L28.3236 23.213L27.1202 22.9718Z" fill="white"/>
<path d="M30.5351 26.1789L29.8549 26.042C29.8107 26.0326 29.777 26.0151 29.7537 25.9881C29.7305 25.9612 29.7142 25.9308 29.7037 25.898L29.3212 24.7474C29.3049 24.7755 29.2875 24.7977 29.2701 24.8176L28.5329 25.6639C28.5085 25.6873 28.4817 25.7072 28.4515 25.7259C28.4213 25.7435 28.3864 25.7482 28.3457 25.74L27.7097 25.6124L28.9538 24.2827L28.3306 22.6686L29.0108 22.8056C29.055 22.815 29.0863 22.8267 29.105 22.8419C29.1236 22.8571 29.1375 22.8805 29.1491 22.9109L29.5352 24.0229C29.5456 24.0065 29.5561 23.9913 29.5689 23.9772C29.5805 23.9632 29.5933 23.948 29.6084 23.9328L30.2944 23.1521C30.3188 23.1263 30.3432 23.1087 30.3665 23.0994C30.3897 23.09 30.4177 23.0888 30.4479 23.0947L31.1002 23.2258L29.9026 24.4454L30.5362 26.1813L30.5351 26.1789Z" fill="white"/>
<path d="M32.1745 23.4388C32.3815 23.4798 32.5535 23.5406 32.6919 23.6191C32.8303 23.6975 32.9384 23.7899 33.0175 23.8965C33.0965 24.0018 33.1465 24.1177 33.1686 24.2453C33.1907 24.3717 33.1884 24.5039 33.1616 24.6397C33.1326 24.7872 33.0826 24.9171 33.0105 25.0307C32.9396 25.1442 32.8465 25.2355 32.7326 25.3034C32.6187 25.3713 32.4826 25.4158 32.3245 25.4356C32.1664 25.4555 31.9861 25.445 31.7838 25.404L31.4292 25.3326L31.2339 26.3194L30.5537 26.1824L31.1385 23.2316L32.1722 23.4388H32.1745ZM31.8873 24.8867C32.064 24.9218 32.2001 24.9054 32.2943 24.8352C32.3884 24.7661 32.4512 24.6549 32.4815 24.5016C32.4942 24.4337 32.4966 24.3705 32.4873 24.3108C32.478 24.2511 32.457 24.1973 32.4245 24.1493C32.3919 24.1013 32.3454 24.0603 32.2884 24.0264C32.2303 23.9924 32.1582 23.9667 32.0722 23.9491L31.7176 23.8777L31.5327 24.813L31.8873 24.8844V24.8867Z" fill="white"/>
<path d="M35.272 27.1294L34.6569 27.0053C34.543 26.9819 34.4697 26.9222 34.4371 26.8262L34.1197 25.8723C34.1046 25.8313 34.0837 25.7997 34.0593 25.7775C34.0349 25.7552 33.9965 25.7388 33.943 25.7283L33.7698 25.6932L33.5535 26.7852L32.8733 26.6483L33.4581 23.6975L34.4116 23.8895C34.6232 23.9316 34.7999 23.9901 34.9406 24.0639C35.0813 24.1376 35.1917 24.2231 35.2708 24.3202C35.3499 24.4174 35.3999 24.5239 35.422 24.6386C35.4441 24.7545 35.4417 24.8738 35.4173 25.0003C35.3987 25.0962 35.3673 25.184 35.3255 25.2636C35.2836 25.3432 35.2301 25.4146 35.1662 25.4766C35.1022 25.5387 35.0278 25.5914 34.9441 25.6335C34.8592 25.6756 34.7662 25.7049 34.6639 25.7224C34.7034 25.754 34.7395 25.7915 34.772 25.8336C34.8046 25.8758 34.8313 25.9238 34.8522 25.9776L35.2731 27.1294H35.272ZM34.1372 25.2753C34.2302 25.294 34.3104 25.2976 34.3802 25.287C34.4499 25.2765 34.5092 25.2543 34.5592 25.2215C34.6092 25.1875 34.6488 25.1454 34.679 25.0927C34.7092 25.0401 34.7302 24.9815 34.7429 24.9172C34.7685 24.7872 34.7464 24.6784 34.6778 24.5882C34.6081 24.4981 34.486 24.4361 34.3104 24.401L34.0372 24.346L33.8639 25.2215L34.1372 25.2765V25.2753Z" fill="white"/>
<path d="M36.4417 24.8434L36.3056 25.5317L37.2276 25.7166L37.1277 26.2234L36.2056 26.0385L36.0661 26.7408L37.2695 26.9819L37.1649 27.5086L35.2778 27.1294L35.8626 24.1786L37.7497 24.5578L37.6451 25.0845L36.4417 24.8434Z" fill="white"/>
<path d="M39.4275 25.5188C39.4008 25.5469 39.3752 25.5668 39.3496 25.5785C39.324 25.5902 39.2938 25.5925 39.2589 25.5855C39.2287 25.5796 39.1973 25.5633 39.1647 25.5363C39.1333 25.5094 39.0973 25.4802 39.0566 25.4462C39.0159 25.4134 38.9694 25.3807 38.9159 25.3491C38.8624 25.3175 38.7985 25.2952 38.7241 25.28C38.5962 25.2543 38.4962 25.2624 38.4229 25.3046C38.3497 25.3467 38.3043 25.4146 38.2857 25.5071C38.2741 25.5668 38.2834 25.6194 38.3125 25.6663C38.3427 25.7131 38.3845 25.7564 38.4404 25.7974C38.4962 25.8383 38.5601 25.8781 38.6345 25.9167C38.7078 25.9565 38.7834 25.9987 38.8589 26.0443C38.9345 26.09 39.0078 26.1403 39.0787 26.1953C39.1496 26.2503 39.2089 26.3147 39.2577 26.3873C39.3066 26.4598 39.3415 26.5441 39.3612 26.6389C39.381 26.7337 39.3798 26.8426 39.3554 26.9655C39.3287 27.1024 39.2798 27.2253 39.2089 27.3342C39.138 27.4431 39.0496 27.5332 38.9426 27.6046C38.8357 27.6748 38.7124 27.7228 38.5717 27.7474C38.431 27.772 38.2776 27.7673 38.1113 27.7333C38.0206 27.7146 37.9288 27.6865 37.8381 27.6491C37.7474 27.6116 37.6613 27.566 37.5788 27.5145C37.4974 27.4618 37.4218 27.4044 37.3532 27.3424C37.2846 27.2792 37.2276 27.2136 37.1811 27.1434L37.4462 26.8637C37.4672 26.8438 37.4916 26.8286 37.5206 26.8192C37.5497 26.8087 37.5799 26.8063 37.6102 26.8133C37.6509 26.8215 37.6881 26.8426 37.7241 26.8765C37.7602 26.9105 37.8009 26.9479 37.8462 26.9901C37.8916 27.031 37.945 27.072 38.0078 27.1106C38.0694 27.1493 38.1462 27.1785 38.238 27.1973C38.3613 27.2218 38.4624 27.2136 38.5415 27.1727C38.6206 27.1317 38.6717 27.0521 38.6961 26.9327C38.7101 26.8637 38.702 26.804 38.6729 26.7536C38.6438 26.7033 38.602 26.6577 38.5462 26.6167C38.4903 26.5757 38.4264 26.5371 38.3531 26.4996C38.2799 26.4622 38.2043 26.4224 38.1276 26.3803C38.0508 26.3381 37.9776 26.289 37.9078 26.2351C37.8381 26.1813 37.7788 26.1169 37.7299 26.042C37.6811 25.9671 37.6474 25.8781 37.6288 25.7775C37.6102 25.6756 37.6137 25.5562 37.6416 25.4193C37.6637 25.3081 37.7067 25.2051 37.7718 25.1091C37.8369 25.0131 37.9206 24.9324 38.0229 24.8668C38.1253 24.8013 38.2439 24.7568 38.3776 24.7322C38.5124 24.7076 38.6601 24.7123 38.8206 24.7439C38.9101 24.7615 38.9961 24.7861 39.0787 24.8177C39.1612 24.8493 39.238 24.8855 39.3089 24.9289C39.3798 24.9722 39.4449 25.019 39.5031 25.0717C39.5624 25.1232 39.6124 25.1793 39.6554 25.2379L39.424 25.5223L39.4275 25.5188Z" fill="white"/>
<path d="M41.4146 25.9167C41.3878 25.9448 41.3622 25.9647 41.3367 25.9764C41.3111 25.9881 41.2809 25.9905 41.246 25.9835C41.2146 25.9776 41.1844 25.9612 41.1518 25.9343C41.1204 25.9074 41.0844 25.8781 41.0437 25.8442C41.0041 25.8102 40.9565 25.7786 40.903 25.747C40.8495 25.7154 40.7855 25.6932 40.7111 25.678C40.5832 25.6522 40.4832 25.6604 40.41 25.7025C40.3367 25.7447 40.2914 25.8126 40.2728 25.905C40.2612 25.9647 40.2705 26.0174 40.2995 26.0642C40.3298 26.111 40.3716 26.1543 40.4274 26.1953C40.4832 26.2363 40.5472 26.2761 40.6216 26.3147C40.6949 26.3545 40.7704 26.3966 40.846 26.4423C40.9216 26.4879 40.9948 26.5383 41.0658 26.5933C41.1367 26.6483 41.196 26.7127 41.2448 26.7852C41.2936 26.8578 41.3285 26.9421 41.3483 27.0369C41.3681 27.1317 41.3669 27.2406 41.3425 27.3635C41.3157 27.5004 41.2669 27.6221 41.196 27.7322C41.1251 27.841 41.0367 27.9311 40.9297 28.0025C40.8227 28.0728 40.6995 28.1208 40.5588 28.1453C40.4181 28.1699 40.2646 28.1652 40.0984 28.1313C40.0077 28.1126 39.9158 28.0845 39.8251 28.047C39.7345 28.0096 39.6484 27.9639 39.5659 27.9124C39.4845 27.8597 39.4089 27.8024 39.3403 27.7404C39.2717 27.6783 39.2147 27.6116 39.1682 27.5414L39.4333 27.2616C39.4542 27.2417 39.4787 27.2265 39.5077 27.2171C39.5368 27.2066 39.567 27.2054 39.5984 27.2113C39.6391 27.2195 39.6763 27.2406 39.7124 27.2745C39.7484 27.3084 39.7891 27.3459 39.8344 27.3869C39.8798 27.4278 39.9333 27.4688 39.9961 27.5074C40.0577 27.5461 40.1344 27.5753 40.2263 27.594C40.3495 27.6186 40.4507 27.6104 40.5309 27.5695C40.61 27.5285 40.6611 27.4489 40.6856 27.3295C40.6995 27.2605 40.6914 27.2008 40.6623 27.1504C40.6332 27.1001 40.5914 27.0545 40.5356 27.0135C40.4798 26.9725 40.4158 26.9339 40.3426 26.8964C40.2693 26.859 40.1937 26.8192 40.117 26.777C40.0402 26.7349 39.967 26.6857 39.8972 26.6319C39.8275 26.5781 39.7682 26.5137 39.7193 26.4388C39.6705 26.3639 39.6368 26.2749 39.6182 26.1742C39.5996 26.0724 39.6031 25.953 39.631 25.8161C39.6531 25.7049 39.6961 25.6019 39.7612 25.5059C39.8263 25.4099 39.91 25.3292 40.0123 25.2636C40.1147 25.1981 40.2333 25.1536 40.367 25.129C40.5018 25.1044 40.6495 25.1091 40.81 25.1407C40.8995 25.1583 40.9855 25.1828 41.0681 25.2145C41.1506 25.2461 41.2274 25.2823 41.2983 25.3256C41.3692 25.369 41.4343 25.4158 41.4925 25.4684C41.5506 25.5199 41.6018 25.5761 41.6448 25.6347L41.4122 25.9191L41.4146 25.9167Z" fill="white"/>
</svg>
