<svg width="34" height="32" viewBox="0 0 34 32" fill="none" xmlns="http://www.w3.org/2000/svg">
<path d="M18.2709 2.05948L20.8771 8.32544C21.4128 9.61344 22.6241 10.4935 24.0146 10.605L30.7792 11.1473C32.3043 11.2695 32.9227 13.1728 31.7607 14.1681L26.6068 18.583C25.5474 19.4905 25.0847 20.9144 25.4084 22.2713L26.983 28.8724C27.338 30.3606 25.719 31.5369 24.4134 30.7394L18.6219 27.202C17.4314 26.4749 15.9342 26.4749 14.7437 27.202L8.95228 30.7394C7.64661 31.5369 6.02765 30.3606 6.38264 28.8724L7.95725 22.2713C8.28092 20.9144 7.81825 19.4905 6.75883 18.583L1.6049 14.1681C0.442962 13.1728 1.06136 11.2695 2.58641 11.1473L9.35104 10.605C10.7415 10.4935 11.9528 9.61344 12.4885 8.32544L15.0947 2.05948C15.6822 0.64684 17.6834 0.646842 18.2709 2.05948Z" stroke="black" stroke-width="2"/>
</svg>
