<svg width="362" height="212" viewBox="0 0 362 212" fill="none" xmlns="http://www.w3.org/2000/svg">
<g clip-path="url(#clip0_13_439)">
<rect width="362" height="212" fill="white"/>
<rect x="32" y="159.033" width="75" height="75" transform="rotate(-45 32 159.033)" fill="#F2B5D4"/>
<rect x="133" y="170.355" width="50" height="50" transform="rotate(-45 133 170.355)" fill="#F7D6E0"/>
<rect x="85" y="130.033" width="75" height="75" transform="rotate(-45 85 130.033)" fill="#7BDFF2"/>
<rect x="256" y="35.3554" width="50" height="50" transform="rotate(-45 256 35.3554)" fill="#B2F7EF"/>
<rect x="256" y="99.033" width="75" height="75" transform="rotate(-45 256 99.033)" fill="#FFE27C"/>
<rect x="221" y="88.033" width="75" height="75" transform="rotate(-45 221 88.033)" fill="#7BDFF2"/>
<rect y="59.0331" width="75" height="75" transform="rotate(-45 0 59.0331)" fill="#B2F7EF"/>
<rect x="195" y="153.355" width="50" height="50" transform="rotate(-45 195 153.355)" fill="#B2F7EF"/>
<rect x="177" y="77.033" width="75" height="75" transform="rotate(-45 177 77.033)" fill="#F7D6E0"/>
<rect x="63" y="71.0331" width="75" height="75" transform="rotate(-45 63 71.0331)" fill="#FFFCAC"/>
<rect x="124" y="52.3553" width="50" height="50" transform="rotate(-45 124 52.3553)" fill="#7BDFF2"/>
<rect x="45" y="35.3554" width="50" height="50" transform="rotate(-45 45 35.3554)" fill="#FFE27C"/>
<rect x="231" y="141.355" width="50" height="50" transform="rotate(-45 231 141.355)" fill="#FFFCAC"/>
<rect x="151" y="134.355" width="50" height="50" transform="rotate(-45 151 134.355)" fill="#B2F7EF"/>
<rect x="158" y="35.3553" width="50" height="50" transform="rotate(-45 158 35.3553)" fill="#F2B5D4"/>
<rect x="80" y="112.355" width="50" height="50" transform="rotate(-45 80 112.355)" fill="#F7D6E0"/>
<rect x="32" y="159.033" width="75" height="75" transform="rotate(-45 32 159.033)" fill="#F2B5D4"/>
<rect x="133" y="170.355" width="50" height="50" transform="rotate(-45 133 170.355)" fill="#F7D6E0"/>
<rect x="85" y="130.033" width="75" height="75" transform="rotate(-45 85 130.033)" fill="#7BDFF2"/>
<rect x="256" y="35.3554" width="50" height="50" transform="rotate(-45 256 35.3554)" fill="#B2F7EF"/>
<rect x="256" y="99.033" width="75" height="75" transform="rotate(-45 256 99.033)" fill="#FFE27C"/>
<rect x="221" y="88.033" width="75" height="75" transform="rotate(-45 221 88.033)" fill="#7BDFF2"/>
<rect y="59.0331" width="75" height="75" transform="rotate(-45 0 59.0331)" fill="#B2F7EF"/>
<rect x="195" y="153.355" width="50" height="50" transform="rotate(-45 195 153.355)" fill="#B2F7EF"/>
<rect x="177" y="77.033" width="75" height="75" transform="rotate(-45 177 77.033)" fill="#F7D6E0"/>
<rect x="63" y="71.0331" width="75" height="75" transform="rotate(-45 63 71.0331)" fill="#FFFCAC"/>
<rect x="124" y="52.3553" width="50" height="50" transform="rotate(-45 124 52.3553)" fill="#7BDFF2"/>
<rect x="45" y="35.3554" width="50" height="50" transform="rotate(-45 45 35.3554)" fill="#FFE27C"/>
<rect x="231" y="141.355" width="50" height="50" transform="rotate(-45 231 141.355)" fill="#FFFCAC"/>
<rect x="151" y="134.355" width="50" height="50" transform="rotate(-45 151 134.355)" fill="#B2F7EF"/>
<rect x="158" y="35.3553" width="50" height="50" transform="rotate(-45 158 35.3553)" fill="#F2B5D4"/>
<rect x="80" y="112.355" width="50" height="50" transform="rotate(-45 80 112.355)" fill="#F7D6E0"/>
</g>
<defs>
<clipPath id="clip0_13_439">
<rect width="362" height="212" fill="white"/>
</clipPath>
</defs>
</svg>
