<svg width="1366" height="768" viewBox="0 0 1366 768" fill="none" xmlns="http://www.w3.org/2000/svg">
<mask id="mask0_322_104" style="mask-type:alpha" maskUnits="userSpaceOnUse" x="0" y="0" width="1366" height="768">
<rect width="1366" height="768" fill="#D9D9D9"/>
</mask>
<g mask="url(#mask0_322_104)">
<path fill-rule="evenodd" clip-rule="evenodd" d="M1666.56 661.502C1610.5 651.061 1543.7 645 1472 645C1273.73 645 1113 691.339 1113 748.5C1113 773.584 1143.95 796.584 1195.44 814.498C1096.5 796.068 1031 763.989 1031 727.5C1031 670.339 1191.73 624 1390 624C1501.26 624 1600.71 638.593 1666.56 661.502Z" fill="#1E1E1E"/>
<path fill-rule="evenodd" clip-rule="evenodd" d="M1096.04 410.763C1142.51 215.983 1117.94 46.1318 1041.15 31.3891C964.365 16.6464 864.444 162.596 817.97 357.375C771.496 552.155 796.069 722.007 872.855 736.75C949.641 751.492 1049.56 605.543 1096.04 410.763ZM1037.31 376.487C1087.15 241.321 1087.26 116.884 1037.54 98.5505C987.826 80.2165 907.115 174.928 857.27 310.094C807.425 445.26 807.32 569.697 857.037 588.031C906.753 606.365 987.464 511.653 1037.31 376.487Z" fill="#1E1E1E"/>
<path fill-rule="evenodd" clip-rule="evenodd" d="M667.01 822.706C756.45 776.971 749.563 698.351 651.627 647.102C553.69 595.854 401.791 591.384 312.351 637.119C222.911 682.854 229.798 761.474 327.734 812.723C425.671 863.971 577.57 868.441 667.01 822.706ZM661.419 800.462C723.144 769.89 709.295 709.72 630.486 666.071C551.678 622.421 437.753 611.819 376.028 642.392C314.303 672.964 328.153 733.134 406.961 776.783C485.77 820.433 599.695 831.035 661.419 800.462Z" fill="#1E1E1E"/>
<path fill-rule="evenodd" clip-rule="evenodd" d="M674.84 551.996C757.428 470.241 731.471 291.376 616.864 152.489C502.257 13.6031 342.398 -32.7108 259.81 49.0445C177.221 130.8 203.178 309.665 317.785 448.551C432.393 587.438 592.251 633.752 674.84 551.996ZM663.689 500.521C720.921 446.332 692.089 307.398 599.29 190.203C506.491 73.0086 384.867 21.9326 327.635 76.1218C270.403 130.311 299.235 269.245 392.033 386.44C484.832 503.634 606.456 554.711 663.689 500.521Z" fill="#1E1E1E"/>
<path fill-rule="evenodd" clip-rule="evenodd" d="M1419.73 351.167C1417.08 345.756 1414.25 340.347 1411.24 334.957C1361.33 245.492 1281.17 195.111 1232.21 222.428C1183.26 249.744 1184.04 344.414 1233.95 433.879C1283.87 523.344 1364.03 573.725 1412.98 546.408C1427.6 538.253 1437.78 524.096 1443.55 505.866C1408.59 527.402 1342.17 502.341 1289.23 445.892C1232.49 385.383 1212.73 311.723 1245.11 281.367C1277.48 251.011 1349.72 275.455 1406.46 335.964C1411.14 340.953 1415.56 346.031 1419.73 351.167Z" fill="#1E1E1E"/>
<path fill-rule="evenodd" clip-rule="evenodd" d="M1387.6 -36.033C1382.88 -13.047 1363.44 15.5269 1334.05 39.3245C1289.52 75.3759 1239.03 86.8143 1221.26 64.8729C1203.5 42.9315 1225.19 -4.08087 1269.72 -40.1322C1272.68 -42.5313 1275.67 -44.8214 1278.67 -47C1270.74 -43.6699 1262.9 -39.5376 1255.28 -34.5924C1202.71 -0.452091 1181.06 59.5046 1206.92 99.3247C1232.78 139.145 1296.36 143.749 1348.93 109.609C1401.5 75.4684 1423.15 15.5117 1397.29 -24.3084C1394.49 -28.6335 1391.23 -32.5433 1387.6 -36.033Z" fill="#1E1E1E"/>
<path fill-rule="evenodd" clip-rule="evenodd" d="M66.876 789.693C171.144 729.494 229.702 635.716 197.67 580.234C165.637 524.752 55.1438 528.576 -49.124 588.775C-84.1366 608.989 -113.995 632.99 -137 658.056C-128.995 652.828 -120.694 647.723 -112.124 642.775C-7.8562 582.576 96.7224 568.507 121.459 611.352C146.195 654.197 81.7225 737.731 -22.5453 797.93C-51.0976 814.414 -79.6732 827.44 -106.626 836.785C-58.1867 841.068 5.42578 825.171 66.876 789.693Z" fill="#1E1E1E"/>
<path fill-rule="evenodd" clip-rule="evenodd" d="M37.4706 142.296C64.6852 131.735 70.4693 81.2266 50.3898 29.4813C40.4368 3.83228 25.9974 -17.3061 10.6503 -30.8176C55.3601 -41.0583 103.197 -14.5024 121.611 32.9512C141.69 84.6964 119.181 141.695 71.3347 160.262C23.4884 178.829 -31.5764 151.932 -51.6559 100.187C-59.5369 79.8769 -60.8571 58.7579 -56.6596 39.4711C-54.6881 48.685 -51.8652 58.1836 -48.163 67.7242C-28.0834 119.47 10.256 152.856 37.4706 142.296Z" fill="#1E1E1E"/>
<path fill-rule="evenodd" clip-rule="evenodd" d="M729.5 105.315C771.75 105.315 806 47.1122 806 -24.6848C806 -65.0711 795.163 -101.156 778.16 -125C832.767 -111.882 874 -52.257 874 19.3152C874 100.501 820.946 166.315 755.5 166.315C690.054 166.315 637 100.501 637 19.3152C637 -10.0712 643.951 -37.4436 655.925 -60.4099C654.02 -49.0592 653 -37.0744 653 -24.6848C653 47.1122 687.25 105.315 729.5 105.315Z" fill="#1E1E1E"/>
<path fill-rule="evenodd" clip-rule="evenodd" d="M134.131 490.953C201.183 445.936 215.248 349.428 165.546 275.396C115.843 201.364 21.194 177.843 -45.8585 222.86C-88.8966 251.754 -110.105 301.862 -106.633 353.624C-103.194 295.884 -44.2811 248.802 29.1379 246.879C105.796 244.87 169.239 292.853 170.842 354.051C172.446 415.25 111.602 466.489 34.9441 468.497C-24.1257 470.045 -75.3491 441.909 -96.4781 400.916C-91.7249 413.798 -85.3386 426.403 -77.2731 438.417C-27.5704 512.449 67.0784 535.97 134.131 490.953Z" fill="#1E1E1E"/>
</g>
</svg>
