<svg width="72" height="1530" viewBox="0 0 72 1530" fill="none" xmlns="http://www.w3.org/2000/svg">
<g clip-path="url(#clip0_338_817)">
<g filter="url(#filter0_i_338_817)">
<path fill-rule="evenodd" clip-rule="evenodd" d="M45.9934 1422.14C48.4678 1420.72 51.5163 1420.72 53.9912 1422.14L67.9978 1430.22C70.4742 1431.65 72 1434.29 72 1437.15V1453.31C72 1456.17 70.4742 1458.81 67.9978 1460.24L53.9912 1468.32C51.5163 1469.75 48.4678 1469.75 45.9934 1468.32L31.9999 1460.24C29.5248 1458.81 28 1456.17 28 1453.31V1437.15C28 1434.29 29.5248 1431.65 31.9999 1430.22L45.9934 1422.14ZM51.9911 1429.16C50.7543 1428.45 49.2314 1428.45 47.9949 1429.16L37.0793 1435.46C35.841 1436.17 35.0781 1437.49 35.0781 1438.92V1451.54C35.0781 1452.97 35.841 1454.29 37.0793 1455L47.9925 1461.3C49.2299 1462.01 50.754 1462.01 51.9911 1461.3L62.9217 1454.99C64.1594 1454.27 64.9219 1452.95 64.9219 1451.52V1438.92C64.9219 1437.49 64.1584 1436.17 62.9193 1435.46L51.9911 1429.16Z" fill="#93C5FD"/>
<path fill-rule="evenodd" clip-rule="evenodd" d="M45.9934 1506.29C48.4678 1504.86 51.5163 1504.86 53.9912 1506.29L67.9978 1514.37C70.4742 1515.8 72 1518.44 72 1521.3V1537.45C72 1540.31 70.4742 1542.95 67.9978 1544.38L53.9912 1552.46C51.5163 1553.89 48.4678 1553.89 45.9934 1552.46L31.9999 1544.38C29.5248 1542.95 28 1540.31 28 1537.45V1521.3C28 1518.44 29.5248 1515.8 31.9999 1514.37L45.9934 1506.29ZM51.9911 1513.31C50.7543 1512.59 49.2314 1512.59 47.9949 1513.31L37.0793 1519.6C35.841 1520.32 35.0781 1521.64 35.0781 1523.07V1535.68C35.0781 1537.11 35.841 1538.43 37.0793 1539.15L47.9925 1545.44C49.2299 1546.16 50.754 1546.16 51.9911 1545.44L62.9217 1539.13C64.1594 1538.42 64.9219 1537.1 64.9219 1535.67V1523.07C64.9219 1521.64 64.1584 1520.32 62.9193 1519.6L51.9911 1513.31Z" fill="#93C5FD"/>
<path fill-rule="evenodd" clip-rule="evenodd" d="M20.9934 1464.14C23.4678 1462.72 26.5163 1462.72 28.9912 1464.14L42.9978 1472.22C45.4742 1473.65 47 1476.29 47 1479.15V1495.31C47 1498.17 45.4742 1500.81 42.9978 1502.24L28.9912 1510.32C26.5163 1511.75 23.4678 1511.75 20.9934 1510.32L6.99992 1502.24C4.52476 1500.81 3 1498.17 3 1495.31L3 1479.15C3 1476.29 4.52475 1473.65 6.99991 1472.22L20.9934 1464.14ZM26.9911 1471.16C25.7543 1470.45 24.2314 1470.45 22.9949 1471.16L12.0793 1477.46C10.841 1478.17 10.0781 1479.49 10.0781 1480.92V1493.54C10.0781 1494.97 10.841 1496.29 12.0793 1497L22.9925 1503.3C24.2299 1504.01 25.754 1504.01 26.9911 1503.3L37.9217 1496.99C39.1594 1496.27 39.9219 1494.95 39.9219 1493.52V1480.92C39.9219 1479.49 39.1584 1478.17 37.9193 1477.46L26.9911 1471.16Z" fill="#93C5FD"/>
<path fill-rule="evenodd" clip-rule="evenodd" d="M-4.00662 1422.07C-1.53219 1420.64 1.51634 1420.64 3.99124 1422.07L17.9978 1430.15C20.4742 1431.58 22 1434.22 22 1437.08V1453.24C22 1456.09 20.4742 1458.74 17.9978 1460.17L3.99124 1468.25C1.51633 1469.67 -1.5322 1469.67 -4.00663 1468.24L-18.0001 1460.17C-20.4752 1458.74 -22 1456.1 -22 1453.24V1437.08C-22 1434.22 -20.4752 1431.58 -18.0001 1430.15L-4.00662 1422.07ZM1.9911 1429.09C0.754318 1428.38 -0.768621 1428.38 -2.00513 1429.09L-12.9207 1435.39C-14.159 1436.1 -14.9219 1437.42 -14.9219 1438.85V1451.47C-14.9219 1452.9 -14.159 1454.22 -12.9207 1454.93L-2.00749 1461.23C-0.77014 1461.94 0.753962 1461.94 1.99111 1461.23L12.9217 1454.92C14.1594 1454.2 14.9219 1452.88 14.9219 1451.45V1438.85C14.9219 1437.42 14.1584 1436.1 12.9193 1435.39L1.9911 1429.09Z" fill="#93C5FD"/>
<path fill-rule="evenodd" clip-rule="evenodd" d="M-4.00662 1506.22C-1.53219 1504.79 1.51634 1504.79 3.99124 1506.22L17.9978 1514.3C20.4742 1515.72 22 1518.37 22 1521.23V1537.38C22 1540.24 20.4742 1542.88 17.9978 1544.31L3.99124 1552.39C1.51633 1553.82 -1.5322 1553.82 -4.00663 1552.39L-18.0001 1544.31C-20.4752 1542.88 -22 1540.24 -22 1537.38V1521.22C-22 1518.37 -20.4752 1515.73 -18.0001 1514.3L-4.00662 1506.22ZM1.9911 1513.23C0.754318 1512.52 -0.768621 1512.52 -2.00513 1513.23L-12.9207 1519.53C-14.159 1520.25 -14.9219 1521.57 -14.9219 1523V1535.61C-14.9219 1537.04 -14.159 1538.36 -12.9207 1539.08L-2.00749 1545.37C-0.77014 1546.09 0.753962 1546.08 1.99111 1545.37L12.9217 1539.06C14.1594 1538.35 14.9219 1537.03 14.9219 1535.6V1523C14.9219 1521.57 14.1584 1520.25 12.9193 1519.53L1.9911 1513.23Z" fill="#93C5FD"/>
</g>
<g filter="url(#filter1_i_338_817)">
<path fill-rule="evenodd" clip-rule="evenodd" d="M45.9934 1252.14C48.4678 1250.72 51.5163 1250.72 53.9912 1252.14L67.9978 1260.22C70.4742 1261.65 72 1264.29 72 1267.15V1283.31C72 1286.17 70.4742 1288.81 67.9978 1290.24L53.9912 1298.32C51.5163 1299.75 48.4678 1299.75 45.9934 1298.32L31.9999 1290.24C29.5248 1288.81 28 1286.17 28 1283.31V1267.15C28 1264.29 29.5248 1261.65 31.9999 1260.22L45.9934 1252.14ZM51.9911 1259.16C50.7543 1258.45 49.2314 1258.45 47.9949 1259.16L37.0793 1265.46C35.841 1266.17 35.0781 1267.49 35.0781 1268.92V1281.54C35.0781 1282.97 35.841 1284.29 37.0793 1285L47.9925 1291.3C49.2299 1292.01 50.754 1292.01 51.9911 1291.3L62.9217 1284.99C64.1594 1284.27 64.9219 1282.95 64.9219 1281.52V1268.92C64.9219 1267.49 64.1584 1266.17 62.9193 1265.46L51.9911 1259.16Z" fill="#93C5FD"/>
<path fill-rule="evenodd" clip-rule="evenodd" d="M45.9934 1336.29C48.4678 1334.86 51.5163 1334.86 53.9912 1336.29L67.9978 1344.37C70.4742 1345.8 72 1348.44 72 1351.3V1367.45C72 1370.31 70.4742 1372.95 67.9978 1374.38L53.9912 1382.46C51.5163 1383.89 48.4678 1383.89 45.9934 1382.46L31.9999 1374.38C29.5248 1372.95 28 1370.31 28 1367.45V1351.3C28 1348.44 29.5248 1345.8 31.9999 1344.37L45.9934 1336.29ZM51.9911 1343.31C50.7543 1342.59 49.2314 1342.59 47.9949 1343.31L37.0793 1349.6C35.841 1350.32 35.0781 1351.64 35.0781 1353.07V1365.68C35.0781 1367.11 35.841 1368.43 37.0793 1369.15L47.9925 1375.44C49.2299 1376.16 50.754 1376.16 51.9911 1375.44L62.9217 1369.13C64.1594 1368.42 64.9219 1367.1 64.9219 1365.67V1353.07C64.9219 1351.64 64.1584 1350.32 62.9193 1349.6L51.9911 1343.31Z" fill="#93C5FD"/>
<path fill-rule="evenodd" clip-rule="evenodd" d="M20.9934 1294.14C23.4678 1292.72 26.5163 1292.72 28.9912 1294.14L42.9978 1302.22C45.4742 1303.65 47 1306.29 47 1309.15V1325.31C47 1328.17 45.4742 1330.81 42.9978 1332.24L28.9912 1340.32C26.5163 1341.75 23.4678 1341.75 20.9934 1340.32L6.99992 1332.24C4.52476 1330.81 3 1328.17 3 1325.31L3 1309.15C3 1306.29 4.52475 1303.65 6.99991 1302.22L20.9934 1294.14ZM26.9911 1301.16C25.7543 1300.45 24.2314 1300.45 22.9949 1301.16L12.0793 1307.46C10.841 1308.17 10.0781 1309.49 10.0781 1310.92V1323.54C10.0781 1324.97 10.841 1326.29 12.0793 1327L22.9925 1333.3C24.2299 1334.01 25.754 1334.01 26.9911 1333.3L37.9217 1326.99C39.1594 1326.27 39.9219 1324.95 39.9219 1323.52V1310.92C39.9219 1309.49 39.1584 1308.17 37.9193 1307.46L26.9911 1301.16Z" fill="#93C5FD"/>
<path fill-rule="evenodd" clip-rule="evenodd" d="M-4.00662 1252.07C-1.53219 1250.64 1.51634 1250.64 3.99124 1252.07L17.9978 1260.15C20.4742 1261.58 22 1264.22 22 1267.08V1283.24C22 1286.09 20.4742 1288.74 17.9978 1290.17L3.99124 1298.25C1.51633 1299.67 -1.5322 1299.67 -4.00663 1298.24L-18.0001 1290.17C-20.4752 1288.74 -22 1286.1 -22 1283.24V1267.08C-22 1264.22 -20.4752 1261.58 -18.0001 1260.15L-4.00662 1252.07ZM1.9911 1259.09C0.754318 1258.38 -0.768621 1258.38 -2.00513 1259.09L-12.9207 1265.39C-14.159 1266.1 -14.9219 1267.42 -14.9219 1268.85V1281.47C-14.9219 1282.9 -14.159 1284.22 -12.9207 1284.93L-2.00749 1291.23C-0.77014 1291.94 0.753962 1291.94 1.99111 1291.23L12.9217 1284.92C14.1594 1284.2 14.9219 1282.88 14.9219 1281.45V1268.85C14.9219 1267.42 14.1584 1266.1 12.9193 1265.39L1.9911 1259.09Z" fill="#93C5FD"/>
<path fill-rule="evenodd" clip-rule="evenodd" d="M-4.00662 1336.22C-1.53219 1334.79 1.51634 1334.79 3.99124 1336.22L17.9978 1344.3C20.4742 1345.72 22 1348.37 22 1351.23V1367.38C22 1370.24 20.4742 1372.88 17.9978 1374.31L3.99124 1382.39C1.51633 1383.82 -1.5322 1383.82 -4.00663 1382.39L-18.0001 1374.31C-20.4752 1372.88 -22 1370.24 -22 1367.38V1351.22C-22 1348.37 -20.4752 1345.73 -18.0001 1344.3L-4.00662 1336.22ZM1.9911 1343.23C0.754318 1342.52 -0.768621 1342.52 -2.00513 1343.23L-12.9207 1349.53C-14.159 1350.25 -14.9219 1351.57 -14.9219 1353V1365.61C-14.9219 1367.04 -14.159 1368.36 -12.9207 1369.08L-2.00749 1375.37C-0.77014 1376.09 0.753962 1376.08 1.99111 1375.37L12.9217 1369.06C14.1594 1368.35 14.9219 1367.03 14.9219 1365.6V1353C14.9219 1351.57 14.1584 1350.25 12.9193 1349.53L1.9911 1343.23Z" fill="#93C5FD"/>
</g>
<g filter="url(#filter2_i_338_817)">
<path fill-rule="evenodd" clip-rule="evenodd" d="M45.9934 1337.14C48.4678 1335.72 51.5163 1335.72 53.9912 1337.14L67.9978 1345.22C70.4742 1346.65 72 1349.29 72 1352.15V1368.31C72 1371.17 70.4742 1373.81 67.9978 1375.24L53.9912 1383.32C51.5163 1384.75 48.4678 1384.75 45.9934 1383.32L31.9999 1375.24C29.5248 1373.81 28 1371.17 28 1368.31V1352.15C28 1349.29 29.5248 1346.65 31.9999 1345.22L45.9934 1337.14ZM51.9911 1344.16C50.7543 1343.45 49.2314 1343.45 47.9949 1344.16L37.0793 1350.46C35.841 1351.17 35.0781 1352.49 35.0781 1353.92V1366.54C35.0781 1367.97 35.841 1369.29 37.0793 1370L47.9925 1376.3C49.2299 1377.01 50.754 1377.01 51.9911 1376.3L62.9217 1369.99C64.1594 1369.27 64.9219 1367.95 64.9219 1366.52V1353.92C64.9219 1352.49 64.1584 1351.17 62.9193 1350.46L51.9911 1344.16Z" fill="#93C5FD"/>
<path fill-rule="evenodd" clip-rule="evenodd" d="M45.9934 1421.29C48.4678 1419.86 51.5163 1419.86 53.9912 1421.29L67.9978 1429.37C70.4742 1430.8 72 1433.44 72 1436.3V1452.45C72 1455.31 70.4742 1457.95 67.9978 1459.38L53.9912 1467.46C51.5163 1468.89 48.4678 1468.89 45.9934 1467.46L31.9999 1459.38C29.5248 1457.95 28 1455.31 28 1452.45V1436.3C28 1433.44 29.5248 1430.8 31.9999 1429.37L45.9934 1421.29ZM51.9911 1428.31C50.7543 1427.59 49.2314 1427.59 47.9949 1428.31L37.0793 1434.6C35.841 1435.32 35.0781 1436.64 35.0781 1438.07V1450.68C35.0781 1452.11 35.841 1453.43 37.0793 1454.15L47.9925 1460.44C49.2299 1461.16 50.754 1461.16 51.9911 1460.44L62.9217 1454.13C64.1594 1453.42 64.9219 1452.1 64.9219 1450.67V1438.07C64.9219 1436.64 64.1584 1435.32 62.9193 1434.6L51.9911 1428.31Z" fill="#93C5FD"/>
<path fill-rule="evenodd" clip-rule="evenodd" d="M20.9934 1379.14C23.4678 1377.72 26.5163 1377.72 28.9912 1379.14L42.9978 1387.22C45.4742 1388.65 47 1391.29 47 1394.15V1410.31C47 1413.17 45.4742 1415.81 42.9978 1417.24L28.9912 1425.32C26.5163 1426.75 23.4678 1426.75 20.9934 1425.32L6.99992 1417.24C4.52476 1415.81 3 1413.17 3 1410.31L3 1394.15C3 1391.29 4.52475 1388.65 6.99991 1387.22L20.9934 1379.14ZM26.9911 1386.16C25.7543 1385.45 24.2314 1385.45 22.9949 1386.16L12.0793 1392.46C10.841 1393.17 10.0781 1394.49 10.0781 1395.92V1408.54C10.0781 1409.97 10.841 1411.29 12.0793 1412L22.9925 1418.3C24.2299 1419.01 25.754 1419.01 26.9911 1418.3L37.9217 1411.99C39.1594 1411.27 39.9219 1409.95 39.9219 1408.52V1395.92C39.9219 1394.49 39.1584 1393.17 37.9193 1392.46L26.9911 1386.16Z" fill="#93C5FD"/>
<path fill-rule="evenodd" clip-rule="evenodd" d="M-4.00662 1337.07C-1.53219 1335.64 1.51634 1335.64 3.99124 1337.07L17.9978 1345.15C20.4742 1346.58 22 1349.22 22 1352.08V1368.24C22 1371.09 20.4742 1373.74 17.9978 1375.17L3.99124 1383.25C1.51633 1384.67 -1.5322 1384.67 -4.00663 1383.24L-18.0001 1375.17C-20.4752 1373.74 -22 1371.1 -22 1368.24V1352.08C-22 1349.22 -20.4752 1346.58 -18.0001 1345.15L-4.00662 1337.07ZM1.9911 1344.09C0.754318 1343.38 -0.768621 1343.38 -2.00513 1344.09L-12.9207 1350.39C-14.159 1351.1 -14.9219 1352.42 -14.9219 1353.85V1366.47C-14.9219 1367.9 -14.159 1369.22 -12.9207 1369.93L-2.00749 1376.23C-0.77014 1376.94 0.753962 1376.94 1.99111 1376.23L12.9217 1369.92C14.1594 1369.2 14.9219 1367.88 14.9219 1366.45V1353.85C14.9219 1352.42 14.1584 1351.1 12.9193 1350.39L1.9911 1344.09Z" fill="#93C5FD"/>
<path fill-rule="evenodd" clip-rule="evenodd" d="M-4.00662 1421.22C-1.53219 1419.79 1.51634 1419.79 3.99124 1421.22L17.9978 1429.3C20.4742 1430.72 22 1433.37 22 1436.23V1452.38C22 1455.24 20.4742 1457.88 17.9978 1459.31L3.99124 1467.39C1.51633 1468.82 -1.5322 1468.82 -4.00663 1467.39L-18.0001 1459.31C-20.4752 1457.88 -22 1455.24 -22 1452.38V1436.22C-22 1433.37 -20.4752 1430.73 -18.0001 1429.3L-4.00662 1421.22ZM1.9911 1428.23C0.754318 1427.52 -0.768621 1427.52 -2.00513 1428.23L-12.9207 1434.53C-14.159 1435.25 -14.9219 1436.57 -14.9219 1438V1450.61C-14.9219 1452.04 -14.159 1453.36 -12.9207 1454.08L-2.00749 1460.37C-0.77014 1461.09 0.753962 1461.08 1.99111 1460.37L12.9217 1454.06C14.1594 1453.35 14.9219 1452.03 14.9219 1450.6V1438C14.9219 1436.57 14.1584 1435.25 12.9193 1434.53L1.9911 1428.23Z" fill="#93C5FD"/>
</g>
<g filter="url(#filter3_i_338_817)">
<path fill-rule="evenodd" clip-rule="evenodd" d="M45.9934 1167.14C48.4678 1165.72 51.5163 1165.72 53.9912 1167.14L67.9978 1175.22C70.4742 1176.65 72 1179.29 72 1182.15V1198.31C72 1201.17 70.4742 1203.81 67.9978 1205.24L53.9912 1213.32C51.5163 1214.75 48.4678 1214.75 45.9934 1213.32L31.9999 1205.24C29.5248 1203.81 28 1201.17 28 1198.31V1182.15C28 1179.29 29.5248 1176.65 31.9999 1175.22L45.9934 1167.14ZM51.9911 1174.16C50.7543 1173.45 49.2314 1173.45 47.9949 1174.16L37.0793 1180.46C35.841 1181.17 35.0781 1182.49 35.0781 1183.92V1196.54C35.0781 1197.97 35.841 1199.29 37.0793 1200L47.9925 1206.3C49.2299 1207.01 50.754 1207.01 51.9911 1206.3L62.9217 1199.99C64.1594 1199.27 64.9219 1197.95 64.9219 1196.52V1183.92C64.9219 1182.49 64.1584 1181.17 62.9193 1180.46L51.9911 1174.16Z" fill="#93C5FD"/>
<path fill-rule="evenodd" clip-rule="evenodd" d="M45.9934 1251.29C48.4678 1249.86 51.5163 1249.86 53.9912 1251.29L67.9978 1259.37C70.4742 1260.8 72 1263.44 72 1266.3V1282.45C72 1285.31 70.4742 1287.95 67.9978 1289.38L53.9912 1297.46C51.5163 1298.89 48.4678 1298.89 45.9934 1297.46L31.9999 1289.38C29.5248 1287.95 28 1285.31 28 1282.45V1266.3C28 1263.44 29.5248 1260.8 31.9999 1259.37L45.9934 1251.29ZM51.9911 1258.31C50.7543 1257.59 49.2314 1257.59 47.9949 1258.31L37.0793 1264.6C35.841 1265.32 35.0781 1266.64 35.0781 1268.07V1280.68C35.0781 1282.11 35.841 1283.43 37.0793 1284.15L47.9925 1290.44C49.2299 1291.16 50.754 1291.16 51.9911 1290.44L62.9217 1284.13C64.1594 1283.42 64.9219 1282.1 64.9219 1280.67V1268.07C64.9219 1266.64 64.1584 1265.32 62.9193 1264.6L51.9911 1258.31Z" fill="#93C5FD"/>
<path fill-rule="evenodd" clip-rule="evenodd" d="M20.9934 1209.14C23.4678 1207.72 26.5163 1207.72 28.9912 1209.14L42.9978 1217.22C45.4742 1218.65 47 1221.29 47 1224.15V1240.31C47 1243.17 45.4742 1245.81 42.9978 1247.24L28.9912 1255.32C26.5163 1256.75 23.4678 1256.75 20.9934 1255.32L6.99992 1247.24C4.52476 1245.81 3 1243.17 3 1240.31L3 1224.15C3 1221.29 4.52475 1218.65 6.99991 1217.22L20.9934 1209.14ZM26.9911 1216.16C25.7543 1215.45 24.2314 1215.45 22.9949 1216.16L12.0793 1222.46C10.841 1223.17 10.0781 1224.49 10.0781 1225.92V1238.54C10.0781 1239.97 10.841 1241.29 12.0793 1242L22.9925 1248.3C24.2299 1249.01 25.754 1249.01 26.9911 1248.3L37.9217 1241.99C39.1594 1241.27 39.9219 1239.95 39.9219 1238.52V1225.92C39.9219 1224.49 39.1584 1223.17 37.9193 1222.46L26.9911 1216.16Z" fill="#93C5FD"/>
<path fill-rule="evenodd" clip-rule="evenodd" d="M-4.00662 1167.07C-1.53219 1165.64 1.51634 1165.64 3.99124 1167.07L17.9978 1175.15C20.4742 1176.58 22 1179.22 22 1182.08V1198.24C22 1201.09 20.4742 1203.74 17.9978 1205.17L3.99124 1213.25C1.51633 1214.67 -1.5322 1214.67 -4.00663 1213.24L-18.0001 1205.17C-20.4752 1203.74 -22 1201.1 -22 1198.24V1182.08C-22 1179.22 -20.4752 1176.58 -18.0001 1175.15L-4.00662 1167.07ZM1.9911 1174.09C0.754318 1173.38 -0.768621 1173.38 -2.00513 1174.09L-12.9207 1180.39C-14.159 1181.1 -14.9219 1182.42 -14.9219 1183.85V1196.47C-14.9219 1197.9 -14.159 1199.22 -12.9207 1199.93L-2.00749 1206.23C-0.77014 1206.94 0.753962 1206.94 1.99111 1206.23L12.9217 1199.92C14.1594 1199.2 14.9219 1197.88 14.9219 1196.45V1183.85C14.9219 1182.42 14.1584 1181.1 12.9193 1180.39L1.9911 1174.09Z" fill="#93C5FD"/>
<path fill-rule="evenodd" clip-rule="evenodd" d="M-4.00662 1251.22C-1.53219 1249.79 1.51634 1249.79 3.99124 1251.22L17.9978 1259.3C20.4742 1260.72 22 1263.37 22 1266.23V1282.38C22 1285.24 20.4742 1287.88 17.9978 1289.31L3.99124 1297.39C1.51633 1298.82 -1.5322 1298.82 -4.00663 1297.39L-18.0001 1289.31C-20.4752 1287.88 -22 1285.24 -22 1282.38V1266.22C-22 1263.37 -20.4752 1260.73 -18.0001 1259.3L-4.00662 1251.22ZM1.9911 1258.23C0.754318 1257.52 -0.768621 1257.52 -2.00513 1258.23L-12.9207 1264.53C-14.159 1265.25 -14.9219 1266.57 -14.9219 1268V1280.61C-14.9219 1282.04 -14.159 1283.36 -12.9207 1284.08L-2.00749 1290.37C-0.77014 1291.09 0.753962 1291.08 1.99111 1290.37L12.9217 1284.06C14.1594 1283.35 14.9219 1282.03 14.9219 1280.6V1268C14.9219 1266.57 14.1584 1265.25 12.9193 1264.53L1.9911 1258.23Z" fill="#93C5FD"/>
</g>
<g filter="url(#filter4_i_338_817)">
<path fill-rule="evenodd" clip-rule="evenodd" d="M45.9934 1082.14C48.4678 1080.72 51.5163 1080.72 53.9912 1082.14L67.9978 1090.22C70.4742 1091.65 72 1094.29 72 1097.15V1113.31C72 1116.17 70.4742 1118.81 67.9978 1120.24L53.9912 1128.32C51.5163 1129.75 48.4678 1129.75 45.9934 1128.32L31.9999 1120.24C29.5248 1118.81 28 1116.17 28 1113.31V1097.15C28 1094.29 29.5248 1091.65 31.9999 1090.22L45.9934 1082.14ZM51.9911 1089.16C50.7543 1088.45 49.2314 1088.45 47.9949 1089.16L37.0793 1095.46C35.841 1096.17 35.0781 1097.49 35.0781 1098.92V1111.54C35.0781 1112.97 35.841 1114.29 37.0793 1115L47.9925 1121.3C49.2299 1122.01 50.754 1122.01 51.9911 1121.3L62.9217 1114.99C64.1594 1114.27 64.9219 1112.95 64.9219 1111.52V1098.92C64.9219 1097.49 64.1584 1096.17 62.9193 1095.46L51.9911 1089.16Z" fill="#93C5FD"/>
<path fill-rule="evenodd" clip-rule="evenodd" d="M45.9934 1166.29C48.4678 1164.86 51.5163 1164.86 53.9912 1166.29L67.9978 1174.37C70.4742 1175.8 72 1178.44 72 1181.3V1197.45C72 1200.31 70.4742 1202.95 67.9978 1204.38L53.9912 1212.46C51.5163 1213.89 48.4678 1213.89 45.9934 1212.46L31.9999 1204.38C29.5248 1202.95 28 1200.31 28 1197.45V1181.3C28 1178.44 29.5248 1175.8 31.9999 1174.37L45.9934 1166.29ZM51.9911 1173.31C50.7543 1172.59 49.2314 1172.59 47.9949 1173.31L37.0793 1179.6C35.841 1180.32 35.0781 1181.64 35.0781 1183.07V1195.68C35.0781 1197.11 35.841 1198.43 37.0793 1199.15L47.9925 1205.44C49.2299 1206.16 50.754 1206.16 51.9911 1205.44L62.9217 1199.13C64.1594 1198.42 64.9219 1197.1 64.9219 1195.67V1183.07C64.9219 1181.64 64.1584 1180.32 62.9193 1179.6L51.9911 1173.31Z" fill="#93C5FD"/>
<path fill-rule="evenodd" clip-rule="evenodd" d="M20.9934 1124.14C23.4678 1122.72 26.5163 1122.72 28.9912 1124.14L42.9978 1132.22C45.4742 1133.65 47 1136.29 47 1139.15V1155.31C47 1158.17 45.4742 1160.81 42.9978 1162.24L28.9912 1170.32C26.5163 1171.75 23.4678 1171.75 20.9934 1170.32L6.99992 1162.24C4.52476 1160.81 3 1158.17 3 1155.31L3 1139.15C3 1136.29 4.52475 1133.65 6.99991 1132.22L20.9934 1124.14ZM26.9911 1131.16C25.7543 1130.45 24.2314 1130.45 22.9949 1131.16L12.0793 1137.46C10.841 1138.17 10.0781 1139.49 10.0781 1140.92V1153.54C10.0781 1154.97 10.841 1156.29 12.0793 1157L22.9925 1163.3C24.2299 1164.01 25.754 1164.01 26.9911 1163.3L37.9217 1156.99C39.1594 1156.27 39.9219 1154.95 39.9219 1153.52V1140.92C39.9219 1139.49 39.1584 1138.17 37.9193 1137.46L26.9911 1131.16Z" fill="#93C5FD"/>
<path fill-rule="evenodd" clip-rule="evenodd" d="M-4.00662 1082.07C-1.53219 1080.64 1.51634 1080.64 3.99124 1082.07L17.9978 1090.15C20.4742 1091.58 22 1094.22 22 1097.08V1113.24C22 1116.09 20.4742 1118.74 17.9978 1120.17L3.99124 1128.25C1.51633 1129.67 -1.5322 1129.67 -4.00663 1128.24L-18.0001 1120.17C-20.4752 1118.74 -22 1116.1 -22 1113.24V1097.08C-22 1094.22 -20.4752 1091.58 -18.0001 1090.15L-4.00662 1082.07ZM1.9911 1089.09C0.754318 1088.38 -0.768621 1088.38 -2.00513 1089.09L-12.9207 1095.39C-14.159 1096.1 -14.9219 1097.42 -14.9219 1098.85V1111.47C-14.9219 1112.9 -14.159 1114.22 -12.9207 1114.93L-2.00749 1121.23C-0.77014 1121.94 0.753962 1121.94 1.99111 1121.23L12.9217 1114.92C14.1594 1114.2 14.9219 1112.88 14.9219 1111.45V1098.85C14.9219 1097.42 14.1584 1096.1 12.9193 1095.39L1.9911 1089.09Z" fill="#93C5FD"/>
<path fill-rule="evenodd" clip-rule="evenodd" d="M-4.00662 1166.22C-1.53219 1164.79 1.51634 1164.79 3.99124 1166.22L17.9978 1174.3C20.4742 1175.72 22 1178.37 22 1181.23V1197.38C22 1200.24 20.4742 1202.88 17.9978 1204.31L3.99124 1212.39C1.51633 1213.82 -1.5322 1213.82 -4.00663 1212.39L-18.0001 1204.31C-20.4752 1202.88 -22 1200.24 -22 1197.38V1181.22C-22 1178.37 -20.4752 1175.73 -18.0001 1174.3L-4.00662 1166.22ZM1.9911 1173.23C0.754318 1172.52 -0.768621 1172.52 -2.00513 1173.23L-12.9207 1179.53C-14.159 1180.25 -14.9219 1181.57 -14.9219 1183V1195.61C-14.9219 1197.04 -14.159 1198.36 -12.9207 1199.08L-2.00749 1205.37C-0.77014 1206.09 0.753962 1206.08 1.99111 1205.37L12.9217 1199.06C14.1594 1198.35 14.9219 1197.03 14.9219 1195.6V1183C14.9219 1181.57 14.1584 1180.25 12.9193 1179.53L1.9911 1173.23Z" fill="#93C5FD"/>
</g>
<g filter="url(#filter5_i_338_817)">
<path fill-rule="evenodd" clip-rule="evenodd" d="M45.9934 997.144C48.4678 995.716 51.5163 995.715 53.9912 997.143L67.9978 1005.22C70.4742 1006.65 72 1009.29 72 1012.15V1028.31C72 1031.17 70.4742 1033.81 67.9978 1035.24L53.9912 1043.32C51.5163 1044.75 48.4678 1044.75 45.9934 1043.32L31.9999 1035.24C29.5248 1033.81 28 1031.17 28 1028.31V1012.15C28 1009.29 29.5248 1006.65 31.9999 1005.22L45.9934 997.144ZM51.9911 1004.16C50.7543 1003.45 49.2314 1003.45 47.9949 1004.16L37.0793 1010.46C35.841 1011.17 35.0781 1012.49 35.0781 1013.92V1026.54C35.0781 1027.97 35.841 1029.29 37.0793 1030L47.9925 1036.3C49.2299 1037.01 50.754 1037.01 51.9911 1036.3L62.9217 1029.99C64.1594 1029.27 64.9219 1027.95 64.9219 1026.52V1013.92C64.9219 1012.49 64.1584 1011.17 62.9193 1010.46L51.9911 1004.16Z" fill="#93C5FD"/>
<path fill-rule="evenodd" clip-rule="evenodd" d="M45.9934 1081.29C48.4678 1079.86 51.5163 1079.86 53.9912 1081.29L67.9978 1089.37C70.4742 1090.8 72 1093.44 72 1096.3V1112.45C72 1115.31 70.4742 1117.95 67.9978 1119.38L53.9912 1127.46C51.5163 1128.89 48.4678 1128.89 45.9934 1127.46L31.9999 1119.38C29.5248 1117.95 28 1115.31 28 1112.45V1096.3C28 1093.44 29.5248 1090.8 31.9999 1089.37L45.9934 1081.29ZM51.9911 1088.31C50.7543 1087.59 49.2314 1087.59 47.9949 1088.31L37.0793 1094.6C35.841 1095.32 35.0781 1096.64 35.0781 1098.07V1110.68C35.0781 1112.11 35.841 1113.43 37.0793 1114.15L47.9925 1120.44C49.2299 1121.16 50.754 1121.16 51.9911 1120.44L62.9217 1114.13C64.1594 1113.42 64.9219 1112.1 64.9219 1110.67V1098.07C64.9219 1096.64 64.1584 1095.32 62.9193 1094.6L51.9911 1088.31Z" fill="#93C5FD"/>
<path fill-rule="evenodd" clip-rule="evenodd" d="M20.9934 1039.14C23.4678 1037.72 26.5163 1037.72 28.9912 1039.14L42.9978 1047.22C45.4742 1048.65 47 1051.29 47 1054.15V1070.31C47 1073.17 45.4742 1075.81 42.9978 1077.24L28.9912 1085.32C26.5163 1086.75 23.4678 1086.75 20.9934 1085.32L6.99992 1077.24C4.52476 1075.81 3 1073.17 3 1070.31L3 1054.15C3 1051.29 4.52475 1048.65 6.99991 1047.22L20.9934 1039.14ZM26.9911 1046.16C25.7543 1045.45 24.2314 1045.45 22.9949 1046.16L12.0793 1052.46C10.841 1053.17 10.0781 1054.49 10.0781 1055.92V1068.54C10.0781 1069.97 10.841 1071.29 12.0793 1072L22.9925 1078.3C24.2299 1079.01 25.754 1079.01 26.9911 1078.3L37.9217 1071.99C39.1594 1071.27 39.9219 1069.95 39.9219 1068.52V1055.92C39.9219 1054.49 39.1584 1053.17 37.9193 1052.46L26.9911 1046.16Z" fill="#93C5FD"/>
<path fill-rule="evenodd" clip-rule="evenodd" d="M-4.00662 997.072C-1.53219 995.643 1.51634 995.643 3.99124 997.071L17.9978 1005.15C20.4742 1006.58 22 1009.22 22 1012.08V1028.24C22 1031.09 20.4742 1033.74 17.9978 1035.17L3.99124 1043.25C1.51633 1044.67 -1.5322 1044.67 -4.00663 1043.24L-18.0001 1035.17C-20.4752 1033.74 -22 1031.1 -22 1028.24V1012.08C-22 1009.22 -20.4752 1006.58 -18.0001 1005.15L-4.00662 997.072ZM1.9911 1004.09C0.754318 1003.38 -0.768621 1003.38 -2.00513 1004.09L-12.9207 1010.39C-14.159 1011.1 -14.9219 1012.42 -14.9219 1013.85V1026.47C-14.9219 1027.9 -14.159 1029.22 -12.9207 1029.93L-2.00749 1036.23C-0.77014 1036.94 0.753962 1036.94 1.99111 1036.23L12.9217 1029.92C14.1594 1029.2 14.9219 1027.88 14.9219 1026.45V1013.85C14.9219 1012.42 14.1584 1011.1 12.9193 1010.39L1.9911 1004.09Z" fill="#93C5FD"/>
<path fill-rule="evenodd" clip-rule="evenodd" d="M-4.00662 1081.22C-1.53219 1079.79 1.51634 1079.79 3.99124 1081.22L17.9978 1089.3C20.4742 1090.72 22 1093.37 22 1096.23V1112.38C22 1115.24 20.4742 1117.88 17.9978 1119.31L3.99124 1127.39C1.51633 1128.82 -1.5322 1128.82 -4.00663 1127.39L-18.0001 1119.31C-20.4752 1117.88 -22 1115.24 -22 1112.38V1096.22C-22 1093.37 -20.4752 1090.73 -18.0001 1089.3L-4.00662 1081.22ZM1.9911 1088.23C0.754318 1087.52 -0.768621 1087.52 -2.00513 1088.23L-12.9207 1094.53C-14.159 1095.25 -14.9219 1096.57 -14.9219 1098V1110.61C-14.9219 1112.04 -14.159 1113.36 -12.9207 1114.08L-2.00749 1120.37C-0.77014 1121.09 0.753962 1121.08 1.99111 1120.37L12.9217 1114.06C14.1594 1113.35 14.9219 1112.03 14.9219 1110.6V1098C14.9219 1096.57 14.1584 1095.25 12.9193 1094.53L1.9911 1088.23Z" fill="#93C5FD"/>
</g>
<g filter="url(#filter6_i_338_817)">
<path fill-rule="evenodd" clip-rule="evenodd" d="M45.9934 912.144C48.4678 910.716 51.5163 910.715 53.9912 912.143L67.9978 920.224C70.4742 921.652 72 924.294 72 927.153V943.308C72 946.167 70.4742 948.809 67.9978 950.238L53.9912 958.318C51.5163 959.746 48.4678 959.746 45.9934 958.317L31.9999 950.238C29.5248 948.809 28 946.168 28 943.31V927.152C28 924.294 29.5248 921.653 31.9999 920.224L45.9934 912.144ZM51.9911 919.161C50.7543 918.448 49.2314 918.448 47.9949 919.161L37.0793 925.458C35.841 926.173 35.0781 927.494 35.0781 928.923V941.538C35.0781 942.968 35.841 944.289 37.0793 945.003L47.9925 951.299C49.2299 952.013 50.754 952.012 51.9911 951.298L62.9217 944.988C64.1594 944.274 64.9219 942.953 64.9219 941.524V928.925C64.9219 927.495 64.1584 926.173 62.9193 925.459L51.9911 919.161Z" fill="#93C5FD"/>
<path fill-rule="evenodd" clip-rule="evenodd" d="M45.9934 996.289C48.4678 994.861 51.5163 994.86 53.9912 996.288L67.9978 1004.37C70.4742 1005.8 72 1008.44 72 1011.3V1027.45C72 1030.31 70.4742 1032.95 67.9978 1034.38L53.9912 1042.46C51.5163 1043.89 48.4678 1043.89 45.9934 1042.46L31.9999 1034.38C29.5248 1032.95 28 1030.31 28 1027.45V1011.3C28 1008.44 29.5248 1005.8 31.9999 1004.37L45.9934 996.289ZM51.9911 1003.31C50.7543 1002.59 49.2314 1002.59 47.9949 1003.31L37.0793 1009.6C35.841 1010.32 35.0781 1011.64 35.0781 1013.07V1025.68C35.0781 1027.11 35.841 1028.43 37.0793 1029.15L47.9925 1035.44C49.2299 1036.16 50.754 1036.16 51.9911 1035.44L62.9217 1029.13C64.1594 1028.42 64.9219 1027.1 64.9219 1025.67V1013.07C64.9219 1011.64 64.1584 1010.32 62.9193 1009.6L51.9911 1003.31Z" fill="#93C5FD"/>
<path fill-rule="evenodd" clip-rule="evenodd" d="M20.9934 954.144C23.4678 952.716 26.5163 952.715 28.9912 954.143L42.9978 962.224C45.4742 963.652 47 966.294 47 969.153V985.308C47 988.167 45.4742 990.809 42.9978 992.238L28.9912 1000.32C26.5163 1001.75 23.4678 1001.75 20.9934 1000.32L6.99992 992.238C4.52476 990.809 3 988.168 3 985.31L3 969.152C3 966.294 4.52475 963.653 6.99991 962.224L20.9934 954.144ZM26.9911 961.161C25.7543 960.448 24.2314 960.448 22.9949 961.161L12.0793 967.458C10.841 968.173 10.0781 969.494 10.0781 970.923V983.538C10.0781 984.968 10.841 986.289 12.0793 987.003L22.9925 993.299C24.2299 994.013 25.754 994.012 26.9911 993.298L37.9217 986.988C39.1594 986.274 39.9219 984.953 39.9219 983.524V970.925C39.9219 969.495 39.1584 968.173 37.9193 967.459L26.9911 961.161Z" fill="#93C5FD"/>
<path fill-rule="evenodd" clip-rule="evenodd" d="M-4.00662 912.072C-1.53219 910.643 1.51634 910.643 3.99124 912.071L17.9978 920.151C20.4742 921.58 22 924.222 22 927.081V943.236C22 946.095 20.4742 948.736 17.9978 950.165L3.99124 958.246C1.51633 959.674 -1.5322 959.673 -4.00663 958.245L-18.0001 950.165C-20.4752 948.736 -22 946.095 -22 943.237V927.079C-22 924.221 -20.4752 921.58 -18.0001 920.151L-4.00662 912.072ZM1.9911 919.088C0.754318 918.375 -0.768621 918.376 -2.00513 919.089L-12.9207 925.386C-14.159 926.1 -14.9219 927.421 -14.9219 928.851V941.466C-14.9219 942.895 -14.159 944.216 -12.9207 944.931L-2.00749 951.226C-0.77014 951.94 0.753962 951.94 1.99111 951.226L12.9217 944.916C14.1594 944.201 14.9219 942.881 14.9219 941.451V928.852C14.9219 927.422 14.1584 926.101 12.9193 925.387L1.9911 919.088Z" fill="#93C5FD"/>
<path fill-rule="evenodd" clip-rule="evenodd" d="M-4.00662 996.217C-1.53219 994.788 1.51634 994.788 3.99124 996.216L17.9978 1004.3C20.4742 1005.72 22 1008.37 22 1011.23V1027.38C22 1030.24 20.4742 1032.88 17.9978 1034.31L3.99124 1042.39C1.51633 1043.82 -1.5322 1043.82 -4.00663 1042.39L-18.0001 1034.31C-20.4752 1032.88 -22 1030.24 -22 1027.38V1011.22C-22 1008.37 -20.4752 1005.73 -18.0001 1004.3L-4.00662 996.217ZM1.9911 1003.23C0.754318 1002.52 -0.768621 1002.52 -2.00513 1003.23L-12.9207 1009.53C-14.159 1010.25 -14.9219 1011.57 -14.9219 1013V1025.61C-14.9219 1027.04 -14.159 1028.36 -12.9207 1029.08L-2.00749 1035.37C-0.77014 1036.09 0.753962 1036.08 1.99111 1035.37L12.9217 1029.06C14.1594 1028.35 14.9219 1027.03 14.9219 1025.6V1013C14.9219 1011.57 14.1584 1010.25 12.9193 1009.53L1.9911 1003.23Z" fill="#93C5FD"/>
</g>
<g filter="url(#filter7_i_338_817)">
<path fill-rule="evenodd" clip-rule="evenodd" d="M45.9934 827.144C48.4678 825.716 51.5163 825.715 53.9912 827.143L67.9978 835.224C70.4742 836.652 72 839.294 72 842.153V858.308C72 861.167 70.4742 863.809 67.9978 865.238L53.9912 873.318C51.5163 874.746 48.4678 874.746 45.9934 873.317L31.9999 865.238C29.5248 863.809 28 861.168 28 858.31V842.152C28 839.294 29.5248 836.653 31.9999 835.224L45.9934 827.144ZM51.9911 834.161C50.7543 833.448 49.2314 833.448 47.9949 834.161L37.0793 840.458C35.841 841.173 35.0781 842.494 35.0781 843.923V856.538C35.0781 857.968 35.841 859.289 37.0793 860.003L47.9925 866.299C49.2299 867.013 50.754 867.012 51.9911 866.298L62.9217 859.988C64.1594 859.274 64.9219 857.953 64.9219 856.524V843.925C64.9219 842.495 64.1584 841.173 62.9193 840.459L51.9911 834.161Z" fill="#93C5FD"/>
<path fill-rule="evenodd" clip-rule="evenodd" d="M45.9934 911.289C48.4678 909.861 51.5163 909.86 53.9912 911.288L67.9978 919.369C70.4742 920.797 72 923.439 72 926.298V942.453C72 945.312 70.4742 947.954 67.9978 949.383L53.9912 957.463C51.5163 958.891 48.4678 958.891 45.9934 957.462L31.9999 949.383C29.5248 947.954 28 945.313 28 942.455V926.297C28 923.439 29.5248 920.798 31.9999 919.369L45.9934 911.289ZM51.9911 918.306C50.7543 917.593 49.2314 917.593 47.9949 918.306L37.0793 924.603C35.841 925.318 35.0781 926.639 35.0781 928.068V940.683C35.0781 942.113 35.841 943.434 37.0793 944.148L47.9925 950.444C49.2299 951.158 50.754 951.157 51.9911 950.443L62.9217 944.133C64.1594 943.419 64.9219 942.098 64.9219 940.669V928.07C64.9219 926.64 64.1584 925.318 62.9193 924.604L51.9911 918.306Z" fill="#93C5FD"/>
<path fill-rule="evenodd" clip-rule="evenodd" d="M20.9934 869.144C23.4678 867.716 26.5163 867.715 28.9912 869.143L42.9978 877.224C45.4742 878.652 47 881.294 47 884.153V900.308C47 903.167 45.4742 905.809 42.9978 907.238L28.9912 915.318C26.5163 916.746 23.4678 916.746 20.9934 915.317L6.99992 907.238C4.52476 905.809 3 903.168 3 900.31L3 884.152C3 881.294 4.52475 878.653 6.99991 877.224L20.9934 869.144ZM26.9911 876.161C25.7543 875.448 24.2314 875.448 22.9949 876.161L12.0793 882.458C10.841 883.173 10.0781 884.494 10.0781 885.923V898.538C10.0781 899.968 10.841 901.289 12.0793 902.003L22.9925 908.299C24.2299 909.013 25.754 909.012 26.9911 908.298L37.9217 901.988C39.1594 901.274 39.9219 899.953 39.9219 898.524V885.925C39.9219 884.495 39.1584 883.173 37.9193 882.459L26.9911 876.161Z" fill="#93C5FD"/>
<path fill-rule="evenodd" clip-rule="evenodd" d="M-4.00662 827.072C-1.53219 825.643 1.51634 825.643 3.99124 827.071L17.9978 835.151C20.4742 836.58 22 839.222 22 842.081V858.236C22 861.095 20.4742 863.736 17.9978 865.165L3.99124 873.246C1.51633 874.674 -1.5322 874.673 -4.00663 873.245L-18.0001 865.165C-20.4752 863.736 -22 861.095 -22 858.237V842.079C-22 839.221 -20.4752 836.58 -18.0001 835.151L-4.00662 827.072ZM1.9911 834.088C0.754318 833.375 -0.768621 833.376 -2.00513 834.089L-12.9207 840.386C-14.159 841.1 -14.9219 842.421 -14.9219 843.851V856.466C-14.9219 857.895 -14.159 859.216 -12.9207 859.931L-2.00749 866.226C-0.77014 866.94 0.753962 866.94 1.99111 866.226L12.9217 859.916C14.1594 859.201 14.9219 857.881 14.9219 856.451V843.852C14.9219 842.422 14.1584 841.101 12.9193 840.387L1.9911 834.088Z" fill="#93C5FD"/>
<path fill-rule="evenodd" clip-rule="evenodd" d="M-4.00662 911.217C-1.53219 909.788 1.51634 909.788 3.99124 911.216L17.9978 919.296C20.4742 920.725 22 923.367 22 926.226V942.381C22 945.24 20.4742 947.882 17.9978 949.31L3.99124 957.391C1.51633 958.819 -1.5322 958.818 -4.00663 957.39L-18.0001 949.31C-20.4752 947.881 -22 945.24 -22 942.382V926.224C-22 923.366 -20.4752 920.725 -18.0001 919.296L-4.00662 911.217ZM1.9911 918.233C0.754318 917.52 -0.768621 917.521 -2.00513 918.234L-12.9207 924.531C-14.159 925.245 -14.9219 926.566 -14.9219 927.996V940.611C-14.9219 942.04 -14.159 943.361 -12.9207 944.076L-2.00749 950.371C-0.77014 951.085 0.753962 951.085 1.99111 950.371L12.9217 944.061C14.1594 943.346 14.9219 942.026 14.9219 940.597V927.997C14.9219 926.567 14.1584 925.246 12.9193 924.532L1.9911 918.233Z" fill="#93C5FD"/>
</g>
<g filter="url(#filter8_i_338_817)">
<path fill-rule="evenodd" clip-rule="evenodd" d="M45.9934 742.144C48.4678 740.716 51.5163 740.715 53.9912 742.143L67.9978 750.224C70.4742 751.652 72 754.294 72 757.153V773.308C72 776.167 70.4742 778.809 67.9978 780.238L53.9912 788.318C51.5163 789.746 48.4678 789.746 45.9934 788.317L31.9999 780.238C29.5248 778.809 28 776.168 28 773.31V757.152C28 754.294 29.5248 751.653 31.9999 750.224L45.9934 742.144ZM51.9911 749.161C50.7543 748.448 49.2314 748.448 47.9949 749.161L37.0793 755.458C35.841 756.173 35.0781 757.494 35.0781 758.923V771.538C35.0781 772.968 35.841 774.289 37.0793 775.003L47.9925 781.299C49.2299 782.013 50.754 782.012 51.9911 781.298L62.9217 774.988C64.1594 774.274 64.9219 772.953 64.9219 771.524V758.925C64.9219 757.495 64.1584 756.173 62.9193 755.459L51.9911 749.161Z" fill="#93C5FD"/>
<path fill-rule="evenodd" clip-rule="evenodd" d="M45.9934 826.289C48.4678 824.861 51.5163 824.86 53.9912 826.288L67.9978 834.369C70.4742 835.797 72 838.439 72 841.298V857.453C72 860.312 70.4742 862.954 67.9978 864.383L53.9912 872.463C51.5163 873.891 48.4678 873.891 45.9934 872.462L31.9999 864.383C29.5248 862.954 28 860.313 28 857.455V841.297C28 838.439 29.5248 835.798 31.9999 834.369L45.9934 826.289ZM51.9911 833.306C50.7543 832.593 49.2314 832.593 47.9949 833.306L37.0793 839.603C35.841 840.318 35.0781 841.639 35.0781 843.068V855.683C35.0781 857.113 35.841 858.434 37.0793 859.148L47.9925 865.444C49.2299 866.158 50.754 866.157 51.9911 865.443L62.9217 859.133C64.1594 858.419 64.9219 857.098 64.9219 855.669V843.07C64.9219 841.64 64.1584 840.318 62.9193 839.604L51.9911 833.306Z" fill="#93C5FD"/>
<path fill-rule="evenodd" clip-rule="evenodd" d="M20.9934 784.144C23.4678 782.716 26.5163 782.715 28.9912 784.143L42.9978 792.224C45.4742 793.652 47 796.294 47 799.153V815.308C47 818.167 45.4742 820.809 42.9978 822.238L28.9912 830.318C26.5163 831.746 23.4678 831.746 20.9934 830.317L6.99992 822.238C4.52476 820.809 3 818.168 3 815.31L3 799.152C3 796.294 4.52475 793.653 6.99991 792.224L20.9934 784.144ZM26.9911 791.161C25.7543 790.448 24.2314 790.448 22.9949 791.161L12.0793 797.458C10.841 798.173 10.0781 799.494 10.0781 800.923V813.538C10.0781 814.968 10.841 816.289 12.0793 817.003L22.9925 823.299C24.2299 824.013 25.754 824.012 26.9911 823.298L37.9217 816.988C39.1594 816.274 39.9219 814.953 39.9219 813.524V800.925C39.9219 799.495 39.1584 798.173 37.9193 797.459L26.9911 791.161Z" fill="#93C5FD"/>
<path fill-rule="evenodd" clip-rule="evenodd" d="M-4.00662 742.072C-1.53219 740.643 1.51634 740.643 3.99124 742.071L17.9978 750.151C20.4742 751.58 22 754.222 22 757.081V773.236C22 776.095 20.4742 778.736 17.9978 780.165L3.99124 788.246C1.51633 789.674 -1.5322 789.673 -4.00663 788.245L-18.0001 780.165C-20.4752 778.736 -22 776.095 -22 773.237V757.079C-22 754.221 -20.4752 751.58 -18.0001 750.151L-4.00662 742.072ZM1.9911 749.088C0.754318 748.375 -0.768621 748.376 -2.00513 749.089L-12.9207 755.386C-14.159 756.1 -14.9219 757.421 -14.9219 758.851V771.466C-14.9219 772.895 -14.159 774.216 -12.9207 774.931L-2.00749 781.226C-0.77014 781.94 0.753962 781.94 1.99111 781.226L12.9217 774.916C14.1594 774.201 14.9219 772.881 14.9219 771.451V758.852C14.9219 757.422 14.1584 756.101 12.9193 755.387L1.9911 749.088Z" fill="#93C5FD"/>
<path fill-rule="evenodd" clip-rule="evenodd" d="M-4.00662 826.217C-1.53219 824.788 1.51634 824.788 3.99124 826.216L17.9978 834.296C20.4742 835.725 22 838.367 22 841.226V857.381C22 860.24 20.4742 862.882 17.9978 864.31L3.99124 872.391C1.51633 873.819 -1.5322 873.818 -4.00663 872.39L-18.0001 864.31C-20.4752 862.881 -22 860.24 -22 857.382V841.224C-22 838.366 -20.4752 835.725 -18.0001 834.296L-4.00662 826.217ZM1.9911 833.233C0.754318 832.52 -0.768621 832.521 -2.00513 833.234L-12.9207 839.531C-14.159 840.245 -14.9219 841.566 -14.9219 842.996V855.611C-14.9219 857.04 -14.159 858.361 -12.9207 859.076L-2.00749 865.371C-0.77014 866.085 0.753962 866.085 1.99111 865.371L12.9217 859.061C14.1594 858.346 14.9219 857.026 14.9219 855.597V842.997C14.9219 841.567 14.1584 840.246 12.9193 839.532L1.9911 833.233Z" fill="#93C5FD"/>
</g>
<g filter="url(#filter9_i_338_817)">
<path fill-rule="evenodd" clip-rule="evenodd" d="M45.9934 657.144C48.4678 655.716 51.5163 655.715 53.9912 657.143L67.9978 665.224C70.4742 666.652 72 669.294 72 672.153V688.308C72 691.167 70.4742 693.809 67.9978 695.238L53.9912 703.318C51.5163 704.746 48.4678 704.746 45.9934 703.317L31.9999 695.238C29.5248 693.809 28 691.168 28 688.31V672.152C28 669.294 29.5248 666.653 31.9999 665.224L45.9934 657.144ZM51.9911 664.161C50.7543 663.448 49.2314 663.448 47.9949 664.161L37.0793 670.458C35.841 671.173 35.0781 672.494 35.0781 673.923V686.538C35.0781 687.968 35.841 689.289 37.0793 690.003L47.9925 696.299C49.2299 697.013 50.754 697.012 51.9911 696.298L62.9217 689.988C64.1594 689.274 64.9219 687.953 64.9219 686.524V673.925C64.9219 672.495 64.1584 671.173 62.9193 670.459L51.9911 664.161Z" fill="#93C5FD"/>
<path fill-rule="evenodd" clip-rule="evenodd" d="M45.9934 741.289C48.4678 739.861 51.5163 739.86 53.9912 741.288L67.9978 749.369C70.4742 750.797 72 753.439 72 756.298V772.453C72 775.312 70.4742 777.954 67.9978 779.383L53.9912 787.463C51.5163 788.891 48.4678 788.891 45.9934 787.462L31.9999 779.383C29.5248 777.954 28 775.313 28 772.455V756.297C28 753.439 29.5248 750.798 31.9999 749.369L45.9934 741.289ZM51.9911 748.306C50.7543 747.593 49.2314 747.593 47.9949 748.306L37.0793 754.603C35.841 755.318 35.0781 756.639 35.0781 758.068V770.683C35.0781 772.113 35.841 773.434 37.0793 774.148L47.9925 780.444C49.2299 781.158 50.754 781.157 51.9911 780.443L62.9217 774.133C64.1594 773.419 64.9219 772.098 64.9219 770.669V758.07C64.9219 756.64 64.1584 755.318 62.9193 754.604L51.9911 748.306Z" fill="#93C5FD"/>
<path fill-rule="evenodd" clip-rule="evenodd" d="M20.9934 699.144C23.4678 697.716 26.5163 697.715 28.9912 699.143L42.9978 707.224C45.4742 708.652 47 711.294 47 714.153V730.308C47 733.167 45.4742 735.809 42.9978 737.238L28.9912 745.318C26.5163 746.746 23.4678 746.746 20.9934 745.317L6.99992 737.238C4.52476 735.809 3 733.168 3 730.31L3 714.152C3 711.294 4.52475 708.653 6.99991 707.224L20.9934 699.144ZM26.9911 706.161C25.7543 705.448 24.2314 705.448 22.9949 706.161L12.0793 712.458C10.841 713.173 10.0781 714.494 10.0781 715.923V728.538C10.0781 729.968 10.841 731.289 12.0793 732.003L22.9925 738.299C24.2299 739.013 25.754 739.012 26.9911 738.298L37.9217 731.988C39.1594 731.274 39.9219 729.953 39.9219 728.524V715.925C39.9219 714.495 39.1584 713.173 37.9193 712.459L26.9911 706.161Z" fill="#93C5FD"/>
<path fill-rule="evenodd" clip-rule="evenodd" d="M-4.00662 657.072C-1.53219 655.643 1.51634 655.643 3.99124 657.071L17.9978 665.151C20.4742 666.58 22 669.222 22 672.081V688.236C22 691.095 20.4742 693.736 17.9978 695.165L3.99124 703.246C1.51633 704.674 -1.5322 704.673 -4.00663 703.245L-18.0001 695.165C-20.4752 693.736 -22 691.095 -22 688.237V672.079C-22 669.221 -20.4752 666.58 -18.0001 665.151L-4.00662 657.072ZM1.9911 664.088C0.754318 663.375 -0.768621 663.376 -2.00513 664.089L-12.9207 670.386C-14.159 671.1 -14.9219 672.421 -14.9219 673.851V686.466C-14.9219 687.895 -14.159 689.216 -12.9207 689.931L-2.00749 696.226C-0.77014 696.94 0.753962 696.94 1.99111 696.226L12.9217 689.916C14.1594 689.201 14.9219 687.881 14.9219 686.451V673.852C14.9219 672.422 14.1584 671.101 12.9193 670.387L1.9911 664.088Z" fill="#93C5FD"/>
<path fill-rule="evenodd" clip-rule="evenodd" d="M-4.00662 741.217C-1.53219 739.788 1.51634 739.788 3.99124 741.216L17.9978 749.296C20.4742 750.725 22 753.367 22 756.226V772.381C22 775.24 20.4742 777.882 17.9978 779.31L3.99124 787.391C1.51633 788.819 -1.5322 788.818 -4.00663 787.39L-18.0001 779.31C-20.4752 777.881 -22 775.24 -22 772.382V756.224C-22 753.366 -20.4752 750.725 -18.0001 749.296L-4.00662 741.217ZM1.9911 748.233C0.754318 747.52 -0.768621 747.521 -2.00513 748.234L-12.9207 754.531C-14.159 755.245 -14.9219 756.566 -14.9219 757.996V770.611C-14.9219 772.04 -14.159 773.361 -12.9207 774.076L-2.00749 780.371C-0.77014 781.085 0.753962 781.085 1.99111 780.371L12.9217 774.061C14.1594 773.346 14.9219 772.026 14.9219 770.597V757.997C14.9219 756.567 14.1584 755.246 12.9193 754.532L1.9911 748.233Z" fill="#93C5FD"/>
</g>
<g filter="url(#filter10_i_338_817)">
<path fill-rule="evenodd" clip-rule="evenodd" d="M45.9934 572.144C48.4678 570.716 51.5163 570.715 53.9912 572.143L67.9978 580.224C70.4742 581.652 72 584.294 72 587.153V603.308C72 606.167 70.4742 608.809 67.9978 610.238L53.9912 618.318C51.5163 619.746 48.4678 619.746 45.9934 618.317L31.9999 610.238C29.5248 608.809 28 606.168 28 603.31V587.152C28 584.294 29.5248 581.653 31.9999 580.224L45.9934 572.144ZM51.9911 579.161C50.7543 578.448 49.2314 578.448 47.9949 579.161L37.0793 585.458C35.841 586.173 35.0781 587.494 35.0781 588.923V601.538C35.0781 602.968 35.841 604.289 37.0793 605.003L47.9925 611.299C49.2299 612.013 50.754 612.012 51.9911 611.298L62.9217 604.988C64.1594 604.274 64.9219 602.953 64.9219 601.524V588.925C64.9219 587.495 64.1584 586.173 62.9193 585.459L51.9911 579.161Z" fill="#93C5FD"/>
<path fill-rule="evenodd" clip-rule="evenodd" d="M45.9934 656.289C48.4678 654.861 51.5163 654.86 53.9912 656.288L67.9978 664.369C70.4742 665.797 72 668.439 72 671.298V687.453C72 690.312 70.4742 692.954 67.9978 694.383L53.9912 702.463C51.5163 703.891 48.4678 703.891 45.9934 702.462L31.9999 694.383C29.5248 692.954 28 690.313 28 687.455V671.297C28 668.439 29.5248 665.798 31.9999 664.369L45.9934 656.289ZM51.9911 663.306C50.7543 662.593 49.2314 662.593 47.9949 663.306L37.0793 669.603C35.841 670.318 35.0781 671.639 35.0781 673.068V685.683C35.0781 687.113 35.841 688.434 37.0793 689.148L47.9925 695.444C49.2299 696.158 50.754 696.157 51.9911 695.443L62.9217 689.133C64.1594 688.419 64.9219 687.098 64.9219 685.669V673.07C64.9219 671.64 64.1584 670.318 62.9193 669.604L51.9911 663.306Z" fill="#93C5FD"/>
<path fill-rule="evenodd" clip-rule="evenodd" d="M20.9934 614.144C23.4678 612.716 26.5163 612.715 28.9912 614.143L42.9978 622.224C45.4742 623.652 47 626.294 47 629.153V645.308C47 648.167 45.4742 650.809 42.9978 652.238L28.9912 660.318C26.5163 661.746 23.4678 661.746 20.9934 660.317L6.99992 652.238C4.52476 650.809 3 648.168 3 645.31L3 629.152C3 626.294 4.52475 623.653 6.99991 622.224L20.9934 614.144ZM26.9911 621.161C25.7543 620.448 24.2314 620.448 22.9949 621.161L12.0793 627.458C10.841 628.173 10.0781 629.494 10.0781 630.923V643.538C10.0781 644.968 10.841 646.289 12.0793 647.003L22.9925 653.299C24.2299 654.013 25.754 654.012 26.9911 653.298L37.9217 646.988C39.1594 646.274 39.9219 644.953 39.9219 643.524V630.925C39.9219 629.495 39.1584 628.173 37.9193 627.459L26.9911 621.161Z" fill="#93C5FD"/>
<path fill-rule="evenodd" clip-rule="evenodd" d="M-4.00662 572.072C-1.53219 570.643 1.51634 570.643 3.99124 572.071L17.9978 580.151C20.4742 581.58 22 584.222 22 587.081V603.236C22 606.095 20.4742 608.736 17.9978 610.165L3.99124 618.246C1.51633 619.674 -1.5322 619.673 -4.00663 618.245L-18.0001 610.165C-20.4752 608.736 -22 606.095 -22 603.237V587.079C-22 584.221 -20.4752 581.58 -18.0001 580.151L-4.00662 572.072ZM1.9911 579.088C0.754318 578.375 -0.768621 578.376 -2.00513 579.089L-12.9207 585.386C-14.159 586.1 -14.9219 587.421 -14.9219 588.851V601.466C-14.9219 602.895 -14.159 604.216 -12.9207 604.931L-2.00749 611.226C-0.77014 611.94 0.753962 611.94 1.99111 611.226L12.9217 604.916C14.1594 604.201 14.9219 602.881 14.9219 601.451V588.852C14.9219 587.422 14.1584 586.101 12.9193 585.387L1.9911 579.088Z" fill="#93C5FD"/>
<path fill-rule="evenodd" clip-rule="evenodd" d="M-4.00662 656.217C-1.53219 654.788 1.51634 654.788 3.99124 656.216L17.9978 664.296C20.4742 665.725 22 668.367 22 671.226V687.381C22 690.24 20.4742 692.882 17.9978 694.31L3.99124 702.391C1.51633 703.819 -1.5322 703.818 -4.00663 702.39L-18.0001 694.31C-20.4752 692.881 -22 690.24 -22 687.382V671.224C-22 668.366 -20.4752 665.725 -18.0001 664.296L-4.00662 656.217ZM1.9911 663.233C0.754318 662.52 -0.768621 662.521 -2.00513 663.234L-12.9207 669.531C-14.159 670.245 -14.9219 671.566 -14.9219 672.996V685.611C-14.9219 687.04 -14.159 688.361 -12.9207 689.076L-2.00749 695.371C-0.77014 696.085 0.753962 696.085 1.99111 695.371L12.9217 689.061C14.1594 688.346 14.9219 687.026 14.9219 685.597V672.997C14.9219 671.567 14.1584 670.246 12.9193 669.532L1.9911 663.233Z" fill="#93C5FD"/>
</g>
<g filter="url(#filter11_i_338_817)">
<path fill-rule="evenodd" clip-rule="evenodd" d="M45.9934 487.144C48.4678 485.716 51.5163 485.715 53.9912 487.143L67.9978 495.224C70.4742 496.652 72 499.294 72 502.153V518.308C72 521.167 70.4742 523.809 67.9978 525.238L53.9912 533.318C51.5163 534.746 48.4678 534.746 45.9934 533.317L31.9999 525.238C29.5248 523.809 28 521.168 28 518.31V502.152C28 499.294 29.5248 496.653 31.9999 495.224L45.9934 487.144ZM51.9911 494.161C50.7543 493.448 49.2314 493.448 47.9949 494.161L37.0793 500.458C35.841 501.173 35.0781 502.494 35.0781 503.923V516.538C35.0781 517.968 35.841 519.289 37.0793 520.003L47.9925 526.299C49.2299 527.013 50.754 527.012 51.9911 526.298L62.9217 519.988C64.1594 519.274 64.9219 517.953 64.9219 516.524V503.925C64.9219 502.495 64.1584 501.173 62.9193 500.459L51.9911 494.161Z" fill="#93C5FD"/>
<path fill-rule="evenodd" clip-rule="evenodd" d="M45.9934 571.289C48.4678 569.861 51.5163 569.86 53.9912 571.288L67.9978 579.369C70.4742 580.797 72 583.439 72 586.298V602.453C72 605.312 70.4742 607.954 67.9978 609.383L53.9912 617.463C51.5163 618.891 48.4678 618.891 45.9934 617.462L31.9999 609.383C29.5248 607.954 28 605.313 28 602.455V586.297C28 583.439 29.5248 580.798 31.9999 579.369L45.9934 571.289ZM51.9911 578.306C50.7543 577.593 49.2314 577.593 47.9949 578.306L37.0793 584.603C35.841 585.318 35.0781 586.639 35.0781 588.068V600.683C35.0781 602.113 35.841 603.434 37.0793 604.148L47.9925 610.444C49.2299 611.158 50.754 611.157 51.9911 610.443L62.9217 604.133C64.1594 603.419 64.9219 602.098 64.9219 600.669V588.07C64.9219 586.64 64.1584 585.318 62.9193 584.604L51.9911 578.306Z" fill="#93C5FD"/>
<path fill-rule="evenodd" clip-rule="evenodd" d="M20.9934 529.144C23.4678 527.716 26.5163 527.715 28.9912 529.143L42.9978 537.224C45.4742 538.652 47 541.294 47 544.153V560.308C47 563.167 45.4742 565.809 42.9978 567.238L28.9912 575.318C26.5163 576.746 23.4678 576.746 20.9934 575.317L6.99992 567.238C4.52476 565.809 3 563.168 3 560.31L3 544.152C3 541.294 4.52475 538.653 6.99991 537.224L20.9934 529.144ZM26.9911 536.161C25.7543 535.448 24.2314 535.448 22.9949 536.161L12.0793 542.458C10.841 543.173 10.0781 544.494 10.0781 545.923V558.538C10.0781 559.968 10.841 561.289 12.0793 562.003L22.9925 568.299C24.2299 569.013 25.754 569.012 26.9911 568.298L37.9217 561.988C39.1594 561.274 39.9219 559.953 39.9219 558.524V545.925C39.9219 544.495 39.1584 543.173 37.9193 542.459L26.9911 536.161Z" fill="#93C5FD"/>
<path fill-rule="evenodd" clip-rule="evenodd" d="M-4.00662 487.072C-1.53219 485.643 1.51634 485.643 3.99124 487.071L17.9978 495.151C20.4742 496.58 22 499.222 22 502.081V518.236C22 521.095 20.4742 523.736 17.9978 525.165L3.99124 533.246C1.51633 534.674 -1.5322 534.673 -4.00663 533.245L-18.0001 525.165C-20.4752 523.736 -22 521.095 -22 518.237V502.079C-22 499.221 -20.4752 496.58 -18.0001 495.151L-4.00662 487.072ZM1.9911 494.088C0.754318 493.375 -0.768621 493.376 -2.00513 494.089L-12.9207 500.386C-14.159 501.1 -14.9219 502.421 -14.9219 503.851V516.466C-14.9219 517.895 -14.159 519.216 -12.9207 519.931L-2.00749 526.226C-0.77014 526.94 0.753962 526.94 1.99111 526.226L12.9217 519.916C14.1594 519.201 14.9219 517.881 14.9219 516.451V503.852C14.9219 502.422 14.1584 501.101 12.9193 500.387L1.9911 494.088Z" fill="#93C5FD"/>
<path fill-rule="evenodd" clip-rule="evenodd" d="M-4.00662 571.217C-1.53219 569.788 1.51634 569.788 3.99124 571.216L17.9978 579.296C20.4742 580.725 22 583.367 22 586.226V602.381C22 605.24 20.4742 607.882 17.9978 609.31L3.99124 617.391C1.51633 618.819 -1.5322 618.818 -4.00663 617.39L-18.0001 609.31C-20.4752 607.881 -22 605.24 -22 602.382V586.224C-22 583.366 -20.4752 580.725 -18.0001 579.296L-4.00662 571.217ZM1.9911 578.233C0.754318 577.52 -0.768621 577.521 -2.00513 578.234L-12.9207 584.531C-14.159 585.245 -14.9219 586.566 -14.9219 587.996V600.611C-14.9219 602.04 -14.159 603.361 -12.9207 604.076L-2.00749 610.371C-0.77014 611.085 0.753962 611.085 1.99111 610.371L12.9217 604.061C14.1594 603.346 14.9219 602.026 14.9219 600.597V587.997C14.9219 586.567 14.1584 585.246 12.9193 584.532L1.9911 578.233Z" fill="#93C5FD"/>
</g>
<g filter="url(#filter12_i_338_817)">
<path fill-rule="evenodd" clip-rule="evenodd" d="M45.9934 402.144C48.4678 400.716 51.5163 400.715 53.9912 402.143L67.9978 410.224C70.4742 411.652 72 414.294 72 417.153V433.308C72 436.167 70.4742 438.809 67.9978 440.238L53.9912 448.318C51.5163 449.746 48.4678 449.746 45.9934 448.317L31.9999 440.238C29.5248 438.809 28 436.168 28 433.31V417.152C28 414.294 29.5248 411.653 31.9999 410.224L45.9934 402.144ZM51.9911 409.161C50.7543 408.448 49.2314 408.448 47.9949 409.161L37.0793 415.458C35.841 416.173 35.0781 417.494 35.0781 418.923V431.538C35.0781 432.968 35.841 434.289 37.0793 435.003L47.9925 441.299C49.2299 442.013 50.754 442.012 51.9911 441.298L62.9217 434.988C64.1594 434.274 64.9219 432.953 64.9219 431.524V418.925C64.9219 417.495 64.1584 416.173 62.9193 415.459L51.9911 409.161Z" fill="#93C5FD"/>
<path fill-rule="evenodd" clip-rule="evenodd" d="M45.9934 486.289C48.4678 484.861 51.5163 484.86 53.9912 486.288L67.9978 494.369C70.4742 495.797 72 498.439 72 501.298V517.453C72 520.312 70.4742 522.954 67.9978 524.383L53.9912 532.463C51.5163 533.891 48.4678 533.891 45.9934 532.462L31.9999 524.383C29.5248 522.954 28 520.313 28 517.455V501.297C28 498.439 29.5248 495.798 31.9999 494.369L45.9934 486.289ZM51.9911 493.306C50.7543 492.593 49.2314 492.593 47.9949 493.306L37.0793 499.603C35.841 500.318 35.0781 501.639 35.0781 503.068V515.683C35.0781 517.113 35.841 518.434 37.0793 519.148L47.9925 525.444C49.2299 526.158 50.754 526.157 51.9911 525.443L62.9217 519.133C64.1594 518.419 64.9219 517.098 64.9219 515.669V503.07C64.9219 501.64 64.1584 500.318 62.9193 499.604L51.9911 493.306Z" fill="#93C5FD"/>
<path fill-rule="evenodd" clip-rule="evenodd" d="M20.9934 444.144C23.4678 442.716 26.5163 442.715 28.9912 444.143L42.9978 452.224C45.4742 453.652 47 456.294 47 459.153V475.308C47 478.167 45.4742 480.809 42.9978 482.238L28.9912 490.318C26.5163 491.746 23.4678 491.746 20.9934 490.317L6.99992 482.238C4.52476 480.809 3 478.168 3 475.31L3 459.152C3 456.294 4.52475 453.653 6.99991 452.224L20.9934 444.144ZM26.9911 451.161C25.7543 450.448 24.2314 450.448 22.9949 451.161L12.0793 457.458C10.841 458.173 10.0781 459.494 10.0781 460.923V473.538C10.0781 474.968 10.841 476.289 12.0793 477.003L22.9925 483.299C24.2299 484.013 25.754 484.012 26.9911 483.298L37.9217 476.988C39.1594 476.274 39.9219 474.953 39.9219 473.524V460.925C39.9219 459.495 39.1584 458.173 37.9193 457.459L26.9911 451.161Z" fill="#93C5FD"/>
<path fill-rule="evenodd" clip-rule="evenodd" d="M-4.00662 402.072C-1.53219 400.643 1.51634 400.643 3.99124 402.071L17.9978 410.151C20.4742 411.58 22 414.222 22 417.081V433.236C22 436.095 20.4742 438.736 17.9978 440.165L3.99124 448.246C1.51633 449.674 -1.5322 449.673 -4.00663 448.245L-18.0001 440.165C-20.4752 438.736 -22 436.095 -22 433.237V417.079C-22 414.221 -20.4752 411.58 -18.0001 410.151L-4.00662 402.072ZM1.9911 409.088C0.754318 408.375 -0.768621 408.376 -2.00513 409.089L-12.9207 415.386C-14.159 416.1 -14.9219 417.421 -14.9219 418.851V431.466C-14.9219 432.895 -14.159 434.216 -12.9207 434.931L-2.00749 441.226C-0.77014 441.94 0.753962 441.94 1.99111 441.226L12.9217 434.916C14.1594 434.201 14.9219 432.881 14.9219 431.451V418.852C14.9219 417.422 14.1584 416.101 12.9193 415.387L1.9911 409.088Z" fill="#93C5FD"/>
<path fill-rule="evenodd" clip-rule="evenodd" d="M-4.00662 486.217C-1.53219 484.788 1.51634 484.788 3.99124 486.216L17.9978 494.296C20.4742 495.725 22 498.367 22 501.226V517.381C22 520.24 20.4742 522.882 17.9978 524.31L3.99124 532.391C1.51633 533.819 -1.5322 533.818 -4.00663 532.39L-18.0001 524.31C-20.4752 522.881 -22 520.24 -22 517.382V501.224C-22 498.366 -20.4752 495.725 -18.0001 494.296L-4.00662 486.217ZM1.9911 493.233C0.754318 492.52 -0.768621 492.521 -2.00513 493.234L-12.9207 499.531C-14.159 500.245 -14.9219 501.566 -14.9219 502.996V515.611C-14.9219 517.04 -14.159 518.361 -12.9207 519.076L-2.00749 525.371C-0.77014 526.085 0.753962 526.085 1.99111 525.371L12.9217 519.061C14.1594 518.346 14.9219 517.026 14.9219 515.597V502.997C14.9219 501.567 14.1584 500.246 12.9193 499.532L1.9911 493.233Z" fill="#93C5FD"/>
</g>
<g filter="url(#filter13_i_338_817)">
<path fill-rule="evenodd" clip-rule="evenodd" d="M45.9934 232.144C48.4678 230.715 51.5163 230.715 53.9912 232.143L67.9978 240.223C70.4742 241.652 72 244.294 72 247.153V263.308C72 266.167 70.4742 268.809 67.9978 270.237L53.9912 278.318C51.5163 279.746 48.4678 279.746 45.9934 278.317L31.9999 270.237C29.5248 268.808 28 266.167 28 263.309V247.152C28 244.294 29.5248 241.653 31.9999 240.223L45.9934 232.144ZM51.9911 239.16C50.7543 238.448 49.2314 238.448 47.9949 239.161L37.0793 245.458C35.841 246.173 35.0781 247.493 35.0781 248.923V261.538C35.0781 262.968 35.841 264.288 37.0793 265.003L47.9925 271.298C49.2299 272.012 50.754 272.012 51.9911 271.298L62.9217 264.988C64.1594 264.273 64.9219 262.953 64.9219 261.524V248.925C64.9219 247.494 64.1584 246.173 62.9193 245.459L51.9911 239.16Z" fill="#93C5FD"/>
<path fill-rule="evenodd" clip-rule="evenodd" d="M45.9934 316.29C48.4678 314.861 51.5163 314.86 53.9912 316.288L67.9978 324.369C70.4742 325.798 72 328.439 72 331.298V347.454C72 350.313 70.4742 352.954 67.9978 354.383L53.9912 362.464C51.5163 363.892 48.4678 363.891 45.9934 362.462L31.9999 354.383C29.5248 352.954 28 350.313 28 347.455V331.297C28 328.439 29.5248 325.798 31.9999 324.369L45.9934 316.29ZM51.9911 323.306C50.7543 322.593 49.2314 322.593 47.9949 323.307L37.0793 329.604C35.841 330.318 35.0781 331.639 35.0781 333.068V345.683C35.0781 347.113 35.841 348.434 37.0793 349.148L47.9925 355.444C49.2299 356.158 50.754 356.158 51.9911 355.443L62.9217 349.133C64.1594 348.419 64.9219 347.098 64.9219 345.669V333.07C64.9219 331.64 64.1584 330.319 62.9193 329.604L51.9911 323.306Z" fill="#93C5FD"/>
<path fill-rule="evenodd" clip-rule="evenodd" d="M20.9934 274.144C23.4678 272.715 26.5163 272.715 28.9912 274.143L42.9978 282.223C45.4742 283.652 47 286.294 47 289.153V305.308C47 308.167 45.4742 310.809 42.9978 312.237L28.9912 320.318C26.5163 321.746 23.4678 321.746 20.9934 320.317L6.99992 312.237C4.52476 310.808 3 308.167 3 305.309L3 289.152C3 286.294 4.52475 283.653 6.99991 282.223L20.9934 274.144ZM26.9911 281.16C25.7543 280.448 24.2314 280.448 22.9949 281.161L12.0793 287.458C10.841 288.173 10.0781 289.493 10.0781 290.923V303.538C10.0781 304.968 10.841 306.288 12.0793 307.003L22.9925 313.298C24.2299 314.012 25.754 314.012 26.9911 313.298L37.9217 306.988C39.1594 306.273 39.9219 304.953 39.9219 303.524V290.925C39.9219 289.494 39.1584 288.173 37.9193 287.459L26.9911 281.16Z" fill="#93C5FD"/>
<path fill-rule="evenodd" clip-rule="evenodd" d="M-4.00662 232.072C-1.53219 230.643 1.51634 230.643 3.99124 232.071L17.9978 240.151C20.4742 241.58 22 244.222 22 247.081V263.236C22 266.095 20.4742 268.736 17.9978 270.165L3.99124 278.246C1.51633 279.674 -1.5322 279.673 -4.00663 278.245L-18.0001 270.165C-20.4752 268.736 -22 266.095 -22 263.237V247.079C-22 244.221 -20.4752 241.58 -18.0001 240.151L-4.00662 232.072ZM1.9911 239.088C0.754318 238.375 -0.768621 238.376 -2.00513 239.089L-12.9207 245.386C-14.159 246.1 -14.9219 247.421 -14.9219 248.851V261.466C-14.9219 262.895 -14.159 264.216 -12.9207 264.931L-2.00749 271.226C-0.77014 271.94 0.753962 271.94 1.99111 271.226L12.9217 264.916C14.1594 264.201 14.9219 262.881 14.9219 261.451V248.852C14.9219 247.422 14.1584 246.101 12.9193 245.387L1.9911 239.088Z" fill="#93C5FD"/>
<path fill-rule="evenodd" clip-rule="evenodd" d="M-4.00662 316.217C-1.53219 314.788 1.51634 314.788 3.99124 316.216L17.9978 324.296C20.4742 325.725 22 328.367 22 331.226V347.381C22 350.24 20.4742 352.882 17.9978 354.31L3.99124 362.391C1.51633 363.819 -1.5322 363.818 -4.00663 362.39L-18.0001 354.31C-20.4752 352.881 -22 350.24 -22 347.382V331.224C-22 328.366 -20.4752 325.725 -18.0001 324.296L-4.00662 316.217ZM1.9911 323.233C0.754318 322.52 -0.768621 322.521 -2.00513 323.234L-12.9207 329.531C-14.159 330.245 -14.9219 331.566 -14.9219 332.996V345.611C-14.9219 347.04 -14.159 348.361 -12.9207 349.076L-2.00749 355.371C-0.77014 356.085 0.753962 356.085 1.99111 355.371L12.9217 349.061C14.1594 348.346 14.9219 347.026 14.9219 345.597V332.997C14.9219 331.567 14.1584 330.246 12.9193 329.532L1.9911 323.233Z" fill="#93C5FD"/>
</g>
<g filter="url(#filter14_i_338_817)">
<path fill-rule="evenodd" clip-rule="evenodd" d="M45.9934 317.144C48.4678 315.715 51.5163 315.715 53.9912 317.143L67.9978 325.223C70.4742 326.652 72 329.294 72 332.153V348.308C72 351.167 70.4742 353.809 67.9978 355.237L53.9912 363.318C51.5163 364.746 48.4678 364.746 45.9934 363.317L31.9999 355.237C29.5248 353.808 28 351.167 28 348.309V332.152C28 329.294 29.5248 326.653 31.9999 325.223L45.9934 317.144ZM51.9911 324.16C50.7543 323.448 49.2314 323.448 47.9949 324.161L37.0793 330.458C35.841 331.173 35.0781 332.493 35.0781 333.923V346.538C35.0781 347.968 35.841 349.288 37.0793 350.003L47.9925 356.298C49.2299 357.012 50.754 357.012 51.9911 356.298L62.9217 349.988C64.1594 349.273 64.9219 347.953 64.9219 346.524V333.925C64.9219 332.494 64.1584 331.173 62.9193 330.459L51.9911 324.16Z" fill="#93C5FD"/>
<path fill-rule="evenodd" clip-rule="evenodd" d="M45.9934 401.289C48.4678 399.861 51.5163 399.86 53.9912 401.288L67.9978 409.369C70.4742 410.797 72 413.439 72 416.298V432.453C72 435.312 70.4742 437.954 67.9978 439.383L53.9912 447.463C51.5163 448.891 48.4678 448.891 45.9934 447.462L31.9999 439.383C29.5248 437.954 28 435.313 28 432.455V416.297C28 413.439 29.5248 410.798 31.9999 409.369L45.9934 401.289ZM51.9911 408.306C50.7543 407.593 49.2314 407.593 47.9949 408.306L37.0793 414.603C35.841 415.318 35.0781 416.639 35.0781 418.068V430.683C35.0781 432.113 35.841 433.434 37.0793 434.148L47.9925 440.444C49.2299 441.158 50.754 441.157 51.9911 440.443L62.9217 434.133C64.1594 433.419 64.9219 432.098 64.9219 430.669V418.07C64.9219 416.64 64.1584 415.318 62.9193 414.604L51.9911 408.306Z" fill="#93C5FD"/>
<path fill-rule="evenodd" clip-rule="evenodd" d="M20.9934 359.144C23.4678 357.715 26.5163 357.715 28.9912 359.143L42.9978 367.223C45.4742 368.652 47 371.294 47 374.153V390.308C47 393.167 45.4742 395.809 42.9978 397.237L28.9912 405.318C26.5163 406.746 23.4678 406.746 20.9934 405.317L6.99992 397.237C4.52476 395.808 3 393.167 3 390.309L3 374.152C3 371.294 4.52475 368.653 6.99991 367.223L20.9934 359.144ZM26.9911 366.16C25.7543 365.448 24.2314 365.448 22.9949 366.161L12.0793 372.458C10.841 373.173 10.0781 374.493 10.0781 375.923V388.538C10.0781 389.968 10.841 391.288 12.0793 392.003L22.9925 398.298C24.2299 399.012 25.754 399.012 26.9911 398.298L37.9217 391.988C39.1594 391.273 39.9219 389.953 39.9219 388.524V375.925C39.9219 374.494 39.1584 373.173 37.9193 372.459L26.9911 366.16Z" fill="#93C5FD"/>
<path fill-rule="evenodd" clip-rule="evenodd" d="M-4.00662 317.072C-1.53219 315.643 1.51634 315.643 3.99124 317.071L17.9978 325.151C20.4742 326.58 22 329.222 22 332.081V348.236C22 351.095 20.4742 353.736 17.9978 355.165L3.99124 363.246C1.51633 364.674 -1.5322 364.673 -4.00663 363.245L-18.0001 355.165C-20.4752 353.736 -22 351.095 -22 348.237V332.079C-22 329.221 -20.4752 326.58 -18.0001 325.151L-4.00662 317.072ZM1.9911 324.088C0.754318 323.375 -0.768621 323.376 -2.00513 324.089L-12.9207 330.386C-14.159 331.1 -14.9219 332.421 -14.9219 333.851V346.466C-14.9219 347.895 -14.159 349.216 -12.9207 349.931L-2.00749 356.226C-0.77014 356.94 0.753962 356.94 1.99111 356.226L12.9217 349.916C14.1594 349.201 14.9219 347.881 14.9219 346.451V333.852C14.9219 332.422 14.1584 331.101 12.9193 330.387L1.9911 324.088Z" fill="#93C5FD"/>
<path fill-rule="evenodd" clip-rule="evenodd" d="M-4.00662 401.217C-1.53219 399.788 1.51634 399.788 3.99124 401.216L17.9978 409.296C20.4742 410.725 22 413.367 22 416.226V432.381C22 435.24 20.4742 437.882 17.9978 439.31L3.99124 447.391C1.51633 448.819 -1.5322 448.818 -4.00663 447.39L-18.0001 439.31C-20.4752 437.881 -22 435.24 -22 432.382V416.224C-22 413.366 -20.4752 410.725 -18.0001 409.296L-4.00662 401.217ZM1.9911 408.233C0.754318 407.52 -0.768621 407.521 -2.00513 408.234L-12.9207 414.531C-14.159 415.245 -14.9219 416.566 -14.9219 417.996V430.611C-14.9219 432.04 -14.159 433.361 -12.9207 434.076L-2.00749 440.371C-0.77014 441.085 0.753962 441.085 1.99111 440.371L12.9217 434.061C14.1594 433.346 14.9219 432.026 14.9219 430.597V417.997C14.9219 416.567 14.1584 415.246 12.9193 414.532L1.9911 408.233Z" fill="#93C5FD"/>
</g>
<g filter="url(#filter15_i_338_817)">
<path fill-rule="evenodd" clip-rule="evenodd" d="M45.9934 147.144C48.4678 145.715 51.5163 145.715 53.9912 147.143L67.9978 155.223C70.4742 156.652 72 159.294 72 162.153V178.308C72 181.167 70.4742 183.809 67.9978 185.237L53.9912 193.318C51.5163 194.746 48.4678 194.746 45.9934 193.317L31.9999 185.237C29.5248 183.808 28 181.167 28 178.309V162.152C28 159.294 29.5248 156.653 31.9999 155.223L45.9934 147.144ZM51.9911 154.16C50.7543 153.448 49.2314 153.448 47.9949 154.161L37.0793 160.458C35.841 161.173 35.0781 162.493 35.0781 163.923V176.538C35.0781 177.968 35.841 179.288 37.0793 180.003L47.9925 186.298C49.2299 187.012 50.754 187.012 51.9911 186.298L62.9217 179.988C64.1594 179.273 64.9219 177.953 64.9219 176.524V163.925C64.9219 162.494 64.1584 161.173 62.9193 160.459L51.9911 154.16Z" fill="#93C5FD"/>
<path fill-rule="evenodd" clip-rule="evenodd" d="M45.9934 231.29C48.4678 229.861 51.5163 229.86 53.9912 231.288L67.9978 239.369C70.4742 240.798 72 243.439 72 246.298V262.454C72 265.313 70.4742 267.954 67.9978 269.383L53.9912 277.464C51.5163 278.892 48.4678 278.891 45.9934 277.462L31.9999 269.383C29.5248 267.954 28 265.313 28 262.455V246.297C28 243.439 29.5248 240.798 31.9999 239.369L45.9934 231.29ZM51.9911 238.306C50.7543 237.593 49.2314 237.593 47.9949 238.307L37.0793 244.604C35.841 245.318 35.0781 246.639 35.0781 248.068V260.683C35.0781 262.113 35.841 263.434 37.0793 264.148L47.9925 270.444C49.2299 271.158 50.754 271.158 51.9911 270.443L62.9217 264.133C64.1594 263.419 64.9219 262.098 64.9219 260.669V248.07C64.9219 246.64 64.1584 245.319 62.9193 244.604L51.9911 238.306Z" fill="#93C5FD"/>
<path fill-rule="evenodd" clip-rule="evenodd" d="M20.9934 189.144C23.4678 187.715 26.5163 187.715 28.9912 189.143L42.9978 197.223C45.4742 198.652 47 201.294 47 204.153V220.308C47 223.167 45.4742 225.809 42.9978 227.237L28.9912 235.318C26.5163 236.746 23.4678 236.746 20.9934 235.317L6.99992 227.237C4.52476 225.808 3 223.167 3 220.309L3 204.152C3 201.294 4.52475 198.653 6.99991 197.223L20.9934 189.144ZM26.9911 196.16C25.7543 195.448 24.2314 195.448 22.9949 196.161L12.0793 202.458C10.841 203.173 10.0781 204.493 10.0781 205.923V218.538C10.0781 219.968 10.841 221.288 12.0793 222.003L22.9925 228.298C24.2299 229.012 25.754 229.012 26.9911 228.298L37.9217 221.988C39.1594 221.273 39.9219 219.953 39.9219 218.524V205.925C39.9219 204.494 39.1584 203.173 37.9193 202.459L26.9911 196.16Z" fill="#93C5FD"/>
<path fill-rule="evenodd" clip-rule="evenodd" d="M-4.00662 147.072C-1.53219 145.643 1.51634 145.643 3.99124 147.071L17.9978 155.151C20.4742 156.58 22 159.222 22 162.081V178.236C22 181.095 20.4742 183.736 17.9978 185.165L3.99124 193.246C1.51633 194.674 -1.5322 194.673 -4.00663 193.245L-18.0001 185.165C-20.4752 183.736 -22 181.095 -22 178.237V162.079C-22 159.221 -20.4752 156.58 -18.0001 155.151L-4.00662 147.072ZM1.9911 154.088C0.754318 153.375 -0.768621 153.376 -2.00513 154.089L-12.9207 160.386C-14.159 161.1 -14.9219 162.421 -14.9219 163.851V176.466C-14.9219 177.895 -14.159 179.216 -12.9207 179.931L-2.00749 186.226C-0.77014 186.94 0.753962 186.94 1.99111 186.226L12.9217 179.916C14.1594 179.201 14.9219 177.881 14.9219 176.451V163.852C14.9219 162.422 14.1584 161.101 12.9193 160.387L1.9911 154.088Z" fill="#93C5FD"/>
<path fill-rule="evenodd" clip-rule="evenodd" d="M-4.00662 231.217C-1.53219 229.788 1.51634 229.788 3.99124 231.216L17.9978 239.296C20.4742 240.725 22 243.367 22 246.226V262.381C22 265.24 20.4742 267.882 17.9978 269.31L3.99124 277.391C1.51633 278.819 -1.5322 278.818 -4.00663 277.39L-18.0001 269.31C-20.4752 267.881 -22 265.24 -22 262.382V246.224C-22 243.366 -20.4752 240.725 -18.0001 239.296L-4.00662 231.217ZM1.9911 238.233C0.754318 237.52 -0.768621 237.521 -2.00513 238.234L-12.9207 244.531C-14.159 245.245 -14.9219 246.566 -14.9219 247.996V260.611C-14.9219 262.04 -14.159 263.361 -12.9207 264.076L-2.00749 270.371C-0.77014 271.085 0.753962 271.085 1.99111 270.371L12.9217 264.061C14.1594 263.346 14.9219 262.026 14.9219 260.597V247.997C14.9219 246.567 14.1584 245.246 12.9193 244.532L1.9911 238.233Z" fill="#93C5FD"/>
</g>
<g filter="url(#filter16_i_338_817)">
<path fill-rule="evenodd" clip-rule="evenodd" d="M45.9934 62.1441C48.4678 60.7155 51.5163 60.715 53.9912 62.1428L67.9978 70.2235C70.4742 71.6522 72 74.2939 72 77.153V93.308C72 96.167 70.4742 98.8088 67.9978 100.237L53.9912 108.318C51.5163 109.746 48.4678 109.746 45.9934 108.317L31.9999 100.237C29.5248 98.8084 28 96.1674 28 93.3093V77.1516C28 74.2935 29.5248 71.6526 31.9999 70.2235L45.9934 62.1441ZM51.9911 69.1603C50.7543 68.4475 49.2314 68.4478 47.9949 69.1611L37.0793 75.4582C35.841 76.1725 35.0781 77.4934 35.0781 78.923V91.538C35.0781 92.9675 35.841 94.2884 37.0793 95.0028L47.9925 101.298C49.2299 102.012 50.754 102.012 51.9911 101.298L62.9217 94.988C64.1594 94.2735 64.9219 92.9529 64.9219 91.5237V78.9246C64.9219 77.4944 64.1584 76.1731 62.9193 75.459L51.9911 69.1603Z" fill="#93C5FD"/>
<path fill-rule="evenodd" clip-rule="evenodd" d="M45.9934 146.29C48.4678 144.861 51.5163 144.86 53.9912 146.288L67.9978 154.369C70.4742 155.798 72 158.439 72 161.298V177.454C72 180.313 70.4742 182.954 67.9978 184.383L53.9912 192.464C51.5163 193.892 48.4678 193.891 45.9934 192.462L31.9999 184.383C29.5248 182.954 28 180.313 28 177.455V161.297C28 158.439 29.5248 155.798 31.9999 154.369L45.9934 146.29ZM51.9911 153.306C50.7543 152.593 49.2314 152.593 47.9949 153.307L37.0793 159.604C35.841 160.318 35.0781 161.639 35.0781 163.068V175.683C35.0781 177.113 35.841 178.434 37.0793 179.148L47.9925 185.444C49.2299 186.158 50.754 186.158 51.9911 185.443L62.9217 179.133C64.1594 178.419 64.9219 177.098 64.9219 175.669V163.07C64.9219 161.64 64.1584 160.319 62.9193 159.604L51.9911 153.306Z" fill="#93C5FD"/>
<path fill-rule="evenodd" clip-rule="evenodd" d="M20.9934 104.144C23.4678 102.715 26.5163 102.715 28.9912 104.143L42.9978 112.223C45.4742 113.652 47 116.294 47 119.153V135.308C47 138.167 45.4742 140.809 42.9978 142.237L28.9912 150.318C26.5163 151.746 23.4678 151.746 20.9934 150.317L6.99992 142.237C4.52476 140.808 3 138.167 3 135.309L3 119.152C3 116.294 4.52475 113.653 6.99991 112.223L20.9934 104.144ZM26.9911 111.16C25.7543 110.448 24.2314 110.448 22.9949 111.161L12.0793 117.458C10.841 118.173 10.0781 119.493 10.0781 120.923V133.538C10.0781 134.968 10.841 136.288 12.0793 137.003L22.9925 143.298C24.2299 144.012 25.754 144.012 26.9911 143.298L37.9217 136.988C39.1594 136.273 39.9219 134.953 39.9219 133.524V120.925C39.9219 119.494 39.1584 118.173 37.9193 117.459L26.9911 111.16Z" fill="#93C5FD"/>
<path fill-rule="evenodd" clip-rule="evenodd" d="M-4.00662 62.0718C-1.53219 60.6432 1.51634 60.6427 3.99124 62.0705L17.9978 70.1512C20.4742 71.5799 22 74.2217 22 77.0807V93.2357C22 96.0948 20.4742 98.7365 17.9978 100.165L3.99124 108.246C1.51633 109.674 -1.5322 109.673 -4.00663 108.245L-18.0001 100.165C-20.4752 98.7361 -22 96.0952 -22 93.2371V77.0794C-22 74.2213 -20.4752 71.5803 -18.0001 70.1512L-4.00662 62.0718ZM1.9911 69.0881C0.754318 68.3752 -0.768621 68.3755 -2.00513 69.0889L-12.9207 75.3859C-14.159 76.1003 -14.9219 77.4212 -14.9219 78.8507V91.4657C-14.9219 92.8953 -14.159 94.2162 -12.9207 94.9305L-2.00749 101.226C-0.77014 101.94 0.753962 101.94 1.99111 101.226L12.9217 94.9157C14.1594 94.2012 14.9219 92.8806 14.9219 91.4515V78.8523C14.9219 77.4222 14.1584 76.1009 12.9193 75.3867L1.9911 69.0881Z" fill="#93C5FD"/>
<path fill-rule="evenodd" clip-rule="evenodd" d="M-4.00662 146.217C-1.53219 144.788 1.51634 144.788 3.99124 146.216L17.9978 154.296C20.4742 155.725 22 158.367 22 161.226V177.381C22 180.24 20.4742 182.882 17.9978 184.31L3.99124 192.391C1.51633 193.819 -1.5322 193.818 -4.00663 192.39L-18.0001 184.31C-20.4752 182.881 -22 180.24 -22 177.382V161.224C-22 158.366 -20.4752 155.725 -18.0001 154.296L-4.00662 146.217ZM1.9911 153.233C0.754318 152.52 -0.768621 152.521 -2.00513 153.234L-12.9207 159.531C-14.159 160.245 -14.9219 161.566 -14.9219 162.996V175.611C-14.9219 177.04 -14.159 178.361 -12.9207 179.076L-2.00749 185.371C-0.77014 186.085 0.753962 186.085 1.99111 185.371L12.9217 179.061C14.1594 178.346 14.9219 177.026 14.9219 175.597V162.997C14.9219 161.567 14.1584 160.246 12.9193 159.532L1.9911 153.233Z" fill="#93C5FD"/>
</g>
<g filter="url(#filter17_i_338_817)">
<path fill-rule="evenodd" clip-rule="evenodd" d="M45.9934 -22.8559C48.4678 -24.2845 51.5163 -24.285 53.9912 -22.8572L67.9978 -14.7765C70.4742 -13.3478 72 -10.7061 72 -7.84704V8.308C72 11.167 70.4742 13.8088 67.9978 15.2375L53.9912 23.3182C51.5163 24.746 48.4678 24.7455 45.9934 23.3168L31.9999 15.2375C29.5248 13.8084 28 11.1674 28 8.30933V-7.84837C28 -10.7065 29.5248 -13.3474 31.9999 -14.7765L45.9934 -22.8559ZM51.9911 -15.8397C50.7543 -16.5525 49.2314 -16.5522 47.9949 -15.8389L37.0793 -9.54181C35.841 -8.82747 35.0781 -7.50658 35.0781 -6.07702V6.53798C35.0781 7.96754 35.841 9.28843 37.0793 10.0028L47.9925 16.2985C49.2299 17.0123 50.754 17.0121 51.9911 16.2979L62.9217 9.98796C64.1594 9.27346 64.9219 7.95289 64.9219 6.52375V-6.07544C64.9219 -7.50556 64.1584 -8.82688 62.9193 -9.54103L51.9911 -15.8397Z" fill="#93C5FD"/>
<path fill-rule="evenodd" clip-rule="evenodd" d="M45.9934 61.2896C48.4678 59.861 51.5163 59.8605 53.9912 61.2883L67.9978 69.369C70.4742 70.7977 72 73.4394 72 76.2985V92.4535C72 95.3126 70.4742 97.9543 67.9978 99.383L53.9912 107.464C51.5163 108.892 48.4678 108.891 45.9934 107.462L31.9999 99.383C29.5248 97.9539 28 95.3129 28 92.4548V76.2971C28 73.439 29.5248 70.7981 31.9999 69.369L45.9934 61.2896ZM51.9911 68.3058C50.7543 67.593 49.2314 67.5933 47.9949 68.3066L37.0793 74.6037C35.841 75.318 35.0781 76.6389 35.0781 78.0685V90.6835C35.0781 92.113 35.841 93.4339 37.0793 94.1483L47.9925 100.444C49.2299 101.158 50.754 101.158 51.9911 100.443L62.9217 94.1335C64.1594 93.419 64.9219 92.0984 64.9219 90.6693V78.0701C64.9219 76.6399 64.1584 75.3186 62.9193 74.6045L51.9911 68.3058Z" fill="#93C5FD"/>
<path fill-rule="evenodd" clip-rule="evenodd" d="M20.9934 19.1441C23.4678 17.7155 26.5163 17.715 28.9912 19.1428L42.9978 27.2235C45.4742 28.6522 47 31.2939 47 34.153V50.308C47 53.167 45.4742 55.8088 42.9978 57.2375L28.9912 65.3182C26.5163 66.746 23.4678 66.7455 20.9934 65.3168L6.99992 57.2375C4.52476 55.8084 3 53.1674 3 50.3093L3 34.1516C3 31.2935 4.52475 28.6526 6.99991 27.2235L20.9934 19.1441ZM26.9911 26.1603C25.7543 25.4475 24.2314 25.4478 22.9949 26.1611L12.0793 32.4582C10.841 33.1725 10.0781 34.4934 10.0781 35.923V48.538C10.0781 49.9675 10.841 51.2884 12.0793 52.0028L22.9925 58.2985C24.2299 59.0123 25.754 59.0121 26.9911 58.2979L37.9217 51.988C39.1594 51.2735 39.9219 49.9529 39.9219 48.5237V35.9246C39.9219 34.4944 39.1584 33.1731 37.9193 32.459L26.9911 26.1603Z" fill="#93C5FD"/>
<path fill-rule="evenodd" clip-rule="evenodd" d="M-4.00662 -22.9282C-1.53219 -24.3568 1.51634 -24.3573 3.99124 -22.9295L17.9978 -14.8488C20.4742 -13.4201 22 -10.7783 22 -7.9193V8.23574C22 11.0948 20.4742 13.7365 17.9978 15.1652L3.99124 23.2459C1.51633 24.6737 -1.5322 24.6732 -4.00663 23.2446L-18.0001 15.1652C-20.4752 13.7361 -22 11.0952 -22 8.23707V-7.92064C-22 -10.7787 -20.4752 -13.4197 -18.0001 -14.8488L-4.00662 -22.9282ZM1.9911 -15.9119C0.754318 -16.6248 -0.768621 -16.6245 -2.00513 -15.9111L-12.9207 -9.61408C-14.159 -8.89973 -14.9219 -7.57884 -14.9219 -6.14929V6.46571C-14.9219 7.89527 -14.159 9.21617 -12.9207 9.93052L-2.00749 16.2262C-0.77014 16.94 0.753962 16.9398 1.99111 16.2256L12.9217 9.9157C14.1594 9.2012 14.9219 7.88063 14.9219 6.45148V-6.14771C14.9219 -7.57783 14.1584 -8.89915 12.9193 -9.61329L1.9911 -15.9119Z" fill="#93C5FD"/>
<path fill-rule="evenodd" clip-rule="evenodd" d="M-4.00662 61.2169C-1.53219 59.7882 1.51634 59.7877 3.99124 61.2155L17.9978 69.2962C20.4742 70.725 22 73.3667 22 76.2257V92.3808C22 95.2398 20.4742 97.8815 17.9978 99.3102L3.99124 107.391C1.51633 108.819 -1.5322 108.818 -4.00663 107.39L-18.0001 99.3102C-20.4752 97.8812 -22 95.2402 -22 92.3821V76.2244C-22 73.3663 -20.4752 70.7253 -18.0001 69.2962L-4.00662 61.2169ZM1.9911 68.2331C0.754318 67.5203 -0.768621 67.5206 -2.00513 68.2339L-12.9207 74.5309C-14.159 75.2453 -14.9219 76.5662 -14.9219 77.9957V90.6107C-14.9219 92.0403 -14.159 93.3612 -12.9207 94.0755L-2.00749 100.371C-0.77014 101.085 0.753962 101.085 1.99111 100.371L12.9217 94.0607C14.1594 93.3462 14.9219 92.0256 14.9219 90.5965V77.9973C14.9219 76.5672 14.1584 75.2459 12.9193 74.5317L1.9911 68.2331Z" fill="#93C5FD"/>
</g>
</g>
<defs>
<filter id="filter0_i_338_817" x="-22" y="1421" width="94" height="136.534" filterUnits="userSpaceOnUse" color-interpolation-filters="sRGB">
<feFlood flood-opacity="0" result="BackgroundImageFix"/>
<feBlend mode="normal" in="SourceGraphic" in2="BackgroundImageFix" result="shape"/>
<feColorMatrix in="SourceAlpha" type="matrix" values="0 0 0 0 0 0 0 0 0 0 0 0 0 0 0 0 0 0 127 0" result="hardAlpha"/>
<feOffset dy="4"/>
<feGaussianBlur stdDeviation="2"/>
<feComposite in2="hardAlpha" operator="arithmetic" k2="-1" k3="1"/>
<feColorMatrix type="matrix" values="0 0 0 0 0.215686 0 0 0 0 0.254902 0 0 0 0 0.317647 0 0 0 0.25 0"/>
<feBlend mode="normal" in2="shape" result="effect1_innerShadow_338_817"/>
</filter>
<filter id="filter1_i_338_817" x="-22" y="1251" width="94" height="136.534" filterUnits="userSpaceOnUse" color-interpolation-filters="sRGB">
<feFlood flood-opacity="0" result="BackgroundImageFix"/>
<feBlend mode="normal" in="SourceGraphic" in2="BackgroundImageFix" result="shape"/>
<feColorMatrix in="SourceAlpha" type="matrix" values="0 0 0 0 0 0 0 0 0 0 0 0 0 0 0 0 0 0 127 0" result="hardAlpha"/>
<feOffset dy="4"/>
<feGaussianBlur stdDeviation="2"/>
<feComposite in2="hardAlpha" operator="arithmetic" k2="-1" k3="1"/>
<feColorMatrix type="matrix" values="0 0 0 0 0.215686 0 0 0 0 0.254902 0 0 0 0 0.317647 0 0 0 0.25 0"/>
<feBlend mode="normal" in2="shape" result="effect1_innerShadow_338_817"/>
</filter>
<filter id="filter2_i_338_817" x="-22" y="1336" width="94" height="136.534" filterUnits="userSpaceOnUse" color-interpolation-filters="sRGB">
<feFlood flood-opacity="0" result="BackgroundImageFix"/>
<feBlend mode="normal" in="SourceGraphic" in2="BackgroundImageFix" result="shape"/>
<feColorMatrix in="SourceAlpha" type="matrix" values="0 0 0 0 0 0 0 0 0 0 0 0 0 0 0 0 0 0 127 0" result="hardAlpha"/>
<feOffset dy="4"/>
<feGaussianBlur stdDeviation="2"/>
<feComposite in2="hardAlpha" operator="arithmetic" k2="-1" k3="1"/>
<feColorMatrix type="matrix" values="0 0 0 0 0.215686 0 0 0 0 0.254902 0 0 0 0 0.317647 0 0 0 0.25 0"/>
<feBlend mode="normal" in2="shape" result="effect1_innerShadow_338_817"/>
</filter>
<filter id="filter3_i_338_817" x="-22" y="1166" width="94" height="136.534" filterUnits="userSpaceOnUse" color-interpolation-filters="sRGB">
<feFlood flood-opacity="0" result="BackgroundImageFix"/>
<feBlend mode="normal" in="SourceGraphic" in2="BackgroundImageFix" result="shape"/>
<feColorMatrix in="SourceAlpha" type="matrix" values="0 0 0 0 0 0 0 0 0 0 0 0 0 0 0 0 0 0 127 0" result="hardAlpha"/>
<feOffset dy="4"/>
<feGaussianBlur stdDeviation="2"/>
<feComposite in2="hardAlpha" operator="arithmetic" k2="-1" k3="1"/>
<feColorMatrix type="matrix" values="0 0 0 0 0.215686 0 0 0 0 0.254902 0 0 0 0 0.317647 0 0 0 0.25 0"/>
<feBlend mode="normal" in2="shape" result="effect1_innerShadow_338_817"/>
</filter>
<filter id="filter4_i_338_817" x="-22" y="1081" width="94" height="136.534" filterUnits="userSpaceOnUse" color-interpolation-filters="sRGB">
<feFlood flood-opacity="0" result="BackgroundImageFix"/>
<feBlend mode="normal" in="SourceGraphic" in2="BackgroundImageFix" result="shape"/>
<feColorMatrix in="SourceAlpha" type="matrix" values="0 0 0 0 0 0 0 0 0 0 0 0 0 0 0 0 0 0 127 0" result="hardAlpha"/>
<feOffset dy="4"/>
<feGaussianBlur stdDeviation="2"/>
<feComposite in2="hardAlpha" operator="arithmetic" k2="-1" k3="1"/>
<feColorMatrix type="matrix" values="0 0 0 0 0.215686 0 0 0 0 0.254902 0 0 0 0 0.317647 0 0 0 0.25 0"/>
<feBlend mode="normal" in2="shape" result="effect1_innerShadow_338_817"/>
</filter>
<filter id="filter5_i_338_817" x="-22" y="996" width="94" height="136.534" filterUnits="userSpaceOnUse" color-interpolation-filters="sRGB">
<feFlood flood-opacity="0" result="BackgroundImageFix"/>
<feBlend mode="normal" in="SourceGraphic" in2="BackgroundImageFix" result="shape"/>
<feColorMatrix in="SourceAlpha" type="matrix" values="0 0 0 0 0 0 0 0 0 0 0 0 0 0 0 0 0 0 127 0" result="hardAlpha"/>
<feOffset dy="4"/>
<feGaussianBlur stdDeviation="2"/>
<feComposite in2="hardAlpha" operator="arithmetic" k2="-1" k3="1"/>
<feColorMatrix type="matrix" values="0 0 0 0 0.215686 0 0 0 0 0.254902 0 0 0 0 0.317647 0 0 0 0.25 0"/>
<feBlend mode="normal" in2="shape" result="effect1_innerShadow_338_817"/>
</filter>
<filter id="filter6_i_338_817" x="-22" y="911" width="94" height="136.534" filterUnits="userSpaceOnUse" color-interpolation-filters="sRGB">
<feFlood flood-opacity="0" result="BackgroundImageFix"/>
<feBlend mode="normal" in="SourceGraphic" in2="BackgroundImageFix" result="shape"/>
<feColorMatrix in="SourceAlpha" type="matrix" values="0 0 0 0 0 0 0 0 0 0 0 0 0 0 0 0 0 0 127 0" result="hardAlpha"/>
<feOffset dy="4"/>
<feGaussianBlur stdDeviation="2"/>
<feComposite in2="hardAlpha" operator="arithmetic" k2="-1" k3="1"/>
<feColorMatrix type="matrix" values="0 0 0 0 0.215686 0 0 0 0 0.254902 0 0 0 0 0.317647 0 0 0 0.25 0"/>
<feBlend mode="normal" in2="shape" result="effect1_innerShadow_338_817"/>
</filter>
<filter id="filter7_i_338_817" x="-22" y="826" width="94" height="136.534" filterUnits="userSpaceOnUse" color-interpolation-filters="sRGB">
<feFlood flood-opacity="0" result="BackgroundImageFix"/>
<feBlend mode="normal" in="SourceGraphic" in2="BackgroundImageFix" result="shape"/>
<feColorMatrix in="SourceAlpha" type="matrix" values="0 0 0 0 0 0 0 0 0 0 0 0 0 0 0 0 0 0 127 0" result="hardAlpha"/>
<feOffset dy="4"/>
<feGaussianBlur stdDeviation="2"/>
<feComposite in2="hardAlpha" operator="arithmetic" k2="-1" k3="1"/>
<feColorMatrix type="matrix" values="0 0 0 0 0.215686 0 0 0 0 0.254902 0 0 0 0 0.317647 0 0 0 0.25 0"/>
<feBlend mode="normal" in2="shape" result="effect1_innerShadow_338_817"/>
</filter>
<filter id="filter8_i_338_817" x="-22" y="741" width="94" height="136.534" filterUnits="userSpaceOnUse" color-interpolation-filters="sRGB">
<feFlood flood-opacity="0" result="BackgroundImageFix"/>
<feBlend mode="normal" in="SourceGraphic" in2="BackgroundImageFix" result="shape"/>
<feColorMatrix in="SourceAlpha" type="matrix" values="0 0 0 0 0 0 0 0 0 0 0 0 0 0 0 0 0 0 127 0" result="hardAlpha"/>
<feOffset dy="4"/>
<feGaussianBlur stdDeviation="2"/>
<feComposite in2="hardAlpha" operator="arithmetic" k2="-1" k3="1"/>
<feColorMatrix type="matrix" values="0 0 0 0 0.215686 0 0 0 0 0.254902 0 0 0 0 0.317647 0 0 0 0.25 0"/>
<feBlend mode="normal" in2="shape" result="effect1_innerShadow_338_817"/>
</filter>
<filter id="filter9_i_338_817" x="-22" y="656" width="94" height="136.534" filterUnits="userSpaceOnUse" color-interpolation-filters="sRGB">
<feFlood flood-opacity="0" result="BackgroundImageFix"/>
<feBlend mode="normal" in="SourceGraphic" in2="BackgroundImageFix" result="shape"/>
<feColorMatrix in="SourceAlpha" type="matrix" values="0 0 0 0 0 0 0 0 0 0 0 0 0 0 0 0 0 0 127 0" result="hardAlpha"/>
<feOffset dy="4"/>
<feGaussianBlur stdDeviation="2"/>
<feComposite in2="hardAlpha" operator="arithmetic" k2="-1" k3="1"/>
<feColorMatrix type="matrix" values="0 0 0 0 0.215686 0 0 0 0 0.254902 0 0 0 0 0.317647 0 0 0 0.25 0"/>
<feBlend mode="normal" in2="shape" result="effect1_innerShadow_338_817"/>
</filter>
<filter id="filter10_i_338_817" x="-22" y="571" width="94" height="136.534" filterUnits="userSpaceOnUse" color-interpolation-filters="sRGB">
<feFlood flood-opacity="0" result="BackgroundImageFix"/>
<feBlend mode="normal" in="SourceGraphic" in2="BackgroundImageFix" result="shape"/>
<feColorMatrix in="SourceAlpha" type="matrix" values="0 0 0 0 0 0 0 0 0 0 0 0 0 0 0 0 0 0 127 0" result="hardAlpha"/>
<feOffset dy="4"/>
<feGaussianBlur stdDeviation="2"/>
<feComposite in2="hardAlpha" operator="arithmetic" k2="-1" k3="1"/>
<feColorMatrix type="matrix" values="0 0 0 0 0.215686 0 0 0 0 0.254902 0 0 0 0 0.317647 0 0 0 0.25 0"/>
<feBlend mode="normal" in2="shape" result="effect1_innerShadow_338_817"/>
</filter>
<filter id="filter11_i_338_817" x="-22" y="486" width="94" height="136.534" filterUnits="userSpaceOnUse" color-interpolation-filters="sRGB">
<feFlood flood-opacity="0" result="BackgroundImageFix"/>
<feBlend mode="normal" in="SourceGraphic" in2="BackgroundImageFix" result="shape"/>
<feColorMatrix in="SourceAlpha" type="matrix" values="0 0 0 0 0 0 0 0 0 0 0 0 0 0 0 0 0 0 127 0" result="hardAlpha"/>
<feOffset dy="4"/>
<feGaussianBlur stdDeviation="2"/>
<feComposite in2="hardAlpha" operator="arithmetic" k2="-1" k3="1"/>
<feColorMatrix type="matrix" values="0 0 0 0 0.215686 0 0 0 0 0.254902 0 0 0 0 0.317647 0 0 0 0.25 0"/>
<feBlend mode="normal" in2="shape" result="effect1_innerShadow_338_817"/>
</filter>
<filter id="filter12_i_338_817" x="-22" y="401" width="94" height="136.534" filterUnits="userSpaceOnUse" color-interpolation-filters="sRGB">
<feFlood flood-opacity="0" result="BackgroundImageFix"/>
<feBlend mode="normal" in="SourceGraphic" in2="BackgroundImageFix" result="shape"/>
<feColorMatrix in="SourceAlpha" type="matrix" values="0 0 0 0 0 0 0 0 0 0 0 0 0 0 0 0 0 0 127 0" result="hardAlpha"/>
<feOffset dy="4"/>
<feGaussianBlur stdDeviation="2"/>
<feComposite in2="hardAlpha" operator="arithmetic" k2="-1" k3="1"/>
<feColorMatrix type="matrix" values="0 0 0 0 0.215686 0 0 0 0 0.254902 0 0 0 0 0.317647 0 0 0 0.25 0"/>
<feBlend mode="normal" in2="shape" result="effect1_innerShadow_338_817"/>
</filter>
<filter id="filter13_i_338_817" x="-22" y="231" width="94" height="136.534" filterUnits="userSpaceOnUse" color-interpolation-filters="sRGB">
<feFlood flood-opacity="0" result="BackgroundImageFix"/>
<feBlend mode="normal" in="SourceGraphic" in2="BackgroundImageFix" result="shape"/>
<feColorMatrix in="SourceAlpha" type="matrix" values="0 0 0 0 0 0 0 0 0 0 0 0 0 0 0 0 0 0 127 0" result="hardAlpha"/>
<feOffset dy="4"/>
<feGaussianBlur stdDeviation="2"/>
<feComposite in2="hardAlpha" operator="arithmetic" k2="-1" k3="1"/>
<feColorMatrix type="matrix" values="0 0 0 0 0.215686 0 0 0 0 0.254902 0 0 0 0 0.317647 0 0 0 0.25 0"/>
<feBlend mode="normal" in2="shape" result="effect1_innerShadow_338_817"/>
</filter>
<filter id="filter14_i_338_817" x="-22" y="316" width="94" height="136.534" filterUnits="userSpaceOnUse" color-interpolation-filters="sRGB">
<feFlood flood-opacity="0" result="BackgroundImageFix"/>
<feBlend mode="normal" in="SourceGraphic" in2="BackgroundImageFix" result="shape"/>
<feColorMatrix in="SourceAlpha" type="matrix" values="0 0 0 0 0 0 0 0 0 0 0 0 0 0 0 0 0 0 127 0" result="hardAlpha"/>
<feOffset dy="4"/>
<feGaussianBlur stdDeviation="2"/>
<feComposite in2="hardAlpha" operator="arithmetic" k2="-1" k3="1"/>
<feColorMatrix type="matrix" values="0 0 0 0 0.215686 0 0 0 0 0.254902 0 0 0 0 0.317647 0 0 0 0.25 0"/>
<feBlend mode="normal" in2="shape" result="effect1_innerShadow_338_817"/>
</filter>
<filter id="filter15_i_338_817" x="-22" y="146" width="94" height="136.534" filterUnits="userSpaceOnUse" color-interpolation-filters="sRGB">
<feFlood flood-opacity="0" result="BackgroundImageFix"/>
<feBlend mode="normal" in="SourceGraphic" in2="BackgroundImageFix" result="shape"/>
<feColorMatrix in="SourceAlpha" type="matrix" values="0 0 0 0 0 0 0 0 0 0 0 0 0 0 0 0 0 0 127 0" result="hardAlpha"/>
<feOffset dy="4"/>
<feGaussianBlur stdDeviation="2"/>
<feComposite in2="hardAlpha" operator="arithmetic" k2="-1" k3="1"/>
<feColorMatrix type="matrix" values="0 0 0 0 0.215686 0 0 0 0 0.254902 0 0 0 0 0.317647 0 0 0 0.25 0"/>
<feBlend mode="normal" in2="shape" result="effect1_innerShadow_338_817"/>
</filter>
<filter id="filter16_i_338_817" x="-22" y="61" width="94" height="136.534" filterUnits="userSpaceOnUse" color-interpolation-filters="sRGB">
<feFlood flood-opacity="0" result="BackgroundImageFix"/>
<feBlend mode="normal" in="SourceGraphic" in2="BackgroundImageFix" result="shape"/>
<feColorMatrix in="SourceAlpha" type="matrix" values="0 0 0 0 0 0 0 0 0 0 0 0 0 0 0 0 0 0 127 0" result="hardAlpha"/>
<feOffset dy="4"/>
<feGaussianBlur stdDeviation="2"/>
<feComposite in2="hardAlpha" operator="arithmetic" k2="-1" k3="1"/>
<feColorMatrix type="matrix" values="0 0 0 0 0.215686 0 0 0 0 0.254902 0 0 0 0 0.317647 0 0 0 0.25 0"/>
<feBlend mode="normal" in2="shape" result="effect1_innerShadow_338_817"/>
</filter>
<filter id="filter17_i_338_817" x="-22" y="-24" width="94" height="136.534" filterUnits="userSpaceOnUse" color-interpolation-filters="sRGB">
<feFlood flood-opacity="0" result="BackgroundImageFix"/>
<feBlend mode="normal" in="SourceGraphic" in2="BackgroundImageFix" result="shape"/>
<feColorMatrix in="SourceAlpha" type="matrix" values="0 0 0 0 0 0 0 0 0 0 0 0 0 0 0 0 0 0 127 0" result="hardAlpha"/>
<feOffset dy="4"/>
<feGaussianBlur stdDeviation="2"/>
<feComposite in2="hardAlpha" operator="arithmetic" k2="-1" k3="1"/>
<feColorMatrix type="matrix" values="0 0 0 0 0.215686 0 0 0 0 0.254902 0 0 0 0 0.317647 0 0 0 0.25 0"/>
<feBlend mode="normal" in2="shape" result="effect1_innerShadow_338_817"/>
</filter>
<clipPath id="clip0_338_817">
<rect width="72" height="1530" fill="white"/>
</clipPath>
</defs>
</svg>
