<svg width="251" height="880" viewBox="0 0 251 880" fill="none" xmlns="http://www.w3.org/2000/svg">
<g clip-path="url(#clip0_228_3953)">
<g filter="url(#filter0_i_228_3953)">
<path fill-rule="evenodd" clip-rule="evenodd" d="M196.437 864.997C201.046 862.335 206.724 862.334 211.334 864.994L237.425 880.046C242.038 882.707 244.88 887.628 244.88 892.954V923.046C244.88 928.372 242.038 933.293 237.425 935.954L211.334 951.006C206.724 953.666 201.046 953.665 196.437 951.003L170.371 935.954C165.76 933.292 162.92 928.372 162.92 923.049V892.951C162.92 887.628 165.76 882.708 170.371 880.046L196.437 864.997ZM207.609 878.066C205.305 876.738 202.468 876.739 200.165 878.067L179.832 889.797C177.526 891.128 176.105 893.588 176.105 896.251V919.749C176.105 922.412 177.526 924.872 179.832 926.203L200.161 937.93C202.465 939.26 205.304 939.259 207.609 937.929L227.969 926.175C230.275 924.845 231.695 922.385 231.695 919.723V896.254C231.695 893.59 230.273 891.129 227.965 889.798L207.609 878.066Z" fill="#7FFF00"/>
<path fill-rule="evenodd" clip-rule="evenodd" d="M243.396 786.997C248.006 784.335 253.684 784.334 258.294 786.994L284.384 802.046C288.997 804.707 291.839 809.628 291.839 814.954V845.046C291.839 850.372 288.997 855.293 284.384 857.954L258.294 873.006C253.684 875.666 248.006 875.665 243.396 873.003L217.33 857.954C212.72 855.292 209.88 850.372 209.88 845.049V814.951C209.88 809.628 212.72 804.708 217.33 802.046L243.396 786.997ZM254.568 800.066C252.265 798.738 249.428 798.739 247.125 800.067L226.792 811.797C224.485 813.128 223.064 815.588 223.064 818.251V841.749C223.064 844.412 224.485 846.872 226.792 848.203L247.12 859.93C249.425 861.26 252.264 861.259 254.568 859.929L274.929 848.175C277.235 846.845 278.655 844.385 278.655 841.723V818.254C278.655 815.59 277.233 813.129 274.925 811.798L254.568 800.066Z" fill="#7FFF00"/>
<path fill-rule="evenodd" clip-rule="evenodd" d="M149.437 786.997C154.046 784.335 159.724 784.334 164.334 786.994L190.425 802.046C195.038 804.707 197.88 809.628 197.88 814.954V845.046C197.88 850.372 195.038 855.293 190.425 857.954L164.334 873.006C159.724 875.666 154.046 875.665 149.437 873.003L123.371 857.954C118.76 855.292 115.92 850.372 115.92 845.049V814.951C115.92 809.628 118.76 804.708 123.371 802.046L149.437 786.997ZM160.609 800.066C158.305 798.738 155.468 798.739 153.165 800.067L132.832 811.797C130.526 813.128 129.105 815.588 129.105 818.251V841.749C129.105 844.412 130.526 846.872 132.832 848.203L153.161 859.93C155.465 861.26 158.304 861.259 160.609 859.929L180.969 848.175C183.275 846.845 184.695 844.385 184.695 841.723V818.254C184.695 815.59 183.273 813.129 180.965 811.798L160.609 800.066Z" fill="#7FFF00"/>
</g>
<g filter="url(#filter1_i_228_3953)">
<path fill-rule="evenodd" clip-rule="evenodd" d="M243.396 786.997C248.006 784.335 253.684 784.334 258.294 786.994L284.384 802.046C288.997 804.707 291.839 809.628 291.839 814.954V845.046C291.839 850.372 288.997 855.293 284.384 857.954L258.294 873.006C253.684 875.666 248.006 875.665 243.396 873.003L217.33 857.954C212.72 855.292 209.88 850.372 209.88 845.049V814.951C209.88 809.628 212.72 804.708 217.33 802.046L243.396 786.997ZM254.568 800.066C252.265 798.738 249.428 798.739 247.125 800.067L226.792 811.797C224.485 813.128 223.064 815.588 223.064 818.251V841.749C223.064 844.412 224.485 846.872 226.792 848.203L247.12 859.93C249.425 861.26 252.264 861.259 254.568 859.929L274.929 848.175C277.235 846.845 278.655 844.385 278.655 841.723V818.254C278.655 815.59 277.233 813.129 274.925 811.798L254.568 800.066Z" fill="#7FFF00"/>
<path fill-rule="evenodd" clip-rule="evenodd" d="M149.437 786.997C154.046 784.335 159.724 784.334 164.334 786.994L190.425 802.046C195.038 804.707 197.88 809.628 197.88 814.954V845.046C197.88 850.372 195.038 855.293 190.425 857.954L164.334 873.006C159.724 875.666 154.046 875.665 149.437 873.003L123.371 857.954C118.76 855.292 115.92 850.372 115.92 845.049V814.951C115.92 809.628 118.76 804.708 123.371 802.046L149.437 786.997ZM160.609 800.066C158.305 798.738 155.468 798.739 153.165 800.067L132.832 811.797C130.526 813.128 129.105 815.588 129.105 818.251V841.749C129.105 844.412 130.526 846.872 132.832 848.203L153.161 859.93C155.465 861.26 158.304 861.259 160.609 859.929L180.969 848.175C183.275 846.845 184.695 844.385 184.695 841.723V818.254C184.695 815.59 183.273 813.129 180.965 811.798L160.609 800.066Z" fill="#7FFF00"/>
<path fill-rule="evenodd" clip-rule="evenodd" d="M196.437 708.997C201.046 706.335 206.724 706.334 211.334 708.994L237.425 724.046C242.038 726.707 244.88 731.628 244.88 736.954V767.046C244.88 772.372 242.038 777.293 237.425 779.954L211.334 795.006C206.724 797.666 201.046 797.665 196.437 795.003L170.371 779.954C165.76 777.292 162.92 772.372 162.92 767.049V736.951C162.92 731.628 165.76 726.708 170.371 724.046L196.437 708.997ZM207.609 722.066C205.305 720.738 202.468 720.739 200.165 722.067L179.832 733.797C177.526 735.128 176.105 737.588 176.105 740.251V763.749C176.105 766.412 177.526 768.872 179.832 770.203L200.161 781.93C202.465 783.26 205.304 783.259 207.609 781.929L227.969 770.175C230.275 768.845 231.695 766.385 231.695 763.723V740.254C231.695 737.59 230.273 735.129 227.965 733.798L207.609 722.066Z" fill="#7FFF00"/>
<path fill-rule="evenodd" clip-rule="evenodd" d="M243.396 630.997C248.006 628.335 253.684 628.334 258.294 630.994L284.384 646.046C288.997 648.707 291.839 653.628 291.839 658.954V689.046C291.839 694.372 288.997 699.293 284.384 701.954L258.294 717.006C253.684 719.666 248.006 719.665 243.396 717.003L217.33 701.954C212.72 699.292 209.88 694.372 209.88 689.049V658.951C209.88 653.628 212.72 648.708 217.33 646.046L243.396 630.997ZM254.568 644.066C252.265 642.738 249.428 642.739 247.125 644.067L226.792 655.797C224.485 657.128 223.064 659.588 223.064 662.251V685.749C223.064 688.412 224.485 690.872 226.792 692.203L247.12 703.93C249.425 705.26 252.264 705.259 254.568 703.929L274.929 692.175C277.235 690.845 278.655 688.385 278.655 685.723V662.254C278.655 659.59 277.233 657.129 274.925 655.798L254.568 644.066Z" fill="#7FFF00"/>
<path fill-rule="evenodd" clip-rule="evenodd" d="M149.437 630.997C154.046 628.335 159.724 628.334 164.334 630.994L190.425 646.046C195.038 648.707 197.88 653.628 197.88 658.954V689.046C197.88 694.372 195.038 699.293 190.425 701.954L164.334 717.006C159.724 719.666 154.046 719.665 149.437 717.003L123.371 701.954C118.76 699.292 115.92 694.372 115.92 689.049V658.951C115.92 653.628 118.76 648.708 123.371 646.046L149.437 630.997ZM160.609 644.066C158.305 642.738 155.468 642.739 153.165 644.067L132.832 655.797C130.526 657.128 129.105 659.588 129.105 662.251V685.749C129.105 688.412 130.526 690.872 132.832 692.203L153.161 703.93C155.465 705.26 158.304 705.259 160.609 703.929L180.969 692.175C183.275 690.845 184.695 688.385 184.695 685.723V662.254C184.695 659.59 183.273 657.129 180.965 655.798L160.609 644.066Z" fill="#7FFF00"/>
</g>
<g filter="url(#filter2_i_228_3953)">
<path fill-rule="evenodd" clip-rule="evenodd" d="M243.396 630.997C248.006 628.335 253.684 628.334 258.294 630.994L284.384 646.046C288.997 648.707 291.839 653.628 291.839 658.954V689.046C291.839 694.372 288.997 699.293 284.384 701.954L258.294 717.006C253.684 719.666 248.006 719.665 243.396 717.003L217.33 701.954C212.72 699.292 209.88 694.372 209.88 689.049V658.951C209.88 653.628 212.72 648.708 217.33 646.046L243.396 630.997ZM254.568 644.066C252.265 642.738 249.428 642.739 247.125 644.067L226.792 655.797C224.485 657.128 223.064 659.588 223.064 662.251V685.749C223.064 688.412 224.485 690.872 226.792 692.203L247.12 703.93C249.425 705.26 252.264 705.259 254.568 703.929L274.929 692.175C277.235 690.845 278.655 688.385 278.655 685.723V662.254C278.655 659.59 277.233 657.129 274.925 655.798L254.568 644.066Z" fill="#7FFF00"/>
<path fill-rule="evenodd" clip-rule="evenodd" d="M149.437 630.997C154.046 628.335 159.724 628.334 164.334 630.994L190.425 646.046C195.038 648.707 197.88 653.628 197.88 658.954V689.046C197.88 694.372 195.038 699.293 190.425 701.954L164.334 717.006C159.724 719.666 154.046 719.665 149.437 717.003L123.371 701.954C118.76 699.292 115.92 694.372 115.92 689.049V658.951C115.92 653.628 118.76 648.708 123.371 646.046L149.437 630.997ZM160.609 644.066C158.305 642.738 155.468 642.739 153.165 644.067L132.832 655.797C130.526 657.128 129.105 659.588 129.105 662.251V685.749C129.105 688.412 130.526 690.872 132.832 692.203L153.161 703.93C155.465 705.26 158.304 705.259 160.609 703.929L180.969 692.175C183.275 690.845 184.695 688.385 184.695 685.723V662.254C184.695 659.59 183.273 657.129 180.965 655.798L160.609 644.066Z" fill="#7FFF00"/>
<path fill-rule="evenodd" clip-rule="evenodd" d="M196.437 552.997C201.046 550.335 206.724 550.334 211.334 552.994L237.425 568.046C242.038 570.707 244.88 575.628 244.88 580.954V611.046C244.88 616.372 242.038 621.293 237.425 623.954L211.334 639.006C206.724 641.666 201.046 641.665 196.437 639.003L170.371 623.954C165.76 621.292 162.92 616.372 162.92 611.049V580.951C162.92 575.628 165.76 570.708 170.371 568.046L196.437 552.997ZM207.609 566.066C205.305 564.738 202.468 564.739 200.165 566.067L179.832 577.797C177.526 579.128 176.105 581.588 176.105 584.251V607.749C176.105 610.412 177.526 612.872 179.832 614.203L200.161 625.93C202.465 627.26 205.304 627.259 207.609 625.929L227.969 614.175C230.275 612.845 231.695 610.385 231.695 607.723V584.254C231.695 581.59 230.273 579.129 227.965 577.798L207.609 566.066Z" fill="#7FFF00"/>
<path fill-rule="evenodd" clip-rule="evenodd" d="M243.396 474.997C248.006 472.335 253.684 472.334 258.294 474.994L284.384 490.046C288.997 492.707 291.839 497.628 291.839 502.954V533.046C291.839 538.372 288.997 543.293 284.384 545.954L258.294 561.006C253.684 563.666 248.006 563.665 243.396 561.003L217.33 545.954C212.72 543.292 209.88 538.372 209.88 533.049V502.951C209.88 497.628 212.72 492.708 217.33 490.046L243.396 474.997ZM254.568 488.066C252.265 486.738 249.428 486.739 247.125 488.067L226.792 499.797C224.485 501.128 223.064 503.588 223.064 506.251V529.749C223.064 532.412 224.485 534.872 226.792 536.203L247.12 547.93C249.425 549.26 252.264 549.259 254.568 547.929L274.929 536.175C277.235 534.845 278.655 532.385 278.655 529.723V506.254C278.655 503.59 277.233 501.129 274.925 499.798L254.568 488.066Z" fill="#7FFF00"/>
<path fill-rule="evenodd" clip-rule="evenodd" d="M149.437 474.997C154.046 472.335 159.724 472.334 164.334 474.994L190.425 490.046C195.038 492.707 197.88 497.628 197.88 502.954V533.046C197.88 538.372 195.038 543.293 190.425 545.954L164.334 561.006C159.724 563.666 154.046 563.665 149.437 561.003L123.371 545.954C118.76 543.292 115.92 538.372 115.92 533.049V502.951C115.92 497.628 118.76 492.708 123.371 490.046L149.437 474.997ZM160.609 488.066C158.305 486.738 155.468 486.739 153.165 488.067L132.832 499.797C130.526 501.128 129.105 503.588 129.105 506.251V529.749C129.105 532.412 130.526 534.872 132.832 536.203L153.161 547.93C155.465 549.26 158.304 549.259 160.609 547.929L180.969 536.175C183.275 534.845 184.695 532.385 184.695 529.723V506.254C184.695 503.59 183.273 501.129 180.965 499.798L160.609 488.066Z" fill="#7FFF00"/>
</g>
<g filter="url(#filter3_i_228_3953)">
<path fill-rule="evenodd" clip-rule="evenodd" d="M243.396 474.997C248.006 472.335 253.684 472.334 258.294 474.994L284.384 490.046C288.997 492.707 291.839 497.628 291.839 502.954V533.046C291.839 538.372 288.997 543.293 284.384 545.954L258.294 561.006C253.684 563.666 248.006 563.665 243.396 561.003L217.33 545.954C212.72 543.292 209.88 538.372 209.88 533.049V502.951C209.88 497.628 212.72 492.708 217.33 490.046L243.396 474.997ZM254.568 488.066C252.265 486.738 249.428 486.739 247.125 488.067L226.792 499.797C224.485 501.128 223.064 503.588 223.064 506.251V529.749C223.064 532.412 224.485 534.872 226.792 536.203L247.12 547.93C249.425 549.26 252.264 549.259 254.568 547.929L274.929 536.175C277.235 534.845 278.655 532.385 278.655 529.723V506.254C278.655 503.59 277.233 501.129 274.925 499.798L254.568 488.066Z" fill="#7FFF00"/>
<path fill-rule="evenodd" clip-rule="evenodd" d="M149.437 474.997C154.046 472.335 159.724 472.334 164.334 474.994L190.425 490.046C195.038 492.707 197.88 497.628 197.88 502.954V533.046C197.88 538.372 195.038 543.293 190.425 545.954L164.334 561.006C159.724 563.666 154.046 563.665 149.437 561.003L123.371 545.954C118.76 543.292 115.92 538.372 115.92 533.049V502.951C115.92 497.628 118.76 492.708 123.371 490.046L149.437 474.997ZM160.609 488.066C158.305 486.738 155.468 486.739 153.165 488.067L132.832 499.797C130.526 501.128 129.105 503.588 129.105 506.251V529.749C129.105 532.412 130.526 534.872 132.832 536.203L153.161 547.93C155.465 549.26 158.304 549.259 160.609 547.929L180.969 536.175C183.275 534.845 184.695 532.385 184.695 529.723V506.254C184.695 503.59 183.273 501.129 180.965 499.798L160.609 488.066Z" fill="#7FFF00"/>
<path fill-rule="evenodd" clip-rule="evenodd" d="M196.437 396.997C201.046 394.335 206.724 394.334 211.334 396.994L237.425 412.046C242.038 414.707 244.88 419.628 244.88 424.954V455.046C244.88 460.372 242.038 465.293 237.425 467.954L211.334 483.006C206.724 485.666 201.046 485.665 196.437 483.003L170.371 467.954C165.76 465.292 162.92 460.372 162.92 455.049V424.951C162.92 419.628 165.76 414.708 170.371 412.046L196.437 396.997ZM207.609 410.066C205.305 408.738 202.468 408.739 200.165 410.067L179.832 421.797C177.526 423.128 176.105 425.588 176.105 428.251V451.749C176.105 454.412 177.526 456.872 179.832 458.203L200.161 469.93C202.465 471.26 205.304 471.259 207.609 469.929L227.969 458.175C230.275 456.845 231.695 454.385 231.695 451.723V428.254C231.695 425.59 230.273 423.129 227.965 421.798L207.609 410.066Z" fill="#7FFF00"/>
<path fill-rule="evenodd" clip-rule="evenodd" d="M243.396 318.997C248.006 316.335 253.684 316.334 258.294 318.994L284.384 334.046C288.997 336.707 291.839 341.628 291.839 346.954V377.046C291.839 382.372 288.997 387.293 284.384 389.954L258.294 405.006C253.684 407.666 248.006 407.665 243.396 405.003L217.33 389.954C212.72 387.292 209.88 382.372 209.88 377.049V346.951C209.88 341.628 212.72 336.708 217.33 334.046L243.396 318.997ZM254.568 332.066C252.265 330.738 249.428 330.739 247.125 332.067L226.792 343.797C224.485 345.128 223.064 347.588 223.064 350.251V373.749C223.064 376.412 224.485 378.872 226.792 380.203L247.12 391.93C249.425 393.26 252.264 393.259 254.568 391.929L274.929 380.175C277.235 378.845 278.655 376.385 278.655 373.723V350.254C278.655 347.59 277.233 345.129 274.925 343.798L254.568 332.066Z" fill="#7FFF00"/>
<path fill-rule="evenodd" clip-rule="evenodd" d="M149.437 318.997C154.046 316.335 159.724 316.334 164.334 318.994L190.425 334.046C195.038 336.707 197.88 341.628 197.88 346.954V377.046C197.88 382.372 195.038 387.293 190.425 389.954L164.334 405.006C159.724 407.666 154.046 407.665 149.437 405.003L123.371 389.954C118.76 387.292 115.92 382.372 115.92 377.049V346.951C115.92 341.628 118.76 336.708 123.371 334.046L149.437 318.997ZM160.609 332.066C158.305 330.738 155.468 330.739 153.165 332.067L132.832 343.797C130.526 345.128 129.105 347.588 129.105 350.251V373.749C129.105 376.412 130.526 378.872 132.832 380.203L153.161 391.93C155.465 393.26 158.304 393.259 160.609 391.929L180.969 380.175C183.275 378.845 184.695 376.385 184.695 373.723V350.254C184.695 347.59 183.273 345.129 180.965 343.798L160.609 332.066Z" fill="#7FFF00"/>
</g>
<g filter="url(#filter4_i_228_3953)">
<path fill-rule="evenodd" clip-rule="evenodd" d="M243.396 318.997C248.006 316.335 253.684 316.334 258.294 318.994L284.384 334.046C288.997 336.707 291.839 341.628 291.839 346.954V377.046C291.839 382.372 288.997 387.293 284.384 389.954L258.294 405.006C253.684 407.666 248.006 407.665 243.396 405.003L217.33 389.954C212.72 387.292 209.88 382.372 209.88 377.049V346.951C209.88 341.628 212.72 336.708 217.33 334.046L243.396 318.997ZM254.568 332.066C252.265 330.738 249.428 330.739 247.125 332.067L226.792 343.797C224.485 345.128 223.064 347.588 223.064 350.251V373.749C223.064 376.412 224.485 378.872 226.792 380.203L247.12 391.93C249.425 393.26 252.264 393.259 254.568 391.929L274.929 380.175C277.235 378.845 278.655 376.385 278.655 373.723V350.254C278.655 347.59 277.233 345.129 274.925 343.798L254.568 332.066Z" fill="#7FFF00"/>
<path fill-rule="evenodd" clip-rule="evenodd" d="M149.437 318.997C154.046 316.335 159.724 316.334 164.334 318.994L190.425 334.046C195.038 336.707 197.88 341.628 197.88 346.954V377.046C197.88 382.372 195.038 387.293 190.425 389.954L164.334 405.006C159.724 407.666 154.046 407.665 149.437 405.003L123.371 389.954C118.76 387.292 115.92 382.372 115.92 377.049V346.951C115.92 341.628 118.76 336.708 123.371 334.046L149.437 318.997ZM160.609 332.066C158.305 330.738 155.468 330.739 153.165 332.067L132.832 343.797C130.526 345.128 129.105 347.588 129.105 350.251V373.749C129.105 376.412 130.526 378.872 132.832 380.203L153.161 391.93C155.465 393.26 158.304 393.259 160.609 391.929L180.969 380.175C183.275 378.845 184.695 376.385 184.695 373.723V350.254C184.695 347.59 183.273 345.129 180.965 343.798L160.609 332.066Z" fill="#7FFF00"/>
<path fill-rule="evenodd" clip-rule="evenodd" d="M196.437 240.997C201.046 238.335 206.724 238.334 211.334 240.994L237.425 256.046C242.038 258.707 244.88 263.628 244.88 268.954V299.046C244.88 304.372 242.038 309.293 237.425 311.954L211.334 327.006C206.724 329.666 201.046 329.665 196.437 327.003L170.371 311.954C165.76 309.292 162.92 304.372 162.92 299.049V268.951C162.92 263.628 165.76 258.708 170.371 256.046L196.437 240.997ZM207.609 254.066C205.305 252.738 202.468 252.739 200.165 254.067L179.832 265.797C177.526 267.128 176.105 269.588 176.105 272.251V295.749C176.105 298.412 177.526 300.872 179.832 302.203L200.161 313.93C202.465 315.26 205.304 315.259 207.609 313.929L227.969 302.175C230.275 300.845 231.695 298.385 231.695 295.723V272.254C231.695 269.59 230.273 267.129 227.965 265.798L207.609 254.066Z" fill="#7FFF00"/>
<path fill-rule="evenodd" clip-rule="evenodd" d="M243.396 162.997C248.006 160.335 253.684 160.334 258.294 162.994L284.384 178.046C288.997 180.707 291.839 185.628 291.839 190.954V221.046C291.839 226.372 288.997 231.293 284.384 233.954L258.294 249.006C253.684 251.666 248.006 251.665 243.396 249.003L217.33 233.954C212.72 231.292 209.88 226.372 209.88 221.049V190.951C209.88 185.628 212.72 180.708 217.33 178.046L243.396 162.997ZM254.568 176.066C252.265 174.738 249.428 174.739 247.125 176.067L226.792 187.797C224.485 189.128 223.064 191.588 223.064 194.251V217.749C223.064 220.412 224.485 222.872 226.792 224.203L247.12 235.93C249.425 237.26 252.264 237.259 254.568 235.929L274.929 224.175C277.235 222.845 278.655 220.385 278.655 217.723V194.254C278.655 191.59 277.233 189.129 274.925 187.798L254.568 176.066Z" fill="#7FFF00"/>
<path fill-rule="evenodd" clip-rule="evenodd" d="M149.437 162.997C154.046 160.335 159.724 160.334 164.334 162.994L190.425 178.046C195.038 180.707 197.88 185.628 197.88 190.954V221.046C197.88 226.372 195.038 231.293 190.425 233.954L164.334 249.006C159.724 251.666 154.046 251.665 149.437 249.003L123.371 233.954C118.76 231.292 115.92 226.372 115.92 221.049V190.951C115.92 185.628 118.76 180.708 123.371 178.046L149.437 162.997ZM160.609 176.066C158.305 174.738 155.468 174.739 153.165 176.067L132.832 187.797C130.526 189.128 129.105 191.588 129.105 194.251V217.749C129.105 220.412 130.526 222.872 132.832 224.203L153.161 235.93C155.465 237.26 158.304 237.259 160.609 235.929L180.969 224.175C183.275 222.845 184.695 220.385 184.695 217.723V194.254C184.695 191.59 183.273 189.129 180.965 187.798L160.609 176.066Z" fill="#7FFF00"/>
</g>
<g filter="url(#filter5_i_228_3953)">
<path fill-rule="evenodd" clip-rule="evenodd" d="M243.396 162.997C248.006 160.335 253.684 160.334 258.294 162.994L284.384 178.046C288.997 180.707 291.839 185.628 291.839 190.954V221.046C291.839 226.372 288.997 231.293 284.384 233.954L258.294 249.006C253.684 251.666 248.006 251.665 243.396 249.003L217.33 233.954C212.72 231.292 209.88 226.372 209.88 221.049V190.951C209.88 185.628 212.72 180.708 217.33 178.046L243.396 162.997ZM254.568 176.066C252.265 174.738 249.428 174.739 247.125 176.067L226.792 187.797C224.485 189.128 223.064 191.588 223.064 194.251V217.749C223.064 220.412 224.485 222.872 226.792 224.203L247.12 235.93C249.425 237.26 252.264 237.259 254.568 235.929L274.929 224.175C277.235 222.845 278.655 220.385 278.655 217.723V194.254C278.655 191.59 277.233 189.129 274.925 187.798L254.568 176.066Z" fill="#7FFF00"/>
<path fill-rule="evenodd" clip-rule="evenodd" d="M149.437 162.997C154.046 160.335 159.724 160.334 164.334 162.994L190.425 178.046C195.038 180.707 197.88 185.628 197.88 190.954V221.046C197.88 226.372 195.038 231.293 190.425 233.954L164.334 249.006C159.724 251.666 154.046 251.665 149.437 249.003L123.371 233.954C118.76 231.292 115.92 226.372 115.92 221.049V190.951C115.92 185.628 118.76 180.708 123.371 178.046L149.437 162.997ZM160.609 176.066C158.305 174.738 155.468 174.739 153.165 176.067L132.832 187.797C130.526 189.128 129.105 191.588 129.105 194.251V217.749C129.105 220.412 130.526 222.872 132.832 224.203L153.161 235.93C155.465 237.26 158.304 237.259 160.609 235.929L180.969 224.175C183.275 222.845 184.695 220.385 184.695 217.723V194.254C184.695 191.59 183.273 189.129 180.965 187.798L160.609 176.066Z" fill="#7FFF00"/>
<path fill-rule="evenodd" clip-rule="evenodd" d="M196.437 84.9966C201.046 82.3354 206.724 82.3344 211.334 84.9941L237.425 100.046C242.038 102.707 244.88 107.628 244.88 112.954V143.046C244.88 148.372 242.038 153.293 237.425 155.954L211.334 171.006C206.724 173.666 201.046 173.665 196.437 171.003L170.371 155.954C165.76 153.292 162.92 148.372 162.92 143.049V112.951C162.92 107.628 165.76 102.708 170.371 100.046L196.437 84.9966ZM207.609 98.0658C205.305 96.738 202.468 96.7386 200.165 98.0673L179.832 109.797C177.526 111.128 176.105 113.588 176.105 116.251V139.749C176.105 142.412 177.526 144.872 179.832 146.203L200.161 157.93C202.465 159.26 205.304 159.259 207.609 157.929L227.969 146.175C230.275 144.845 231.695 142.385 231.695 139.723V116.254C231.695 113.59 230.273 111.129 227.965 109.798L207.609 98.0658Z" fill="#7FFF00"/>
<path fill-rule="evenodd" clip-rule="evenodd" d="M243.396 6.99655C248.006 4.33537 253.684 4.33443 258.294 6.99407L284.384 22.0462C288.997 24.7075 291.839 29.6283 291.839 34.9538V65.0462C291.839 70.3718 288.997 75.2925 284.384 77.9539L258.294 93.0059C253.684 95.6656 248.006 95.6646 243.396 93.0035L217.33 77.9539C212.72 75.2919 209.88 70.3725 209.88 65.0486V34.9514C209.88 29.6275 212.72 24.7081 217.33 22.0462L243.396 6.99655ZM254.568 20.0658C252.265 18.738 249.428 18.7386 247.125 20.0673L226.792 31.7969C224.485 33.1276 223.064 35.588 223.064 38.2509V61.7491C223.064 64.412 224.485 66.8724 226.792 68.2031L247.12 79.9302C249.425 81.2598 252.264 81.2594 254.568 79.9291L274.929 68.1755C277.235 66.8446 278.655 64.3847 278.655 61.7226V38.2538C278.655 35.5899 277.233 33.1287 274.925 31.7984L254.568 20.0658Z" fill="#7FFF00"/>
<path fill-rule="evenodd" clip-rule="evenodd" d="M149.437 6.99655C154.046 4.33537 159.724 4.33443 164.334 6.99407L190.425 22.0462C195.038 24.7075 197.88 29.6283 197.88 34.9538V65.0462C197.88 70.3718 195.038 75.2925 190.425 77.9539L164.334 93.0059C159.724 95.6656 154.046 95.6646 149.437 93.0035L123.371 77.9539C118.76 75.2919 115.92 70.3725 115.92 65.0486V34.9514C115.92 29.6275 118.76 24.7081 123.371 22.0462L149.437 6.99655ZM160.609 20.0658C158.305 18.738 155.468 18.7386 153.165 20.0673L132.832 31.7969C130.526 33.1276 129.105 35.588 129.105 38.2509V61.7491C129.105 64.412 130.526 66.8724 132.832 68.2031L153.161 79.9302C155.465 81.2598 158.304 81.2594 160.609 79.9291L180.969 68.1755C183.275 66.8446 184.695 64.3847 184.695 61.7226V38.2538C184.695 35.5899 183.273 33.1287 180.965 31.7984L160.609 20.0658Z" fill="#7FFF00"/>
</g>
<g filter="url(#filter6_i_228_3953)">
<path fill-rule="evenodd" clip-rule="evenodd" d="M243.396 6.99655C248.006 4.33537 253.684 4.33443 258.294 6.99407L284.384 22.0462C288.997 24.7075 291.839 29.6283 291.839 34.9538V65.0462C291.839 70.3718 288.997 75.2925 284.384 77.9539L258.294 93.0059C253.684 95.6656 248.006 95.6646 243.396 93.0035L217.33 77.9539C212.72 75.2919 209.88 70.3725 209.88 65.0486V34.9514C209.88 29.6275 212.72 24.7081 217.33 22.0462L243.396 6.99655ZM254.568 20.0658C252.265 18.738 249.428 18.7386 247.125 20.0673L226.792 31.7969C224.485 33.1276 223.064 35.588 223.064 38.2509V61.7491C223.064 64.412 224.485 66.8724 226.792 68.2031L247.12 79.9302C249.425 81.2598 252.264 81.2594 254.568 79.9291L274.929 68.1755C277.235 66.8446 278.655 64.3847 278.655 61.7226V38.2538C278.655 35.5899 277.233 33.1287 274.925 31.7984L254.568 20.0658Z" fill="#7FFF00"/>
<path fill-rule="evenodd" clip-rule="evenodd" d="M149.437 6.99655C154.046 4.33537 159.724 4.33443 164.334 6.99407L190.425 22.0462C195.038 24.7075 197.88 29.6283 197.88 34.9538V65.0462C197.88 70.3718 195.038 75.2925 190.425 77.9539L164.334 93.0059C159.724 95.6656 154.046 95.6646 149.437 93.0035L123.371 77.9539C118.76 75.2919 115.92 70.3725 115.92 65.0486V34.9514C115.92 29.6275 118.76 24.7081 123.371 22.0462L149.437 6.99655ZM160.609 20.0658C158.305 18.738 155.468 18.7386 153.165 20.0673L132.832 31.7969C130.526 33.1276 129.105 35.588 129.105 38.2509V61.7491C129.105 64.412 130.526 66.8724 132.832 68.2031L153.161 79.9302C155.465 81.2598 158.304 81.2594 160.609 79.9291L180.969 68.1755C183.275 66.8446 184.695 64.3847 184.695 61.7226V38.2538C184.695 35.5899 183.273 33.1287 180.965 31.7984L160.609 20.0658Z" fill="#7FFF00"/>
<path fill-rule="evenodd" clip-rule="evenodd" d="M196.437 -71.0034C201.046 -73.6646 206.724 -73.6656 211.334 -71.0059L237.425 -55.9538C242.038 -53.2925 244.88 -48.3717 244.88 -43.0462V-12.9538C244.88 -7.62823 242.038 -2.70746 237.425 -0.0461349L211.334 15.0059C206.724 17.6656 201.046 17.6646 196.437 15.0035L170.371 -0.0461273C165.76 -2.7081 162.92 -7.62753 162.92 -12.9514V-43.0486C162.92 -48.3725 165.76 -53.2919 170.371 -55.9538L196.437 -71.0034ZM207.609 -57.9342C205.305 -59.262 202.468 -59.2614 200.165 -57.9327L179.832 -46.2031C177.526 -44.8724 176.105 -42.412 176.105 -39.7491V-16.2509C176.105 -13.588 177.526 -11.1276 179.832 -9.79693L200.161 1.93018C202.465 3.25981 205.304 3.25941 207.609 1.92911L227.969 -9.82453C230.275 -11.1554 231.695 -13.6153 231.695 -16.2774V-39.7462C231.695 -42.4101 230.273 -44.8713 227.965 -46.2016L207.609 -57.9342Z" fill="#7FFF00"/>
</g>
<g filter="url(#filter7_i_228_3953)">
<path fill-rule="evenodd" clip-rule="evenodd" d="M102.517 864.997C107.126 862.335 112.804 862.334 117.414 864.994L143.505 880.046C148.118 882.707 150.96 887.628 150.96 892.954V923.046C150.96 928.372 148.118 933.293 143.505 935.954L117.414 951.006C112.804 953.666 107.126 953.665 102.517 951.003L76.4507 935.954C71.8402 933.292 69 928.372 69 923.049V892.951C69 887.628 71.8402 882.708 76.4507 880.046L102.517 864.997ZM113.689 878.066C111.385 876.738 108.548 876.739 106.245 878.067L85.9122 889.797C83.6056 891.128 82.1845 893.588 82.1845 896.251V919.749C82.1845 922.412 83.6056 924.872 85.9122 926.203L106.24 937.93C108.545 939.26 111.384 939.259 113.689 937.929L134.049 926.175C136.355 924.845 137.775 922.385 137.775 919.723V896.254C137.775 893.59 136.353 891.129 134.045 889.798L113.689 878.066Z" fill="#7FFF00"/>
<path fill-rule="evenodd" clip-rule="evenodd" d="M149.476 786.997C154.086 784.335 159.764 784.334 164.374 786.994L190.464 802.046C195.077 804.707 197.919 809.628 197.919 814.954V845.046C197.919 850.372 195.077 855.293 190.464 857.954L164.374 873.006C159.764 875.666 154.086 875.665 149.476 873.003L123.41 857.954C118.8 855.292 115.96 850.372 115.96 845.049V814.951C115.96 809.628 118.8 804.708 123.41 802.046L149.476 786.997ZM160.648 800.066C158.345 798.738 155.508 798.739 153.205 800.067L132.872 811.797C130.565 813.128 129.144 815.588 129.144 818.251V841.749C129.144 844.412 130.565 846.872 132.872 848.203L153.2 859.93C155.505 861.26 158.344 861.259 160.648 859.929L181.009 848.175C183.315 846.845 184.735 844.385 184.735 841.723V818.254C184.735 815.59 183.313 813.129 181.005 811.798L160.648 800.066Z" fill="#7FFF00"/>
<path fill-rule="evenodd" clip-rule="evenodd" d="M55.5166 786.997C60.1258 784.335 65.8044 784.334 70.4144 786.994L96.5047 802.046C101.118 804.707 103.96 809.628 103.96 814.954V845.046C103.96 850.372 101.118 855.293 96.5047 857.954L70.4144 873.006C65.8044 875.666 60.1258 875.665 55.5166 873.003L29.4507 857.954C24.8402 855.292 22 850.372 22 845.049V814.951C22 809.628 24.8402 804.708 29.4507 802.046L55.5166 786.997ZM66.6887 800.066C64.3849 798.738 61.5481 798.739 59.2449 800.067L38.9122 811.797C36.6056 813.128 35.1845 815.588 35.1845 818.251V841.749C35.1845 844.412 36.6056 846.872 38.9122 848.203L59.2405 859.93C61.5453 861.26 64.3843 861.259 66.6887 859.929L87.0494 848.175C89.3549 846.845 90.7752 844.385 90.7752 841.723V818.254C90.7752 815.59 89.353 813.129 87.045 811.798L66.6887 800.066Z" fill="#7FFF00"/>
</g>
<g filter="url(#filter8_i_228_3953)">
<path fill-rule="evenodd" clip-rule="evenodd" d="M149.476 786.997C154.086 784.335 159.764 784.334 164.374 786.994L190.464 802.046C195.077 804.707 197.919 809.628 197.919 814.954V845.046C197.919 850.372 195.077 855.293 190.464 857.954L164.374 873.006C159.764 875.666 154.086 875.665 149.476 873.003L123.41 857.954C118.8 855.292 115.96 850.372 115.96 845.049V814.951C115.96 809.628 118.8 804.708 123.41 802.046L149.476 786.997ZM160.648 800.066C158.345 798.738 155.508 798.739 153.205 800.067L132.872 811.797C130.565 813.128 129.144 815.588 129.144 818.251V841.749C129.144 844.412 130.565 846.872 132.872 848.203L153.2 859.93C155.505 861.26 158.344 861.259 160.648 859.929L181.009 848.175C183.315 846.845 184.735 844.385 184.735 841.723V818.254C184.735 815.59 183.313 813.129 181.005 811.798L160.648 800.066Z" fill="#7FFF00"/>
<path fill-rule="evenodd" clip-rule="evenodd" d="M55.5166 786.997C60.1258 784.335 65.8044 784.334 70.4144 786.994L96.5047 802.046C101.118 804.707 103.96 809.628 103.96 814.954V845.046C103.96 850.372 101.118 855.293 96.5047 857.954L70.4144 873.006C65.8044 875.666 60.1258 875.665 55.5166 873.003L29.4507 857.954C24.8402 855.292 22 850.372 22 845.049V814.951C22 809.628 24.8402 804.708 29.4507 802.046L55.5166 786.997ZM66.6887 800.066C64.3849 798.738 61.5481 798.739 59.2449 800.067L38.9122 811.797C36.6056 813.128 35.1845 815.588 35.1845 818.251V841.749C35.1845 844.412 36.6056 846.872 38.9122 848.203L59.2405 859.93C61.5453 861.26 64.3843 861.259 66.6887 859.929L87.0494 848.175C89.3549 846.845 90.7752 844.385 90.7752 841.723V818.254C90.7752 815.59 89.353 813.129 87.045 811.798L66.6887 800.066Z" fill="#7FFF00"/>
<path fill-rule="evenodd" clip-rule="evenodd" d="M102.517 708.997C107.126 706.335 112.804 706.334 117.414 708.994L143.505 724.046C148.118 726.707 150.96 731.628 150.96 736.954V767.046C150.96 772.372 148.118 777.293 143.505 779.954L117.414 795.006C112.804 797.666 107.126 797.665 102.517 795.003L76.4507 779.954C71.8402 777.292 69 772.372 69 767.049V736.951C69 731.628 71.8402 726.708 76.4507 724.046L102.517 708.997ZM113.689 722.066C111.385 720.738 108.548 720.739 106.245 722.067L85.9122 733.797C83.6056 735.128 82.1845 737.588 82.1845 740.251V763.749C82.1845 766.412 83.6056 768.872 85.9122 770.203L106.24 781.93C108.545 783.26 111.384 783.259 113.689 781.929L134.049 770.175C136.355 768.845 137.775 766.385 137.775 763.723V740.254C137.775 737.59 136.353 735.129 134.045 733.798L113.689 722.066Z" fill="#7FFF00"/>
<path fill-rule="evenodd" clip-rule="evenodd" d="M149.476 630.997C154.086 628.335 159.764 628.334 164.374 630.994L190.464 646.046C195.077 648.707 197.919 653.628 197.919 658.954V689.046C197.919 694.372 195.077 699.293 190.464 701.954L164.374 717.006C159.764 719.666 154.086 719.665 149.476 717.003L123.41 701.954C118.8 699.292 115.96 694.372 115.96 689.049V658.951C115.96 653.628 118.8 648.708 123.41 646.046L149.476 630.997ZM160.648 644.066C158.345 642.738 155.508 642.739 153.205 644.067L132.872 655.797C130.565 657.128 129.144 659.588 129.144 662.251V685.749C129.144 688.412 130.565 690.872 132.872 692.203L153.2 703.93C155.505 705.26 158.344 705.259 160.648 703.929L181.009 692.175C183.315 690.845 184.735 688.385 184.735 685.723V662.254C184.735 659.59 183.313 657.129 181.005 655.798L160.648 644.066Z" fill="#7FFF00"/>
<path fill-rule="evenodd" clip-rule="evenodd" d="M55.5166 630.997C60.1258 628.335 65.8044 628.334 70.4144 630.994L96.5047 646.046C101.118 648.707 103.96 653.628 103.96 658.954V689.046C103.96 694.372 101.118 699.293 96.5047 701.954L70.4144 717.006C65.8044 719.666 60.1258 719.665 55.5166 717.003L29.4507 701.954C24.8402 699.292 22 694.372 22 689.049V658.951C22 653.628 24.8402 648.708 29.4507 646.046L55.5166 630.997ZM66.6887 644.066C64.3849 642.738 61.5481 642.739 59.2449 644.067L38.9122 655.797C36.6056 657.128 35.1845 659.588 35.1845 662.251V685.749C35.1845 688.412 36.6056 690.872 38.9122 692.203L59.2405 703.93C61.5453 705.26 64.3843 705.259 66.6887 703.929L87.0494 692.175C89.3549 690.845 90.7752 688.385 90.7752 685.723V662.254C90.7752 659.59 89.353 657.129 87.045 655.798L66.6887 644.066Z" fill="#7FFF00"/>
</g>
<g filter="url(#filter9_i_228_3953)">
<path fill-rule="evenodd" clip-rule="evenodd" d="M149.476 630.997C154.086 628.335 159.764 628.334 164.374 630.994L190.464 646.046C195.077 648.707 197.919 653.628 197.919 658.954V689.046C197.919 694.372 195.077 699.293 190.464 701.954L164.374 717.006C159.764 719.666 154.086 719.665 149.476 717.003L123.41 701.954C118.8 699.292 115.96 694.372 115.96 689.049V658.951C115.96 653.628 118.8 648.708 123.41 646.046L149.476 630.997ZM160.648 644.066C158.345 642.738 155.508 642.739 153.205 644.067L132.872 655.797C130.565 657.128 129.144 659.588 129.144 662.251V685.749C129.144 688.412 130.565 690.872 132.872 692.203L153.2 703.93C155.505 705.26 158.344 705.259 160.648 703.929L181.009 692.175C183.315 690.845 184.735 688.385 184.735 685.723V662.254C184.735 659.59 183.313 657.129 181.005 655.798L160.648 644.066Z" fill="#7FFF00"/>
<path fill-rule="evenodd" clip-rule="evenodd" d="M55.5166 630.997C60.1258 628.335 65.8044 628.334 70.4144 630.994L96.5047 646.046C101.118 648.707 103.96 653.628 103.96 658.954V689.046C103.96 694.372 101.118 699.293 96.5047 701.954L70.4144 717.006C65.8044 719.666 60.1258 719.665 55.5166 717.003L29.4507 701.954C24.8402 699.292 22 694.372 22 689.049V658.951C22 653.628 24.8402 648.708 29.4507 646.046L55.5166 630.997ZM66.6887 644.066C64.3849 642.738 61.5481 642.739 59.2449 644.067L38.9122 655.797C36.6056 657.128 35.1845 659.588 35.1845 662.251V685.749C35.1845 688.412 36.6056 690.872 38.9122 692.203L59.2405 703.93C61.5453 705.26 64.3843 705.259 66.6887 703.929L87.0494 692.175C89.3549 690.845 90.7752 688.385 90.7752 685.723V662.254C90.7752 659.59 89.353 657.129 87.045 655.798L66.6887 644.066Z" fill="#7FFF00"/>
<path fill-rule="evenodd" clip-rule="evenodd" d="M102.517 552.997C107.126 550.335 112.804 550.334 117.414 552.994L143.505 568.046C148.118 570.707 150.96 575.628 150.96 580.954V611.046C150.96 616.372 148.118 621.293 143.505 623.954L117.414 639.006C112.804 641.666 107.126 641.665 102.517 639.003L76.4507 623.954C71.8402 621.292 69 616.372 69 611.049V580.951C69 575.628 71.8402 570.708 76.4507 568.046L102.517 552.997ZM113.689 566.066C111.385 564.738 108.548 564.739 106.245 566.067L85.9122 577.797C83.6056 579.128 82.1845 581.588 82.1845 584.251V607.749C82.1845 610.412 83.6056 612.872 85.9122 614.203L106.24 625.93C108.545 627.26 111.384 627.259 113.689 625.929L134.049 614.175C136.355 612.845 137.775 610.385 137.775 607.723V584.254C137.775 581.59 136.353 579.129 134.045 577.798L113.689 566.066Z" fill="#7FFF00"/>
<path fill-rule="evenodd" clip-rule="evenodd" d="M149.476 474.997C154.086 472.335 159.764 472.334 164.374 474.994L190.464 490.046C195.077 492.707 197.919 497.628 197.919 502.954V533.046C197.919 538.372 195.077 543.293 190.464 545.954L164.374 561.006C159.764 563.666 154.086 563.665 149.476 561.003L123.41 545.954C118.8 543.292 115.96 538.372 115.96 533.049V502.951C115.96 497.628 118.8 492.708 123.41 490.046L149.476 474.997ZM160.648 488.066C158.345 486.738 155.508 486.739 153.205 488.067L132.872 499.797C130.565 501.128 129.144 503.588 129.144 506.251V529.749C129.144 532.412 130.565 534.872 132.872 536.203L153.2 547.93C155.505 549.26 158.344 549.259 160.648 547.929L181.009 536.175C183.315 534.845 184.735 532.385 184.735 529.723V506.254C184.735 503.59 183.313 501.129 181.005 499.798L160.648 488.066Z" fill="#7FFF00"/>
<path fill-rule="evenodd" clip-rule="evenodd" d="M55.5166 474.997C60.1258 472.335 65.8044 472.334 70.4144 474.994L96.5047 490.046C101.118 492.707 103.96 497.628 103.96 502.954V533.046C103.96 538.372 101.118 543.293 96.5047 545.954L70.4144 561.006C65.8044 563.666 60.1258 563.665 55.5166 561.003L29.4507 545.954C24.8402 543.292 22 538.372 22 533.049V502.951C22 497.628 24.8402 492.708 29.4507 490.046L55.5166 474.997ZM66.6887 488.066C64.3849 486.738 61.5481 486.739 59.2449 488.067L38.9122 499.797C36.6056 501.128 35.1845 503.588 35.1845 506.251V529.749C35.1845 532.412 36.6056 534.872 38.9122 536.203L59.2405 547.93C61.5453 549.26 64.3843 549.259 66.6887 547.929L87.0494 536.175C89.3549 534.845 90.7752 532.385 90.7752 529.723V506.254C90.7752 503.59 89.353 501.129 87.045 499.798L66.6887 488.066Z" fill="#7FFF00"/>
</g>
<g filter="url(#filter10_i_228_3953)">
<path fill-rule="evenodd" clip-rule="evenodd" d="M149.476 474.997C154.086 472.335 159.764 472.334 164.374 474.994L190.464 490.046C195.077 492.707 197.919 497.628 197.919 502.954V533.046C197.919 538.372 195.077 543.293 190.464 545.954L164.374 561.006C159.764 563.666 154.086 563.665 149.476 561.003L123.41 545.954C118.8 543.292 115.96 538.372 115.96 533.049V502.951C115.96 497.628 118.8 492.708 123.41 490.046L149.476 474.997ZM160.648 488.066C158.345 486.738 155.508 486.739 153.205 488.067L132.872 499.797C130.565 501.128 129.144 503.588 129.144 506.251V529.749C129.144 532.412 130.565 534.872 132.872 536.203L153.2 547.93C155.505 549.26 158.344 549.259 160.648 547.929L181.009 536.175C183.315 534.845 184.735 532.385 184.735 529.723V506.254C184.735 503.59 183.313 501.129 181.005 499.798L160.648 488.066Z" fill="#7FFF00"/>
<path fill-rule="evenodd" clip-rule="evenodd" d="M55.5166 474.997C60.1258 472.335 65.8044 472.334 70.4144 474.994L96.5047 490.046C101.118 492.707 103.96 497.628 103.96 502.954V533.046C103.96 538.372 101.118 543.293 96.5047 545.954L70.4144 561.006C65.8044 563.666 60.1258 563.665 55.5166 561.003L29.4507 545.954C24.8402 543.292 22 538.372 22 533.049V502.951C22 497.628 24.8402 492.708 29.4507 490.046L55.5166 474.997ZM66.6887 488.066C64.3849 486.738 61.5481 486.739 59.2449 488.067L38.9122 499.797C36.6056 501.128 35.1845 503.588 35.1845 506.251V529.749C35.1845 532.412 36.6056 534.872 38.9122 536.203L59.2405 547.93C61.5453 549.26 64.3843 549.259 66.6887 547.929L87.0494 536.175C89.3549 534.845 90.7752 532.385 90.7752 529.723V506.254C90.7752 503.59 89.353 501.129 87.045 499.798L66.6887 488.066Z" fill="#7FFF00"/>
<path fill-rule="evenodd" clip-rule="evenodd" d="M102.517 396.997C107.126 394.335 112.804 394.334 117.414 396.994L143.505 412.046C148.118 414.707 150.96 419.628 150.96 424.954V455.046C150.96 460.372 148.118 465.293 143.505 467.954L117.414 483.006C112.804 485.666 107.126 485.665 102.517 483.003L76.4507 467.954C71.8402 465.292 69 460.372 69 455.049V424.951C69 419.628 71.8402 414.708 76.4507 412.046L102.517 396.997ZM113.689 410.066C111.385 408.738 108.548 408.739 106.245 410.067L85.9122 421.797C83.6056 423.128 82.1845 425.588 82.1845 428.251V451.749C82.1845 454.412 83.6056 456.872 85.9122 458.203L106.24 469.93C108.545 471.26 111.384 471.259 113.689 469.929L134.049 458.175C136.355 456.845 137.775 454.385 137.775 451.723V428.254C137.775 425.59 136.353 423.129 134.045 421.798L113.689 410.066Z" fill="#7FFF00"/>
<path fill-rule="evenodd" clip-rule="evenodd" d="M149.476 318.997C154.086 316.335 159.764 316.334 164.374 318.994L190.464 334.046C195.077 336.707 197.919 341.628 197.919 346.954V377.046C197.919 382.372 195.077 387.293 190.464 389.954L164.374 405.006C159.764 407.666 154.086 407.665 149.476 405.003L123.41 389.954C118.8 387.292 115.96 382.372 115.96 377.049V346.951C115.96 341.628 118.8 336.708 123.41 334.046L149.476 318.997ZM160.648 332.066C158.345 330.738 155.508 330.739 153.205 332.067L132.872 343.797C130.565 345.128 129.144 347.588 129.144 350.251V373.749C129.144 376.412 130.565 378.872 132.872 380.203L153.2 391.93C155.505 393.26 158.344 393.259 160.648 391.929L181.009 380.175C183.315 378.845 184.735 376.385 184.735 373.723V350.254C184.735 347.59 183.313 345.129 181.005 343.798L160.648 332.066Z" fill="#7FFF00"/>
<path fill-rule="evenodd" clip-rule="evenodd" d="M55.5166 318.997C60.1258 316.335 65.8044 316.334 70.4144 318.994L96.5047 334.046C101.118 336.707 103.96 341.628 103.96 346.954V377.046C103.96 382.372 101.118 387.293 96.5047 389.954L70.4144 405.006C65.8044 407.666 60.1258 407.665 55.5166 405.003L29.4507 389.954C24.8402 387.292 22 382.372 22 377.049V346.951C22 341.628 24.8402 336.708 29.4507 334.046L55.5166 318.997ZM66.6887 332.066C64.3849 330.738 61.5481 330.739 59.2449 332.067L38.9122 343.797C36.6056 345.128 35.1845 347.588 35.1845 350.251V373.749C35.1845 376.412 36.6056 378.872 38.9122 380.203L59.2405 391.93C61.5453 393.26 64.3843 393.259 66.6887 391.929L87.0494 380.175C89.3549 378.845 90.7752 376.385 90.7752 373.723V350.254C90.7752 347.59 89.353 345.129 87.045 343.798L66.6887 332.066Z" fill="#7FFF00"/>
</g>
<g filter="url(#filter11_i_228_3953)">
<path fill-rule="evenodd" clip-rule="evenodd" d="M149.476 318.997C154.086 316.335 159.764 316.334 164.374 318.994L190.464 334.046C195.077 336.707 197.919 341.628 197.919 346.954V377.046C197.919 382.372 195.077 387.293 190.464 389.954L164.374 405.006C159.764 407.666 154.086 407.665 149.476 405.003L123.41 389.954C118.8 387.292 115.96 382.372 115.96 377.049V346.951C115.96 341.628 118.8 336.708 123.41 334.046L149.476 318.997ZM160.648 332.066C158.345 330.738 155.508 330.739 153.205 332.067L132.872 343.797C130.565 345.128 129.144 347.588 129.144 350.251V373.749C129.144 376.412 130.565 378.872 132.872 380.203L153.2 391.93C155.505 393.26 158.344 393.259 160.648 391.929L181.009 380.175C183.315 378.845 184.735 376.385 184.735 373.723V350.254C184.735 347.59 183.313 345.129 181.005 343.798L160.648 332.066Z" fill="#7FFF00"/>
<path fill-rule="evenodd" clip-rule="evenodd" d="M55.5166 318.997C60.1258 316.335 65.8044 316.334 70.4144 318.994L96.5047 334.046C101.118 336.707 103.96 341.628 103.96 346.954V377.046C103.96 382.372 101.118 387.293 96.5047 389.954L70.4144 405.006C65.8044 407.666 60.1258 407.665 55.5166 405.003L29.4507 389.954C24.8402 387.292 22 382.372 22 377.049V346.951C22 341.628 24.8402 336.708 29.4507 334.046L55.5166 318.997ZM66.6887 332.066C64.3849 330.738 61.5481 330.739 59.2449 332.067L38.9122 343.797C36.6056 345.128 35.1845 347.588 35.1845 350.251V373.749C35.1845 376.412 36.6056 378.872 38.9122 380.203L59.2405 391.93C61.5453 393.26 64.3843 393.259 66.6887 391.929L87.0494 380.175C89.3549 378.845 90.7752 376.385 90.7752 373.723V350.254C90.7752 347.59 89.353 345.129 87.045 343.798L66.6887 332.066Z" fill="#7FFF00"/>
<path fill-rule="evenodd" clip-rule="evenodd" d="M102.517 240.997C107.126 238.335 112.804 238.334 117.414 240.994L143.505 256.046C148.118 258.707 150.96 263.628 150.96 268.954V299.046C150.96 304.372 148.118 309.293 143.505 311.954L117.414 327.006C112.804 329.666 107.126 329.665 102.517 327.003L76.4507 311.954C71.8402 309.292 69 304.372 69 299.049V268.951C69 263.628 71.8402 258.708 76.4507 256.046L102.517 240.997ZM113.689 254.066C111.385 252.738 108.548 252.739 106.245 254.067L85.9122 265.797C83.6056 267.128 82.1845 269.588 82.1845 272.251V295.749C82.1845 298.412 83.6056 300.872 85.9122 302.203L106.24 313.93C108.545 315.26 111.384 315.259 113.689 313.929L134.049 302.175C136.355 300.845 137.775 298.385 137.775 295.723V272.254C137.775 269.59 136.353 267.129 134.045 265.798L113.689 254.066Z" fill="#7FFF00"/>
<path fill-rule="evenodd" clip-rule="evenodd" d="M149.476 162.997C154.086 160.335 159.764 160.334 164.374 162.994L190.464 178.046C195.077 180.707 197.919 185.628 197.919 190.954V221.046C197.919 226.372 195.077 231.293 190.464 233.954L164.374 249.006C159.764 251.666 154.086 251.665 149.476 249.003L123.41 233.954C118.8 231.292 115.96 226.372 115.96 221.049V190.951C115.96 185.628 118.8 180.708 123.41 178.046L149.476 162.997ZM160.648 176.066C158.345 174.738 155.508 174.739 153.205 176.067L132.872 187.797C130.565 189.128 129.144 191.588 129.144 194.251V217.749C129.144 220.412 130.565 222.872 132.872 224.203L153.2 235.93C155.505 237.26 158.344 237.259 160.648 235.929L181.009 224.175C183.315 222.845 184.735 220.385 184.735 217.723V194.254C184.735 191.59 183.313 189.129 181.005 187.798L160.648 176.066Z" fill="#7FFF00"/>
<path fill-rule="evenodd" clip-rule="evenodd" d="M55.5166 162.997C60.1258 160.335 65.8044 160.334 70.4144 162.994L96.5047 178.046C101.118 180.707 103.96 185.628 103.96 190.954V221.046C103.96 226.372 101.118 231.293 96.5047 233.954L70.4144 249.006C65.8044 251.666 60.1258 251.665 55.5166 249.003L29.4507 233.954C24.8402 231.292 22 226.372 22 221.049V190.951C22 185.628 24.8402 180.708 29.4507 178.046L55.5166 162.997ZM66.6887 176.066C64.3849 174.738 61.5481 174.739 59.2449 176.067L38.9122 187.797C36.6056 189.128 35.1845 191.588 35.1845 194.251V217.749C35.1845 220.412 36.6056 222.872 38.9122 224.203L59.2405 235.93C61.5453 237.26 64.3843 237.259 66.6887 235.929L87.0494 224.175C89.3549 222.845 90.7752 220.385 90.7752 217.723V194.254C90.7752 191.59 89.353 189.129 87.045 187.798L66.6887 176.066Z" fill="#7FFF00"/>
</g>
<g filter="url(#filter12_i_228_3953)">
<path fill-rule="evenodd" clip-rule="evenodd" d="M149.476 162.997C154.086 160.335 159.764 160.334 164.374 162.994L190.464 178.046C195.077 180.707 197.919 185.628 197.919 190.954V221.046C197.919 226.372 195.077 231.293 190.464 233.954L164.374 249.006C159.764 251.666 154.086 251.665 149.476 249.003L123.41 233.954C118.8 231.292 115.96 226.372 115.96 221.049V190.951C115.96 185.628 118.8 180.708 123.41 178.046L149.476 162.997ZM160.648 176.066C158.345 174.738 155.508 174.739 153.205 176.067L132.872 187.797C130.565 189.128 129.144 191.588 129.144 194.251V217.749C129.144 220.412 130.565 222.872 132.872 224.203L153.2 235.93C155.505 237.26 158.344 237.259 160.648 235.929L181.009 224.175C183.315 222.845 184.735 220.385 184.735 217.723V194.254C184.735 191.59 183.313 189.129 181.005 187.798L160.648 176.066Z" fill="#7FFF00"/>
<path fill-rule="evenodd" clip-rule="evenodd" d="M55.5166 162.997C60.1258 160.335 65.8044 160.334 70.4144 162.994L96.5047 178.046C101.118 180.707 103.96 185.628 103.96 190.954V221.046C103.96 226.372 101.118 231.293 96.5047 233.954L70.4144 249.006C65.8044 251.666 60.1258 251.665 55.5166 249.003L29.4507 233.954C24.8402 231.292 22 226.372 22 221.049V190.951C22 185.628 24.8402 180.708 29.4507 178.046L55.5166 162.997ZM66.6887 176.066C64.3849 174.738 61.5481 174.739 59.2449 176.067L38.9122 187.797C36.6056 189.128 35.1845 191.588 35.1845 194.251V217.749C35.1845 220.412 36.6056 222.872 38.9122 224.203L59.2405 235.93C61.5453 237.26 64.3843 237.259 66.6887 235.929L87.0494 224.175C89.3549 222.845 90.7752 220.385 90.7752 217.723V194.254C90.7752 191.59 89.353 189.129 87.045 187.798L66.6887 176.066Z" fill="#7FFF00"/>
<path fill-rule="evenodd" clip-rule="evenodd" d="M102.517 84.9966C107.126 82.3354 112.804 82.3344 117.414 84.9941L143.505 100.046C148.118 102.707 150.96 107.628 150.96 112.954V143.046C150.96 148.372 148.118 153.293 143.505 155.954L117.414 171.006C112.804 173.666 107.126 173.665 102.517 171.003L76.4507 155.954C71.8402 153.292 69 148.372 69 143.049V112.951C69 107.628 71.8402 102.708 76.4507 100.046L102.517 84.9966ZM113.689 98.0658C111.385 96.738 108.548 96.7386 106.245 98.0673L85.9122 109.797C83.6056 111.128 82.1845 113.588 82.1845 116.251V139.749C82.1845 142.412 83.6056 144.872 85.9122 146.203L106.24 157.93C108.545 159.26 111.384 159.259 113.689 157.929L134.049 146.175C136.355 144.845 137.775 142.385 137.775 139.723V116.254C137.775 113.59 136.353 111.129 134.045 109.798L113.689 98.0658Z" fill="#7FFF00"/>
<path fill-rule="evenodd" clip-rule="evenodd" d="M149.476 6.99655C154.086 4.33537 159.764 4.33443 164.374 6.99407L190.464 22.0462C195.077 24.7075 197.919 29.6283 197.919 34.9538V65.0462C197.919 70.3718 195.077 75.2925 190.464 77.9539L164.374 93.0059C159.764 95.6656 154.086 95.6646 149.476 93.0035L123.41 77.9539C118.8 75.2919 115.96 70.3725 115.96 65.0486V34.9514C115.96 29.6275 118.8 24.7081 123.41 22.0462L149.476 6.99655ZM160.648 20.0658C158.345 18.738 155.508 18.7386 153.205 20.0673L132.872 31.7969C130.565 33.1276 129.144 35.588 129.144 38.2509V61.7491C129.144 64.412 130.565 66.8724 132.872 68.2031L153.2 79.9302C155.505 81.2598 158.344 81.2594 160.648 79.9291L181.009 68.1755C183.315 66.8446 184.735 64.3847 184.735 61.7226V38.2538C184.735 35.5899 183.313 33.1287 181.005 31.7984L160.648 20.0658Z" fill="#7FFF00"/>
<path fill-rule="evenodd" clip-rule="evenodd" d="M55.5166 6.99655C60.1258 4.33537 65.8044 4.33443 70.4144 6.99407L96.5047 22.0462C101.118 24.7075 103.96 29.6283 103.96 34.9538V65.0462C103.96 70.3718 101.118 75.2925 96.5047 77.9539L70.4144 93.0059C65.8044 95.6656 60.1258 95.6646 55.5166 93.0035L29.4507 77.9539C24.8402 75.2919 22 70.3725 22 65.0486V34.9514C22 29.6275 24.8402 24.7081 29.4507 22.0462L55.5166 6.99655ZM66.6887 20.0658C64.3849 18.738 61.5481 18.7386 59.2449 20.0673L38.9122 31.7969C36.6056 33.1276 35.1845 35.588 35.1845 38.2509V61.7491C35.1845 64.412 36.6056 66.8724 38.9122 68.2031L59.2405 79.9302C61.5453 81.2598 64.3843 81.2594 66.6887 79.9291L87.0494 68.1755C89.3549 66.8446 90.7752 64.3847 90.7752 61.7226V38.2538C90.7752 35.5899 89.353 33.1287 87.045 31.7984L66.6887 20.0658Z" fill="#7FFF00"/>
</g>
<g filter="url(#filter13_i_228_3953)">
<path fill-rule="evenodd" clip-rule="evenodd" d="M149.476 6.99655C154.086 4.33537 159.764 4.33443 164.374 6.99407L190.464 22.0462C195.077 24.7075 197.919 29.6283 197.919 34.9538V65.0462C197.919 70.3718 195.077 75.2925 190.464 77.9539L164.374 93.0059C159.764 95.6656 154.086 95.6646 149.476 93.0035L123.41 77.9539C118.8 75.2919 115.96 70.3725 115.96 65.0486V34.9514C115.96 29.6275 118.8 24.7081 123.41 22.0462L149.476 6.99655ZM160.648 20.0658C158.345 18.738 155.508 18.7386 153.205 20.0673L132.872 31.7969C130.565 33.1276 129.144 35.588 129.144 38.2509V61.7491C129.144 64.412 130.565 66.8724 132.872 68.2031L153.2 79.9302C155.505 81.2598 158.344 81.2594 160.648 79.9291L181.009 68.1755C183.315 66.8446 184.735 64.3847 184.735 61.7226V38.2538C184.735 35.5899 183.313 33.1287 181.005 31.7984L160.648 20.0658Z" fill="#7FFF00"/>
<path fill-rule="evenodd" clip-rule="evenodd" d="M55.5166 6.99655C60.1258 4.33537 65.8044 4.33443 70.4144 6.99407L96.5047 22.0462C101.118 24.7075 103.96 29.6283 103.96 34.9538V65.0462C103.96 70.3718 101.118 75.2925 96.5047 77.9539L70.4144 93.0059C65.8044 95.6656 60.1258 95.6646 55.5166 93.0035L29.4507 77.9539C24.8402 75.2919 22 70.3725 22 65.0486V34.9514C22 29.6275 24.8402 24.7081 29.4507 22.0462L55.5166 6.99655ZM66.6887 20.0658C64.3849 18.738 61.5481 18.7386 59.2449 20.0673L38.9122 31.7969C36.6056 33.1276 35.1845 35.588 35.1845 38.2509V61.7491C35.1845 64.412 36.6056 66.8724 38.9122 68.2031L59.2405 79.9302C61.5453 81.2598 64.3843 81.2594 66.6887 79.9291L87.0494 68.1755C89.3549 66.8446 90.7752 64.3847 90.7752 61.7226V38.2538C90.7752 35.5899 89.353 33.1287 87.045 31.7984L66.6887 20.0658Z" fill="#7FFF00"/>
<path fill-rule="evenodd" clip-rule="evenodd" d="M102.517 -71.0034C107.126 -73.6646 112.804 -73.6656 117.414 -71.0059L143.505 -55.9538C148.118 -53.2925 150.96 -48.3717 150.96 -43.0462V-12.9538C150.96 -7.62823 148.118 -2.70746 143.505 -0.0461349L117.414 15.0059C112.804 17.6656 107.126 17.6646 102.517 15.0035L76.4507 -0.0461273C71.8402 -2.7081 69 -7.62753 69 -12.9514V-43.0486C69 -48.3725 71.8402 -53.2919 76.4507 -55.9538L102.517 -71.0034ZM113.689 -57.9342C111.385 -59.262 108.548 -59.2614 106.245 -57.9327L85.9122 -46.2031C83.6056 -44.8724 82.1845 -42.412 82.1845 -39.7491V-16.2509C82.1845 -13.588 83.6056 -11.1276 85.9122 -9.79693L106.24 1.93018C108.545 3.25981 111.384 3.25941 113.689 1.92911L134.049 -9.82453C136.355 -11.1554 137.775 -13.6153 137.775 -16.2774V-39.7462C137.775 -42.4101 136.353 -44.8713 134.045 -46.2016L113.689 -57.9342Z" fill="#7FFF00"/>
</g>
</g>
<defs>
<filter id="filter0_i_228_3953" x="115.92" y="785" width="175.919" height="250" filterUnits="userSpaceOnUse" color-interpolation-filters="sRGB">
<feFlood flood-opacity="0" result="BackgroundImageFix"/>
<feBlend mode="normal" in="SourceGraphic" in2="BackgroundImageFix" result="shape"/>
<feColorMatrix in="SourceAlpha" type="matrix" values="0 0 0 0 0 0 0 0 0 0 0 0 0 0 0 0 0 0 127 0" result="hardAlpha"/>
<feOffset dy="4"/>
<feGaussianBlur stdDeviation="2"/>
<feComposite in2="hardAlpha" operator="arithmetic" k2="-1" k3="1"/>
<feColorMatrix type="matrix" values="0 0 0 0 0 0 0 0 0 0 0 0 0 0 0 0 0 0 0.25 0"/>
<feBlend mode="normal" in2="shape" result="effect1_innerShadow_228_3953"/>
</filter>
<filter id="filter1_i_228_3953" x="115.92" y="629" width="175.919" height="250" filterUnits="userSpaceOnUse" color-interpolation-filters="sRGB">
<feFlood flood-opacity="0" result="BackgroundImageFix"/>
<feBlend mode="normal" in="SourceGraphic" in2="BackgroundImageFix" result="shape"/>
<feColorMatrix in="SourceAlpha" type="matrix" values="0 0 0 0 0 0 0 0 0 0 0 0 0 0 0 0 0 0 127 0" result="hardAlpha"/>
<feOffset dy="4"/>
<feGaussianBlur stdDeviation="2"/>
<feComposite in2="hardAlpha" operator="arithmetic" k2="-1" k3="1"/>
<feColorMatrix type="matrix" values="0 0 0 0 0 0 0 0 0 0 0 0 0 0 0 0 0 0 0.25 0"/>
<feBlend mode="normal" in2="shape" result="effect1_innerShadow_228_3953"/>
</filter>
<filter id="filter2_i_228_3953" x="115.92" y="473" width="175.919" height="250" filterUnits="userSpaceOnUse" color-interpolation-filters="sRGB">
<feFlood flood-opacity="0" result="BackgroundImageFix"/>
<feBlend mode="normal" in="SourceGraphic" in2="BackgroundImageFix" result="shape"/>
<feColorMatrix in="SourceAlpha" type="matrix" values="0 0 0 0 0 0 0 0 0 0 0 0 0 0 0 0 0 0 127 0" result="hardAlpha"/>
<feOffset dy="4"/>
<feGaussianBlur stdDeviation="2"/>
<feComposite in2="hardAlpha" operator="arithmetic" k2="-1" k3="1"/>
<feColorMatrix type="matrix" values="0 0 0 0 0 0 0 0 0 0 0 0 0 0 0 0 0 0 0.25 0"/>
<feBlend mode="normal" in2="shape" result="effect1_innerShadow_228_3953"/>
</filter>
<filter id="filter3_i_228_3953" x="115.92" y="317" width="175.919" height="250" filterUnits="userSpaceOnUse" color-interpolation-filters="sRGB">
<feFlood flood-opacity="0" result="BackgroundImageFix"/>
<feBlend mode="normal" in="SourceGraphic" in2="BackgroundImageFix" result="shape"/>
<feColorMatrix in="SourceAlpha" type="matrix" values="0 0 0 0 0 0 0 0 0 0 0 0 0 0 0 0 0 0 127 0" result="hardAlpha"/>
<feOffset dy="4"/>
<feGaussianBlur stdDeviation="2"/>
<feComposite in2="hardAlpha" operator="arithmetic" k2="-1" k3="1"/>
<feColorMatrix type="matrix" values="0 0 0 0 0 0 0 0 0 0 0 0 0 0 0 0 0 0 0.25 0"/>
<feBlend mode="normal" in2="shape" result="effect1_innerShadow_228_3953"/>
</filter>
<filter id="filter4_i_228_3953" x="115.92" y="161" width="175.919" height="250" filterUnits="userSpaceOnUse" color-interpolation-filters="sRGB">
<feFlood flood-opacity="0" result="BackgroundImageFix"/>
<feBlend mode="normal" in="SourceGraphic" in2="BackgroundImageFix" result="shape"/>
<feColorMatrix in="SourceAlpha" type="matrix" values="0 0 0 0 0 0 0 0 0 0 0 0 0 0 0 0 0 0 127 0" result="hardAlpha"/>
<feOffset dy="4"/>
<feGaussianBlur stdDeviation="2"/>
<feComposite in2="hardAlpha" operator="arithmetic" k2="-1" k3="1"/>
<feColorMatrix type="matrix" values="0 0 0 0 0 0 0 0 0 0 0 0 0 0 0 0 0 0 0.25 0"/>
<feBlend mode="normal" in2="shape" result="effect1_innerShadow_228_3953"/>
</filter>
<filter id="filter5_i_228_3953" x="115.92" y="5" width="175.919" height="250" filterUnits="userSpaceOnUse" color-interpolation-filters="sRGB">
<feFlood flood-opacity="0" result="BackgroundImageFix"/>
<feBlend mode="normal" in="SourceGraphic" in2="BackgroundImageFix" result="shape"/>
<feColorMatrix in="SourceAlpha" type="matrix" values="0 0 0 0 0 0 0 0 0 0 0 0 0 0 0 0 0 0 127 0" result="hardAlpha"/>
<feOffset dy="4"/>
<feGaussianBlur stdDeviation="2"/>
<feComposite in2="hardAlpha" operator="arithmetic" k2="-1" k3="1"/>
<feColorMatrix type="matrix" values="0 0 0 0 0 0 0 0 0 0 0 0 0 0 0 0 0 0 0.25 0"/>
<feBlend mode="normal" in2="shape" result="effect1_innerShadow_228_3953"/>
</filter>
<filter id="filter6_i_228_3953" x="115.92" y="-151" width="175.919" height="250" filterUnits="userSpaceOnUse" color-interpolation-filters="sRGB">
<feFlood flood-opacity="0" result="BackgroundImageFix"/>
<feBlend mode="normal" in="SourceGraphic" in2="BackgroundImageFix" result="shape"/>
<feColorMatrix in="SourceAlpha" type="matrix" values="0 0 0 0 0 0 0 0 0 0 0 0 0 0 0 0 0 0 127 0" result="hardAlpha"/>
<feOffset dy="4"/>
<feGaussianBlur stdDeviation="2"/>
<feComposite in2="hardAlpha" operator="arithmetic" k2="-1" k3="1"/>
<feColorMatrix type="matrix" values="0 0 0 0 0 0 0 0 0 0 0 0 0 0 0 0 0 0 0.25 0"/>
<feBlend mode="normal" in2="shape" result="effect1_innerShadow_228_3953"/>
</filter>
<filter id="filter7_i_228_3953" x="22" y="785" width="175.919" height="250" filterUnits="userSpaceOnUse" color-interpolation-filters="sRGB">
<feFlood flood-opacity="0" result="BackgroundImageFix"/>
<feBlend mode="normal" in="SourceGraphic" in2="BackgroundImageFix" result="shape"/>
<feColorMatrix in="SourceAlpha" type="matrix" values="0 0 0 0 0 0 0 0 0 0 0 0 0 0 0 0 0 0 127 0" result="hardAlpha"/>
<feOffset dy="4"/>
<feGaussianBlur stdDeviation="2"/>
<feComposite in2="hardAlpha" operator="arithmetic" k2="-1" k3="1"/>
<feColorMatrix type="matrix" values="0 0 0 0 0 0 0 0 0 0 0 0 0 0 0 0 0 0 0.25 0"/>
<feBlend mode="normal" in2="shape" result="effect1_innerShadow_228_3953"/>
</filter>
<filter id="filter8_i_228_3953" x="22" y="629" width="175.919" height="250" filterUnits="userSpaceOnUse" color-interpolation-filters="sRGB">
<feFlood flood-opacity="0" result="BackgroundImageFix"/>
<feBlend mode="normal" in="SourceGraphic" in2="BackgroundImageFix" result="shape"/>
<feColorMatrix in="SourceAlpha" type="matrix" values="0 0 0 0 0 0 0 0 0 0 0 0 0 0 0 0 0 0 127 0" result="hardAlpha"/>
<feOffset dy="4"/>
<feGaussianBlur stdDeviation="2"/>
<feComposite in2="hardAlpha" operator="arithmetic" k2="-1" k3="1"/>
<feColorMatrix type="matrix" values="0 0 0 0 0 0 0 0 0 0 0 0 0 0 0 0 0 0 0.25 0"/>
<feBlend mode="normal" in2="shape" result="effect1_innerShadow_228_3953"/>
</filter>
<filter id="filter9_i_228_3953" x="22" y="473" width="175.919" height="250" filterUnits="userSpaceOnUse" color-interpolation-filters="sRGB">
<feFlood flood-opacity="0" result="BackgroundImageFix"/>
<feBlend mode="normal" in="SourceGraphic" in2="BackgroundImageFix" result="shape"/>
<feColorMatrix in="SourceAlpha" type="matrix" values="0 0 0 0 0 0 0 0 0 0 0 0 0 0 0 0 0 0 127 0" result="hardAlpha"/>
<feOffset dy="4"/>
<feGaussianBlur stdDeviation="2"/>
<feComposite in2="hardAlpha" operator="arithmetic" k2="-1" k3="1"/>
<feColorMatrix type="matrix" values="0 0 0 0 0 0 0 0 0 0 0 0 0 0 0 0 0 0 0.25 0"/>
<feBlend mode="normal" in2="shape" result="effect1_innerShadow_228_3953"/>
</filter>
<filter id="filter10_i_228_3953" x="22" y="317" width="175.919" height="250" filterUnits="userSpaceOnUse" color-interpolation-filters="sRGB">
<feFlood flood-opacity="0" result="BackgroundImageFix"/>
<feBlend mode="normal" in="SourceGraphic" in2="BackgroundImageFix" result="shape"/>
<feColorMatrix in="SourceAlpha" type="matrix" values="0 0 0 0 0 0 0 0 0 0 0 0 0 0 0 0 0 0 127 0" result="hardAlpha"/>
<feOffset dy="4"/>
<feGaussianBlur stdDeviation="2"/>
<feComposite in2="hardAlpha" operator="arithmetic" k2="-1" k3="1"/>
<feColorMatrix type="matrix" values="0 0 0 0 0 0 0 0 0 0 0 0 0 0 0 0 0 0 0.25 0"/>
<feBlend mode="normal" in2="shape" result="effect1_innerShadow_228_3953"/>
</filter>
<filter id="filter11_i_228_3953" x="22" y="161" width="175.919" height="250" filterUnits="userSpaceOnUse" color-interpolation-filters="sRGB">
<feFlood flood-opacity="0" result="BackgroundImageFix"/>
<feBlend mode="normal" in="SourceGraphic" in2="BackgroundImageFix" result="shape"/>
<feColorMatrix in="SourceAlpha" type="matrix" values="0 0 0 0 0 0 0 0 0 0 0 0 0 0 0 0 0 0 127 0" result="hardAlpha"/>
<feOffset dy="4"/>
<feGaussianBlur stdDeviation="2"/>
<feComposite in2="hardAlpha" operator="arithmetic" k2="-1" k3="1"/>
<feColorMatrix type="matrix" values="0 0 0 0 0 0 0 0 0 0 0 0 0 0 0 0 0 0 0.25 0"/>
<feBlend mode="normal" in2="shape" result="effect1_innerShadow_228_3953"/>
</filter>
<filter id="filter12_i_228_3953" x="22" y="5" width="175.919" height="250" filterUnits="userSpaceOnUse" color-interpolation-filters="sRGB">
<feFlood flood-opacity="0" result="BackgroundImageFix"/>
<feBlend mode="normal" in="SourceGraphic" in2="BackgroundImageFix" result="shape"/>
<feColorMatrix in="SourceAlpha" type="matrix" values="0 0 0 0 0 0 0 0 0 0 0 0 0 0 0 0 0 0 127 0" result="hardAlpha"/>
<feOffset dy="4"/>
<feGaussianBlur stdDeviation="2"/>
<feComposite in2="hardAlpha" operator="arithmetic" k2="-1" k3="1"/>
<feColorMatrix type="matrix" values="0 0 0 0 0 0 0 0 0 0 0 0 0 0 0 0 0 0 0.25 0"/>
<feBlend mode="normal" in2="shape" result="effect1_innerShadow_228_3953"/>
</filter>
<filter id="filter13_i_228_3953" x="22" y="-151" width="175.919" height="250" filterUnits="userSpaceOnUse" color-interpolation-filters="sRGB">
<feFlood flood-opacity="0" result="BackgroundImageFix"/>
<feBlend mode="normal" in="SourceGraphic" in2="BackgroundImageFix" result="shape"/>
<feColorMatrix in="SourceAlpha" type="matrix" values="0 0 0 0 0 0 0 0 0 0 0 0 0 0 0 0 0 0 127 0" result="hardAlpha"/>
<feOffset dy="4"/>
<feGaussianBlur stdDeviation="2"/>
<feComposite in2="hardAlpha" operator="arithmetic" k2="-1" k3="1"/>
<feColorMatrix type="matrix" values="0 0 0 0 0 0 0 0 0 0 0 0 0 0 0 0 0 0 0.25 0"/>
<feBlend mode="normal" in2="shape" result="effect1_innerShadow_228_3953"/>
</filter>
<clipPath id="clip0_228_3953">
<rect width="251" height="880" fill="white"/>
</clipPath>
</defs>
</svg>
