<svg width="72" height="1530" viewBox="0 0 72 1530" fill="none" xmlns="http://www.w3.org/2000/svg">
<g clip-path="url(#clip0_338_817)">
<g filter="url(#filter0_i_338_817)">
<path fill-rule="evenodd" clip-rule="evenodd" d="M67.9934 1422.14C70.4678 1420.72 73.5163 1420.72 75.9912 1422.14L89.9978 1430.22C92.4742 1431.65 94 1434.29 94 1437.15V1453.31C94 1456.17 92.4742 1458.81 89.9978 1460.24L75.9912 1468.32C73.5163 1469.75 70.4678 1469.75 67.9934 1468.32L53.9999 1460.24C51.5248 1458.81 50 1456.17 50 1453.31V1437.15C50 1434.29 51.5248 1431.65 53.9999 1430.22L67.9934 1422.14ZM73.9911 1429.16C72.7543 1428.45 71.2314 1428.45 69.9949 1429.16L59.0793 1435.46C57.841 1436.17 57.0781 1437.49 57.0781 1438.92V1451.54C57.0781 1452.97 57.841 1454.29 59.0793 1455L69.9925 1461.3C71.2299 1462.01 72.754 1462.01 73.9911 1461.3L84.9217 1454.99C86.1594 1454.27 86.9219 1452.95 86.9219 1451.52V1438.92C86.9219 1437.49 86.1584 1436.17 84.9193 1435.46L73.9911 1429.16Z" fill="#7FFF00"/>
<path fill-rule="evenodd" clip-rule="evenodd" d="M67.9934 1506.29C70.4678 1504.86 73.5163 1504.86 75.9912 1506.29L89.9978 1514.37C92.4742 1515.8 94 1518.44 94 1521.3V1537.45C94 1540.31 92.4742 1542.95 89.9978 1544.38L75.9912 1552.46C73.5163 1553.89 70.4678 1553.89 67.9934 1552.46L53.9999 1544.38C51.5248 1542.95 50 1540.31 50 1537.45V1521.3C50 1518.44 51.5248 1515.8 53.9999 1514.37L67.9934 1506.29ZM73.9911 1513.31C72.7543 1512.59 71.2314 1512.59 69.9949 1513.31L59.0793 1519.6C57.841 1520.32 57.0781 1521.64 57.0781 1523.07V1535.68C57.0781 1537.11 57.841 1538.43 59.0793 1539.15L69.9925 1545.44C71.2299 1546.16 72.754 1546.16 73.9911 1545.44L84.9217 1539.13C86.1594 1538.42 86.9219 1537.1 86.9219 1535.67V1523.07C86.9219 1521.64 86.1584 1520.32 84.9193 1519.6L73.9911 1513.31Z" fill="#7FFF00"/>
<path fill-rule="evenodd" clip-rule="evenodd" d="M42.9934 1464.14C45.4678 1462.72 48.5163 1462.72 50.9912 1464.14L64.9978 1472.22C67.4742 1473.65 69 1476.29 69 1479.15V1495.31C69 1498.17 67.4742 1500.81 64.9978 1502.24L50.9912 1510.32C48.5163 1511.75 45.4678 1511.75 42.9934 1510.32L28.9999 1502.24C26.5248 1500.81 25 1498.17 25 1495.31V1479.15C25 1476.29 26.5248 1473.65 28.9999 1472.22L42.9934 1464.14ZM48.9911 1471.16C47.7543 1470.45 46.2314 1470.45 44.9949 1471.16L34.0793 1477.46C32.841 1478.17 32.0781 1479.49 32.0781 1480.92V1493.54C32.0781 1494.97 32.841 1496.29 34.0793 1497L44.9925 1503.3C46.2299 1504.01 47.754 1504.01 48.9911 1503.3L59.9217 1496.99C61.1594 1496.27 61.9219 1494.95 61.9219 1493.52V1480.92C61.9219 1479.49 61.1584 1478.17 59.9193 1477.46L48.9911 1471.16Z" fill="#7FFF00"/>
<path fill-rule="evenodd" clip-rule="evenodd" d="M17.9934 1422.07C20.4678 1420.64 23.5163 1420.64 25.9912 1422.07L39.9978 1430.15C42.4742 1431.58 44 1434.22 44 1437.08V1453.24C44 1456.09 42.4742 1458.74 39.9978 1460.17L25.9912 1468.25C23.5163 1469.67 20.4678 1469.67 17.9934 1468.24L3.99992 1460.17C1.52476 1458.74 0 1456.1 0 1453.24L0 1437.08C0 1434.22 1.52475 1431.58 3.99991 1430.15L17.9934 1422.07ZM23.9911 1429.09C22.7543 1428.38 21.2314 1428.38 19.9949 1429.09L9.07931 1435.39C7.84103 1436.1 7.07811 1437.42 7.07811 1438.85V1451.47C7.07811 1452.9 7.84103 1454.22 9.07931 1454.93L19.9925 1461.23C21.2299 1461.94 22.754 1461.94 23.9911 1461.23L34.9217 1454.92C36.1594 1454.2 36.9219 1452.88 36.9219 1451.45V1438.85C36.9219 1437.42 36.1584 1436.1 34.9193 1435.39L23.9911 1429.09Z" fill="#7FFF00"/>
<path fill-rule="evenodd" clip-rule="evenodd" d="M17.9934 1506.22C20.4678 1504.79 23.5163 1504.79 25.9912 1506.22L39.9978 1514.3C42.4742 1515.72 44 1518.37 44 1521.23V1537.38C44 1540.24 42.4742 1542.88 39.9978 1544.31L25.9912 1552.39C23.5163 1553.82 20.4678 1553.82 17.9934 1552.39L3.99992 1544.31C1.52476 1542.88 0 1540.24 0 1537.38L0 1521.22C0 1518.37 1.52475 1515.73 3.99991 1514.3L17.9934 1506.22ZM23.9911 1513.23C22.7543 1512.52 21.2314 1512.52 19.9949 1513.23L9.07931 1519.53C7.84103 1520.25 7.07811 1521.57 7.07811 1523V1535.61C7.07811 1537.04 7.84103 1538.36 9.07931 1539.08L19.9925 1545.37C21.2299 1546.09 22.754 1546.08 23.9911 1545.37L34.9217 1539.06C36.1594 1538.35 36.9219 1537.03 36.9219 1535.6V1523C36.9219 1521.57 36.1584 1520.25 34.9193 1519.53L23.9911 1513.23Z" fill="#7FFF00"/>
</g>
<g filter="url(#filter1_i_338_817)">
<path fill-rule="evenodd" clip-rule="evenodd" d="M67.9934 1252.14C70.4678 1250.72 73.5163 1250.72 75.9912 1252.14L89.9978 1260.22C92.4742 1261.65 94 1264.29 94 1267.15V1283.31C94 1286.17 92.4742 1288.81 89.9978 1290.24L75.9912 1298.32C73.5163 1299.75 70.4678 1299.75 67.9934 1298.32L53.9999 1290.24C51.5248 1288.81 50 1286.17 50 1283.31V1267.15C50 1264.29 51.5248 1261.65 53.9999 1260.22L67.9934 1252.14ZM73.9911 1259.16C72.7543 1258.45 71.2314 1258.45 69.9949 1259.16L59.0793 1265.46C57.841 1266.17 57.0781 1267.49 57.0781 1268.92V1281.54C57.0781 1282.97 57.841 1284.29 59.0793 1285L69.9925 1291.3C71.2299 1292.01 72.754 1292.01 73.9911 1291.3L84.9217 1284.99C86.1594 1284.27 86.9219 1282.95 86.9219 1281.52V1268.92C86.9219 1267.49 86.1584 1266.17 84.9193 1265.46L73.9911 1259.16Z" fill="#7FFF00"/>
<path fill-rule="evenodd" clip-rule="evenodd" d="M67.9934 1336.29C70.4678 1334.86 73.5163 1334.86 75.9912 1336.29L89.9978 1344.37C92.4742 1345.8 94 1348.44 94 1351.3V1367.45C94 1370.31 92.4742 1372.95 89.9978 1374.38L75.9912 1382.46C73.5163 1383.89 70.4678 1383.89 67.9934 1382.46L53.9999 1374.38C51.5248 1372.95 50 1370.31 50 1367.45V1351.3C50 1348.44 51.5248 1345.8 53.9999 1344.37L67.9934 1336.29ZM73.9911 1343.31C72.7543 1342.59 71.2314 1342.59 69.9949 1343.31L59.0793 1349.6C57.841 1350.32 57.0781 1351.64 57.0781 1353.07V1365.68C57.0781 1367.11 57.841 1368.43 59.0793 1369.15L69.9925 1375.44C71.2299 1376.16 72.754 1376.16 73.9911 1375.44L84.9217 1369.13C86.1594 1368.42 86.9219 1367.1 86.9219 1365.67V1353.07C86.9219 1351.64 86.1584 1350.32 84.9193 1349.6L73.9911 1343.31Z" fill="#7FFF00"/>
<path fill-rule="evenodd" clip-rule="evenodd" d="M42.9934 1294.14C45.4678 1292.72 48.5163 1292.72 50.9912 1294.14L64.9978 1302.22C67.4742 1303.65 69 1306.29 69 1309.15V1325.31C69 1328.17 67.4742 1330.81 64.9978 1332.24L50.9912 1340.32C48.5163 1341.75 45.4678 1341.75 42.9934 1340.32L28.9999 1332.24C26.5248 1330.81 25 1328.17 25 1325.31V1309.15C25 1306.29 26.5248 1303.65 28.9999 1302.22L42.9934 1294.14ZM48.9911 1301.16C47.7543 1300.45 46.2314 1300.45 44.9949 1301.16L34.0793 1307.46C32.841 1308.17 32.0781 1309.49 32.0781 1310.92V1323.54C32.0781 1324.97 32.841 1326.29 34.0793 1327L44.9925 1333.3C46.2299 1334.01 47.754 1334.01 48.9911 1333.3L59.9217 1326.99C61.1594 1326.27 61.9219 1324.95 61.9219 1323.52V1310.92C61.9219 1309.49 61.1584 1308.17 59.9193 1307.46L48.9911 1301.16Z" fill="#7FFF00"/>
<path fill-rule="evenodd" clip-rule="evenodd" d="M17.9934 1252.07C20.4678 1250.64 23.5163 1250.64 25.9912 1252.07L39.9978 1260.15C42.4742 1261.58 44 1264.22 44 1267.08V1283.24C44 1286.09 42.4742 1288.74 39.9978 1290.17L25.9912 1298.25C23.5163 1299.67 20.4678 1299.67 17.9934 1298.24L3.99992 1290.17C1.52476 1288.74 0 1286.1 0 1283.24L0 1267.08C0 1264.22 1.52475 1261.58 3.99991 1260.15L17.9934 1252.07ZM23.9911 1259.09C22.7543 1258.38 21.2314 1258.38 19.9949 1259.09L9.07931 1265.39C7.84103 1266.1 7.07811 1267.42 7.07811 1268.85V1281.47C7.07811 1282.9 7.84103 1284.22 9.07931 1284.93L19.9925 1291.23C21.2299 1291.94 22.754 1291.94 23.9911 1291.23L34.9217 1284.92C36.1594 1284.2 36.9219 1282.88 36.9219 1281.45V1268.85C36.9219 1267.42 36.1584 1266.1 34.9193 1265.39L23.9911 1259.09Z" fill="#7FFF00"/>
<path fill-rule="evenodd" clip-rule="evenodd" d="M17.9934 1336.22C20.4678 1334.79 23.5163 1334.79 25.9912 1336.22L39.9978 1344.3C42.4742 1345.72 44 1348.37 44 1351.23V1367.38C44 1370.24 42.4742 1372.88 39.9978 1374.31L25.9912 1382.39C23.5163 1383.82 20.4678 1383.82 17.9934 1382.39L3.99992 1374.31C1.52476 1372.88 0 1370.24 0 1367.38L0 1351.22C0 1348.37 1.52475 1345.73 3.99991 1344.3L17.9934 1336.22ZM23.9911 1343.23C22.7543 1342.52 21.2314 1342.52 19.9949 1343.23L9.07931 1349.53C7.84103 1350.25 7.07811 1351.57 7.07811 1353V1365.61C7.07811 1367.04 7.84103 1368.36 9.07931 1369.08L19.9925 1375.37C21.2299 1376.09 22.754 1376.08 23.9911 1375.37L34.9217 1369.06C36.1594 1368.35 36.9219 1367.03 36.9219 1365.6V1353C36.9219 1351.57 36.1584 1350.25 34.9193 1349.53L23.9911 1343.23Z" fill="#7FFF00"/>
</g>
<g filter="url(#filter2_i_338_817)">
<path fill-rule="evenodd" clip-rule="evenodd" d="M67.9934 1337.14C70.4678 1335.72 73.5163 1335.72 75.9912 1337.14L89.9978 1345.22C92.4742 1346.65 94 1349.29 94 1352.15V1368.31C94 1371.17 92.4742 1373.81 89.9978 1375.24L75.9912 1383.32C73.5163 1384.75 70.4678 1384.75 67.9934 1383.32L53.9999 1375.24C51.5248 1373.81 50 1371.17 50 1368.31V1352.15C50 1349.29 51.5248 1346.65 53.9999 1345.22L67.9934 1337.14ZM73.9911 1344.16C72.7543 1343.45 71.2314 1343.45 69.9949 1344.16L59.0793 1350.46C57.841 1351.17 57.0781 1352.49 57.0781 1353.92V1366.54C57.0781 1367.97 57.841 1369.29 59.0793 1370L69.9925 1376.3C71.2299 1377.01 72.754 1377.01 73.9911 1376.3L84.9217 1369.99C86.1594 1369.27 86.9219 1367.95 86.9219 1366.52V1353.92C86.9219 1352.49 86.1584 1351.17 84.9193 1350.46L73.9911 1344.16Z" fill="#7FFF00"/>
<path fill-rule="evenodd" clip-rule="evenodd" d="M67.9934 1421.29C70.4678 1419.86 73.5163 1419.86 75.9912 1421.29L89.9978 1429.37C92.4742 1430.8 94 1433.44 94 1436.3V1452.45C94 1455.31 92.4742 1457.95 89.9978 1459.38L75.9912 1467.46C73.5163 1468.89 70.4678 1468.89 67.9934 1467.46L53.9999 1459.38C51.5248 1457.95 50 1455.31 50 1452.45V1436.3C50 1433.44 51.5248 1430.8 53.9999 1429.37L67.9934 1421.29ZM73.9911 1428.31C72.7543 1427.59 71.2314 1427.59 69.9949 1428.31L59.0793 1434.6C57.841 1435.32 57.0781 1436.64 57.0781 1438.07V1450.68C57.0781 1452.11 57.841 1453.43 59.0793 1454.15L69.9925 1460.44C71.2299 1461.16 72.754 1461.16 73.9911 1460.44L84.9217 1454.13C86.1594 1453.42 86.9219 1452.1 86.9219 1450.67V1438.07C86.9219 1436.64 86.1584 1435.32 84.9193 1434.6L73.9911 1428.31Z" fill="#7FFF00"/>
<path fill-rule="evenodd" clip-rule="evenodd" d="M42.9934 1379.14C45.4678 1377.72 48.5163 1377.72 50.9912 1379.14L64.9978 1387.22C67.4742 1388.65 69 1391.29 69 1394.15V1410.31C69 1413.17 67.4742 1415.81 64.9978 1417.24L50.9912 1425.32C48.5163 1426.75 45.4678 1426.75 42.9934 1425.32L28.9999 1417.24C26.5248 1415.81 25 1413.17 25 1410.31V1394.15C25 1391.29 26.5248 1388.65 28.9999 1387.22L42.9934 1379.14ZM48.9911 1386.16C47.7543 1385.45 46.2314 1385.45 44.9949 1386.16L34.0793 1392.46C32.841 1393.17 32.0781 1394.49 32.0781 1395.92V1408.54C32.0781 1409.97 32.841 1411.29 34.0793 1412L44.9925 1418.3C46.2299 1419.01 47.754 1419.01 48.9911 1418.3L59.9217 1411.99C61.1594 1411.27 61.9219 1409.95 61.9219 1408.52V1395.92C61.9219 1394.49 61.1584 1393.17 59.9193 1392.46L48.9911 1386.16Z" fill="#7FFF00"/>
<path fill-rule="evenodd" clip-rule="evenodd" d="M17.9934 1337.07C20.4678 1335.64 23.5163 1335.64 25.9912 1337.07L39.9978 1345.15C42.4742 1346.58 44 1349.22 44 1352.08V1368.24C44 1371.09 42.4742 1373.74 39.9978 1375.17L25.9912 1383.25C23.5163 1384.67 20.4678 1384.67 17.9934 1383.24L3.99992 1375.17C1.52476 1373.74 0 1371.1 0 1368.24L0 1352.08C0 1349.22 1.52475 1346.58 3.99991 1345.15L17.9934 1337.07ZM23.9911 1344.09C22.7543 1343.38 21.2314 1343.38 19.9949 1344.09L9.07931 1350.39C7.84103 1351.1 7.07811 1352.42 7.07811 1353.85V1366.47C7.07811 1367.9 7.84103 1369.22 9.07931 1369.93L19.9925 1376.23C21.2299 1376.94 22.754 1376.94 23.9911 1376.23L34.9217 1369.92C36.1594 1369.2 36.9219 1367.88 36.9219 1366.45V1353.85C36.9219 1352.42 36.1584 1351.1 34.9193 1350.39L23.9911 1344.09Z" fill="#7FFF00"/>
<path fill-rule="evenodd" clip-rule="evenodd" d="M17.9934 1421.22C20.4678 1419.79 23.5163 1419.79 25.9912 1421.22L39.9978 1429.3C42.4742 1430.72 44 1433.37 44 1436.23V1452.38C44 1455.24 42.4742 1457.88 39.9978 1459.31L25.9912 1467.39C23.5163 1468.82 20.4678 1468.82 17.9934 1467.39L3.99992 1459.31C1.52476 1457.88 0 1455.24 0 1452.38L0 1436.22C0 1433.37 1.52475 1430.73 3.99991 1429.3L17.9934 1421.22ZM23.9911 1428.23C22.7543 1427.52 21.2314 1427.52 19.9949 1428.23L9.07931 1434.53C7.84103 1435.25 7.07811 1436.57 7.07811 1438V1450.61C7.07811 1452.04 7.84103 1453.36 9.07931 1454.08L19.9925 1460.37C21.2299 1461.09 22.754 1461.08 23.9911 1460.37L34.9217 1454.06C36.1594 1453.35 36.9219 1452.03 36.9219 1450.6V1438C36.9219 1436.57 36.1584 1435.25 34.9193 1434.53L23.9911 1428.23Z" fill="#7FFF00"/>
</g>
<g filter="url(#filter3_i_338_817)">
<path fill-rule="evenodd" clip-rule="evenodd" d="M67.9934 1167.14C70.4678 1165.72 73.5163 1165.72 75.9912 1167.14L89.9978 1175.22C92.4742 1176.65 94 1179.29 94 1182.15V1198.31C94 1201.17 92.4742 1203.81 89.9978 1205.24L75.9912 1213.32C73.5163 1214.75 70.4678 1214.75 67.9934 1213.32L53.9999 1205.24C51.5248 1203.81 50 1201.17 50 1198.31V1182.15C50 1179.29 51.5248 1176.65 53.9999 1175.22L67.9934 1167.14ZM73.9911 1174.16C72.7543 1173.45 71.2314 1173.45 69.9949 1174.16L59.0793 1180.46C57.841 1181.17 57.0781 1182.49 57.0781 1183.92V1196.54C57.0781 1197.97 57.841 1199.29 59.0793 1200L69.9925 1206.3C71.2299 1207.01 72.754 1207.01 73.9911 1206.3L84.9217 1199.99C86.1594 1199.27 86.9219 1197.95 86.9219 1196.52V1183.92C86.9219 1182.49 86.1584 1181.17 84.9193 1180.46L73.9911 1174.16Z" fill="#7FFF00"/>
<path fill-rule="evenodd" clip-rule="evenodd" d="M67.9934 1251.29C70.4678 1249.86 73.5163 1249.86 75.9912 1251.29L89.9978 1259.37C92.4742 1260.8 94 1263.44 94 1266.3V1282.45C94 1285.31 92.4742 1287.95 89.9978 1289.38L75.9912 1297.46C73.5163 1298.89 70.4678 1298.89 67.9934 1297.46L53.9999 1289.38C51.5248 1287.95 50 1285.31 50 1282.45V1266.3C50 1263.44 51.5248 1260.8 53.9999 1259.37L67.9934 1251.29ZM73.9911 1258.31C72.7543 1257.59 71.2314 1257.59 69.9949 1258.31L59.0793 1264.6C57.841 1265.32 57.0781 1266.64 57.0781 1268.07V1280.68C57.0781 1282.11 57.841 1283.43 59.0793 1284.15L69.9925 1290.44C71.2299 1291.16 72.754 1291.16 73.9911 1290.44L84.9217 1284.13C86.1594 1283.42 86.9219 1282.1 86.9219 1280.67V1268.07C86.9219 1266.64 86.1584 1265.32 84.9193 1264.6L73.9911 1258.31Z" fill="#7FFF00"/>
<path fill-rule="evenodd" clip-rule="evenodd" d="M42.9934 1209.14C45.4678 1207.72 48.5163 1207.72 50.9912 1209.14L64.9978 1217.22C67.4742 1218.65 69 1221.29 69 1224.15V1240.31C69 1243.17 67.4742 1245.81 64.9978 1247.24L50.9912 1255.32C48.5163 1256.75 45.4678 1256.75 42.9934 1255.32L28.9999 1247.24C26.5248 1245.81 25 1243.17 25 1240.31V1224.15C25 1221.29 26.5248 1218.65 28.9999 1217.22L42.9934 1209.14ZM48.9911 1216.16C47.7543 1215.45 46.2314 1215.45 44.9949 1216.16L34.0793 1222.46C32.841 1223.17 32.0781 1224.49 32.0781 1225.92V1238.54C32.0781 1239.97 32.841 1241.29 34.0793 1242L44.9925 1248.3C46.2299 1249.01 47.754 1249.01 48.9911 1248.3L59.9217 1241.99C61.1594 1241.27 61.9219 1239.95 61.9219 1238.52V1225.92C61.9219 1224.49 61.1584 1223.17 59.9193 1222.46L48.9911 1216.16Z" fill="#7FFF00"/>
<path fill-rule="evenodd" clip-rule="evenodd" d="M17.9934 1167.07C20.4678 1165.64 23.5163 1165.64 25.9912 1167.07L39.9978 1175.15C42.4742 1176.58 44 1179.22 44 1182.08V1198.24C44 1201.09 42.4742 1203.74 39.9978 1205.17L25.9912 1213.25C23.5163 1214.67 20.4678 1214.67 17.9934 1213.24L3.99992 1205.17C1.52476 1203.74 0 1201.1 0 1198.24L0 1182.08C0 1179.22 1.52475 1176.58 3.99991 1175.15L17.9934 1167.07ZM23.9911 1174.09C22.7543 1173.38 21.2314 1173.38 19.9949 1174.09L9.07931 1180.39C7.84103 1181.1 7.07811 1182.42 7.07811 1183.85V1196.47C7.07811 1197.9 7.84103 1199.22 9.07931 1199.93L19.9925 1206.23C21.2299 1206.94 22.754 1206.94 23.9911 1206.23L34.9217 1199.92C36.1594 1199.2 36.9219 1197.88 36.9219 1196.45V1183.85C36.9219 1182.42 36.1584 1181.1 34.9193 1180.39L23.9911 1174.09Z" fill="#7FFF00"/>
<path fill-rule="evenodd" clip-rule="evenodd" d="M17.9934 1251.22C20.4678 1249.79 23.5163 1249.79 25.9912 1251.22L39.9978 1259.3C42.4742 1260.72 44 1263.37 44 1266.23V1282.38C44 1285.24 42.4742 1287.88 39.9978 1289.31L25.9912 1297.39C23.5163 1298.82 20.4678 1298.82 17.9934 1297.39L3.99992 1289.31C1.52476 1287.88 0 1285.24 0 1282.38L0 1266.22C0 1263.37 1.52475 1260.73 3.99991 1259.3L17.9934 1251.22ZM23.9911 1258.23C22.7543 1257.52 21.2314 1257.52 19.9949 1258.23L9.07931 1264.53C7.84103 1265.25 7.07811 1266.57 7.07811 1268V1280.61C7.07811 1282.04 7.84103 1283.36 9.07931 1284.08L19.9925 1290.37C21.2299 1291.09 22.754 1291.08 23.9911 1290.37L34.9217 1284.06C36.1594 1283.35 36.9219 1282.03 36.9219 1280.6V1268C36.9219 1266.57 36.1584 1265.25 34.9193 1264.53L23.9911 1258.23Z" fill="#7FFF00"/>
</g>
<g filter="url(#filter4_i_338_817)">
<path fill-rule="evenodd" clip-rule="evenodd" d="M67.9934 1082.14C70.4678 1080.72 73.5163 1080.72 75.9912 1082.14L89.9978 1090.22C92.4742 1091.65 94 1094.29 94 1097.15V1113.31C94 1116.17 92.4742 1118.81 89.9978 1120.24L75.9912 1128.32C73.5163 1129.75 70.4678 1129.75 67.9934 1128.32L53.9999 1120.24C51.5248 1118.81 50 1116.17 50 1113.31V1097.15C50 1094.29 51.5248 1091.65 53.9999 1090.22L67.9934 1082.14ZM73.9911 1089.16C72.7543 1088.45 71.2314 1088.45 69.9949 1089.16L59.0793 1095.46C57.841 1096.17 57.0781 1097.49 57.0781 1098.92V1111.54C57.0781 1112.97 57.841 1114.29 59.0793 1115L69.9925 1121.3C71.2299 1122.01 72.754 1122.01 73.9911 1121.3L84.9217 1114.99C86.1594 1114.27 86.9219 1112.95 86.9219 1111.52V1098.92C86.9219 1097.49 86.1584 1096.17 84.9193 1095.46L73.9911 1089.16Z" fill="#7FFF00"/>
<path fill-rule="evenodd" clip-rule="evenodd" d="M67.9934 1166.29C70.4678 1164.86 73.5163 1164.86 75.9912 1166.29L89.9978 1174.37C92.4742 1175.8 94 1178.44 94 1181.3V1197.45C94 1200.31 92.4742 1202.95 89.9978 1204.38L75.9912 1212.46C73.5163 1213.89 70.4678 1213.89 67.9934 1212.46L53.9999 1204.38C51.5248 1202.95 50 1200.31 50 1197.45V1181.3C50 1178.44 51.5248 1175.8 53.9999 1174.37L67.9934 1166.29ZM73.9911 1173.31C72.7543 1172.59 71.2314 1172.59 69.9949 1173.31L59.0793 1179.6C57.841 1180.32 57.0781 1181.64 57.0781 1183.07V1195.68C57.0781 1197.11 57.841 1198.43 59.0793 1199.15L69.9925 1205.44C71.2299 1206.16 72.754 1206.16 73.9911 1205.44L84.9217 1199.13C86.1594 1198.42 86.9219 1197.1 86.9219 1195.67V1183.07C86.9219 1181.64 86.1584 1180.32 84.9193 1179.6L73.9911 1173.31Z" fill="#7FFF00"/>
<path fill-rule="evenodd" clip-rule="evenodd" d="M42.9934 1124.14C45.4678 1122.72 48.5163 1122.72 50.9912 1124.14L64.9978 1132.22C67.4742 1133.65 69 1136.29 69 1139.15V1155.31C69 1158.17 67.4742 1160.81 64.9978 1162.24L50.9912 1170.32C48.5163 1171.75 45.4678 1171.75 42.9934 1170.32L28.9999 1162.24C26.5248 1160.81 25 1158.17 25 1155.31V1139.15C25 1136.29 26.5248 1133.65 28.9999 1132.22L42.9934 1124.14ZM48.9911 1131.16C47.7543 1130.45 46.2314 1130.45 44.9949 1131.16L34.0793 1137.46C32.841 1138.17 32.0781 1139.49 32.0781 1140.92V1153.54C32.0781 1154.97 32.841 1156.29 34.0793 1157L44.9925 1163.3C46.2299 1164.01 47.754 1164.01 48.9911 1163.3L59.9217 1156.99C61.1594 1156.27 61.9219 1154.95 61.9219 1153.52V1140.92C61.9219 1139.49 61.1584 1138.17 59.9193 1137.46L48.9911 1131.16Z" fill="#7FFF00"/>
<path fill-rule="evenodd" clip-rule="evenodd" d="M17.9934 1082.07C20.4678 1080.64 23.5163 1080.64 25.9912 1082.07L39.9978 1090.15C42.4742 1091.58 44 1094.22 44 1097.08V1113.24C44 1116.09 42.4742 1118.74 39.9978 1120.17L25.9912 1128.25C23.5163 1129.67 20.4678 1129.67 17.9934 1128.24L3.99992 1120.17C1.52476 1118.74 0 1116.1 0 1113.24L0 1097.08C0 1094.22 1.52475 1091.58 3.99991 1090.15L17.9934 1082.07ZM23.9911 1089.09C22.7543 1088.38 21.2314 1088.38 19.9949 1089.09L9.07931 1095.39C7.84103 1096.1 7.07811 1097.42 7.07811 1098.85V1111.47C7.07811 1112.9 7.84103 1114.22 9.07931 1114.93L19.9925 1121.23C21.2299 1121.94 22.754 1121.94 23.9911 1121.23L34.9217 1114.92C36.1594 1114.2 36.9219 1112.88 36.9219 1111.45V1098.85C36.9219 1097.42 36.1584 1096.1 34.9193 1095.39L23.9911 1089.09Z" fill="#7FFF00"/>
<path fill-rule="evenodd" clip-rule="evenodd" d="M17.9934 1166.22C20.4678 1164.79 23.5163 1164.79 25.9912 1166.22L39.9978 1174.3C42.4742 1175.72 44 1178.37 44 1181.23V1197.38C44 1200.24 42.4742 1202.88 39.9978 1204.31L25.9912 1212.39C23.5163 1213.82 20.4678 1213.82 17.9934 1212.39L3.99992 1204.31C1.52476 1202.88 0 1200.24 0 1197.38L0 1181.22C0 1178.37 1.52475 1175.73 3.99991 1174.3L17.9934 1166.22ZM23.9911 1173.23C22.7543 1172.52 21.2314 1172.52 19.9949 1173.23L9.07931 1179.53C7.84103 1180.25 7.07811 1181.57 7.07811 1183V1195.61C7.07811 1197.04 7.84103 1198.36 9.07931 1199.08L19.9925 1205.37C21.2299 1206.09 22.754 1206.08 23.9911 1205.37L34.9217 1199.06C36.1594 1198.35 36.9219 1197.03 36.9219 1195.6V1183C36.9219 1181.57 36.1584 1180.25 34.9193 1179.53L23.9911 1173.23Z" fill="#7FFF00"/>
</g>
<g filter="url(#filter5_i_338_817)">
<path fill-rule="evenodd" clip-rule="evenodd" d="M67.9934 997.144C70.4678 995.716 73.5163 995.715 75.9912 997.143L89.9978 1005.22C92.4742 1006.65 94 1009.29 94 1012.15V1028.31C94 1031.17 92.4742 1033.81 89.9978 1035.24L75.9912 1043.32C73.5163 1044.75 70.4678 1044.75 67.9934 1043.32L53.9999 1035.24C51.5248 1033.81 50 1031.17 50 1028.31V1012.15C50 1009.29 51.5248 1006.65 53.9999 1005.22L67.9934 997.144ZM73.9911 1004.16C72.7543 1003.45 71.2314 1003.45 69.9949 1004.16L59.0793 1010.46C57.841 1011.17 57.0781 1012.49 57.0781 1013.92V1026.54C57.0781 1027.97 57.841 1029.29 59.0793 1030L69.9925 1036.3C71.2299 1037.01 72.754 1037.01 73.9911 1036.3L84.9217 1029.99C86.1594 1029.27 86.9219 1027.95 86.9219 1026.52V1013.92C86.9219 1012.49 86.1584 1011.17 84.9193 1010.46L73.9911 1004.16Z" fill="#7FFF00"/>
<path fill-rule="evenodd" clip-rule="evenodd" d="M67.9934 1081.29C70.4678 1079.86 73.5163 1079.86 75.9912 1081.29L89.9978 1089.37C92.4742 1090.8 94 1093.44 94 1096.3V1112.45C94 1115.31 92.4742 1117.95 89.9978 1119.38L75.9912 1127.46C73.5163 1128.89 70.4678 1128.89 67.9934 1127.46L53.9999 1119.38C51.5248 1117.95 50 1115.31 50 1112.45V1096.3C50 1093.44 51.5248 1090.8 53.9999 1089.37L67.9934 1081.29ZM73.9911 1088.31C72.7543 1087.59 71.2314 1087.59 69.9949 1088.31L59.0793 1094.6C57.841 1095.32 57.0781 1096.64 57.0781 1098.07V1110.68C57.0781 1112.11 57.841 1113.43 59.0793 1114.15L69.9925 1120.44C71.2299 1121.16 72.754 1121.16 73.9911 1120.44L84.9217 1114.13C86.1594 1113.42 86.9219 1112.1 86.9219 1110.67V1098.07C86.9219 1096.64 86.1584 1095.32 84.9193 1094.6L73.9911 1088.31Z" fill="#7FFF00"/>
<path fill-rule="evenodd" clip-rule="evenodd" d="M42.9934 1039.14C45.4678 1037.72 48.5163 1037.72 50.9912 1039.14L64.9978 1047.22C67.4742 1048.65 69 1051.29 69 1054.15V1070.31C69 1073.17 67.4742 1075.81 64.9978 1077.24L50.9912 1085.32C48.5163 1086.75 45.4678 1086.75 42.9934 1085.32L28.9999 1077.24C26.5248 1075.81 25 1073.17 25 1070.31V1054.15C25 1051.29 26.5248 1048.65 28.9999 1047.22L42.9934 1039.14ZM48.9911 1046.16C47.7543 1045.45 46.2314 1045.45 44.9949 1046.16L34.0793 1052.46C32.841 1053.17 32.0781 1054.49 32.0781 1055.92V1068.54C32.0781 1069.97 32.841 1071.29 34.0793 1072L44.9925 1078.3C46.2299 1079.01 47.754 1079.01 48.9911 1078.3L59.9217 1071.99C61.1594 1071.27 61.9219 1069.95 61.9219 1068.52V1055.92C61.9219 1054.49 61.1584 1053.17 59.9193 1052.46L48.9911 1046.16Z" fill="#7FFF00"/>
<path fill-rule="evenodd" clip-rule="evenodd" d="M17.9934 997.072C20.4678 995.643 23.5163 995.643 25.9912 997.071L39.9978 1005.15C42.4742 1006.58 44 1009.22 44 1012.08V1028.24C44 1031.09 42.4742 1033.74 39.9978 1035.17L25.9912 1043.25C23.5163 1044.67 20.4678 1044.67 17.9934 1043.24L3.99992 1035.17C1.52476 1033.74 0 1031.1 0 1028.24L0 1012.08C0 1009.22 1.52475 1006.58 3.99991 1005.15L17.9934 997.072ZM23.9911 1004.09C22.7543 1003.38 21.2314 1003.38 19.9949 1004.09L9.07931 1010.39C7.84103 1011.1 7.07811 1012.42 7.07811 1013.85V1026.47C7.07811 1027.9 7.84103 1029.22 9.07931 1029.93L19.9925 1036.23C21.2299 1036.94 22.754 1036.94 23.9911 1036.23L34.9217 1029.92C36.1594 1029.2 36.9219 1027.88 36.9219 1026.45V1013.85C36.9219 1012.42 36.1584 1011.1 34.9193 1010.39L23.9911 1004.09Z" fill="#7FFF00"/>
<path fill-rule="evenodd" clip-rule="evenodd" d="M17.9934 1081.22C20.4678 1079.79 23.5163 1079.79 25.9912 1081.22L39.9978 1089.3C42.4742 1090.72 44 1093.37 44 1096.23V1112.38C44 1115.24 42.4742 1117.88 39.9978 1119.31L25.9912 1127.39C23.5163 1128.82 20.4678 1128.82 17.9934 1127.39L3.99992 1119.31C1.52476 1117.88 0 1115.24 0 1112.38L0 1096.22C0 1093.37 1.52475 1090.73 3.99991 1089.3L17.9934 1081.22ZM23.9911 1088.23C22.7543 1087.52 21.2314 1087.52 19.9949 1088.23L9.07931 1094.53C7.84103 1095.25 7.07811 1096.57 7.07811 1098V1110.61C7.07811 1112.04 7.84103 1113.36 9.07931 1114.08L19.9925 1120.37C21.2299 1121.09 22.754 1121.08 23.9911 1120.37L34.9217 1114.06C36.1594 1113.35 36.9219 1112.03 36.9219 1110.6V1098C36.9219 1096.57 36.1584 1095.25 34.9193 1094.53L23.9911 1088.23Z" fill="#7FFF00"/>
</g>
<g filter="url(#filter6_i_338_817)">
<path fill-rule="evenodd" clip-rule="evenodd" d="M67.9934 912.144C70.4678 910.716 73.5163 910.715 75.9912 912.143L89.9978 920.224C92.4742 921.652 94 924.294 94 927.153V943.308C94 946.167 92.4742 948.809 89.9978 950.238L75.9912 958.318C73.5163 959.746 70.4678 959.746 67.9934 958.317L53.9999 950.238C51.5248 948.809 50 946.168 50 943.31V927.152C50 924.294 51.5248 921.653 53.9999 920.224L67.9934 912.144ZM73.9911 919.161C72.7543 918.448 71.2314 918.448 69.9949 919.161L59.0793 925.458C57.841 926.173 57.0781 927.494 57.0781 928.923V941.538C57.0781 942.968 57.841 944.289 59.0793 945.003L69.9925 951.299C71.2299 952.013 72.754 952.012 73.9911 951.298L84.9217 944.988C86.1594 944.274 86.9219 942.953 86.9219 941.524V928.925C86.9219 927.495 86.1584 926.173 84.9193 925.459L73.9911 919.161Z" fill="#7FFF00"/>
<path fill-rule="evenodd" clip-rule="evenodd" d="M67.9934 996.289C70.4678 994.861 73.5163 994.86 75.9912 996.288L89.9978 1004.37C92.4742 1005.8 94 1008.44 94 1011.3V1027.45C94 1030.31 92.4742 1032.95 89.9978 1034.38L75.9912 1042.46C73.5163 1043.89 70.4678 1043.89 67.9934 1042.46L53.9999 1034.38C51.5248 1032.95 50 1030.31 50 1027.45V1011.3C50 1008.44 51.5248 1005.8 53.9999 1004.37L67.9934 996.289ZM73.9911 1003.31C72.7543 1002.59 71.2314 1002.59 69.9949 1003.31L59.0793 1009.6C57.841 1010.32 57.0781 1011.64 57.0781 1013.07V1025.68C57.0781 1027.11 57.841 1028.43 59.0793 1029.15L69.9925 1035.44C71.2299 1036.16 72.754 1036.16 73.9911 1035.44L84.9217 1029.13C86.1594 1028.42 86.9219 1027.1 86.9219 1025.67V1013.07C86.9219 1011.64 86.1584 1010.32 84.9193 1009.6L73.9911 1003.31Z" fill="#7FFF00"/>
<path fill-rule="evenodd" clip-rule="evenodd" d="M42.9934 954.144C45.4678 952.716 48.5163 952.715 50.9912 954.143L64.9978 962.224C67.4742 963.652 69 966.294 69 969.153V985.308C69 988.167 67.4742 990.809 64.9978 992.238L50.9912 1000.32C48.5163 1001.75 45.4678 1001.75 42.9934 1000.32L28.9999 992.238C26.5248 990.809 25 988.168 25 985.31V969.152C25 966.294 26.5248 963.653 28.9999 962.224L42.9934 954.144ZM48.9911 961.161C47.7543 960.448 46.2314 960.448 44.9949 961.161L34.0793 967.458C32.841 968.173 32.0781 969.494 32.0781 970.923V983.538C32.0781 984.968 32.841 986.289 34.0793 987.003L44.9925 993.299C46.2299 994.013 47.754 994.012 48.9911 993.298L59.9217 986.988C61.1594 986.274 61.9219 984.953 61.9219 983.524V970.925C61.9219 969.495 61.1584 968.173 59.9193 967.459L48.9911 961.161Z" fill="#7FFF00"/>
<path fill-rule="evenodd" clip-rule="evenodd" d="M17.9934 912.072C20.4678 910.643 23.5163 910.643 25.9912 912.071L39.9978 920.151C42.4742 921.58 44 924.222 44 927.081V943.236C44 946.095 42.4742 948.736 39.9978 950.165L25.9912 958.246C23.5163 959.674 20.4678 959.673 17.9934 958.245L3.99992 950.165C1.52476 948.736 0 946.095 0 943.237L0 927.079C0 924.221 1.52475 921.58 3.99991 920.151L17.9934 912.072ZM23.9911 919.088C22.7543 918.375 21.2314 918.376 19.9949 919.089L9.07931 925.386C7.84103 926.1 7.07811 927.421 7.07811 928.851V941.466C7.07811 942.895 7.84103 944.216 9.07931 944.931L19.9925 951.226C21.2299 951.94 22.754 951.94 23.9911 951.226L34.9217 944.916C36.1594 944.201 36.9219 942.881 36.9219 941.451V928.852C36.9219 927.422 36.1584 926.101 34.9193 925.387L23.9911 919.088Z" fill="#7FFF00"/>
<path fill-rule="evenodd" clip-rule="evenodd" d="M17.9934 996.217C20.4678 994.788 23.5163 994.788 25.9912 996.216L39.9978 1004.3C42.4742 1005.72 44 1008.37 44 1011.23V1027.38C44 1030.24 42.4742 1032.88 39.9978 1034.31L25.9912 1042.39C23.5163 1043.82 20.4678 1043.82 17.9934 1042.39L3.99992 1034.31C1.52476 1032.88 0 1030.24 0 1027.38L0 1011.22C0 1008.37 1.52475 1005.73 3.99991 1004.3L17.9934 996.217ZM23.9911 1003.23C22.7543 1002.52 21.2314 1002.52 19.9949 1003.23L9.07931 1009.53C7.84103 1010.25 7.07811 1011.57 7.07811 1013V1025.61C7.07811 1027.04 7.84103 1028.36 9.07931 1029.08L19.9925 1035.37C21.2299 1036.09 22.754 1036.08 23.9911 1035.37L34.9217 1029.06C36.1594 1028.35 36.9219 1027.03 36.9219 1025.6V1013C36.9219 1011.57 36.1584 1010.25 34.9193 1009.53L23.9911 1003.23Z" fill="#7FFF00"/>
</g>
<g filter="url(#filter7_i_338_817)">
<path fill-rule="evenodd" clip-rule="evenodd" d="M67.9934 827.144C70.4678 825.716 73.5163 825.715 75.9912 827.143L89.9978 835.224C92.4742 836.652 94 839.294 94 842.153V858.308C94 861.167 92.4742 863.809 89.9978 865.238L75.9912 873.318C73.5163 874.746 70.4678 874.746 67.9934 873.317L53.9999 865.238C51.5248 863.809 50 861.168 50 858.31V842.152C50 839.294 51.5248 836.653 53.9999 835.224L67.9934 827.144ZM73.9911 834.161C72.7543 833.448 71.2314 833.448 69.9949 834.161L59.0793 840.458C57.841 841.173 57.0781 842.494 57.0781 843.923V856.538C57.0781 857.968 57.841 859.289 59.0793 860.003L69.9925 866.299C71.2299 867.013 72.754 867.012 73.9911 866.298L84.9217 859.988C86.1594 859.274 86.9219 857.953 86.9219 856.524V843.925C86.9219 842.495 86.1584 841.173 84.9193 840.459L73.9911 834.161Z" fill="#7FFF00"/>
<path fill-rule="evenodd" clip-rule="evenodd" d="M67.9934 911.289C70.4678 909.861 73.5163 909.86 75.9912 911.288L89.9978 919.369C92.4742 920.797 94 923.439 94 926.298V942.453C94 945.312 92.4742 947.954 89.9978 949.383L75.9912 957.463C73.5163 958.891 70.4678 958.891 67.9934 957.462L53.9999 949.383C51.5248 947.954 50 945.313 50 942.455V926.297C50 923.439 51.5248 920.798 53.9999 919.369L67.9934 911.289ZM73.9911 918.306C72.7543 917.593 71.2314 917.593 69.9949 918.306L59.0793 924.603C57.841 925.318 57.0781 926.639 57.0781 928.068V940.683C57.0781 942.113 57.841 943.434 59.0793 944.148L69.9925 950.444C71.2299 951.158 72.754 951.157 73.9911 950.443L84.9217 944.133C86.1594 943.419 86.9219 942.098 86.9219 940.669V928.07C86.9219 926.64 86.1584 925.318 84.9193 924.604L73.9911 918.306Z" fill="#7FFF00"/>
<path fill-rule="evenodd" clip-rule="evenodd" d="M42.9934 869.144C45.4678 867.716 48.5163 867.715 50.9912 869.143L64.9978 877.224C67.4742 878.652 69 881.294 69 884.153V900.308C69 903.167 67.4742 905.809 64.9978 907.238L50.9912 915.318C48.5163 916.746 45.4678 916.746 42.9934 915.317L28.9999 907.238C26.5248 905.809 25 903.168 25 900.31V884.152C25 881.294 26.5248 878.653 28.9999 877.224L42.9934 869.144ZM48.9911 876.161C47.7543 875.448 46.2314 875.448 44.9949 876.161L34.0793 882.458C32.841 883.173 32.0781 884.494 32.0781 885.923V898.538C32.0781 899.968 32.841 901.289 34.0793 902.003L44.9925 908.299C46.2299 909.013 47.754 909.012 48.9911 908.298L59.9217 901.988C61.1594 901.274 61.9219 899.953 61.9219 898.524V885.925C61.9219 884.495 61.1584 883.173 59.9193 882.459L48.9911 876.161Z" fill="#7FFF00"/>
<path fill-rule="evenodd" clip-rule="evenodd" d="M17.9934 827.072C20.4678 825.643 23.5163 825.643 25.9912 827.071L39.9978 835.151C42.4742 836.58 44 839.222 44 842.081V858.236C44 861.095 42.4742 863.736 39.9978 865.165L25.9912 873.246C23.5163 874.674 20.4678 874.673 17.9934 873.245L3.99992 865.165C1.52476 863.736 0 861.095 0 858.237L0 842.079C0 839.221 1.52475 836.58 3.99991 835.151L17.9934 827.072ZM23.9911 834.088C22.7543 833.375 21.2314 833.376 19.9949 834.089L9.07931 840.386C7.84103 841.1 7.07811 842.421 7.07811 843.851V856.466C7.07811 857.895 7.84103 859.216 9.07931 859.931L19.9925 866.226C21.2299 866.94 22.754 866.94 23.9911 866.226L34.9217 859.916C36.1594 859.201 36.9219 857.881 36.9219 856.451V843.852C36.9219 842.422 36.1584 841.101 34.9193 840.387L23.9911 834.088Z" fill="#7FFF00"/>
<path fill-rule="evenodd" clip-rule="evenodd" d="M17.9934 911.217C20.4678 909.788 23.5163 909.788 25.9912 911.216L39.9978 919.296C42.4742 920.725 44 923.367 44 926.226V942.381C44 945.24 42.4742 947.882 39.9978 949.31L25.9912 957.391C23.5163 958.819 20.4678 958.818 17.9934 957.39L3.99992 949.31C1.52476 947.881 0 945.24 0 942.382L0 926.224C0 923.366 1.52475 920.725 3.99991 919.296L17.9934 911.217ZM23.9911 918.233C22.7543 917.52 21.2314 917.521 19.9949 918.234L9.07931 924.531C7.84103 925.245 7.07811 926.566 7.07811 927.996V940.611C7.07811 942.04 7.84103 943.361 9.07931 944.076L19.9925 950.371C21.2299 951.085 22.754 951.085 23.9911 950.371L34.9217 944.061C36.1594 943.346 36.9219 942.026 36.9219 940.597V927.997C36.9219 926.567 36.1584 925.246 34.9193 924.532L23.9911 918.233Z" fill="#7FFF00"/>
</g>
<g filter="url(#filter8_i_338_817)">
<path fill-rule="evenodd" clip-rule="evenodd" d="M67.9934 742.144C70.4678 740.716 73.5163 740.715 75.9912 742.143L89.9978 750.224C92.4742 751.652 94 754.294 94 757.153V773.308C94 776.167 92.4742 778.809 89.9978 780.238L75.9912 788.318C73.5163 789.746 70.4678 789.746 67.9934 788.317L53.9999 780.238C51.5248 778.809 50 776.168 50 773.31V757.152C50 754.294 51.5248 751.653 53.9999 750.224L67.9934 742.144ZM73.9911 749.161C72.7543 748.448 71.2314 748.448 69.9949 749.161L59.0793 755.458C57.841 756.173 57.0781 757.494 57.0781 758.923V771.538C57.0781 772.968 57.841 774.289 59.0793 775.003L69.9925 781.299C71.2299 782.013 72.754 782.012 73.9911 781.298L84.9217 774.988C86.1594 774.274 86.9219 772.953 86.9219 771.524V758.925C86.9219 757.495 86.1584 756.173 84.9193 755.459L73.9911 749.161Z" fill="#7FFF00"/>
<path fill-rule="evenodd" clip-rule="evenodd" d="M67.9934 826.289C70.4678 824.861 73.5163 824.86 75.9912 826.288L89.9978 834.369C92.4742 835.797 94 838.439 94 841.298V857.453C94 860.312 92.4742 862.954 89.9978 864.383L75.9912 872.463C73.5163 873.891 70.4678 873.891 67.9934 872.462L53.9999 864.383C51.5248 862.954 50 860.313 50 857.455V841.297C50 838.439 51.5248 835.798 53.9999 834.369L67.9934 826.289ZM73.9911 833.306C72.7543 832.593 71.2314 832.593 69.9949 833.306L59.0793 839.603C57.841 840.318 57.0781 841.639 57.0781 843.068V855.683C57.0781 857.113 57.841 858.434 59.0793 859.148L69.9925 865.444C71.2299 866.158 72.754 866.157 73.9911 865.443L84.9217 859.133C86.1594 858.419 86.9219 857.098 86.9219 855.669V843.07C86.9219 841.64 86.1584 840.318 84.9193 839.604L73.9911 833.306Z" fill="#7FFF00"/>
<path fill-rule="evenodd" clip-rule="evenodd" d="M42.9934 784.144C45.4678 782.716 48.5163 782.715 50.9912 784.143L64.9978 792.224C67.4742 793.652 69 796.294 69 799.153V815.308C69 818.167 67.4742 820.809 64.9978 822.238L50.9912 830.318C48.5163 831.746 45.4678 831.746 42.9934 830.317L28.9999 822.238C26.5248 820.809 25 818.168 25 815.31V799.152C25 796.294 26.5248 793.653 28.9999 792.224L42.9934 784.144ZM48.9911 791.161C47.7543 790.448 46.2314 790.448 44.9949 791.161L34.0793 797.458C32.841 798.173 32.0781 799.494 32.0781 800.923V813.538C32.0781 814.968 32.841 816.289 34.0793 817.003L44.9925 823.299C46.2299 824.013 47.754 824.012 48.9911 823.298L59.9217 816.988C61.1594 816.274 61.9219 814.953 61.9219 813.524V800.925C61.9219 799.495 61.1584 798.173 59.9193 797.459L48.9911 791.161Z" fill="#7FFF00"/>
<path fill-rule="evenodd" clip-rule="evenodd" d="M17.9934 742.072C20.4678 740.643 23.5163 740.643 25.9912 742.071L39.9978 750.151C42.4742 751.58 44 754.222 44 757.081V773.236C44 776.095 42.4742 778.736 39.9978 780.165L25.9912 788.246C23.5163 789.674 20.4678 789.673 17.9934 788.245L3.99992 780.165C1.52476 778.736 0 776.095 0 773.237L0 757.079C0 754.221 1.52475 751.58 3.99991 750.151L17.9934 742.072ZM23.9911 749.088C22.7543 748.375 21.2314 748.376 19.9949 749.089L9.07931 755.386C7.84103 756.1 7.07811 757.421 7.07811 758.851V771.466C7.07811 772.895 7.84103 774.216 9.07931 774.931L19.9925 781.226C21.2299 781.94 22.754 781.94 23.9911 781.226L34.9217 774.916C36.1594 774.201 36.9219 772.881 36.9219 771.451V758.852C36.9219 757.422 36.1584 756.101 34.9193 755.387L23.9911 749.088Z" fill="#7FFF00"/>
<path fill-rule="evenodd" clip-rule="evenodd" d="M17.9934 826.217C20.4678 824.788 23.5163 824.788 25.9912 826.216L39.9978 834.296C42.4742 835.725 44 838.367 44 841.226V857.381C44 860.24 42.4742 862.882 39.9978 864.31L25.9912 872.391C23.5163 873.819 20.4678 873.818 17.9934 872.39L3.99992 864.31C1.52476 862.881 0 860.24 0 857.382L0 841.224C0 838.366 1.52475 835.725 3.99991 834.296L17.9934 826.217ZM23.9911 833.233C22.7543 832.52 21.2314 832.521 19.9949 833.234L9.07931 839.531C7.84103 840.245 7.07811 841.566 7.07811 842.996V855.611C7.07811 857.04 7.84103 858.361 9.07931 859.076L19.9925 865.371C21.2299 866.085 22.754 866.085 23.9911 865.371L34.9217 859.061C36.1594 858.346 36.9219 857.026 36.9219 855.597V842.997C36.9219 841.567 36.1584 840.246 34.9193 839.532L23.9911 833.233Z" fill="#7FFF00"/>
</g>
<g filter="url(#filter9_i_338_817)">
<path fill-rule="evenodd" clip-rule="evenodd" d="M67.9934 657.144C70.4678 655.716 73.5163 655.715 75.9912 657.143L89.9978 665.224C92.4742 666.652 94 669.294 94 672.153V688.308C94 691.167 92.4742 693.809 89.9978 695.238L75.9912 703.318C73.5163 704.746 70.4678 704.746 67.9934 703.317L53.9999 695.238C51.5248 693.809 50 691.168 50 688.31V672.152C50 669.294 51.5248 666.653 53.9999 665.224L67.9934 657.144ZM73.9911 664.161C72.7543 663.448 71.2314 663.448 69.9949 664.161L59.0793 670.458C57.841 671.173 57.0781 672.494 57.0781 673.923V686.538C57.0781 687.968 57.841 689.289 59.0793 690.003L69.9925 696.299C71.2299 697.013 72.754 697.012 73.9911 696.298L84.9217 689.988C86.1594 689.274 86.9219 687.953 86.9219 686.524V673.925C86.9219 672.495 86.1584 671.173 84.9193 670.459L73.9911 664.161Z" fill="#7FFF00"/>
<path fill-rule="evenodd" clip-rule="evenodd" d="M67.9934 741.289C70.4678 739.861 73.5163 739.86 75.9912 741.288L89.9978 749.369C92.4742 750.797 94 753.439 94 756.298V772.453C94 775.312 92.4742 777.954 89.9978 779.383L75.9912 787.463C73.5163 788.891 70.4678 788.891 67.9934 787.462L53.9999 779.383C51.5248 777.954 50 775.313 50 772.455V756.297C50 753.439 51.5248 750.798 53.9999 749.369L67.9934 741.289ZM73.9911 748.306C72.7543 747.593 71.2314 747.593 69.9949 748.306L59.0793 754.603C57.841 755.318 57.0781 756.639 57.0781 758.068V770.683C57.0781 772.113 57.841 773.434 59.0793 774.148L69.9925 780.444C71.2299 781.158 72.754 781.157 73.9911 780.443L84.9217 774.133C86.1594 773.419 86.9219 772.098 86.9219 770.669V758.07C86.9219 756.64 86.1584 755.318 84.9193 754.604L73.9911 748.306Z" fill="#7FFF00"/>
<path fill-rule="evenodd" clip-rule="evenodd" d="M42.9934 699.144C45.4678 697.716 48.5163 697.715 50.9912 699.143L64.9978 707.224C67.4742 708.652 69 711.294 69 714.153V730.308C69 733.167 67.4742 735.809 64.9978 737.238L50.9912 745.318C48.5163 746.746 45.4678 746.746 42.9934 745.317L28.9999 737.238C26.5248 735.809 25 733.168 25 730.31V714.152C25 711.294 26.5248 708.653 28.9999 707.224L42.9934 699.144ZM48.9911 706.161C47.7543 705.448 46.2314 705.448 44.9949 706.161L34.0793 712.458C32.841 713.173 32.0781 714.494 32.0781 715.923V728.538C32.0781 729.968 32.841 731.289 34.0793 732.003L44.9925 738.299C46.2299 739.013 47.754 739.012 48.9911 738.298L59.9217 731.988C61.1594 731.274 61.9219 729.953 61.9219 728.524V715.925C61.9219 714.495 61.1584 713.173 59.9193 712.459L48.9911 706.161Z" fill="#7FFF00"/>
<path fill-rule="evenodd" clip-rule="evenodd" d="M17.9934 657.072C20.4678 655.643 23.5163 655.643 25.9912 657.071L39.9978 665.151C42.4742 666.58 44 669.222 44 672.081V688.236C44 691.095 42.4742 693.736 39.9978 695.165L25.9912 703.246C23.5163 704.674 20.4678 704.673 17.9934 703.245L3.99992 695.165C1.52476 693.736 0 691.095 0 688.237L0 672.079C0 669.221 1.52475 666.58 3.99991 665.151L17.9934 657.072ZM23.9911 664.088C22.7543 663.375 21.2314 663.376 19.9949 664.089L9.07931 670.386C7.84103 671.1 7.07811 672.421 7.07811 673.851V686.466C7.07811 687.895 7.84103 689.216 9.07931 689.931L19.9925 696.226C21.2299 696.94 22.754 696.94 23.9911 696.226L34.9217 689.916C36.1594 689.201 36.9219 687.881 36.9219 686.451V673.852C36.9219 672.422 36.1584 671.101 34.9193 670.387L23.9911 664.088Z" fill="#7FFF00"/>
<path fill-rule="evenodd" clip-rule="evenodd" d="M17.9934 741.217C20.4678 739.788 23.5163 739.788 25.9912 741.216L39.9978 749.296C42.4742 750.725 44 753.367 44 756.226V772.381C44 775.24 42.4742 777.882 39.9978 779.31L25.9912 787.391C23.5163 788.819 20.4678 788.818 17.9934 787.39L3.99992 779.31C1.52476 777.881 0 775.24 0 772.382L0 756.224C0 753.366 1.52475 750.725 3.99991 749.296L17.9934 741.217ZM23.9911 748.233C22.7543 747.52 21.2314 747.521 19.9949 748.234L9.07931 754.531C7.84103 755.245 7.07811 756.566 7.07811 757.996V770.611C7.07811 772.04 7.84103 773.361 9.07931 774.076L19.9925 780.371C21.2299 781.085 22.754 781.085 23.9911 780.371L34.9217 774.061C36.1594 773.346 36.9219 772.026 36.9219 770.597V757.997C36.9219 756.567 36.1584 755.246 34.9193 754.532L23.9911 748.233Z" fill="#7FFF00"/>
</g>
<g filter="url(#filter10_i_338_817)">
<path fill-rule="evenodd" clip-rule="evenodd" d="M67.9934 572.144C70.4678 570.716 73.5163 570.715 75.9912 572.143L89.9978 580.224C92.4742 581.652 94 584.294 94 587.153V603.308C94 606.167 92.4742 608.809 89.9978 610.238L75.9912 618.318C73.5163 619.746 70.4678 619.746 67.9934 618.317L53.9999 610.238C51.5248 608.809 50 606.168 50 603.31V587.152C50 584.294 51.5248 581.653 53.9999 580.224L67.9934 572.144ZM73.9911 579.161C72.7543 578.448 71.2314 578.448 69.9949 579.161L59.0793 585.458C57.841 586.173 57.0781 587.494 57.0781 588.923V601.538C57.0781 602.968 57.841 604.289 59.0793 605.003L69.9925 611.299C71.2299 612.013 72.754 612.012 73.9911 611.298L84.9217 604.988C86.1594 604.274 86.9219 602.953 86.9219 601.524V588.925C86.9219 587.495 86.1584 586.173 84.9193 585.459L73.9911 579.161Z" fill="#7FFF00"/>
<path fill-rule="evenodd" clip-rule="evenodd" d="M67.9934 656.289C70.4678 654.861 73.5163 654.86 75.9912 656.288L89.9978 664.369C92.4742 665.797 94 668.439 94 671.298V687.453C94 690.312 92.4742 692.954 89.9978 694.383L75.9912 702.463C73.5163 703.891 70.4678 703.891 67.9934 702.462L53.9999 694.383C51.5248 692.954 50 690.313 50 687.455V671.297C50 668.439 51.5248 665.798 53.9999 664.369L67.9934 656.289ZM73.9911 663.306C72.7543 662.593 71.2314 662.593 69.9949 663.306L59.0793 669.603C57.841 670.318 57.0781 671.639 57.0781 673.068V685.683C57.0781 687.113 57.841 688.434 59.0793 689.148L69.9925 695.444C71.2299 696.158 72.754 696.157 73.9911 695.443L84.9217 689.133C86.1594 688.419 86.9219 687.098 86.9219 685.669V673.07C86.9219 671.64 86.1584 670.318 84.9193 669.604L73.9911 663.306Z" fill="#7FFF00"/>
<path fill-rule="evenodd" clip-rule="evenodd" d="M42.9934 614.144C45.4678 612.716 48.5163 612.715 50.9912 614.143L64.9978 622.224C67.4742 623.652 69 626.294 69 629.153V645.308C69 648.167 67.4742 650.809 64.9978 652.238L50.9912 660.318C48.5163 661.746 45.4678 661.746 42.9934 660.317L28.9999 652.238C26.5248 650.809 25 648.168 25 645.31V629.152C25 626.294 26.5248 623.653 28.9999 622.224L42.9934 614.144ZM48.9911 621.161C47.7543 620.448 46.2314 620.448 44.9949 621.161L34.0793 627.458C32.841 628.173 32.0781 629.494 32.0781 630.923V643.538C32.0781 644.968 32.841 646.289 34.0793 647.003L44.9925 653.299C46.2299 654.013 47.754 654.012 48.9911 653.298L59.9217 646.988C61.1594 646.274 61.9219 644.953 61.9219 643.524V630.925C61.9219 629.495 61.1584 628.173 59.9193 627.459L48.9911 621.161Z" fill="#7FFF00"/>
<path fill-rule="evenodd" clip-rule="evenodd" d="M17.9934 572.072C20.4678 570.643 23.5163 570.643 25.9912 572.071L39.9978 580.151C42.4742 581.58 44 584.222 44 587.081V603.236C44 606.095 42.4742 608.736 39.9978 610.165L25.9912 618.246C23.5163 619.674 20.4678 619.673 17.9934 618.245L3.99992 610.165C1.52476 608.736 0 606.095 0 603.237L0 587.079C0 584.221 1.52475 581.58 3.99991 580.151L17.9934 572.072ZM23.9911 579.088C22.7543 578.375 21.2314 578.376 19.9949 579.089L9.07931 585.386C7.84103 586.1 7.07811 587.421 7.07811 588.851V601.466C7.07811 602.895 7.84103 604.216 9.07931 604.931L19.9925 611.226C21.2299 611.94 22.754 611.94 23.9911 611.226L34.9217 604.916C36.1594 604.201 36.9219 602.881 36.9219 601.451V588.852C36.9219 587.422 36.1584 586.101 34.9193 585.387L23.9911 579.088Z" fill="#7FFF00"/>
<path fill-rule="evenodd" clip-rule="evenodd" d="M17.9934 656.217C20.4678 654.788 23.5163 654.788 25.9912 656.216L39.9978 664.296C42.4742 665.725 44 668.367 44 671.226V687.381C44 690.24 42.4742 692.882 39.9978 694.31L25.9912 702.391C23.5163 703.819 20.4678 703.818 17.9934 702.39L3.99992 694.31C1.52476 692.881 0 690.24 0 687.382L0 671.224C0 668.366 1.52475 665.725 3.99991 664.296L17.9934 656.217ZM23.9911 663.233C22.7543 662.52 21.2314 662.521 19.9949 663.234L9.07931 669.531C7.84103 670.245 7.07811 671.566 7.07811 672.996V685.611C7.07811 687.04 7.84103 688.361 9.07931 689.076L19.9925 695.371C21.2299 696.085 22.754 696.085 23.9911 695.371L34.9217 689.061C36.1594 688.346 36.9219 687.026 36.9219 685.597V672.997C36.9219 671.567 36.1584 670.246 34.9193 669.532L23.9911 663.233Z" fill="#7FFF00"/>
</g>
<g filter="url(#filter11_i_338_817)">
<path fill-rule="evenodd" clip-rule="evenodd" d="M67.9934 487.144C70.4678 485.716 73.5163 485.715 75.9912 487.143L89.9978 495.224C92.4742 496.652 94 499.294 94 502.153V518.308C94 521.167 92.4742 523.809 89.9978 525.238L75.9912 533.318C73.5163 534.746 70.4678 534.746 67.9934 533.317L53.9999 525.238C51.5248 523.809 50 521.168 50 518.31V502.152C50 499.294 51.5248 496.653 53.9999 495.224L67.9934 487.144ZM73.9911 494.161C72.7543 493.448 71.2314 493.448 69.9949 494.161L59.0793 500.458C57.841 501.173 57.0781 502.494 57.0781 503.923V516.538C57.0781 517.968 57.841 519.289 59.0793 520.003L69.9925 526.299C71.2299 527.013 72.754 527.012 73.9911 526.298L84.9217 519.988C86.1594 519.274 86.9219 517.953 86.9219 516.524V503.925C86.9219 502.495 86.1584 501.173 84.9193 500.459L73.9911 494.161Z" fill="#7FFF00"/>
<path fill-rule="evenodd" clip-rule="evenodd" d="M67.9934 571.289C70.4678 569.861 73.5163 569.86 75.9912 571.288L89.9978 579.369C92.4742 580.797 94 583.439 94 586.298V602.453C94 605.312 92.4742 607.954 89.9978 609.383L75.9912 617.463C73.5163 618.891 70.4678 618.891 67.9934 617.462L53.9999 609.383C51.5248 607.954 50 605.313 50 602.455V586.297C50 583.439 51.5248 580.798 53.9999 579.369L67.9934 571.289ZM73.9911 578.306C72.7543 577.593 71.2314 577.593 69.9949 578.306L59.0793 584.603C57.841 585.318 57.0781 586.639 57.0781 588.068V600.683C57.0781 602.113 57.841 603.434 59.0793 604.148L69.9925 610.444C71.2299 611.158 72.754 611.157 73.9911 610.443L84.9217 604.133C86.1594 603.419 86.9219 602.098 86.9219 600.669V588.07C86.9219 586.64 86.1584 585.318 84.9193 584.604L73.9911 578.306Z" fill="#7FFF00"/>
<path fill-rule="evenodd" clip-rule="evenodd" d="M42.9934 529.144C45.4678 527.716 48.5163 527.715 50.9912 529.143L64.9978 537.224C67.4742 538.652 69 541.294 69 544.153V560.308C69 563.167 67.4742 565.809 64.9978 567.238L50.9912 575.318C48.5163 576.746 45.4678 576.746 42.9934 575.317L28.9999 567.238C26.5248 565.809 25 563.168 25 560.31V544.152C25 541.294 26.5248 538.653 28.9999 537.224L42.9934 529.144ZM48.9911 536.161C47.7543 535.448 46.2314 535.448 44.9949 536.161L34.0793 542.458C32.841 543.173 32.0781 544.494 32.0781 545.923V558.538C32.0781 559.968 32.841 561.289 34.0793 562.003L44.9925 568.299C46.2299 569.013 47.754 569.012 48.9911 568.298L59.9217 561.988C61.1594 561.274 61.9219 559.953 61.9219 558.524V545.925C61.9219 544.495 61.1584 543.173 59.9193 542.459L48.9911 536.161Z" fill="#7FFF00"/>
<path fill-rule="evenodd" clip-rule="evenodd" d="M17.9934 487.072C20.4678 485.643 23.5163 485.643 25.9912 487.071L39.9978 495.151C42.4742 496.58 44 499.222 44 502.081V518.236C44 521.095 42.4742 523.736 39.9978 525.165L25.9912 533.246C23.5163 534.674 20.4678 534.673 17.9934 533.245L3.99992 525.165C1.52476 523.736 0 521.095 0 518.237L0 502.079C0 499.221 1.52475 496.58 3.99991 495.151L17.9934 487.072ZM23.9911 494.088C22.7543 493.375 21.2314 493.376 19.9949 494.089L9.07931 500.386C7.84103 501.1 7.07811 502.421 7.07811 503.851V516.466C7.07811 517.895 7.84103 519.216 9.07931 519.931L19.9925 526.226C21.2299 526.94 22.754 526.94 23.9911 526.226L34.9217 519.916C36.1594 519.201 36.9219 517.881 36.9219 516.451V503.852C36.9219 502.422 36.1584 501.101 34.9193 500.387L23.9911 494.088Z" fill="#7FFF00"/>
<path fill-rule="evenodd" clip-rule="evenodd" d="M17.9934 571.217C20.4678 569.788 23.5163 569.788 25.9912 571.216L39.9978 579.296C42.4742 580.725 44 583.367 44 586.226V602.381C44 605.24 42.4742 607.882 39.9978 609.31L25.9912 617.391C23.5163 618.819 20.4678 618.818 17.9934 617.39L3.99992 609.31C1.52476 607.881 0 605.24 0 602.382L0 586.224C0 583.366 1.52475 580.725 3.99991 579.296L17.9934 571.217ZM23.9911 578.233C22.7543 577.52 21.2314 577.521 19.9949 578.234L9.07931 584.531C7.84103 585.245 7.07811 586.566 7.07811 587.996V600.611C7.07811 602.04 7.84103 603.361 9.07931 604.076L19.9925 610.371C21.2299 611.085 22.754 611.085 23.9911 610.371L34.9217 604.061C36.1594 603.346 36.9219 602.026 36.9219 600.597V587.997C36.9219 586.567 36.1584 585.246 34.9193 584.532L23.9911 578.233Z" fill="#7FFF00"/>
</g>
<g filter="url(#filter12_i_338_817)">
<path fill-rule="evenodd" clip-rule="evenodd" d="M67.9934 402.144C70.4678 400.716 73.5163 400.715 75.9912 402.143L89.9978 410.224C92.4742 411.652 94 414.294 94 417.153V433.308C94 436.167 92.4742 438.809 89.9978 440.238L75.9912 448.318C73.5163 449.746 70.4678 449.746 67.9934 448.317L53.9999 440.238C51.5248 438.809 50 436.168 50 433.31V417.152C50 414.294 51.5248 411.653 53.9999 410.224L67.9934 402.144ZM73.9911 409.161C72.7543 408.448 71.2314 408.448 69.9949 409.161L59.0793 415.458C57.841 416.173 57.0781 417.494 57.0781 418.923V431.538C57.0781 432.968 57.841 434.289 59.0793 435.003L69.9925 441.299C71.2299 442.013 72.754 442.012 73.9911 441.298L84.9217 434.988C86.1594 434.274 86.9219 432.953 86.9219 431.524V418.925C86.9219 417.495 86.1584 416.173 84.9193 415.459L73.9911 409.161Z" fill="#7FFF00"/>
<path fill-rule="evenodd" clip-rule="evenodd" d="M67.9934 486.289C70.4678 484.861 73.5163 484.86 75.9912 486.288L89.9978 494.369C92.4742 495.797 94 498.439 94 501.298V517.453C94 520.312 92.4742 522.954 89.9978 524.383L75.9912 532.463C73.5163 533.891 70.4678 533.891 67.9934 532.462L53.9999 524.383C51.5248 522.954 50 520.313 50 517.455V501.297C50 498.439 51.5248 495.798 53.9999 494.369L67.9934 486.289ZM73.9911 493.306C72.7543 492.593 71.2314 492.593 69.9949 493.306L59.0793 499.603C57.841 500.318 57.0781 501.639 57.0781 503.068V515.683C57.0781 517.113 57.841 518.434 59.0793 519.148L69.9925 525.444C71.2299 526.158 72.754 526.157 73.9911 525.443L84.9217 519.133C86.1594 518.419 86.9219 517.098 86.9219 515.669V503.07C86.9219 501.64 86.1584 500.318 84.9193 499.604L73.9911 493.306Z" fill="#7FFF00"/>
<path fill-rule="evenodd" clip-rule="evenodd" d="M42.9934 444.144C45.4678 442.716 48.5163 442.715 50.9912 444.143L64.9978 452.224C67.4742 453.652 69 456.294 69 459.153V475.308C69 478.167 67.4742 480.809 64.9978 482.238L50.9912 490.318C48.5163 491.746 45.4678 491.746 42.9934 490.317L28.9999 482.238C26.5248 480.809 25 478.168 25 475.31V459.152C25 456.294 26.5248 453.653 28.9999 452.224L42.9934 444.144ZM48.9911 451.161C47.7543 450.448 46.2314 450.448 44.9949 451.161L34.0793 457.458C32.841 458.173 32.0781 459.494 32.0781 460.923V473.538C32.0781 474.968 32.841 476.289 34.0793 477.003L44.9925 483.299C46.2299 484.013 47.754 484.012 48.9911 483.298L59.9217 476.988C61.1594 476.274 61.9219 474.953 61.9219 473.524V460.925C61.9219 459.495 61.1584 458.173 59.9193 457.459L48.9911 451.161Z" fill="#7FFF00"/>
<path fill-rule="evenodd" clip-rule="evenodd" d="M17.9934 402.072C20.4678 400.643 23.5163 400.643 25.9912 402.071L39.9978 410.151C42.4742 411.58 44 414.222 44 417.081V433.236C44 436.095 42.4742 438.736 39.9978 440.165L25.9912 448.246C23.5163 449.674 20.4678 449.673 17.9934 448.245L3.99992 440.165C1.52476 438.736 0 436.095 0 433.237L0 417.079C0 414.221 1.52475 411.58 3.99991 410.151L17.9934 402.072ZM23.9911 409.088C22.7543 408.375 21.2314 408.376 19.9949 409.089L9.07931 415.386C7.84103 416.1 7.07811 417.421 7.07811 418.851V431.466C7.07811 432.895 7.84103 434.216 9.07931 434.931L19.9925 441.226C21.2299 441.94 22.754 441.94 23.9911 441.226L34.9217 434.916C36.1594 434.201 36.9219 432.881 36.9219 431.451V418.852C36.9219 417.422 36.1584 416.101 34.9193 415.387L23.9911 409.088Z" fill="#7FFF00"/>
<path fill-rule="evenodd" clip-rule="evenodd" d="M17.9934 486.217C20.4678 484.788 23.5163 484.788 25.9912 486.216L39.9978 494.296C42.4742 495.725 44 498.367 44 501.226V517.381C44 520.24 42.4742 522.882 39.9978 524.31L25.9912 532.391C23.5163 533.819 20.4678 533.818 17.9934 532.39L3.99992 524.31C1.52476 522.881 0 520.24 0 517.382L0 501.224C0 498.366 1.52475 495.725 3.99991 494.296L17.9934 486.217ZM23.9911 493.233C22.7543 492.52 21.2314 492.521 19.9949 493.234L9.07931 499.531C7.84103 500.245 7.07811 501.566 7.07811 502.996V515.611C7.07811 517.04 7.84103 518.361 9.07931 519.076L19.9925 525.371C21.2299 526.085 22.754 526.085 23.9911 525.371L34.9217 519.061C36.1594 518.346 36.9219 517.026 36.9219 515.597V502.997C36.9219 501.567 36.1584 500.246 34.9193 499.532L23.9911 493.233Z" fill="#7FFF00"/>
</g>
<g filter="url(#filter13_i_338_817)">
<path fill-rule="evenodd" clip-rule="evenodd" d="M67.9934 232.144C70.4678 230.715 73.5163 230.715 75.9912 232.143L89.9978 240.223C92.4742 241.652 94 244.294 94 247.153V263.308C94 266.167 92.4742 268.809 89.9978 270.237L75.9912 278.318C73.5163 279.746 70.4678 279.746 67.9934 278.317L53.9999 270.237C51.5248 268.808 50 266.167 50 263.309V247.152C50 244.294 51.5248 241.653 53.9999 240.223L67.9934 232.144ZM73.9911 239.16C72.7543 238.448 71.2314 238.448 69.9949 239.161L59.0793 245.458C57.841 246.173 57.0781 247.493 57.0781 248.923V261.538C57.0781 262.968 57.841 264.288 59.0793 265.003L69.9925 271.298C71.2299 272.012 72.754 272.012 73.9911 271.298L84.9217 264.988C86.1594 264.273 86.9219 262.953 86.9219 261.524V248.925C86.9219 247.494 86.1584 246.173 84.9193 245.459L73.9911 239.16Z" fill="#7FFF00"/>
<path fill-rule="evenodd" clip-rule="evenodd" d="M67.9934 316.29C70.4678 314.861 73.5163 314.86 75.9912 316.288L89.9978 324.369C92.4742 325.798 94 328.439 94 331.298V347.454C94 350.313 92.4742 352.954 89.9978 354.383L75.9912 362.464C73.5163 363.892 70.4678 363.891 67.9934 362.462L53.9999 354.383C51.5248 352.954 50 350.313 50 347.455V331.297C50 328.439 51.5248 325.798 53.9999 324.369L67.9934 316.29ZM73.9911 323.306C72.7543 322.593 71.2314 322.593 69.9949 323.307L59.0793 329.604C57.841 330.318 57.0781 331.639 57.0781 333.068V345.683C57.0781 347.113 57.841 348.434 59.0793 349.148L69.9925 355.444C71.2299 356.158 72.754 356.158 73.9911 355.443L84.9217 349.133C86.1594 348.419 86.9219 347.098 86.9219 345.669V333.07C86.9219 331.64 86.1584 330.319 84.9193 329.604L73.9911 323.306Z" fill="#7FFF00"/>
<path fill-rule="evenodd" clip-rule="evenodd" d="M42.9934 274.144C45.4678 272.715 48.5163 272.715 50.9912 274.143L64.9978 282.223C67.4742 283.652 69 286.294 69 289.153V305.308C69 308.167 67.4742 310.809 64.9978 312.237L50.9912 320.318C48.5163 321.746 45.4678 321.746 42.9934 320.317L28.9999 312.237C26.5248 310.808 25 308.167 25 305.309V289.152C25 286.294 26.5248 283.653 28.9999 282.223L42.9934 274.144ZM48.9911 281.16C47.7543 280.448 46.2314 280.448 44.9949 281.161L34.0793 287.458C32.841 288.173 32.0781 289.493 32.0781 290.923V303.538C32.0781 304.968 32.841 306.288 34.0793 307.003L44.9925 313.298C46.2299 314.012 47.754 314.012 48.9911 313.298L59.9217 306.988C61.1594 306.273 61.9219 304.953 61.9219 303.524V290.925C61.9219 289.494 61.1584 288.173 59.9193 287.459L48.9911 281.16Z" fill="#7FFF00"/>
<path fill-rule="evenodd" clip-rule="evenodd" d="M17.9934 232.072C20.4678 230.643 23.5163 230.643 25.9912 232.071L39.9978 240.151C42.4742 241.58 44 244.222 44 247.081V263.236C44 266.095 42.4742 268.736 39.9978 270.165L25.9912 278.246C23.5163 279.674 20.4678 279.673 17.9934 278.245L3.99992 270.165C1.52476 268.736 0 266.095 0 263.237L0 247.079C0 244.221 1.52475 241.58 3.99991 240.151L17.9934 232.072ZM23.9911 239.088C22.7543 238.375 21.2314 238.376 19.9949 239.089L9.07931 245.386C7.84103 246.1 7.07811 247.421 7.07811 248.851V261.466C7.07811 262.895 7.84103 264.216 9.07931 264.931L19.9925 271.226C21.2299 271.94 22.754 271.94 23.9911 271.226L34.9217 264.916C36.1594 264.201 36.9219 262.881 36.9219 261.451V248.852C36.9219 247.422 36.1584 246.101 34.9193 245.387L23.9911 239.088Z" fill="#7FFF00"/>
<path fill-rule="evenodd" clip-rule="evenodd" d="M17.9934 316.217C20.4678 314.788 23.5163 314.788 25.9912 316.216L39.9978 324.296C42.4742 325.725 44 328.367 44 331.226V347.381C44 350.24 42.4742 352.882 39.9978 354.31L25.9912 362.391C23.5163 363.819 20.4678 363.818 17.9934 362.39L3.99992 354.31C1.52476 352.881 0 350.24 0 347.382L0 331.224C0 328.366 1.52475 325.725 3.99991 324.296L17.9934 316.217ZM23.9911 323.233C22.7543 322.52 21.2314 322.521 19.9949 323.234L9.07931 329.531C7.84103 330.245 7.07811 331.566 7.07811 332.996V345.611C7.07811 347.04 7.84103 348.361 9.07931 349.076L19.9925 355.371C21.2299 356.085 22.754 356.085 23.9911 355.371L34.9217 349.061C36.1594 348.346 36.9219 347.026 36.9219 345.597V332.997C36.9219 331.567 36.1584 330.246 34.9193 329.532L23.9911 323.233Z" fill="#7FFF00"/>
</g>
<g filter="url(#filter14_i_338_817)">
<path fill-rule="evenodd" clip-rule="evenodd" d="M67.9934 317.144C70.4678 315.715 73.5163 315.715 75.9912 317.143L89.9978 325.223C92.4742 326.652 94 329.294 94 332.153V348.308C94 351.167 92.4742 353.809 89.9978 355.237L75.9912 363.318C73.5163 364.746 70.4678 364.746 67.9934 363.317L53.9999 355.237C51.5248 353.808 50 351.167 50 348.309V332.152C50 329.294 51.5248 326.653 53.9999 325.223L67.9934 317.144ZM73.9911 324.16C72.7543 323.448 71.2314 323.448 69.9949 324.161L59.0793 330.458C57.841 331.173 57.0781 332.493 57.0781 333.923V346.538C57.0781 347.968 57.841 349.288 59.0793 350.003L69.9925 356.298C71.2299 357.012 72.754 357.012 73.9911 356.298L84.9217 349.988C86.1594 349.273 86.9219 347.953 86.9219 346.524V333.925C86.9219 332.494 86.1584 331.173 84.9193 330.459L73.9911 324.16Z" fill="#7FFF00"/>
<path fill-rule="evenodd" clip-rule="evenodd" d="M67.9934 401.289C70.4678 399.861 73.5163 399.86 75.9912 401.288L89.9978 409.369C92.4742 410.797 94 413.439 94 416.298V432.453C94 435.312 92.4742 437.954 89.9978 439.383L75.9912 447.463C73.5163 448.891 70.4678 448.891 67.9934 447.462L53.9999 439.383C51.5248 437.954 50 435.313 50 432.455V416.297C50 413.439 51.5248 410.798 53.9999 409.369L67.9934 401.289ZM73.9911 408.306C72.7543 407.593 71.2314 407.593 69.9949 408.306L59.0793 414.603C57.841 415.318 57.0781 416.639 57.0781 418.068V430.683C57.0781 432.113 57.841 433.434 59.0793 434.148L69.9925 440.444C71.2299 441.158 72.754 441.157 73.9911 440.443L84.9217 434.133C86.1594 433.419 86.9219 432.098 86.9219 430.669V418.07C86.9219 416.64 86.1584 415.318 84.9193 414.604L73.9911 408.306Z" fill="#7FFF00"/>
<path fill-rule="evenodd" clip-rule="evenodd" d="M42.9934 359.144C45.4678 357.716 48.5163 357.715 50.9912 359.143L64.9978 367.224C67.4742 368.652 69 371.294 69 374.153V390.308C69 393.167 67.4742 395.809 64.9978 397.238L50.9912 405.318C48.5163 406.746 45.4678 406.746 42.9934 405.317L28.9999 397.238C26.5248 395.809 25 393.168 25 390.31V374.152C25 371.294 26.5248 368.653 28.9999 367.224L42.9934 359.144ZM48.9911 366.161C47.7543 365.448 46.2314 365.448 44.9949 366.161L34.0793 372.458C32.841 373.173 32.0781 374.494 32.0781 375.923V388.538C32.0781 389.968 32.841 391.289 34.0793 392.003L44.9925 398.299C46.2299 399.013 47.754 399.012 48.9911 398.298L59.9217 391.988C61.1594 391.274 61.9219 389.953 61.9219 388.524V375.925C61.9219 374.495 61.1584 373.173 59.9193 372.459L48.9911 366.161Z" fill="#7FFF00"/>
<path fill-rule="evenodd" clip-rule="evenodd" d="M17.9934 317.072C20.4678 315.643 23.5163 315.643 25.9912 317.071L39.9978 325.151C42.4742 326.58 44 329.222 44 332.081V348.236C44 351.095 42.4742 353.736 39.9978 355.165L25.9912 363.246C23.5163 364.674 20.4678 364.673 17.9934 363.245L3.99992 355.165C1.52476 353.736 0 351.095 0 348.237L0 332.079C0 329.221 1.52475 326.58 3.99991 325.151L17.9934 317.072ZM23.9911 324.088C22.7543 323.375 21.2314 323.376 19.9949 324.089L9.07931 330.386C7.84103 331.1 7.07811 332.421 7.07811 333.851V346.466C7.07811 347.895 7.84103 349.216 9.07931 349.931L19.9925 356.226C21.2299 356.94 22.754 356.94 23.9911 356.226L34.9217 349.916C36.1594 349.201 36.9219 347.881 36.9219 346.451V333.852C36.9219 332.422 36.1584 331.101 34.9193 330.387L23.9911 324.088Z" fill="#7FFF00"/>
<path fill-rule="evenodd" clip-rule="evenodd" d="M17.9934 401.217C20.4678 399.788 23.5163 399.788 25.9912 401.216L39.9978 409.296C42.4742 410.725 44 413.367 44 416.226V432.381C44 435.24 42.4742 437.882 39.9978 439.31L25.9912 447.391C23.5163 448.819 20.4678 448.818 17.9934 447.39L3.99992 439.31C1.52476 437.881 0 435.24 0 432.382L0 416.224C0 413.366 1.52475 410.725 3.99991 409.296L17.9934 401.217ZM23.9911 408.233C22.7543 407.52 21.2314 407.521 19.9949 408.234L9.07931 414.531C7.84103 415.245 7.07811 416.566 7.07811 417.996V430.611C7.07811 432.04 7.84103 433.361 9.07931 434.076L19.9925 440.371C21.2299 441.085 22.754 441.085 23.9911 440.371L34.9217 434.061C36.1594 433.346 36.9219 432.026 36.9219 430.597V417.997C36.9219 416.567 36.1584 415.246 34.9193 414.532L23.9911 408.233Z" fill="#7FFF00"/>
</g>
<g filter="url(#filter15_i_338_817)">
<path fill-rule="evenodd" clip-rule="evenodd" d="M67.9934 147.144C70.4678 145.715 73.5163 145.715 75.9912 147.143L89.9978 155.223C92.4742 156.652 94 159.294 94 162.153V178.308C94 181.167 92.4742 183.809 89.9978 185.237L75.9912 193.318C73.5163 194.746 70.4678 194.746 67.9934 193.317L53.9999 185.237C51.5248 183.808 50 181.167 50 178.309V162.152C50 159.294 51.5248 156.653 53.9999 155.223L67.9934 147.144ZM73.9911 154.16C72.7543 153.448 71.2314 153.448 69.9949 154.161L59.0793 160.458C57.841 161.173 57.0781 162.493 57.0781 163.923V176.538C57.0781 177.968 57.841 179.288 59.0793 180.003L69.9925 186.298C71.2299 187.012 72.754 187.012 73.9911 186.298L84.9217 179.988C86.1594 179.273 86.9219 177.953 86.9219 176.524V163.925C86.9219 162.494 86.1584 161.173 84.9193 160.459L73.9911 154.16Z" fill="#7FFF00"/>
<path fill-rule="evenodd" clip-rule="evenodd" d="M67.9934 231.29C70.4678 229.861 73.5163 229.86 75.9912 231.288L89.9978 239.369C92.4742 240.798 94 243.439 94 246.298V262.454C94 265.313 92.4742 267.954 89.9978 269.383L75.9912 277.464C73.5163 278.892 70.4678 278.891 67.9934 277.462L53.9999 269.383C51.5248 267.954 50 265.313 50 262.455V246.297C50 243.439 51.5248 240.798 53.9999 239.369L67.9934 231.29ZM73.9911 238.306C72.7543 237.593 71.2314 237.593 69.9949 238.307L59.0793 244.604C57.841 245.318 57.0781 246.639 57.0781 248.068V260.683C57.0781 262.113 57.841 263.434 59.0793 264.148L69.9925 270.444C71.2299 271.158 72.754 271.158 73.9911 270.443L84.9217 264.133C86.1594 263.419 86.9219 262.098 86.9219 260.669V248.07C86.9219 246.64 86.1584 245.319 84.9193 244.604L73.9911 238.306Z" fill="#7FFF00"/>
<path fill-rule="evenodd" clip-rule="evenodd" d="M42.9934 189.144C45.4678 187.715 48.5163 187.715 50.9912 189.143L64.9978 197.223C67.4742 198.652 69 201.294 69 204.153V220.308C69 223.167 67.4742 225.809 64.9978 227.237L50.9912 235.318C48.5163 236.746 45.4678 236.746 42.9934 235.317L28.9999 227.237C26.5248 225.808 25 223.167 25 220.309V204.152C25 201.294 26.5248 198.653 28.9999 197.223L42.9934 189.144ZM48.9911 196.16C47.7543 195.448 46.2314 195.448 44.9949 196.161L34.0793 202.458C32.841 203.173 32.0781 204.493 32.0781 205.923V218.538C32.0781 219.968 32.841 221.288 34.0793 222.003L44.9925 228.298C46.2299 229.012 47.754 229.012 48.9911 228.298L59.9217 221.988C61.1594 221.273 61.9219 219.953 61.9219 218.524V205.925C61.9219 204.494 61.1584 203.173 59.9193 202.459L48.9911 196.16Z" fill="#7FFF00"/>
<path fill-rule="evenodd" clip-rule="evenodd" d="M17.9934 147.072C20.4678 145.643 23.5163 145.643 25.9912 147.071L39.9978 155.151C42.4742 156.58 44 159.222 44 162.081V178.236C44 181.095 42.4742 183.736 39.9978 185.165L25.9912 193.246C23.5163 194.674 20.4678 194.673 17.9934 193.245L3.99992 185.165C1.52476 183.736 0 181.095 0 178.237L0 162.079C0 159.221 1.52475 156.58 3.99991 155.151L17.9934 147.072ZM23.9911 154.088C22.7543 153.375 21.2314 153.376 19.9949 154.089L9.07931 160.386C7.84103 161.1 7.07811 162.421 7.07811 163.851V176.466C7.07811 177.895 7.84103 179.216 9.07931 179.931L19.9925 186.226C21.2299 186.94 22.754 186.94 23.9911 186.226L34.9217 179.916C36.1594 179.201 36.9219 177.881 36.9219 176.451V163.852C36.9219 162.422 36.1584 161.101 34.9193 160.387L23.9911 154.088Z" fill="#7FFF00"/>
<path fill-rule="evenodd" clip-rule="evenodd" d="M17.9934 231.217C20.4678 229.788 23.5163 229.788 25.9912 231.216L39.9978 239.296C42.4742 240.725 44 243.367 44 246.226V262.381C44 265.24 42.4742 267.882 39.9978 269.31L25.9912 277.391C23.5163 278.819 20.4678 278.818 17.9934 277.39L3.99992 269.31C1.52476 267.881 0 265.24 0 262.382L0 246.224C0 243.366 1.52475 240.725 3.99991 239.296L17.9934 231.217ZM23.9911 238.233C22.7543 237.52 21.2314 237.521 19.9949 238.234L9.07931 244.531C7.84103 245.245 7.07811 246.566 7.07811 247.996V260.611C7.07811 262.04 7.84103 263.361 9.07931 264.076L19.9925 270.371C21.2299 271.085 22.754 271.085 23.9911 270.371L34.9217 264.061C36.1594 263.346 36.9219 262.026 36.9219 260.597V247.997C36.9219 246.567 36.1584 245.246 34.9193 244.532L23.9911 238.233Z" fill="#7FFF00"/>
</g>
<g filter="url(#filter16_i_338_817)">
<path fill-rule="evenodd" clip-rule="evenodd" d="M67.9934 62.1441C70.4678 60.7155 73.5163 60.715 75.9912 62.1428L89.9978 70.2235C92.4742 71.6522 94 74.2939 94 77.153V93.308C94 96.167 92.4742 98.8088 89.9978 100.237L75.9912 108.318C73.5163 109.746 70.4678 109.746 67.9934 108.317L53.9999 100.237C51.5248 98.8084 50 96.1674 50 93.3093V77.1516C50 74.2935 51.5248 71.6526 53.9999 70.2235L67.9934 62.1441ZM73.9911 69.1603C72.7543 68.4475 71.2314 68.4478 69.9949 69.1611L59.0793 75.4582C57.841 76.1725 57.0781 77.4934 57.0781 78.923V91.538C57.0781 92.9675 57.841 94.2884 59.0793 95.0028L69.9925 101.298C71.2299 102.012 72.754 102.012 73.9911 101.298L84.9217 94.988C86.1594 94.2735 86.9219 92.9529 86.9219 91.5237V78.9246C86.9219 77.4944 86.1584 76.1731 84.9193 75.459L73.9911 69.1603Z" fill="#7FFF00"/>
<path fill-rule="evenodd" clip-rule="evenodd" d="M67.9934 146.29C70.4678 144.861 73.5163 144.86 75.9912 146.288L89.9978 154.369C92.4742 155.798 94 158.439 94 161.298V177.454C94 180.313 92.4742 182.954 89.9978 184.383L75.9912 192.464C73.5163 193.892 70.4678 193.891 67.9934 192.462L53.9999 184.383C51.5248 182.954 50 180.313 50 177.455V161.297C50 158.439 51.5248 155.798 53.9999 154.369L67.9934 146.29ZM73.9911 153.306C72.7543 152.593 71.2314 152.593 69.9949 153.307L59.0793 159.604C57.841 160.318 57.0781 161.639 57.0781 163.068V175.683C57.0781 177.113 57.841 178.434 59.0793 179.148L69.9925 185.444C71.2299 186.158 72.754 186.158 73.9911 185.443L84.9217 179.133C86.1594 178.419 86.9219 177.098 86.9219 175.669V163.07C86.9219 161.64 86.1584 160.319 84.9193 159.604L73.9911 153.306Z" fill="#7FFF00"/>
<path fill-rule="evenodd" clip-rule="evenodd" d="M42.9934 104.144C45.4678 102.715 48.5163 102.715 50.9912 104.143L64.9978 112.223C67.4742 113.652 69 116.294 69 119.153V135.308C69 138.167 67.4742 140.809 64.9978 142.237L50.9912 150.318C48.5163 151.746 45.4678 151.746 42.9934 150.317L28.9999 142.237C26.5248 140.808 25 138.167 25 135.309V119.152C25 116.294 26.5248 113.653 28.9999 112.223L42.9934 104.144ZM48.9911 111.16C47.7543 110.448 46.2314 110.448 44.9949 111.161L34.0793 117.458C32.841 118.173 32.0781 119.493 32.0781 120.923V133.538C32.0781 134.968 32.841 136.288 34.0793 137.003L44.9925 143.298C46.2299 144.012 47.754 144.012 48.9911 143.298L59.9217 136.988C61.1594 136.273 61.9219 134.953 61.9219 133.524V120.925C61.9219 119.494 61.1584 118.173 59.9193 117.459L48.9911 111.16Z" fill="#7FFF00"/>
<path fill-rule="evenodd" clip-rule="evenodd" d="M17.9934 62.0718C20.4678 60.6432 23.5163 60.6427 25.9912 62.0705L39.9978 70.1512C42.4742 71.5799 44 74.2217 44 77.0807V93.2357C44 96.0948 42.4742 98.7365 39.9978 100.165L25.9912 108.246C23.5163 109.674 20.4678 109.673 17.9934 108.245L3.99992 100.165C1.52476 98.7361 0 96.0952 0 93.2371L0 77.0794C0 74.2213 1.52475 71.5803 3.99991 70.1512L17.9934 62.0718ZM23.9911 69.0881C22.7543 68.3752 21.2314 68.3755 19.9949 69.0889L9.07931 75.3859C7.84103 76.1003 7.07811 77.4212 7.07811 78.8507V91.4657C7.07811 92.8953 7.84103 94.2162 9.07931 94.9305L19.9925 101.226C21.2299 101.94 22.754 101.94 23.9911 101.226L34.9217 94.9157C36.1594 94.2012 36.9219 92.8806 36.9219 91.4515V78.8523C36.9219 77.4222 36.1584 76.1009 34.9193 75.3867L23.9911 69.0881Z" fill="#7FFF00"/>
<path fill-rule="evenodd" clip-rule="evenodd" d="M17.9934 146.217C20.4678 144.788 23.5163 144.788 25.9912 146.216L39.9978 154.296C42.4742 155.725 44 158.367 44 161.226V177.381C44 180.24 42.4742 182.882 39.9978 184.31L25.9912 192.391C23.5163 193.819 20.4678 193.818 17.9934 192.39L3.99992 184.31C1.52476 182.881 0 180.24 0 177.382L0 161.224C0 158.366 1.52475 155.725 3.99991 154.296L17.9934 146.217ZM23.9911 153.233C22.7543 152.52 21.2314 152.521 19.9949 153.234L9.07931 159.531C7.84103 160.245 7.07811 161.566 7.07811 162.996V175.611C7.07811 177.04 7.84103 178.361 9.07931 179.076L19.9925 185.371C21.2299 186.085 22.754 186.085 23.9911 185.371L34.9217 179.061C36.1594 178.346 36.9219 177.026 36.9219 175.597V162.997C36.9219 161.567 36.1584 160.246 34.9193 159.532L23.9911 153.233Z" fill="#7FFF00"/>
</g>
<g filter="url(#filter17_i_338_817)">
<path fill-rule="evenodd" clip-rule="evenodd" d="M67.9934 -22.8559C70.4678 -24.2845 73.5163 -24.285 75.9912 -22.8572L89.9978 -14.7765C92.4742 -13.3478 94 -10.7061 94 -7.84704V8.308C94 11.167 92.4742 13.8088 89.9978 15.2375L75.9912 23.3182C73.5163 24.746 70.4678 24.7455 67.9934 23.3168L53.9999 15.2375C51.5248 13.8084 50 11.1674 50 8.30933V-7.84837C50 -10.7065 51.5248 -13.3474 53.9999 -14.7765L67.9934 -22.8559ZM73.9911 -15.8397C72.7543 -16.5525 71.2314 -16.5522 69.9949 -15.8389L59.0793 -9.54181C57.841 -8.82747 57.0781 -7.50658 57.0781 -6.07702V6.53798C57.0781 7.96754 57.841 9.28843 59.0793 10.0028L69.9925 16.2985C71.2299 17.0123 72.754 17.0121 73.9911 16.2979L84.9217 9.98796C86.1594 9.27346 86.9219 7.95289 86.9219 6.52375V-6.07544C86.9219 -7.50556 86.1584 -8.82688 84.9193 -9.54103L73.9911 -15.8397Z" fill="#7FFF00"/>
<path fill-rule="evenodd" clip-rule="evenodd" d="M67.9934 61.2896C70.4678 59.861 73.5163 59.8605 75.9912 61.2883L89.9978 69.369C92.4742 70.7977 94 73.4394 94 76.2985V92.4535C94 95.3126 92.4742 97.9543 89.9978 99.383L75.9912 107.464C73.5163 108.892 70.4678 108.891 67.9934 107.462L53.9999 99.383C51.5248 97.9539 50 95.3129 50 92.4548V76.2971C50 73.439 51.5248 70.7981 53.9999 69.369L67.9934 61.2896ZM73.9911 68.3058C72.7543 67.593 71.2314 67.5933 69.9949 68.3066L59.0793 74.6037C57.841 75.318 57.0781 76.6389 57.0781 78.0685V90.6835C57.0781 92.113 57.841 93.4339 59.0793 94.1483L69.9925 100.444C71.2299 101.158 72.754 101.158 73.9911 100.443L84.9217 94.1335C86.1594 93.419 86.9219 92.0984 86.9219 90.6693V78.0701C86.9219 76.6399 86.1584 75.3186 84.9193 74.6045L73.9911 68.3058Z" fill="#7FFF00"/>
<path fill-rule="evenodd" clip-rule="evenodd" d="M42.9934 19.1441C45.4678 17.7155 48.5163 17.715 50.9912 19.1428L64.9978 27.2235C67.4742 28.6522 69 31.2939 69 34.153V50.308C69 53.167 67.4742 55.8088 64.9978 57.2375L50.9912 65.3182C48.5163 66.746 45.4678 66.7455 42.9934 65.3168L28.9999 57.2375C26.5248 55.8084 25 53.1674 25 50.3093V34.1516C25 31.2935 26.5248 28.6526 28.9999 27.2235L42.9934 19.1441ZM48.9911 26.1603C47.7543 25.4475 46.2314 25.4478 44.9949 26.1611L34.0793 32.4582C32.841 33.1725 32.0781 34.4934 32.0781 35.923V48.538C32.0781 49.9675 32.841 51.2884 34.0793 52.0028L44.9925 58.2985C46.2299 59.0123 47.754 59.0121 48.9911 58.2979L59.9217 51.988C61.1594 51.2735 61.9219 49.9529 61.9219 48.5237V35.9246C61.9219 34.4944 61.1584 33.1731 59.9193 32.459L48.9911 26.1603Z" fill="#7FFF00"/>
<path fill-rule="evenodd" clip-rule="evenodd" d="M17.9934 -22.9282C20.4678 -24.3568 23.5163 -24.3573 25.9912 -22.9295L39.9978 -14.8488C42.4742 -13.4201 44 -10.7783 44 -7.9193V8.23574C44 11.0948 42.4742 13.7365 39.9978 15.1652L25.9912 23.2459C23.5163 24.6737 20.4678 24.6732 17.9934 23.2446L3.99992 15.1652C1.52476 13.7361 0 11.0952 0 8.23707L0 -7.92064C0 -10.7787 1.52475 -13.4197 3.99991 -14.8488L17.9934 -22.9282ZM23.9911 -15.9119C22.7543 -16.6248 21.2314 -16.6245 19.9949 -15.9111L9.07931 -9.61408C7.84103 -8.89973 7.07811 -7.57884 7.07811 -6.14929V6.46571C7.07811 7.89527 7.84103 9.21617 9.07931 9.93052L19.9925 16.2262C21.2299 16.94 22.754 16.9398 23.9911 16.2256L34.9217 9.9157C36.1594 9.2012 36.9219 7.88063 36.9219 6.45148V-6.14771C36.9219 -7.57783 36.1584 -8.89915 34.9193 -9.61329L23.9911 -15.9119Z" fill="#7FFF00"/>
<path fill-rule="evenodd" clip-rule="evenodd" d="M17.9934 61.2169C20.4678 59.7882 23.5163 59.7877 25.9912 61.2155L39.9978 69.2962C42.4742 70.725 44 73.3667 44 76.2257V92.3808C44 95.2398 42.4742 97.8815 39.9978 99.3102L25.9912 107.391C23.5163 108.819 20.4678 108.818 17.9934 107.39L3.99992 99.3102C1.52476 97.8812 0 95.2402 0 92.3821L0 76.2244C0 73.3663 1.52475 70.7253 3.99991 69.2962L17.9934 61.2169ZM23.9911 68.2331C22.7543 67.5203 21.2314 67.5206 19.9949 68.2339L9.07931 74.5309C7.84103 75.2453 7.07811 76.5662 7.07811 77.9957V90.6107C7.07811 92.0403 7.84103 93.3612 9.07931 94.0755L19.9925 100.371C21.2299 101.085 22.754 101.085 23.9911 100.371L34.9217 94.0607C36.1594 93.3462 36.9219 92.0256 36.9219 90.5965V77.9973C36.9219 76.5672 36.1584 75.2459 34.9193 74.5317L23.9911 68.2331Z" fill="#7FFF00"/>
</g>
</g>
<defs>
<filter id="filter0_i_338_817" x="0" y="1421" width="94" height="136.534" filterUnits="userSpaceOnUse" color-interpolation-filters="sRGB">
<feFlood flood-opacity="0" result="BackgroundImageFix"/>
<feBlend mode="normal" in="SourceGraphic" in2="BackgroundImageFix" result="shape"/>
<feColorMatrix in="SourceAlpha" type="matrix" values="0 0 0 0 0 0 0 0 0 0 0 0 0 0 0 0 0 0 127 0" result="hardAlpha"/>
<feOffset dy="4"/>
<feGaussianBlur stdDeviation="2"/>
<feComposite in2="hardAlpha" operator="arithmetic" k2="-1" k3="1"/>
<feColorMatrix type="matrix" values="0 0 0 0 0.215686 0 0 0 0 0.254902 0 0 0 0 0.317647 0 0 0 0.25 0"/>
<feBlend mode="normal" in2="shape" result="effect1_innerShadow_338_817"/>
</filter>
<filter id="filter1_i_338_817" x="0" y="1251" width="94" height="136.534" filterUnits="userSpaceOnUse" color-interpolation-filters="sRGB">
<feFlood flood-opacity="0" result="BackgroundImageFix"/>
<feBlend mode="normal" in="SourceGraphic" in2="BackgroundImageFix" result="shape"/>
<feColorMatrix in="SourceAlpha" type="matrix" values="0 0 0 0 0 0 0 0 0 0 0 0 0 0 0 0 0 0 127 0" result="hardAlpha"/>
<feOffset dy="4"/>
<feGaussianBlur stdDeviation="2"/>
<feComposite in2="hardAlpha" operator="arithmetic" k2="-1" k3="1"/>
<feColorMatrix type="matrix" values="0 0 0 0 0.215686 0 0 0 0 0.254902 0 0 0 0 0.317647 0 0 0 0.25 0"/>
<feBlend mode="normal" in2="shape" result="effect1_innerShadow_338_817"/>
</filter>
<filter id="filter2_i_338_817" x="0" y="1336" width="94" height="136.534" filterUnits="userSpaceOnUse" color-interpolation-filters="sRGB">
<feFlood flood-opacity="0" result="BackgroundImageFix"/>
<feBlend mode="normal" in="SourceGraphic" in2="BackgroundImageFix" result="shape"/>
<feColorMatrix in="SourceAlpha" type="matrix" values="0 0 0 0 0 0 0 0 0 0 0 0 0 0 0 0 0 0 127 0" result="hardAlpha"/>
<feOffset dy="4"/>
<feGaussianBlur stdDeviation="2"/>
<feComposite in2="hardAlpha" operator="arithmetic" k2="-1" k3="1"/>
<feColorMatrix type="matrix" values="0 0 0 0 0.215686 0 0 0 0 0.254902 0 0 0 0 0.317647 0 0 0 0.25 0"/>
<feBlend mode="normal" in2="shape" result="effect1_innerShadow_338_817"/>
</filter>
<filter id="filter3_i_338_817" x="0" y="1166" width="94" height="136.534" filterUnits="userSpaceOnUse" color-interpolation-filters="sRGB">
<feFlood flood-opacity="0" result="BackgroundImageFix"/>
<feBlend mode="normal" in="SourceGraphic" in2="BackgroundImageFix" result="shape"/>
<feColorMatrix in="SourceAlpha" type="matrix" values="0 0 0 0 0 0 0 0 0 0 0 0 0 0 0 0 0 0 127 0" result="hardAlpha"/>
<feOffset dy="4"/>
<feGaussianBlur stdDeviation="2"/>
<feComposite in2="hardAlpha" operator="arithmetic" k2="-1" k3="1"/>
<feColorMatrix type="matrix" values="0 0 0 0 0.215686 0 0 0 0 0.254902 0 0 0 0 0.317647 0 0 0 0.25 0"/>
<feBlend mode="normal" in2="shape" result="effect1_innerShadow_338_817"/>
</filter>
<filter id="filter4_i_338_817" x="0" y="1081" width="94" height="136.534" filterUnits="userSpaceOnUse" color-interpolation-filters="sRGB">
<feFlood flood-opacity="0" result="BackgroundImageFix"/>
<feBlend mode="normal" in="SourceGraphic" in2="BackgroundImageFix" result="shape"/>
<feColorMatrix in="SourceAlpha" type="matrix" values="0 0 0 0 0 0 0 0 0 0 0 0 0 0 0 0 0 0 127 0" result="hardAlpha"/>
<feOffset dy="4"/>
<feGaussianBlur stdDeviation="2"/>
<feComposite in2="hardAlpha" operator="arithmetic" k2="-1" k3="1"/>
<feColorMatrix type="matrix" values="0 0 0 0 0.215686 0 0 0 0 0.254902 0 0 0 0 0.317647 0 0 0 0.25 0"/>
<feBlend mode="normal" in2="shape" result="effect1_innerShadow_338_817"/>
</filter>
<filter id="filter5_i_338_817" x="0" y="996" width="94" height="136.534" filterUnits="userSpaceOnUse" color-interpolation-filters="sRGB">
<feFlood flood-opacity="0" result="BackgroundImageFix"/>
<feBlend mode="normal" in="SourceGraphic" in2="BackgroundImageFix" result="shape"/>
<feColorMatrix in="SourceAlpha" type="matrix" values="0 0 0 0 0 0 0 0 0 0 0 0 0 0 0 0 0 0 127 0" result="hardAlpha"/>
<feOffset dy="4"/>
<feGaussianBlur stdDeviation="2"/>
<feComposite in2="hardAlpha" operator="arithmetic" k2="-1" k3="1"/>
<feColorMatrix type="matrix" values="0 0 0 0 0.215686 0 0 0 0 0.254902 0 0 0 0 0.317647 0 0 0 0.25 0"/>
<feBlend mode="normal" in2="shape" result="effect1_innerShadow_338_817"/>
</filter>
<filter id="filter6_i_338_817" x="0" y="911" width="94" height="136.534" filterUnits="userSpaceOnUse" color-interpolation-filters="sRGB">
<feFlood flood-opacity="0" result="BackgroundImageFix"/>
<feBlend mode="normal" in="SourceGraphic" in2="BackgroundImageFix" result="shape"/>
<feColorMatrix in="SourceAlpha" type="matrix" values="0 0 0 0 0 0 0 0 0 0 0 0 0 0 0 0 0 0 127 0" result="hardAlpha"/>
<feOffset dy="4"/>
<feGaussianBlur stdDeviation="2"/>
<feComposite in2="hardAlpha" operator="arithmetic" k2="-1" k3="1"/>
<feColorMatrix type="matrix" values="0 0 0 0 0.215686 0 0 0 0 0.254902 0 0 0 0 0.317647 0 0 0 0.25 0"/>
<feBlend mode="normal" in2="shape" result="effect1_innerShadow_338_817"/>
</filter>
<filter id="filter7_i_338_817" x="0" y="826" width="94" height="136.534" filterUnits="userSpaceOnUse" color-interpolation-filters="sRGB">
<feFlood flood-opacity="0" result="BackgroundImageFix"/>
<feBlend mode="normal" in="SourceGraphic" in2="BackgroundImageFix" result="shape"/>
<feColorMatrix in="SourceAlpha" type="matrix" values="0 0 0 0 0 0 0 0 0 0 0 0 0 0 0 0 0 0 127 0" result="hardAlpha"/>
<feOffset dy="4"/>
<feGaussianBlur stdDeviation="2"/>
<feComposite in2="hardAlpha" operator="arithmetic" k2="-1" k3="1"/>
<feColorMatrix type="matrix" values="0 0 0 0 0.215686 0 0 0 0 0.254902 0 0 0 0 0.317647 0 0 0 0.25 0"/>
<feBlend mode="normal" in2="shape" result="effect1_innerShadow_338_817"/>
</filter>
<filter id="filter8_i_338_817" x="0" y="741" width="94" height="136.534" filterUnits="userSpaceOnUse" color-interpolation-filters="sRGB">
<feFlood flood-opacity="0" result="BackgroundImageFix"/>
<feBlend mode="normal" in="SourceGraphic" in2="BackgroundImageFix" result="shape"/>
<feColorMatrix in="SourceAlpha" type="matrix" values="0 0 0 0 0 0 0 0 0 0 0 0 0 0 0 0 0 0 127 0" result="hardAlpha"/>
<feOffset dy="4"/>
<feGaussianBlur stdDeviation="2"/>
<feComposite in2="hardAlpha" operator="arithmetic" k2="-1" k3="1"/>
<feColorMatrix type="matrix" values="0 0 0 0 0.215686 0 0 0 0 0.254902 0 0 0 0 0.317647 0 0 0 0.25 0"/>
<feBlend mode="normal" in2="shape" result="effect1_innerShadow_338_817"/>
</filter>
<filter id="filter9_i_338_817" x="0" y="656" width="94" height="136.534" filterUnits="userSpaceOnUse" color-interpolation-filters="sRGB">
<feFlood flood-opacity="0" result="BackgroundImageFix"/>
<feBlend mode="normal" in="SourceGraphic" in2="BackgroundImageFix" result="shape"/>
<feColorMatrix in="SourceAlpha" type="matrix" values="0 0 0 0 0 0 0 0 0 0 0 0 0 0 0 0 0 0 127 0" result="hardAlpha"/>
<feOffset dy="4"/>
<feGaussianBlur stdDeviation="2"/>
<feComposite in2="hardAlpha" operator="arithmetic" k2="-1" k3="1"/>
<feColorMatrix type="matrix" values="0 0 0 0 0.215686 0 0 0 0 0.254902 0 0 0 0 0.317647 0 0 0 0.25 0"/>
<feBlend mode="normal" in2="shape" result="effect1_innerShadow_338_817"/>
</filter>
<filter id="filter10_i_338_817" x="0" y="571" width="94" height="136.534" filterUnits="userSpaceOnUse" color-interpolation-filters="sRGB">
<feFlood flood-opacity="0" result="BackgroundImageFix"/>
<feBlend mode="normal" in="SourceGraphic" in2="BackgroundImageFix" result="shape"/>
<feColorMatrix in="SourceAlpha" type="matrix" values="0 0 0 0 0 0 0 0 0 0 0 0 0 0 0 0 0 0 127 0" result="hardAlpha"/>
<feOffset dy="4"/>
<feGaussianBlur stdDeviation="2"/>
<feComposite in2="hardAlpha" operator="arithmetic" k2="-1" k3="1"/>
<feColorMatrix type="matrix" values="0 0 0 0 0.215686 0 0 0 0 0.254902 0 0 0 0 0.317647 0 0 0 0.25 0"/>
<feBlend mode="normal" in2="shape" result="effect1_innerShadow_338_817"/>
</filter>
<filter id="filter11_i_338_817" x="0" y="486" width="94" height="136.534" filterUnits="userSpaceOnUse" color-interpolation-filters="sRGB">
<feFlood flood-opacity="0" result="BackgroundImageFix"/>
<feBlend mode="normal" in="SourceGraphic" in2="BackgroundImageFix" result="shape"/>
<feColorMatrix in="SourceAlpha" type="matrix" values="0 0 0 0 0 0 0 0 0 0 0 0 0 0 0 0 0 0 127 0" result="hardAlpha"/>
<feOffset dy="4"/>
<feGaussianBlur stdDeviation="2"/>
<feComposite in2="hardAlpha" operator="arithmetic" k2="-1" k3="1"/>
<feColorMatrix type="matrix" values="0 0 0 0 0.215686 0 0 0 0 0.254902 0 0 0 0 0.317647 0 0 0 0.25 0"/>
<feBlend mode="normal" in2="shape" result="effect1_innerShadow_338_817"/>
</filter>
<filter id="filter12_i_338_817" x="0" y="401" width="94" height="136.534" filterUnits="userSpaceOnUse" color-interpolation-filters="sRGB">
<feFlood flood-opacity="0" result="BackgroundImageFix"/>
<feBlend mode="normal" in="SourceGraphic" in2="BackgroundImageFix" result="shape"/>
<feColorMatrix in="SourceAlpha" type="matrix" values="0 0 0 0 0 0 0 0 0 0 0 0 0 0 0 0 0 0 127 0" result="hardAlpha"/>
<feOffset dy="4"/>
<feGaussianBlur stdDeviation="2"/>
<feComposite in2="hardAlpha" operator="arithmetic" k2="-1" k3="1"/>
<feColorMatrix type="matrix" values="0 0 0 0 0.215686 0 0 0 0 0.254902 0 0 0 0 0.317647 0 0 0 0.25 0"/>
<feBlend mode="normal" in2="shape" result="effect1_innerShadow_338_817"/>
</filter>
<filter id="filter13_i_338_817" x="0" y="231" width="94" height="136.534" filterUnits="userSpaceOnUse" color-interpolation-filters="sRGB">
<feFlood flood-opacity="0" result="BackgroundImageFix"/>
<feBlend mode="normal" in="SourceGraphic" in2="BackgroundImageFix" result="shape"/>
<feColorMatrix in="SourceAlpha" type="matrix" values="0 0 0 0 0 0 0 0 0 0 0 0 0 0 0 0 0 0 127 0" result="hardAlpha"/>
<feOffset dy="4"/>
<feGaussianBlur stdDeviation="2"/>
<feComposite in2="hardAlpha" operator="arithmetic" k2="-1" k3="1"/>
<feColorMatrix type="matrix" values="0 0 0 0 0.215686 0 0 0 0 0.254902 0 0 0 0 0.317647 0 0 0 0.25 0"/>
<feBlend mode="normal" in2="shape" result="effect1_innerShadow_338_817"/>
</filter>
<filter id="filter14_i_338_817" x="0" y="316" width="94" height="136.534" filterUnits="userSpaceOnUse" color-interpolation-filters="sRGB">
<feFlood flood-opacity="0" result="BackgroundImageFix"/>
<feBlend mode="normal" in="SourceGraphic" in2="BackgroundImageFix" result="shape"/>
<feColorMatrix in="SourceAlpha" type="matrix" values="0 0 0 0 0 0 0 0 0 0 0 0 0 0 0 0 0 0 127 0" result="hardAlpha"/>
<feOffset dy="4"/>
<feGaussianBlur stdDeviation="2"/>
<feComposite in2="hardAlpha" operator="arithmetic" k2="-1" k3="1"/>
<feColorMatrix type="matrix" values="0 0 0 0 0.215686 0 0 0 0 0.254902 0 0 0 0 0.317647 0 0 0 0.25 0"/>
<feBlend mode="normal" in2="shape" result="effect1_innerShadow_338_817"/>
</filter>
<filter id="filter15_i_338_817" x="0" y="146" width="94" height="136.534" filterUnits="userSpaceOnUse" color-interpolation-filters="sRGB">
<feFlood flood-opacity="0" result="BackgroundImageFix"/>
<feBlend mode="normal" in="SourceGraphic" in2="BackgroundImageFix" result="shape"/>
<feColorMatrix in="SourceAlpha" type="matrix" values="0 0 0 0 0 0 0 0 0 0 0 0 0 0 0 0 0 0 127 0" result="hardAlpha"/>
<feOffset dy="4"/>
<feGaussianBlur stdDeviation="2"/>
<feComposite in2="hardAlpha" operator="arithmetic" k2="-1" k3="1"/>
<feColorMatrix type="matrix" values="0 0 0 0 0.215686 0 0 0 0 0.254902 0 0 0 0 0.317647 0 0 0 0.25 0"/>
<feBlend mode="normal" in2="shape" result="effect1_innerShadow_338_817"/>
</filter>
<filter id="filter16_i_338_817" x="0" y="61" width="94" height="136.534" filterUnits="userSpaceOnUse" color-interpolation-filters="sRGB">
<feFlood flood-opacity="0" result="BackgroundImageFix"/>
<feBlend mode="normal" in="SourceGraphic" in2="BackgroundImageFix" result="shape"/>
<feColorMatrix in="SourceAlpha" type="matrix" values="0 0 0 0 0 0 0 0 0 0 0 0 0 0 0 0 0 0 127 0" result="hardAlpha"/>
<feOffset dy="4"/>
<feGaussianBlur stdDeviation="2"/>
<feComposite in2="hardAlpha" operator="arithmetic" k2="-1" k3="1"/>
<feColorMatrix type="matrix" values="0 0 0 0 0.215686 0 0 0 0 0.254902 0 0 0 0 0.317647 0 0 0 0.25 0"/>
<feBlend mode="normal" in2="shape" result="effect1_innerShadow_338_817"/>
</filter>
<filter id="filter17_i_338_817" x="0" y="-24" width="94" height="136.534" filterUnits="userSpaceOnUse" color-interpolation-filters="sRGB">
<feFlood flood-opacity="0" result="BackgroundImageFix"/>
<feBlend mode="normal" in="SourceGraphic" in2="BackgroundImageFix" result="shape"/>
<feColorMatrix in="SourceAlpha" type="matrix" values="0 0 0 0 0 0 0 0 0 0 0 0 0 0 0 0 0 0 127 0" result="hardAlpha"/>
<feOffset dy="4"/>
<feGaussianBlur stdDeviation="2"/>
<feComposite in2="hardAlpha" operator="arithmetic" k2="-1" k3="1"/>
<feColorMatrix type="matrix" values="0 0 0 0 0.215686 0 0 0 0 0.254902 0 0 0 0 0.317647 0 0 0 0.25 0"/>
<feBlend mode="normal" in2="shape" result="effect1_innerShadow_338_817"/>
</filter>
<clipPath id="clip0_338_817">
<rect width="72" height="1530" fill="white"/>
</clipPath>
</defs>
</svg>
