<svg width="135" height="880" viewBox="0 0 135 880" fill="none" xmlns="http://www.w3.org/2000/svg">
<g clip-path="url(#clip0_228_3953)">
<g filter="url(#filter0_i_228_3953)">
<path fill-rule="evenodd" clip-rule="evenodd" d="M80.4367 864.997C85.0458 862.335 90.7244 862.334 95.3345 864.994L121.425 880.046C126.038 882.707 128.88 887.628 128.88 892.954V923.046C128.88 928.372 126.038 933.293 121.425 935.954L95.3345 951.006C90.7244 953.666 85.0458 953.665 80.4367 951.003L54.3708 935.954C49.7602 933.292 46.92 928.372 46.92 923.049V892.951C46.92 887.628 49.7602 882.708 54.3708 880.046L80.4367 864.997ZM91.6088 878.066C89.305 876.738 86.4682 876.739 84.1649 878.067L63.8323 889.797C61.5257 891.128 60.1046 893.588 60.1046 896.251V919.749C60.1046 922.412 61.5257 924.872 63.8323 926.203L84.1605 937.93C86.4653 939.26 89.3043 939.259 91.6088 937.929L111.969 926.175C114.275 924.845 115.695 922.385 115.695 919.723V896.254C115.695 893.59 114.273 891.129 111.965 889.798L91.6088 878.066Z" fill="#7FFF00"/>
<path fill-rule="evenodd" clip-rule="evenodd" d="M127.396 786.997C132.006 784.335 137.684 784.334 142.294 786.994L168.384 802.046C172.997 804.707 175.839 809.628 175.839 814.954V845.046C175.839 850.372 172.997 855.293 168.384 857.954L142.294 873.006C137.684 875.666 132.006 875.665 127.396 873.003L101.33 857.954C96.72 855.292 93.8798 850.372 93.8798 845.049V814.951C93.8798 809.628 96.72 804.708 101.33 802.046L127.396 786.997ZM138.568 800.066C136.265 798.738 133.428 798.739 131.125 800.067L110.792 811.797C108.485 813.128 107.064 815.588 107.064 818.251V841.749C107.064 844.412 108.485 846.872 110.792 848.203L131.12 859.93C133.425 861.26 136.264 861.259 138.568 859.929L158.929 848.175C161.235 846.845 162.655 844.385 162.655 841.723V818.254C162.655 815.59 161.233 813.129 158.925 811.798L138.568 800.066Z" fill="#7FFF00"/>
<path fill-rule="evenodd" clip-rule="evenodd" d="M33.4367 786.997C38.0458 784.335 43.7244 784.334 48.3345 786.994L74.4247 802.046C79.0377 804.707 81.8797 809.628 81.8797 814.954V845.046C81.8797 850.372 79.0377 855.293 74.4247 857.954L48.3345 873.006C43.7244 875.666 38.0458 875.665 33.4367 873.003L7.37077 857.954C2.76025 855.292 -0.0799561 850.372 -0.0799561 845.049L-0.0799561 814.951C-0.0799561 809.628 2.76023 804.708 7.37076 802.046L33.4367 786.997ZM44.6088 800.066C42.305 798.738 39.4682 798.739 37.1649 800.067L16.8323 811.797C14.5257 813.128 13.1046 815.588 13.1046 818.251V841.749C13.1046 844.412 14.5257 846.872 16.8323 848.203L37.1605 859.93C39.4653 861.26 42.3043 861.259 44.6088 859.929L64.9694 848.175C67.2749 846.845 68.6952 844.385 68.6952 841.723V818.254C68.6952 815.59 67.273 813.129 64.965 811.798L44.6088 800.066Z" fill="#7FFF00"/>
</g>
<g filter="url(#filter1_i_228_3953)">
<path fill-rule="evenodd" clip-rule="evenodd" d="M127.396 786.997C132.006 784.335 137.684 784.334 142.294 786.994L168.384 802.046C172.997 804.707 175.839 809.628 175.839 814.954V845.046C175.839 850.372 172.997 855.293 168.384 857.954L142.294 873.006C137.684 875.666 132.006 875.665 127.396 873.003L101.33 857.954C96.72 855.292 93.8798 850.372 93.8798 845.049V814.951C93.8798 809.628 96.72 804.708 101.33 802.046L127.396 786.997ZM138.568 800.066C136.265 798.738 133.428 798.739 131.125 800.067L110.792 811.797C108.485 813.128 107.064 815.588 107.064 818.251V841.749C107.064 844.412 108.485 846.872 110.792 848.203L131.12 859.93C133.425 861.26 136.264 861.259 138.568 859.929L158.929 848.175C161.235 846.845 162.655 844.385 162.655 841.723V818.254C162.655 815.59 161.233 813.129 158.925 811.798L138.568 800.066Z" fill="#7FFF00"/>
<path fill-rule="evenodd" clip-rule="evenodd" d="M33.4367 786.997C38.0458 784.335 43.7244 784.334 48.3345 786.994L74.4247 802.046C79.0377 804.707 81.8797 809.628 81.8797 814.954V845.046C81.8797 850.372 79.0377 855.293 74.4247 857.954L48.3345 873.006C43.7244 875.666 38.0458 875.665 33.4367 873.003L7.37077 857.954C2.76025 855.292 -0.0799561 850.372 -0.0799561 845.049L-0.0799561 814.951C-0.0799561 809.628 2.76023 804.708 7.37076 802.046L33.4367 786.997ZM44.6088 800.066C42.305 798.738 39.4682 798.739 37.1649 800.067L16.8323 811.797C14.5257 813.128 13.1046 815.588 13.1046 818.251V841.749C13.1046 844.412 14.5257 846.872 16.8323 848.203L37.1605 859.93C39.4653 861.26 42.3043 861.259 44.6088 859.929L64.9694 848.175C67.2749 846.845 68.6952 844.385 68.6952 841.723V818.254C68.6952 815.59 67.273 813.129 64.965 811.798L44.6088 800.066Z" fill="#7FFF00"/>
<path fill-rule="evenodd" clip-rule="evenodd" d="M80.4367 708.997C85.0458 706.335 90.7244 706.334 95.3345 708.994L121.425 724.046C126.038 726.707 128.88 731.628 128.88 736.954V767.046C128.88 772.372 126.038 777.293 121.425 779.954L95.3345 795.006C90.7244 797.666 85.0458 797.665 80.4367 795.003L54.3708 779.954C49.7602 777.292 46.92 772.372 46.92 767.049V736.951C46.92 731.628 49.7602 726.708 54.3708 724.046L80.4367 708.997ZM91.6088 722.066C89.305 720.738 86.4682 720.739 84.1649 722.067L63.8323 733.797C61.5257 735.128 60.1046 737.588 60.1046 740.251V763.749C60.1046 766.412 61.5257 768.872 63.8323 770.203L84.1605 781.93C86.4653 783.26 89.3043 783.259 91.6088 781.929L111.969 770.175C114.275 768.845 115.695 766.385 115.695 763.723V740.254C115.695 737.59 114.273 735.129 111.965 733.798L91.6088 722.066Z" fill="#7FFF00"/>
<path fill-rule="evenodd" clip-rule="evenodd" d="M127.396 630.997C132.006 628.335 137.684 628.334 142.294 630.994L168.384 646.046C172.997 648.707 175.839 653.628 175.839 658.954V689.046C175.839 694.372 172.997 699.293 168.384 701.954L142.294 717.006C137.684 719.666 132.006 719.665 127.396 717.003L101.33 701.954C96.72 699.292 93.8798 694.372 93.8798 689.049V658.951C93.8798 653.628 96.72 648.708 101.33 646.046L127.396 630.997ZM138.568 644.066C136.265 642.738 133.428 642.739 131.125 644.067L110.792 655.797C108.485 657.128 107.064 659.588 107.064 662.251V685.749C107.064 688.412 108.485 690.872 110.792 692.203L131.12 703.93C133.425 705.26 136.264 705.259 138.568 703.929L158.929 692.175C161.235 690.845 162.655 688.385 162.655 685.723V662.254C162.655 659.59 161.233 657.129 158.925 655.798L138.568 644.066Z" fill="#7FFF00"/>
<path fill-rule="evenodd" clip-rule="evenodd" d="M33.4367 630.997C38.0458 628.335 43.7244 628.334 48.3345 630.994L74.4247 646.046C79.0377 648.707 81.8797 653.628 81.8797 658.954V689.046C81.8797 694.372 79.0377 699.293 74.4247 701.954L48.3345 717.006C43.7244 719.666 38.0458 719.665 33.4367 717.003L7.37077 701.954C2.76025 699.292 -0.0799561 694.372 -0.0799561 689.049L-0.0799561 658.951C-0.0799561 653.628 2.76023 648.708 7.37076 646.046L33.4367 630.997ZM44.6088 644.066C42.305 642.738 39.4682 642.739 37.1649 644.067L16.8323 655.797C14.5257 657.128 13.1046 659.588 13.1046 662.251V685.749C13.1046 688.412 14.5257 690.872 16.8323 692.203L37.1605 703.93C39.4653 705.26 42.3043 705.259 44.6088 703.929L64.9694 692.175C67.2749 690.845 68.6952 688.385 68.6952 685.723V662.254C68.6952 659.59 67.273 657.129 64.965 655.798L44.6088 644.066Z" fill="#7FFF00"/>
</g>
<g filter="url(#filter2_i_228_3953)">
<path fill-rule="evenodd" clip-rule="evenodd" d="M127.396 630.997C132.006 628.335 137.684 628.334 142.294 630.994L168.384 646.046C172.997 648.707 175.839 653.628 175.839 658.954V689.046C175.839 694.372 172.997 699.293 168.384 701.954L142.294 717.006C137.684 719.666 132.006 719.665 127.396 717.003L101.33 701.954C96.72 699.292 93.8798 694.372 93.8798 689.049V658.951C93.8798 653.628 96.72 648.708 101.33 646.046L127.396 630.997ZM138.568 644.066C136.265 642.738 133.428 642.739 131.125 644.067L110.792 655.797C108.485 657.128 107.064 659.588 107.064 662.251V685.749C107.064 688.412 108.485 690.872 110.792 692.203L131.12 703.93C133.425 705.26 136.264 705.259 138.568 703.929L158.929 692.175C161.235 690.845 162.655 688.385 162.655 685.723V662.254C162.655 659.59 161.233 657.129 158.925 655.798L138.568 644.066Z" fill="#7FFF00"/>
<path fill-rule="evenodd" clip-rule="evenodd" d="M33.4367 630.997C38.0458 628.335 43.7244 628.334 48.3345 630.994L74.4247 646.046C79.0377 648.707 81.8797 653.628 81.8797 658.954V689.046C81.8797 694.372 79.0377 699.293 74.4247 701.954L48.3345 717.006C43.7244 719.666 38.0458 719.665 33.4367 717.003L7.37077 701.954C2.76025 699.292 -0.0799561 694.372 -0.0799561 689.049L-0.0799561 658.951C-0.0799561 653.628 2.76023 648.708 7.37076 646.046L33.4367 630.997ZM44.6088 644.066C42.305 642.738 39.4682 642.739 37.1649 644.067L16.8323 655.797C14.5257 657.128 13.1046 659.588 13.1046 662.251V685.749C13.1046 688.412 14.5257 690.872 16.8323 692.203L37.1605 703.93C39.4653 705.26 42.3043 705.259 44.6088 703.929L64.9694 692.175C67.2749 690.845 68.6952 688.385 68.6952 685.723V662.254C68.6952 659.59 67.273 657.129 64.965 655.798L44.6088 644.066Z" fill="#7FFF00"/>
<path fill-rule="evenodd" clip-rule="evenodd" d="M80.4367 552.997C85.0458 550.335 90.7244 550.334 95.3345 552.994L121.425 568.046C126.038 570.707 128.88 575.628 128.88 580.954V611.046C128.88 616.372 126.038 621.293 121.425 623.954L95.3345 639.006C90.7244 641.666 85.0458 641.665 80.4367 639.003L54.3708 623.954C49.7602 621.292 46.92 616.372 46.92 611.049V580.951C46.92 575.628 49.7602 570.708 54.3708 568.046L80.4367 552.997ZM91.6088 566.066C89.305 564.738 86.4682 564.739 84.1649 566.067L63.8323 577.797C61.5257 579.128 60.1046 581.588 60.1046 584.251V607.749C60.1046 610.412 61.5257 612.872 63.8323 614.203L84.1605 625.93C86.4653 627.26 89.3043 627.259 91.6088 625.929L111.969 614.175C114.275 612.845 115.695 610.385 115.695 607.723V584.254C115.695 581.59 114.273 579.129 111.965 577.798L91.6088 566.066Z" fill="#7FFF00"/>
<path fill-rule="evenodd" clip-rule="evenodd" d="M127.396 474.997C132.006 472.335 137.684 472.334 142.294 474.994L168.384 490.046C172.997 492.707 175.839 497.628 175.839 502.954V533.046C175.839 538.372 172.997 543.293 168.384 545.954L142.294 561.006C137.684 563.666 132.006 563.665 127.396 561.003L101.33 545.954C96.72 543.292 93.8798 538.372 93.8798 533.049V502.951C93.8798 497.628 96.72 492.708 101.33 490.046L127.396 474.997ZM138.568 488.066C136.265 486.738 133.428 486.739 131.125 488.067L110.792 499.797C108.485 501.128 107.064 503.588 107.064 506.251V529.749C107.064 532.412 108.485 534.872 110.792 536.203L131.12 547.93C133.425 549.26 136.264 549.259 138.568 547.929L158.929 536.175C161.235 534.845 162.655 532.385 162.655 529.723V506.254C162.655 503.59 161.233 501.129 158.925 499.798L138.568 488.066Z" fill="#7FFF00"/>
<path fill-rule="evenodd" clip-rule="evenodd" d="M33.4367 474.997C38.0458 472.335 43.7244 472.334 48.3345 474.994L74.4247 490.046C79.0377 492.707 81.8797 497.628 81.8797 502.954V533.046C81.8797 538.372 79.0377 543.293 74.4247 545.954L48.3345 561.006C43.7244 563.666 38.0458 563.665 33.4367 561.003L7.37077 545.954C2.76025 543.292 -0.0799561 538.372 -0.0799561 533.049L-0.0799561 502.951C-0.0799561 497.628 2.76023 492.708 7.37076 490.046L33.4367 474.997ZM44.6088 488.066C42.305 486.738 39.4682 486.739 37.1649 488.067L16.8323 499.797C14.5257 501.128 13.1046 503.588 13.1046 506.251V529.749C13.1046 532.412 14.5257 534.872 16.8323 536.203L37.1605 547.93C39.4653 549.26 42.3043 549.259 44.6088 547.929L64.9694 536.175C67.2749 534.845 68.6952 532.385 68.6952 529.723V506.254C68.6952 503.59 67.273 501.129 64.965 499.798L44.6088 488.066Z" fill="#7FFF00"/>
</g>
<g filter="url(#filter3_i_228_3953)">
<path fill-rule="evenodd" clip-rule="evenodd" d="M127.396 474.997C132.006 472.335 137.684 472.334 142.294 474.994L168.384 490.046C172.997 492.707 175.839 497.628 175.839 502.954V533.046C175.839 538.372 172.997 543.293 168.384 545.954L142.294 561.006C137.684 563.666 132.006 563.665 127.396 561.003L101.33 545.954C96.72 543.292 93.8798 538.372 93.8798 533.049V502.951C93.8798 497.628 96.72 492.708 101.33 490.046L127.396 474.997ZM138.568 488.066C136.265 486.738 133.428 486.739 131.125 488.067L110.792 499.797C108.485 501.128 107.064 503.588 107.064 506.251V529.749C107.064 532.412 108.485 534.872 110.792 536.203L131.12 547.93C133.425 549.26 136.264 549.259 138.568 547.929L158.929 536.175C161.235 534.845 162.655 532.385 162.655 529.723V506.254C162.655 503.59 161.233 501.129 158.925 499.798L138.568 488.066Z" fill="#7FFF00"/>
<path fill-rule="evenodd" clip-rule="evenodd" d="M33.4367 474.997C38.0458 472.335 43.7244 472.334 48.3345 474.994L74.4247 490.046C79.0377 492.707 81.8797 497.628 81.8797 502.954V533.046C81.8797 538.372 79.0377 543.293 74.4247 545.954L48.3345 561.006C43.7244 563.666 38.0458 563.665 33.4367 561.003L7.37077 545.954C2.76025 543.292 -0.0799561 538.372 -0.0799561 533.049L-0.0799561 502.951C-0.0799561 497.628 2.76023 492.708 7.37076 490.046L33.4367 474.997ZM44.6088 488.066C42.305 486.738 39.4682 486.739 37.1649 488.067L16.8323 499.797C14.5257 501.128 13.1046 503.588 13.1046 506.251V529.749C13.1046 532.412 14.5257 534.872 16.8323 536.203L37.1605 547.93C39.4653 549.26 42.3043 549.259 44.6088 547.929L64.9694 536.175C67.2749 534.845 68.6952 532.385 68.6952 529.723V506.254C68.6952 503.59 67.273 501.129 64.965 499.798L44.6088 488.066Z" fill="#7FFF00"/>
<path fill-rule="evenodd" clip-rule="evenodd" d="M80.4367 396.997C85.0458 394.335 90.7244 394.334 95.3345 396.994L121.425 412.046C126.038 414.707 128.88 419.628 128.88 424.954V455.046C128.88 460.372 126.038 465.293 121.425 467.954L95.3345 483.006C90.7244 485.666 85.0458 485.665 80.4367 483.003L54.3708 467.954C49.7602 465.292 46.92 460.372 46.92 455.049V424.951C46.92 419.628 49.7602 414.708 54.3708 412.046L80.4367 396.997ZM91.6088 410.066C89.305 408.738 86.4682 408.739 84.1649 410.067L63.8323 421.797C61.5257 423.128 60.1046 425.588 60.1046 428.251V451.749C60.1046 454.412 61.5257 456.872 63.8323 458.203L84.1605 469.93C86.4653 471.26 89.3043 471.259 91.6088 469.929L111.969 458.175C114.275 456.845 115.695 454.385 115.695 451.723V428.254C115.695 425.59 114.273 423.129 111.965 421.798L91.6088 410.066Z" fill="#7FFF00"/>
<path fill-rule="evenodd" clip-rule="evenodd" d="M127.396 318.997C132.006 316.335 137.684 316.334 142.294 318.994L168.384 334.046C172.997 336.707 175.839 341.628 175.839 346.954V377.046C175.839 382.372 172.997 387.293 168.384 389.954L142.294 405.006C137.684 407.666 132.006 407.665 127.396 405.003L101.33 389.954C96.72 387.292 93.8798 382.372 93.8798 377.049V346.951C93.8798 341.628 96.72 336.708 101.33 334.046L127.396 318.997ZM138.568 332.066C136.265 330.738 133.428 330.739 131.125 332.067L110.792 343.797C108.485 345.128 107.064 347.588 107.064 350.251V373.749C107.064 376.412 108.485 378.872 110.792 380.203L131.12 391.93C133.425 393.26 136.264 393.259 138.568 391.929L158.929 380.175C161.235 378.845 162.655 376.385 162.655 373.723V350.254C162.655 347.59 161.233 345.129 158.925 343.798L138.568 332.066Z" fill="#7FFF00"/>
<path fill-rule="evenodd" clip-rule="evenodd" d="M33.4367 318.997C38.0458 316.335 43.7244 316.334 48.3345 318.994L74.4247 334.046C79.0377 336.707 81.8797 341.628 81.8797 346.954V377.046C81.8797 382.372 79.0377 387.293 74.4247 389.954L48.3345 405.006C43.7244 407.666 38.0458 407.665 33.4367 405.003L7.37077 389.954C2.76025 387.292 -0.0799561 382.372 -0.0799561 377.049L-0.0799561 346.951C-0.0799561 341.628 2.76023 336.708 7.37076 334.046L33.4367 318.997ZM44.6088 332.066C42.305 330.738 39.4682 330.739 37.1649 332.067L16.8323 343.797C14.5257 345.128 13.1046 347.588 13.1046 350.251V373.749C13.1046 376.412 14.5257 378.872 16.8323 380.203L37.1605 391.93C39.4653 393.26 42.3043 393.259 44.6088 391.929L64.9694 380.175C67.2749 378.845 68.6952 376.385 68.6952 373.723V350.254C68.6952 347.59 67.273 345.129 64.965 343.798L44.6088 332.066Z" fill="#7FFF00"/>
</g>
<g filter="url(#filter4_i_228_3953)">
<path fill-rule="evenodd" clip-rule="evenodd" d="M127.396 318.997C132.006 316.335 137.684 316.334 142.294 318.994L168.384 334.046C172.997 336.707 175.839 341.628 175.839 346.954V377.046C175.839 382.372 172.997 387.293 168.384 389.954L142.294 405.006C137.684 407.666 132.006 407.665 127.396 405.003L101.33 389.954C96.72 387.292 93.8798 382.372 93.8798 377.049V346.951C93.8798 341.628 96.72 336.708 101.33 334.046L127.396 318.997ZM138.568 332.066C136.265 330.738 133.428 330.739 131.125 332.067L110.792 343.797C108.485 345.128 107.064 347.588 107.064 350.251V373.749C107.064 376.412 108.485 378.872 110.792 380.203L131.12 391.93C133.425 393.26 136.264 393.259 138.568 391.929L158.929 380.175C161.235 378.845 162.655 376.385 162.655 373.723V350.254C162.655 347.59 161.233 345.129 158.925 343.798L138.568 332.066Z" fill="#7FFF00"/>
<path fill-rule="evenodd" clip-rule="evenodd" d="M33.4367 318.997C38.0458 316.335 43.7244 316.334 48.3345 318.994L74.4247 334.046C79.0377 336.707 81.8797 341.628 81.8797 346.954V377.046C81.8797 382.372 79.0377 387.293 74.4247 389.954L48.3345 405.006C43.7244 407.666 38.0458 407.665 33.4367 405.003L7.37077 389.954C2.76025 387.292 -0.0799561 382.372 -0.0799561 377.049L-0.0799561 346.951C-0.0799561 341.628 2.76023 336.708 7.37076 334.046L33.4367 318.997ZM44.6088 332.066C42.305 330.738 39.4682 330.739 37.1649 332.067L16.8323 343.797C14.5257 345.128 13.1046 347.588 13.1046 350.251V373.749C13.1046 376.412 14.5257 378.872 16.8323 380.203L37.1605 391.93C39.4653 393.26 42.3043 393.259 44.6088 391.929L64.9694 380.175C67.2749 378.845 68.6952 376.385 68.6952 373.723V350.254C68.6952 347.59 67.273 345.129 64.965 343.798L44.6088 332.066Z" fill="#7FFF00"/>
<path fill-rule="evenodd" clip-rule="evenodd" d="M80.4367 240.997C85.0458 238.335 90.7244 238.334 95.3345 240.994L121.425 256.046C126.038 258.707 128.88 263.628 128.88 268.954V299.046C128.88 304.372 126.038 309.293 121.425 311.954L95.3345 327.006C90.7244 329.666 85.0458 329.665 80.4367 327.003L54.3708 311.954C49.7602 309.292 46.92 304.372 46.92 299.049V268.951C46.92 263.628 49.7602 258.708 54.3708 256.046L80.4367 240.997ZM91.6088 254.066C89.305 252.738 86.4682 252.739 84.1649 254.067L63.8323 265.797C61.5257 267.128 60.1046 269.588 60.1046 272.251V295.749C60.1046 298.412 61.5257 300.872 63.8323 302.203L84.1605 313.93C86.4653 315.26 89.3043 315.259 91.6088 313.929L111.969 302.175C114.275 300.845 115.695 298.385 115.695 295.723V272.254C115.695 269.59 114.273 267.129 111.965 265.798L91.6088 254.066Z" fill="#7FFF00"/>
<path fill-rule="evenodd" clip-rule="evenodd" d="M127.396 162.997C132.006 160.335 137.684 160.334 142.294 162.994L168.384 178.046C172.997 180.707 175.839 185.628 175.839 190.954V221.046C175.839 226.372 172.997 231.293 168.384 233.954L142.294 249.006C137.684 251.666 132.006 251.665 127.396 249.003L101.33 233.954C96.72 231.292 93.8798 226.372 93.8798 221.049V190.951C93.8798 185.628 96.72 180.708 101.33 178.046L127.396 162.997ZM138.568 176.066C136.265 174.738 133.428 174.739 131.125 176.067L110.792 187.797C108.485 189.128 107.064 191.588 107.064 194.251V217.749C107.064 220.412 108.485 222.872 110.792 224.203L131.12 235.93C133.425 237.26 136.264 237.259 138.568 235.929L158.929 224.175C161.235 222.845 162.655 220.385 162.655 217.723V194.254C162.655 191.59 161.233 189.129 158.925 187.798L138.568 176.066Z" fill="#7FFF00"/>
<path fill-rule="evenodd" clip-rule="evenodd" d="M33.4367 162.997C38.0458 160.335 43.7244 160.334 48.3345 162.994L74.4247 178.046C79.0377 180.707 81.8797 185.628 81.8797 190.954V221.046C81.8797 226.372 79.0377 231.293 74.4247 233.954L48.3345 249.006C43.7244 251.666 38.0458 251.665 33.4367 249.003L7.37077 233.954C2.76025 231.292 -0.0799561 226.372 -0.0799561 221.049L-0.0799561 190.951C-0.0799561 185.628 2.76023 180.708 7.37076 178.046L33.4367 162.997ZM44.6088 176.066C42.305 174.738 39.4682 174.739 37.1649 176.067L16.8323 187.797C14.5257 189.128 13.1046 191.588 13.1046 194.251V217.749C13.1046 220.412 14.5257 222.872 16.8323 224.203L37.1605 235.93C39.4653 237.26 42.3043 237.259 44.6088 235.929L64.9694 224.175C67.2749 222.845 68.6952 220.385 68.6952 217.723V194.254C68.6952 191.59 67.273 189.129 64.965 187.798L44.6088 176.066Z" fill="#7FFF00"/>
</g>
<g filter="url(#filter5_i_228_3953)">
<path fill-rule="evenodd" clip-rule="evenodd" d="M127.396 162.997C132.006 160.335 137.684 160.334 142.294 162.994L168.384 178.046C172.997 180.707 175.839 185.628 175.839 190.954V221.046C175.839 226.372 172.997 231.293 168.384 233.954L142.294 249.006C137.684 251.666 132.006 251.665 127.396 249.003L101.33 233.954C96.72 231.292 93.8798 226.372 93.8798 221.049V190.951C93.8798 185.628 96.72 180.708 101.33 178.046L127.396 162.997ZM138.568 176.066C136.265 174.738 133.428 174.739 131.125 176.067L110.792 187.797C108.485 189.128 107.064 191.588 107.064 194.251V217.749C107.064 220.412 108.485 222.872 110.792 224.203L131.12 235.93C133.425 237.26 136.264 237.259 138.568 235.929L158.929 224.175C161.235 222.845 162.655 220.385 162.655 217.723V194.254C162.655 191.59 161.233 189.129 158.925 187.798L138.568 176.066Z" fill="#7FFF00"/>
<path fill-rule="evenodd" clip-rule="evenodd" d="M33.4367 162.997C38.0458 160.335 43.7244 160.334 48.3345 162.994L74.4247 178.046C79.0377 180.707 81.8797 185.628 81.8797 190.954V221.046C81.8797 226.372 79.0377 231.293 74.4247 233.954L48.3345 249.006C43.7244 251.666 38.0458 251.665 33.4367 249.003L7.37077 233.954C2.76025 231.292 -0.0799561 226.372 -0.0799561 221.049L-0.0799561 190.951C-0.0799561 185.628 2.76023 180.708 7.37076 178.046L33.4367 162.997ZM44.6088 176.066C42.305 174.738 39.4682 174.739 37.1649 176.067L16.8323 187.797C14.5257 189.128 13.1046 191.588 13.1046 194.251V217.749C13.1046 220.412 14.5257 222.872 16.8323 224.203L37.1605 235.93C39.4653 237.26 42.3043 237.259 44.6088 235.929L64.9694 224.175C67.2749 222.845 68.6952 220.385 68.6952 217.723V194.254C68.6952 191.59 67.273 189.129 64.965 187.798L44.6088 176.066Z" fill="#7FFF00"/>
<path fill-rule="evenodd" clip-rule="evenodd" d="M80.4367 84.9966C85.0458 82.3354 90.7244 82.3344 95.3345 84.9941L121.425 100.046C126.038 102.707 128.88 107.628 128.88 112.954V143.046C128.88 148.372 126.038 153.293 121.425 155.954L95.3345 171.006C90.7244 173.666 85.0458 173.665 80.4367 171.003L54.3708 155.954C49.7602 153.292 46.92 148.372 46.92 143.049V112.951C46.92 107.628 49.7602 102.708 54.3708 100.046L80.4367 84.9966ZM91.6088 98.0658C89.305 96.738 86.4682 96.7386 84.1649 98.0673L63.8323 109.797C61.5257 111.128 60.1046 113.588 60.1046 116.251V139.749C60.1046 142.412 61.5257 144.872 63.8323 146.203L84.1605 157.93C86.4653 159.26 89.3043 159.259 91.6088 157.929L111.969 146.175C114.275 144.845 115.695 142.385 115.695 139.723V116.254C115.695 113.59 114.273 111.129 111.965 109.798L91.6088 98.0658Z" fill="#7FFF00"/>
<path fill-rule="evenodd" clip-rule="evenodd" d="M127.396 6.99655C132.006 4.33537 137.684 4.33443 142.294 6.99407L168.384 22.0462C172.997 24.7075 175.839 29.6283 175.839 34.9538V65.0462C175.839 70.3718 172.997 75.2925 168.384 77.9539L142.294 93.0059C137.684 95.6656 132.006 95.6646 127.396 93.0035L101.33 77.9539C96.72 75.2919 93.8798 70.3725 93.8798 65.0486V34.9514C93.8798 29.6275 96.72 24.7081 101.33 22.0462L127.396 6.99655ZM138.568 20.0658C136.265 18.738 133.428 18.7386 131.125 20.0673L110.792 31.7969C108.485 33.1276 107.064 35.588 107.064 38.2509V61.7491C107.064 64.412 108.485 66.8724 110.792 68.2031L131.12 79.9302C133.425 81.2598 136.264 81.2594 138.568 79.9291L158.929 68.1755C161.235 66.8446 162.655 64.3847 162.655 61.7226V38.2538C162.655 35.5899 161.233 33.1287 158.925 31.7984L138.568 20.0658Z" fill="#7FFF00"/>
<path fill-rule="evenodd" clip-rule="evenodd" d="M33.4367 6.99655C38.0458 4.33537 43.7244 4.33443 48.3345 6.99407L74.4247 22.0462C79.0377 24.7075 81.8797 29.6283 81.8797 34.9538V65.0462C81.8797 70.3718 79.0377 75.2925 74.4247 77.9539L48.3345 93.0059C43.7244 95.6656 38.0458 95.6646 33.4367 93.0035L7.37077 77.9539C2.76025 75.2919 -0.0799561 70.3725 -0.0799561 65.0486L-0.0799561 34.9514C-0.0799561 29.6275 2.76023 24.7081 7.37076 22.0462L33.4367 6.99655ZM44.6088 20.0658C42.305 18.738 39.4682 18.7386 37.1649 20.0673L16.8323 31.7969C14.5257 33.1276 13.1046 35.588 13.1046 38.2509V61.7491C13.1046 64.412 14.5257 66.8724 16.8323 68.2031L37.1605 79.9302C39.4653 81.2598 42.3043 81.2594 44.6088 79.9291L64.9694 68.1755C67.2749 66.8446 68.6952 64.3847 68.6952 61.7226V38.2538C68.6952 35.5899 67.273 33.1287 64.965 31.7984L44.6088 20.0658Z" fill="#7FFF00"/>
</g>
<g filter="url(#filter6_i_228_3953)">
<path fill-rule="evenodd" clip-rule="evenodd" d="M127.396 6.99655C132.006 4.33537 137.684 4.33443 142.294 6.99407L168.384 22.0462C172.997 24.7075 175.839 29.6283 175.839 34.9538V65.0462C175.839 70.3718 172.997 75.2925 168.384 77.9539L142.294 93.0059C137.684 95.6656 132.006 95.6646 127.396 93.0035L101.33 77.9539C96.72 75.2919 93.8798 70.3725 93.8798 65.0486V34.9514C93.8798 29.6275 96.72 24.7081 101.33 22.0462L127.396 6.99655ZM138.568 20.0658C136.265 18.738 133.428 18.7386 131.125 20.0673L110.792 31.7969C108.485 33.1276 107.064 35.588 107.064 38.2509V61.7491C107.064 64.412 108.485 66.8724 110.792 68.2031L131.12 79.9302C133.425 81.2598 136.264 81.2594 138.568 79.9291L158.929 68.1755C161.235 66.8446 162.655 64.3847 162.655 61.7226V38.2538C162.655 35.5899 161.233 33.1287 158.925 31.7984L138.568 20.0658Z" fill="#7FFF00"/>
<path fill-rule="evenodd" clip-rule="evenodd" d="M33.4367 6.99655C38.0458 4.33537 43.7244 4.33443 48.3345 6.99407L74.4247 22.0462C79.0377 24.7075 81.8797 29.6283 81.8797 34.9538V65.0462C81.8797 70.3718 79.0377 75.2925 74.4247 77.9539L48.3345 93.0059C43.7244 95.6656 38.0458 95.6646 33.4367 93.0035L7.37077 77.9539C2.76025 75.2919 -0.0799561 70.3725 -0.0799561 65.0486L-0.0799561 34.9514C-0.0799561 29.6275 2.76023 24.7081 7.37076 22.0462L33.4367 6.99655ZM44.6088 20.0658C42.305 18.738 39.4682 18.7386 37.1649 20.0673L16.8323 31.7969C14.5257 33.1276 13.1046 35.588 13.1046 38.2509V61.7491C13.1046 64.412 14.5257 66.8724 16.8323 68.2031L37.1605 79.9302C39.4653 81.2598 42.3043 81.2594 44.6088 79.9291L64.9694 68.1755C67.2749 66.8446 68.6952 64.3847 68.6952 61.7226V38.2538C68.6952 35.5899 67.273 33.1287 64.965 31.7984L44.6088 20.0658Z" fill="#7FFF00"/>
<path fill-rule="evenodd" clip-rule="evenodd" d="M80.4367 -71.0034C85.0458 -73.6646 90.7244 -73.6656 95.3345 -71.0059L121.425 -55.9538C126.038 -53.2925 128.88 -48.3717 128.88 -43.0462V-12.9538C128.88 -7.62823 126.038 -2.70746 121.425 -0.0461349L95.3345 15.0059C90.7244 17.6656 85.0458 17.6646 80.4367 15.0035L54.3708 -0.0461273C49.7602 -2.7081 46.92 -7.62753 46.92 -12.9514V-43.0486C46.92 -48.3725 49.7602 -53.2919 54.3708 -55.9538L80.4367 -71.0034ZM91.6088 -57.9342C89.305 -59.262 86.4682 -59.2614 84.1649 -57.9327L63.8323 -46.2031C61.5257 -44.8724 60.1046 -42.412 60.1046 -39.7491V-16.2509C60.1046 -13.588 61.5257 -11.1276 63.8323 -9.79693L84.1605 1.93018C86.4653 3.25981 89.3043 3.25941 91.6088 1.92911L111.969 -9.82453C114.275 -11.1554 115.695 -13.6153 115.695 -16.2774V-39.7462C115.695 -42.4101 114.273 -44.8713 111.965 -46.2016L91.6088 -57.9342Z" fill="#7FFF00"/>
</g>
</g>
<defs>
<filter id="filter0_i_228_3953" x="-0.0799561" y="785" width="175.919" height="250" filterUnits="userSpaceOnUse" color-interpolation-filters="sRGB">
<feFlood flood-opacity="0" result="BackgroundImageFix"/>
<feBlend mode="normal" in="SourceGraphic" in2="BackgroundImageFix" result="shape"/>
<feColorMatrix in="SourceAlpha" type="matrix" values="0 0 0 0 0 0 0 0 0 0 0 0 0 0 0 0 0 0 127 0" result="hardAlpha"/>
<feOffset dy="4"/>
<feGaussianBlur stdDeviation="2"/>
<feComposite in2="hardAlpha" operator="arithmetic" k2="-1" k3="1"/>
<feColorMatrix type="matrix" values="0 0 0 0 0 0 0 0 0 0 0 0 0 0 0 0 0 0 0.25 0"/>
<feBlend mode="normal" in2="shape" result="effect1_innerShadow_228_3953"/>
</filter>
<filter id="filter1_i_228_3953" x="-0.0799561" y="629" width="175.919" height="250" filterUnits="userSpaceOnUse" color-interpolation-filters="sRGB">
<feFlood flood-opacity="0" result="BackgroundImageFix"/>
<feBlend mode="normal" in="SourceGraphic" in2="BackgroundImageFix" result="shape"/>
<feColorMatrix in="SourceAlpha" type="matrix" values="0 0 0 0 0 0 0 0 0 0 0 0 0 0 0 0 0 0 127 0" result="hardAlpha"/>
<feOffset dy="4"/>
<feGaussianBlur stdDeviation="2"/>
<feComposite in2="hardAlpha" operator="arithmetic" k2="-1" k3="1"/>
<feColorMatrix type="matrix" values="0 0 0 0 0 0 0 0 0 0 0 0 0 0 0 0 0 0 0.25 0"/>
<feBlend mode="normal" in2="shape" result="effect1_innerShadow_228_3953"/>
</filter>
<filter id="filter2_i_228_3953" x="-0.0799561" y="473" width="175.919" height="250" filterUnits="userSpaceOnUse" color-interpolation-filters="sRGB">
<feFlood flood-opacity="0" result="BackgroundImageFix"/>
<feBlend mode="normal" in="SourceGraphic" in2="BackgroundImageFix" result="shape"/>
<feColorMatrix in="SourceAlpha" type="matrix" values="0 0 0 0 0 0 0 0 0 0 0 0 0 0 0 0 0 0 127 0" result="hardAlpha"/>
<feOffset dy="4"/>
<feGaussianBlur stdDeviation="2"/>
<feComposite in2="hardAlpha" operator="arithmetic" k2="-1" k3="1"/>
<feColorMatrix type="matrix" values="0 0 0 0 0 0 0 0 0 0 0 0 0 0 0 0 0 0 0.25 0"/>
<feBlend mode="normal" in2="shape" result="effect1_innerShadow_228_3953"/>
</filter>
<filter id="filter3_i_228_3953" x="-0.0799561" y="317" width="175.919" height="250" filterUnits="userSpaceOnUse" color-interpolation-filters="sRGB">
<feFlood flood-opacity="0" result="BackgroundImageFix"/>
<feBlend mode="normal" in="SourceGraphic" in2="BackgroundImageFix" result="shape"/>
<feColorMatrix in="SourceAlpha" type="matrix" values="0 0 0 0 0 0 0 0 0 0 0 0 0 0 0 0 0 0 127 0" result="hardAlpha"/>
<feOffset dy="4"/>
<feGaussianBlur stdDeviation="2"/>
<feComposite in2="hardAlpha" operator="arithmetic" k2="-1" k3="1"/>
<feColorMatrix type="matrix" values="0 0 0 0 0 0 0 0 0 0 0 0 0 0 0 0 0 0 0.25 0"/>
<feBlend mode="normal" in2="shape" result="effect1_innerShadow_228_3953"/>
</filter>
<filter id="filter4_i_228_3953" x="-0.0799561" y="161" width="175.919" height="250" filterUnits="userSpaceOnUse" color-interpolation-filters="sRGB">
<feFlood flood-opacity="0" result="BackgroundImageFix"/>
<feBlend mode="normal" in="SourceGraphic" in2="BackgroundImageFix" result="shape"/>
<feColorMatrix in="SourceAlpha" type="matrix" values="0 0 0 0 0 0 0 0 0 0 0 0 0 0 0 0 0 0 127 0" result="hardAlpha"/>
<feOffset dy="4"/>
<feGaussianBlur stdDeviation="2"/>
<feComposite in2="hardAlpha" operator="arithmetic" k2="-1" k3="1"/>
<feColorMatrix type="matrix" values="0 0 0 0 0 0 0 0 0 0 0 0 0 0 0 0 0 0 0.25 0"/>
<feBlend mode="normal" in2="shape" result="effect1_innerShadow_228_3953"/>
</filter>
<filter id="filter5_i_228_3953" x="-0.0799561" y="5" width="175.919" height="250" filterUnits="userSpaceOnUse" color-interpolation-filters="sRGB">
<feFlood flood-opacity="0" result="BackgroundImageFix"/>
<feBlend mode="normal" in="SourceGraphic" in2="BackgroundImageFix" result="shape"/>
<feColorMatrix in="SourceAlpha" type="matrix" values="0 0 0 0 0 0 0 0 0 0 0 0 0 0 0 0 0 0 127 0" result="hardAlpha"/>
<feOffset dy="4"/>
<feGaussianBlur stdDeviation="2"/>
<feComposite in2="hardAlpha" operator="arithmetic" k2="-1" k3="1"/>
<feColorMatrix type="matrix" values="0 0 0 0 0 0 0 0 0 0 0 0 0 0 0 0 0 0 0.25 0"/>
<feBlend mode="normal" in2="shape" result="effect1_innerShadow_228_3953"/>
</filter>
<filter id="filter6_i_228_3953" x="-0.0799561" y="-151" width="175.919" height="250" filterUnits="userSpaceOnUse" color-interpolation-filters="sRGB">
<feFlood flood-opacity="0" result="BackgroundImageFix"/>
<feBlend mode="normal" in="SourceGraphic" in2="BackgroundImageFix" result="shape"/>
<feColorMatrix in="SourceAlpha" type="matrix" values="0 0 0 0 0 0 0 0 0 0 0 0 0 0 0 0 0 0 127 0" result="hardAlpha"/>
<feOffset dy="4"/>
<feGaussianBlur stdDeviation="2"/>
<feComposite in2="hardAlpha" operator="arithmetic" k2="-1" k3="1"/>
<feColorMatrix type="matrix" values="0 0 0 0 0 0 0 0 0 0 0 0 0 0 0 0 0 0 0.25 0"/>
<feBlend mode="normal" in2="shape" result="effect1_innerShadow_228_3953"/>
</filter>
<clipPath id="clip0_228_3953">
<rect width="135" height="880" fill="white"/>
</clipPath>
</defs>
</svg>
