<svg width="240" height="506" viewBox="0 0 240 506" fill="none" xmlns="http://www.w3.org/2000/svg">
<g clip-path="url(#clip0_238_3670)">
<g filter="url(#filter0_i_238_3670)">
<path fill-rule="evenodd" clip-rule="evenodd" d="M41.9934 400.144C44.4678 398.716 47.5163 398.715 49.9912 400.143L63.9978 408.224C66.4742 409.652 68 412.294 68 415.153V431.308C68 434.167 66.4742 436.809 63.9978 438.238L49.9912 446.318C47.5163 447.746 44.4678 447.746 41.9934 446.317L27.9999 438.238C25.5248 436.809 24 434.168 24 431.31V415.152C24 412.294 25.5248 409.653 27.9999 408.224L41.9934 400.144ZM47.9911 407.161C46.7543 406.448 45.2314 406.448 43.9949 407.161L33.0793 413.458C31.841 414.173 31.0781 415.494 31.0781 416.923V429.538C31.0781 430.968 31.841 432.289 33.0793 433.003L43.9925 439.299C45.2299 440.013 46.754 440.012 47.9911 439.298L58.9217 432.988C60.1594 432.274 60.9219 430.953 60.9219 429.524V416.925C60.9219 415.495 60.1584 414.173 58.9193 413.459L47.9911 407.161Z" fill="#93C5FD"/>
<path fill-rule="evenodd" clip-rule="evenodd" d="M41.9934 484.289C44.4678 482.861 47.5163 482.86 49.9912 484.288L63.9978 492.369C66.4742 493.797 68 496.439 68 499.298V515.453C68 518.312 66.4742 520.954 63.9978 522.383L49.9912 530.463C47.5163 531.891 44.4678 531.891 41.9934 530.462L27.9999 522.383C25.5248 520.954 24 518.313 24 515.455V499.297C24 496.439 25.5248 493.798 27.9999 492.369L41.9934 484.289ZM47.9911 491.306C46.7543 490.593 45.2314 490.593 43.9949 491.306L33.0793 497.603C31.841 498.318 31.0781 499.639 31.0781 501.068V513.683C31.0781 515.113 31.841 516.434 33.0793 517.148L43.9925 523.444C45.2299 524.158 46.754 524.157 47.9911 523.443L58.9217 517.133C60.1594 516.419 60.9219 515.098 60.9219 513.669V501.07C60.9219 499.64 60.1584 498.318 58.9193 497.604L47.9911 491.306Z" fill="#93C5FD"/>
<path fill-rule="evenodd" clip-rule="evenodd" d="M16.9934 442.144C19.4678 440.716 22.5163 440.715 24.9912 442.143L38.9978 450.224C41.4742 451.652 43 454.294 43 457.153V473.308C43 476.167 41.4742 478.809 38.9978 480.238L24.9912 488.318C22.5163 489.746 19.4678 489.746 16.9934 488.317L2.99992 480.238C0.52476 478.809 -1 476.168 -1 473.31L-1 457.152C-1 454.294 0.524754 451.653 2.99991 450.224L16.9934 442.144ZM22.9911 449.161C21.7543 448.448 20.2314 448.448 18.9949 449.161L8.07931 455.458C6.84103 456.173 6.07811 457.494 6.07811 458.923V471.538C6.07811 472.968 6.84103 474.289 8.07931 475.003L18.9925 481.299C20.2299 482.013 21.754 482.012 22.9911 481.298L33.9217 474.988C35.1594 474.274 35.9219 472.953 35.9219 471.524V458.925C35.9219 457.495 35.1584 456.173 33.9193 455.459L22.9911 449.161Z" fill="#93C5FD"/>
<path fill-rule="evenodd" clip-rule="evenodd" d="M-8.00662 400.072C-5.53219 398.643 -2.48366 398.643 -0.00875854 400.071L13.9978 408.151C16.4742 409.58 18 412.222 18 415.081V431.236C18 434.095 16.4742 436.736 13.9978 438.165L-0.00876045 446.246C-2.48367 447.674 -5.5322 447.673 -8.00663 446.245L-22.0001 438.165C-24.4752 436.736 -26 434.095 -26 431.237V415.079C-26 412.221 -24.4752 409.58 -22.0001 408.151L-8.00662 400.072ZM-2.0089 407.088C-3.24568 406.375 -4.76862 406.376 -6.00513 407.089L-16.9207 413.386C-18.159 414.1 -18.9219 415.421 -18.9219 416.851V429.466C-18.9219 430.895 -18.159 432.216 -16.9207 432.931L-6.00749 439.226C-4.77014 439.94 -3.24604 439.94 -2.00889 439.226L8.9217 432.916C10.1594 432.201 10.9219 430.881 10.9219 429.451V416.852C10.9219 415.422 10.1584 414.101 8.91933 413.387L-2.0089 407.088Z" fill="#93C5FD"/>
<path fill-rule="evenodd" clip-rule="evenodd" d="M-8.00662 484.217C-5.53219 482.788 -2.48366 482.788 -0.00875854 484.216L13.9978 492.296C16.4742 493.725 18 496.367 18 499.226V515.381C18 518.24 16.4742 520.882 13.9978 522.31L-0.00876045 530.391C-2.48367 531.819 -5.5322 531.818 -8.00663 530.39L-22.0001 522.31C-24.4752 520.881 -26 518.24 -26 515.382V499.224C-26 496.366 -24.4752 493.725 -22.0001 492.296L-8.00662 484.217ZM-2.0089 491.233C-3.24568 490.52 -4.76862 490.521 -6.00513 491.234L-16.9207 497.531C-18.159 498.245 -18.9219 499.566 -18.9219 500.996V513.611C-18.9219 515.04 -18.159 516.361 -16.9207 517.076L-6.00749 523.371C-4.77014 524.085 -3.24604 524.085 -2.00889 523.371L8.9217 517.061C10.1594 516.346 10.9219 515.026 10.9219 513.597V500.997C10.9219 499.567 10.1584 498.246 8.91933 497.532L-2.0089 491.233Z" fill="#93C5FD"/>
</g>
<g filter="url(#filter1_i_238_3670)">
<path fill-rule="evenodd" clip-rule="evenodd" d="M41.9934 230.144C44.4678 228.716 47.5163 228.715 49.9912 230.143L63.9978 238.224C66.4742 239.652 68 242.294 68 245.153V261.308C68 264.167 66.4742 266.809 63.9978 268.238L49.9912 276.318C47.5163 277.746 44.4678 277.746 41.9934 276.317L27.9999 268.238C25.5248 266.809 24 264.168 24 261.31V245.152C24 242.294 25.5248 239.653 27.9999 238.224L41.9934 230.144ZM47.9911 237.161C46.7543 236.448 45.2314 236.448 43.9949 237.161L33.0793 243.458C31.841 244.173 31.0781 245.494 31.0781 246.923V259.538C31.0781 260.968 31.841 262.289 33.0793 263.003L43.9925 269.299C45.2299 270.013 46.754 270.012 47.9911 269.298L58.9217 262.988C60.1594 262.274 60.9219 260.953 60.9219 259.524V246.925C60.9219 245.495 60.1584 244.173 58.9193 243.459L47.9911 237.161Z" fill="#93C5FD"/>
<path fill-rule="evenodd" clip-rule="evenodd" d="M41.9934 314.289C44.4678 312.861 47.5163 312.86 49.9912 314.288L63.9978 322.369C66.4742 323.797 68 326.439 68 329.298V345.453C68 348.312 66.4742 350.954 63.9978 352.383L49.9912 360.463C47.5163 361.891 44.4678 361.891 41.9934 360.462L27.9999 352.383C25.5248 350.954 24 348.313 24 345.455V329.297C24 326.439 25.5248 323.798 27.9999 322.369L41.9934 314.289ZM47.9911 321.306C46.7543 320.593 45.2314 320.593 43.9949 321.306L33.0793 327.603C31.841 328.318 31.0781 329.639 31.0781 331.068V343.683C31.0781 345.113 31.841 346.434 33.0793 347.148L43.9925 353.444C45.2299 354.158 46.754 354.157 47.9911 353.443L58.9217 347.133C60.1594 346.419 60.9219 345.098 60.9219 343.669V331.07C60.9219 329.64 60.1584 328.318 58.9193 327.604L47.9911 321.306Z" fill="#93C5FD"/>
<path fill-rule="evenodd" clip-rule="evenodd" d="M16.9934 272.144C19.4678 270.716 22.5163 270.715 24.9912 272.143L38.9978 280.224C41.4742 281.652 43 284.294 43 287.153V303.308C43 306.167 41.4742 308.809 38.9978 310.238L24.9912 318.318C22.5163 319.746 19.4678 319.746 16.9934 318.317L2.99992 310.238C0.52476 308.809 -1 306.168 -1 303.31L-1 287.152C-1 284.294 0.524754 281.653 2.99991 280.224L16.9934 272.144ZM22.9911 279.161C21.7543 278.448 20.2314 278.448 18.9949 279.161L8.07931 285.458C6.84103 286.173 6.07811 287.494 6.07811 288.923V301.538C6.07811 302.968 6.84103 304.289 8.07931 305.003L18.9925 311.299C20.2299 312.013 21.754 312.012 22.9911 311.298L33.9217 304.988C35.1594 304.274 35.9219 302.953 35.9219 301.524V288.925C35.9219 287.495 35.1584 286.173 33.9193 285.459L22.9911 279.161Z" fill="#93C5FD"/>
<path fill-rule="evenodd" clip-rule="evenodd" d="M-8.00662 230.072C-5.53219 228.643 -2.48366 228.643 -0.00875854 230.071L13.9978 238.151C16.4742 239.58 18 242.222 18 245.081V261.236C18 264.095 16.4742 266.736 13.9978 268.165L-0.00876045 276.246C-2.48367 277.674 -5.5322 277.673 -8.00663 276.245L-22.0001 268.165C-24.4752 266.736 -26 264.095 -26 261.237V245.079C-26 242.221 -24.4752 239.58 -22.0001 238.151L-8.00662 230.072ZM-2.0089 237.088C-3.24568 236.375 -4.76862 236.376 -6.00513 237.089L-16.9207 243.386C-18.159 244.1 -18.9219 245.421 -18.9219 246.851V259.466C-18.9219 260.895 -18.159 262.216 -16.9207 262.931L-6.00749 269.226C-4.77014 269.94 -3.24604 269.94 -2.00889 269.226L8.9217 262.916C10.1594 262.201 10.9219 260.881 10.9219 259.451V246.852C10.9219 245.422 10.1584 244.101 8.91933 243.387L-2.0089 237.088Z" fill="#93C5FD"/>
<path fill-rule="evenodd" clip-rule="evenodd" d="M-8.00662 314.217C-5.53219 312.788 -2.48366 312.788 -0.00875854 314.216L13.9978 322.296C16.4742 323.725 18 326.367 18 329.226V345.381C18 348.24 16.4742 350.882 13.9978 352.31L-0.00876045 360.391C-2.48367 361.819 -5.5322 361.818 -8.00663 360.39L-22.0001 352.31C-24.4752 350.881 -26 348.24 -26 345.382V329.224C-26 326.366 -24.4752 323.725 -22.0001 322.296L-8.00662 314.217ZM-2.0089 321.233C-3.24568 320.52 -4.76862 320.521 -6.00513 321.234L-16.9207 327.531C-18.159 328.245 -18.9219 329.566 -18.9219 330.996V343.611C-18.9219 345.04 -18.159 346.361 -16.9207 347.076L-6.00749 353.371C-4.77014 354.085 -3.24604 354.085 -2.00889 353.371L8.9217 347.061C10.1594 346.346 10.9219 345.026 10.9219 343.597V330.997C10.9219 329.567 10.1584 328.246 8.91933 327.532L-2.0089 321.233Z" fill="#93C5FD"/>
</g>
<g filter="url(#filter2_i_238_3670)">
<path fill-rule="evenodd" clip-rule="evenodd" d="M41.9934 315.144C44.4678 313.716 47.5163 313.715 49.9912 315.143L63.9978 323.224C66.4742 324.652 68 327.294 68 330.153V346.308C68 349.167 66.4742 351.809 63.9978 353.238L49.9912 361.318C47.5163 362.746 44.4678 362.746 41.9934 361.317L27.9999 353.238C25.5248 351.809 24 349.168 24 346.31V330.152C24 327.294 25.5248 324.653 27.9999 323.224L41.9934 315.144ZM47.9911 322.161C46.7543 321.448 45.2314 321.448 43.9949 322.161L33.0793 328.458C31.841 329.173 31.0781 330.494 31.0781 331.923V344.538C31.0781 345.968 31.841 347.289 33.0793 348.003L43.9925 354.299C45.2299 355.013 46.754 355.012 47.9911 354.298L58.9217 347.988C60.1594 347.274 60.9219 345.953 60.9219 344.524V331.925C60.9219 330.495 60.1584 329.173 58.9193 328.459L47.9911 322.161Z" fill="#93C5FD"/>
<path fill-rule="evenodd" clip-rule="evenodd" d="M41.9934 399.289C44.4678 397.861 47.5163 397.86 49.9912 399.288L63.9978 407.369C66.4742 408.797 68 411.439 68 414.298V430.453C68 433.312 66.4742 435.954 63.9978 437.383L49.9912 445.463C47.5163 446.891 44.4678 446.891 41.9934 445.462L27.9999 437.383C25.5248 435.954 24 433.313 24 430.455V414.297C24 411.439 25.5248 408.798 27.9999 407.369L41.9934 399.289ZM47.9911 406.306C46.7543 405.593 45.2314 405.593 43.9949 406.306L33.0793 412.603C31.841 413.318 31.0781 414.639 31.0781 416.068V428.683C31.0781 430.113 31.841 431.434 33.0793 432.148L43.9925 438.444C45.2299 439.158 46.754 439.157 47.9911 438.443L58.9217 432.133C60.1594 431.419 60.9219 430.098 60.9219 428.669V416.07C60.9219 414.64 60.1584 413.318 58.9193 412.604L47.9911 406.306Z" fill="#93C5FD"/>
<path fill-rule="evenodd" clip-rule="evenodd" d="M16.9934 357.144C19.4678 355.716 22.5163 355.715 24.9912 357.143L38.9978 365.224C41.4742 366.652 43 369.294 43 372.153V388.308C43 391.167 41.4742 393.809 38.9978 395.238L24.9912 403.318C22.5163 404.746 19.4678 404.746 16.9934 403.317L2.99992 395.238C0.52476 393.809 -1 391.168 -1 388.31L-1 372.152C-1 369.294 0.524754 366.653 2.99991 365.224L16.9934 357.144ZM22.9911 364.161C21.7543 363.448 20.2314 363.448 18.9949 364.161L8.07931 370.458C6.84103 371.173 6.07811 372.494 6.07811 373.923V386.538C6.07811 387.968 6.84103 389.289 8.07931 390.003L18.9925 396.299C20.2299 397.013 21.754 397.012 22.9911 396.298L33.9217 389.988C35.1594 389.274 35.9219 387.953 35.9219 386.524V373.925C35.9219 372.495 35.1584 371.173 33.9193 370.459L22.9911 364.161Z" fill="#93C5FD"/>
<path fill-rule="evenodd" clip-rule="evenodd" d="M-8.00662 315.072C-5.53219 313.643 -2.48366 313.643 -0.00875854 315.071L13.9978 323.151C16.4742 324.58 18 327.222 18 330.081V346.236C18 349.095 16.4742 351.736 13.9978 353.165L-0.00876045 361.246C-2.48367 362.674 -5.5322 362.673 -8.00663 361.245L-22.0001 353.165C-24.4752 351.736 -26 349.095 -26 346.237V330.079C-26 327.221 -24.4752 324.58 -22.0001 323.151L-8.00662 315.072ZM-2.0089 322.088C-3.24568 321.375 -4.76862 321.376 -6.00513 322.089L-16.9207 328.386C-18.159 329.1 -18.9219 330.421 -18.9219 331.851V344.466C-18.9219 345.895 -18.159 347.216 -16.9207 347.931L-6.00749 354.226C-4.77014 354.94 -3.24604 354.94 -2.00889 354.226L8.9217 347.916C10.1594 347.201 10.9219 345.881 10.9219 344.451V331.852C10.9219 330.422 10.1584 329.101 8.91933 328.387L-2.0089 322.088Z" fill="#93C5FD"/>
<path fill-rule="evenodd" clip-rule="evenodd" d="M-8.00662 399.217C-5.53219 397.788 -2.48366 397.788 -0.00875854 399.216L13.9978 407.296C16.4742 408.725 18 411.367 18 414.226V430.381C18 433.24 16.4742 435.882 13.9978 437.31L-0.00876045 445.391C-2.48367 446.819 -5.5322 446.818 -8.00663 445.39L-22.0001 437.31C-24.4752 435.881 -26 433.24 -26 430.382V414.224C-26 411.366 -24.4752 408.725 -22.0001 407.296L-8.00662 399.217ZM-2.0089 406.233C-3.24568 405.52 -4.76862 405.521 -6.00513 406.234L-16.9207 412.531C-18.159 413.245 -18.9219 414.566 -18.9219 415.996V428.611C-18.9219 430.04 -18.159 431.361 -16.9207 432.076L-6.00749 438.371C-4.77014 439.085 -3.24604 439.085 -2.00889 438.371L8.9217 432.061C10.1594 431.346 10.9219 430.026 10.9219 428.597V415.997C10.9219 414.567 10.1584 413.246 8.91933 412.532L-2.0089 406.233Z" fill="#93C5FD"/>
</g>
<g filter="url(#filter3_i_238_3670)">
<path fill-rule="evenodd" clip-rule="evenodd" d="M41.9934 145.144C44.4678 143.716 47.5163 143.715 49.9912 145.143L63.9978 153.224C66.4742 154.652 68 157.294 68 160.153V176.308C68 179.167 66.4742 181.809 63.9978 183.238L49.9912 191.318C47.5163 192.746 44.4678 192.746 41.9934 191.317L27.9999 183.238C25.5248 181.809 24 179.168 24 176.31V160.152C24 157.294 25.5248 154.653 27.9999 153.224L41.9934 145.144ZM47.9911 152.161C46.7543 151.448 45.2314 151.448 43.9949 152.161L33.0793 158.458C31.841 159.173 31.0781 160.494 31.0781 161.923V174.538C31.0781 175.968 31.841 177.289 33.0793 178.003L43.9925 184.299C45.2299 185.013 46.754 185.012 47.9911 184.298L58.9217 177.988C60.1594 177.274 60.9219 175.953 60.9219 174.524V161.925C60.9219 160.495 60.1584 159.173 58.9193 158.459L47.9911 152.161Z" fill="#93C5FD"/>
<path fill-rule="evenodd" clip-rule="evenodd" d="M41.9934 229.289C44.4678 227.861 47.5163 227.86 49.9912 229.288L63.9978 237.369C66.4742 238.797 68 241.439 68 244.298V260.453C68 263.312 66.4742 265.954 63.9978 267.383L49.9912 275.463C47.5163 276.891 44.4678 276.891 41.9934 275.462L27.9999 267.383C25.5248 265.954 24 263.313 24 260.455V244.297C24 241.439 25.5248 238.798 27.9999 237.369L41.9934 229.289ZM47.9911 236.306C46.7543 235.593 45.2314 235.593 43.9949 236.306L33.0793 242.603C31.841 243.318 31.0781 244.639 31.0781 246.068V258.683C31.0781 260.113 31.841 261.434 33.0793 262.148L43.9925 268.444C45.2299 269.158 46.754 269.157 47.9911 268.443L58.9217 262.133C60.1594 261.419 60.9219 260.098 60.9219 258.669V246.07C60.9219 244.64 60.1584 243.318 58.9193 242.604L47.9911 236.306Z" fill="#93C5FD"/>
<path fill-rule="evenodd" clip-rule="evenodd" d="M16.9934 187.144C19.4678 185.716 22.5163 185.715 24.9912 187.143L38.9978 195.224C41.4742 196.652 43 199.294 43 202.153V218.308C43 221.167 41.4742 223.809 38.9978 225.238L24.9912 233.318C22.5163 234.746 19.4678 234.746 16.9934 233.317L2.99992 225.238C0.52476 223.809 -1 221.168 -1 218.31L-1 202.152C-1 199.294 0.524754 196.653 2.99991 195.224L16.9934 187.144ZM22.9911 194.161C21.7543 193.448 20.2314 193.448 18.9949 194.161L8.07931 200.458C6.84103 201.173 6.07811 202.494 6.07811 203.923V216.538C6.07811 217.968 6.84103 219.289 8.07931 220.003L18.9925 226.299C20.2299 227.013 21.754 227.012 22.9911 226.298L33.9217 219.988C35.1594 219.274 35.9219 217.953 35.9219 216.524V203.925C35.9219 202.495 35.1584 201.173 33.9193 200.459L22.9911 194.161Z" fill="#93C5FD"/>
<path fill-rule="evenodd" clip-rule="evenodd" d="M-8.00662 145.072C-5.53219 143.643 -2.48366 143.643 -0.00875854 145.071L13.9978 153.151C16.4742 154.58 18 157.222 18 160.081V176.236C18 179.095 16.4742 181.736 13.9978 183.165L-0.00876045 191.246C-2.48367 192.674 -5.5322 192.673 -8.00663 191.245L-22.0001 183.165C-24.4752 181.736 -26 179.095 -26 176.237V160.079C-26 157.221 -24.4752 154.58 -22.0001 153.151L-8.00662 145.072ZM-2.0089 152.088C-3.24568 151.375 -4.76862 151.376 -6.00513 152.089L-16.9207 158.386C-18.159 159.1 -18.9219 160.421 -18.9219 161.851V174.466C-18.9219 175.895 -18.159 177.216 -16.9207 177.931L-6.00749 184.226C-4.77014 184.94 -3.24604 184.94 -2.00889 184.226L8.9217 177.916C10.1594 177.201 10.9219 175.881 10.9219 174.451V161.852C10.9219 160.422 10.1584 159.101 8.91933 158.387L-2.0089 152.088Z" fill="#93C5FD"/>
<path fill-rule="evenodd" clip-rule="evenodd" d="M-8.00662 229.217C-5.53219 227.788 -2.48366 227.788 -0.00875854 229.216L13.9978 237.296C16.4742 238.725 18 241.367 18 244.226V260.381C18 263.24 16.4742 265.882 13.9978 267.31L-0.00876045 275.391C-2.48367 276.819 -5.5322 276.818 -8.00663 275.39L-22.0001 267.31C-24.4752 265.881 -26 263.24 -26 260.382V244.224C-26 241.366 -24.4752 238.725 -22.0001 237.296L-8.00662 229.217ZM-2.0089 236.233C-3.24568 235.52 -4.76862 235.521 -6.00513 236.234L-16.9207 242.531C-18.159 243.245 -18.9219 244.566 -18.9219 245.996V258.611C-18.9219 260.04 -18.159 261.361 -16.9207 262.076L-6.00749 268.371C-4.77014 269.085 -3.24604 269.085 -2.00889 268.371L8.9217 262.061C10.1594 261.346 10.9219 260.026 10.9219 258.597V245.997C10.9219 244.567 10.1584 243.246 8.91933 242.532L-2.0089 236.233Z" fill="#93C5FD"/>
</g>
<g filter="url(#filter4_i_238_3670)">
<path fill-rule="evenodd" clip-rule="evenodd" d="M41.9934 60.1444C44.4678 58.7157 47.5163 58.7152 49.9912 60.143L63.9978 68.2237C66.4742 69.6525 68 72.2942 68 75.1532V91.3082C68 94.1673 66.4742 96.809 63.9978 98.2377L49.9912 106.318C47.5163 107.746 44.4678 107.746 41.9934 106.317L27.9999 98.2377C25.5248 96.8087 24 94.1677 24 91.3096V75.1519C24 72.2938 25.5248 69.6528 27.9999 68.2237L41.9934 60.1444ZM47.9911 67.1606C46.7543 66.4477 45.2314 66.448 43.9949 67.1614L33.0793 73.4584C31.841 74.1728 31.0781 75.4937 31.0781 76.9232V89.5382C31.0781 90.9678 31.841 92.2887 33.0793 93.003L43.9925 99.2987C45.2299 100.013 46.754 100.012 47.9911 99.2981L58.9217 92.9882C60.1594 92.2737 60.9219 90.9531 60.9219 89.524V76.9248C60.9219 75.4947 60.1584 74.1734 58.9193 73.4592L47.9911 67.1606Z" fill="#93C5FD"/>
<path fill-rule="evenodd" clip-rule="evenodd" d="M41.9934 144.289C44.4678 142.861 47.5163 142.86 49.9912 144.288L63.9978 152.369C66.4742 153.797 68 156.439 68 159.298V175.453C68 178.312 66.4742 180.954 63.9978 182.383L49.9912 190.463C47.5163 191.891 44.4678 191.891 41.9934 190.462L27.9999 182.383C25.5248 180.954 24 178.313 24 175.455V159.297C24 156.439 25.5248 153.798 27.9999 152.369L41.9934 144.289ZM47.9911 151.306C46.7543 150.593 45.2314 150.593 43.9949 151.306L33.0793 157.603C31.841 158.318 31.0781 159.639 31.0781 161.068V173.683C31.0781 175.113 31.841 176.434 33.0793 177.148L43.9925 183.444C45.2299 184.158 46.754 184.157 47.9911 183.443L58.9217 177.133C60.1594 176.419 60.9219 175.098 60.9219 173.669V161.07C60.9219 159.64 60.1584 158.318 58.9193 157.604L47.9911 151.306Z" fill="#93C5FD"/>
<path fill-rule="evenodd" clip-rule="evenodd" d="M16.9934 102.144C19.4678 100.716 22.5163 100.715 24.9912 102.143L38.9978 110.224C41.4742 111.652 43 114.294 43 117.153V133.308C43 136.167 41.4742 138.809 38.9978 140.238L24.9912 148.318C22.5163 149.746 19.4678 149.746 16.9934 148.317L2.99992 140.238C0.52476 138.809 -1 136.168 -1 133.31L-1 117.152C-1 114.294 0.524754 111.653 2.99991 110.224L16.9934 102.144ZM22.9911 109.161C21.7543 108.448 20.2314 108.448 18.9949 109.161L8.07931 115.458C6.84103 116.173 6.07811 117.494 6.07811 118.923V131.538C6.07811 132.968 6.84103 134.289 8.07931 135.003L18.9925 141.299C20.2299 142.013 21.754 142.012 22.9911 141.298L33.9217 134.988C35.1594 134.274 35.9219 132.953 35.9219 131.524V118.925C35.9219 117.495 35.1584 116.173 33.9193 115.459L22.9911 109.161Z" fill="#93C5FD"/>
<path fill-rule="evenodd" clip-rule="evenodd" d="M-8.00662 60.0718C-5.53219 58.6432 -2.48366 58.6427 -0.00875854 60.0705L13.9978 68.1512C16.4742 69.5799 18 72.2217 18 75.0807V91.2357C18 94.0948 16.4742 96.7365 13.9978 98.1652L-0.00876045 106.246C-2.48367 107.674 -5.5322 107.673 -8.00663 106.245L-22.0001 98.1652C-24.4752 96.7361 -26 94.0952 -26 91.2371V75.0794C-26 72.2213 -24.4752 69.5803 -22.0001 68.1512L-8.00662 60.0718ZM-2.0089 67.0881C-3.24568 66.3752 -4.76862 66.3755 -6.00513 67.0889L-16.9207 73.3859C-18.159 74.1003 -18.9219 75.4212 -18.9219 76.8507V89.4657C-18.9219 90.8953 -18.159 92.2162 -16.9207 92.9305L-6.00749 99.2262C-4.77014 99.94 -3.24604 99.9398 -2.00889 99.2256L8.9217 92.9157C10.1594 92.2012 10.9219 90.8806 10.9219 89.4515V76.8523C10.9219 75.4222 10.1584 74.1009 8.91933 73.3867L-2.0089 67.0881Z" fill="#93C5FD"/>
<path fill-rule="evenodd" clip-rule="evenodd" d="M-8.00662 144.217C-5.53219 142.788 -2.48366 142.788 -0.00875854 144.216L13.9978 152.296C16.4742 153.725 18 156.367 18 159.226V175.381C18 178.24 16.4742 180.882 13.9978 182.31L-0.00876045 190.391C-2.48367 191.819 -5.5322 191.818 -8.00663 190.39L-22.0001 182.31C-24.4752 180.881 -26 178.24 -26 175.382V159.224C-26 156.366 -24.4752 153.725 -22.0001 152.296L-8.00662 144.217ZM-2.0089 151.233C-3.24568 150.52 -4.76862 150.521 -6.00513 151.234L-16.9207 157.531C-18.159 158.245 -18.9219 159.566 -18.9219 160.996V173.611C-18.9219 175.04 -18.159 176.361 -16.9207 177.076L-6.00749 183.371C-4.77014 184.085 -3.24604 184.085 -2.00889 183.371L8.9217 177.061C10.1594 176.346 10.9219 175.026 10.9219 173.597V160.997C10.9219 159.567 10.1584 158.246 8.91933 157.532L-2.0089 151.233Z" fill="#93C5FD"/>
</g>
<g filter="url(#filter5_i_238_3670)">
<path fill-rule="evenodd" clip-rule="evenodd" d="M41.9934 -24.8556C44.4678 -26.2843 47.5163 -26.2848 49.9912 -24.857L63.9978 -16.7763C66.4742 -15.3475 68 -12.7058 68 -9.84679V6.30825C68 9.16729 66.4742 11.809 63.9978 13.2377L49.9912 21.3184C47.5163 22.7463 44.4678 22.7457 41.9934 21.3171L27.9999 13.2377C25.5248 11.8087 24 9.16767 24 6.30958V-9.84813C24 -12.7062 25.5248 -15.3472 27.9999 -16.7763L41.9934 -24.8556ZM47.9911 -17.8394C46.7543 -18.5523 45.2314 -18.552 43.9949 -17.8386L33.0793 -11.5416C31.841 -10.8272 31.0781 -9.50633 31.0781 -8.07678V4.53822C31.0781 5.96778 31.841 7.28868 33.0793 8.00303L43.9925 14.2987C45.2299 15.0125 46.754 15.0123 47.9911 14.2981L58.9217 7.98821C60.1594 7.27371 60.9219 5.95314 60.9219 4.52399V-8.0752C60.9219 -9.50532 60.1584 -10.8266 58.9193 -11.5408L47.9911 -17.8394Z" fill="#93C5FD"/>
<path fill-rule="evenodd" clip-rule="evenodd" d="M41.9934 59.2894C44.4678 57.8607 47.5163 57.8602 49.9912 59.288L63.9978 67.3687C66.4742 68.7975 68 71.4392 68 74.2982V90.4533C68 93.3123 66.4742 95.954 63.9978 97.3828L49.9912 105.463C47.5163 106.891 44.4678 106.891 41.9934 105.462L27.9999 97.3828C25.5248 95.9537 24 93.3127 24 90.4546V74.2969C24 71.4388 25.5248 68.7978 27.9999 67.3687L41.9934 59.2894ZM47.9911 66.3056C46.7543 65.5928 45.2314 65.5931 43.9949 66.3064L33.0793 72.6034C31.841 73.3178 31.0781 74.6387 31.0781 76.0682V88.6832C31.0781 90.1128 31.841 91.4337 33.0793 92.148L43.9925 98.4437C45.2299 99.1575 46.754 99.1573 47.9911 98.4432L58.9217 92.1332C60.1594 91.4187 60.9219 90.0982 60.9219 88.669V76.0698C60.9219 74.6397 60.1584 73.3184 58.9193 72.6042L47.9911 66.3056Z" fill="#93C5FD"/>
<path fill-rule="evenodd" clip-rule="evenodd" d="M16.9934 17.1444C19.4678 15.7157 22.5163 15.7152 24.9912 17.143L38.9978 25.2237C41.4742 26.6525 43 29.2942 43 32.1532V48.3082C43 51.1673 41.4742 53.809 38.9978 55.2377L24.9912 63.3184C22.5163 64.7463 19.4678 64.7457 16.9934 63.3171L2.99992 55.2377C0.52476 53.8087 -1 51.1677 -1 48.3096L-1 32.1519C-1 29.2938 0.524754 26.6528 2.99991 25.2237L16.9934 17.1444ZM22.9911 24.1606C21.7543 23.4477 20.2314 23.448 18.9949 24.1614L8.07931 30.4584C6.84103 31.1728 6.07811 32.4937 6.07811 33.9232V46.5382C6.07811 47.9678 6.84103 49.2887 8.07931 50.003L18.9925 56.2987C20.2299 57.0125 21.754 57.0123 22.9911 56.2981L33.9217 49.9882C35.1594 49.2737 35.9219 47.9531 35.9219 46.524V33.9248C35.9219 32.4947 35.1584 31.1734 33.9193 30.4592L22.9911 24.1606Z" fill="#93C5FD"/>
<path fill-rule="evenodd" clip-rule="evenodd" d="M-8.00662 -24.9282C-5.53219 -26.3568 -2.48366 -26.3573 -0.00875854 -24.9295L13.9978 -16.8488C16.4742 -15.4201 18 -12.7783 18 -9.9193V6.23574C18 9.09478 16.4742 11.7365 13.9978 13.1652L-0.00876045 21.2459C-2.48367 22.6737 -5.5322 22.6732 -8.00663 21.2446L-22.0001 13.1652C-24.4752 11.7361 -26 9.09516 -26 6.23707V-9.92064C-26 -12.7787 -24.4752 -15.4197 -22.0001 -16.8488L-8.00662 -24.9282ZM-2.0089 -17.9119C-3.24568 -18.6248 -4.76862 -18.6245 -6.00513 -17.9111L-16.9207 -11.6141C-18.159 -10.8997 -18.9219 -9.57884 -18.9219 -8.14929V4.46571C-18.9219 5.89527 -18.159 7.21617 -16.9207 7.93052L-6.00749 14.2262C-4.77014 14.94 -3.24604 14.9398 -2.00889 14.2256L8.9217 7.9157C10.1594 7.2012 10.9219 5.88063 10.9219 4.45148V-8.14771C10.9219 -9.57783 10.1584 -10.8991 8.91933 -11.6133L-2.0089 -17.9119Z" fill="#93C5FD"/>
<path fill-rule="evenodd" clip-rule="evenodd" d="M-8.00662 59.2169C-5.53219 57.7882 -2.48366 57.7877 -0.00875854 59.2155L13.9978 67.2962C16.4742 68.725 18 71.3667 18 74.2257V90.3808C18 93.2398 16.4742 95.8815 13.9978 97.3102L-0.00876045 105.391C-2.48367 106.819 -5.5322 106.818 -8.00663 105.39L-22.0001 97.3102C-24.4752 95.8812 -26 93.2402 -26 90.3821V74.2244C-26 71.3663 -24.4752 68.7253 -22.0001 67.2962L-8.00662 59.2169ZM-2.0089 66.2331C-3.24568 65.5203 -4.76862 65.5206 -6.00513 66.2339L-16.9207 72.5309C-18.159 73.2453 -18.9219 74.5662 -18.9219 75.9957V88.6107C-18.9219 90.0403 -18.159 91.3612 -16.9207 92.0755L-6.00749 98.3712C-4.77014 99.085 -3.24604 99.0848 -2.00889 98.3707L8.9217 92.0607C10.1594 91.3462 10.9219 90.0256 10.9219 88.5965V75.9973C10.9219 74.5672 10.1584 73.2459 8.91933 72.5317L-2.0089 66.2331Z" fill="#93C5FD"/>
</g>
</g>
<defs>
<filter id="filter0_i_238_3670" x="-26" y="399" width="94" height="136.534" filterUnits="userSpaceOnUse" color-interpolation-filters="sRGB">
<feFlood flood-opacity="0" result="BackgroundImageFix"/>
<feBlend mode="normal" in="SourceGraphic" in2="BackgroundImageFix" result="shape"/>
<feColorMatrix in="SourceAlpha" type="matrix" values="0 0 0 0 0 0 0 0 0 0 0 0 0 0 0 0 0 0 127 0" result="hardAlpha"/>
<feOffset dy="4"/>
<feGaussianBlur stdDeviation="2"/>
<feComposite in2="hardAlpha" operator="arithmetic" k2="-1" k3="1"/>
<feColorMatrix type="matrix" values="0 0 0 0 0.215686 0 0 0 0 0.254902 0 0 0 0 0.317647 0 0 0 0.25 0"/>
<feBlend mode="normal" in2="shape" result="effect1_innerShadow_238_3670"/>
</filter>
<filter id="filter1_i_238_3670" x="-26" y="229" width="94" height="136.534" filterUnits="userSpaceOnUse" color-interpolation-filters="sRGB">
<feFlood flood-opacity="0" result="BackgroundImageFix"/>
<feBlend mode="normal" in="SourceGraphic" in2="BackgroundImageFix" result="shape"/>
<feColorMatrix in="SourceAlpha" type="matrix" values="0 0 0 0 0 0 0 0 0 0 0 0 0 0 0 0 0 0 127 0" result="hardAlpha"/>
<feOffset dy="4"/>
<feGaussianBlur stdDeviation="2"/>
<feComposite in2="hardAlpha" operator="arithmetic" k2="-1" k3="1"/>
<feColorMatrix type="matrix" values="0 0 0 0 0.215686 0 0 0 0 0.254902 0 0 0 0 0.317647 0 0 0 0.25 0"/>
<feBlend mode="normal" in2="shape" result="effect1_innerShadow_238_3670"/>
</filter>
<filter id="filter2_i_238_3670" x="-26" y="314" width="94" height="136.534" filterUnits="userSpaceOnUse" color-interpolation-filters="sRGB">
<feFlood flood-opacity="0" result="BackgroundImageFix"/>
<feBlend mode="normal" in="SourceGraphic" in2="BackgroundImageFix" result="shape"/>
<feColorMatrix in="SourceAlpha" type="matrix" values="0 0 0 0 0 0 0 0 0 0 0 0 0 0 0 0 0 0 127 0" result="hardAlpha"/>
<feOffset dy="4"/>
<feGaussianBlur stdDeviation="2"/>
<feComposite in2="hardAlpha" operator="arithmetic" k2="-1" k3="1"/>
<feColorMatrix type="matrix" values="0 0 0 0 0.215686 0 0 0 0 0.254902 0 0 0 0 0.317647 0 0 0 0.25 0"/>
<feBlend mode="normal" in2="shape" result="effect1_innerShadow_238_3670"/>
</filter>
<filter id="filter3_i_238_3670" x="-26" y="144" width="94" height="136.534" filterUnits="userSpaceOnUse" color-interpolation-filters="sRGB">
<feFlood flood-opacity="0" result="BackgroundImageFix"/>
<feBlend mode="normal" in="SourceGraphic" in2="BackgroundImageFix" result="shape"/>
<feColorMatrix in="SourceAlpha" type="matrix" values="0 0 0 0 0 0 0 0 0 0 0 0 0 0 0 0 0 0 127 0" result="hardAlpha"/>
<feOffset dy="4"/>
<feGaussianBlur stdDeviation="2"/>
<feComposite in2="hardAlpha" operator="arithmetic" k2="-1" k3="1"/>
<feColorMatrix type="matrix" values="0 0 0 0 0.215686 0 0 0 0 0.254902 0 0 0 0 0.317647 0 0 0 0.25 0"/>
<feBlend mode="normal" in2="shape" result="effect1_innerShadow_238_3670"/>
</filter>
<filter id="filter4_i_238_3670" x="-26" y="59" width="94" height="136.534" filterUnits="userSpaceOnUse" color-interpolation-filters="sRGB">
<feFlood flood-opacity="0" result="BackgroundImageFix"/>
<feBlend mode="normal" in="SourceGraphic" in2="BackgroundImageFix" result="shape"/>
<feColorMatrix in="SourceAlpha" type="matrix" values="0 0 0 0 0 0 0 0 0 0 0 0 0 0 0 0 0 0 127 0" result="hardAlpha"/>
<feOffset dy="4"/>
<feGaussianBlur stdDeviation="2"/>
<feComposite in2="hardAlpha" operator="arithmetic" k2="-1" k3="1"/>
<feColorMatrix type="matrix" values="0 0 0 0 0.215686 0 0 0 0 0.254902 0 0 0 0 0.317647 0 0 0 0.25 0"/>
<feBlend mode="normal" in2="shape" result="effect1_innerShadow_238_3670"/>
</filter>
<filter id="filter5_i_238_3670" x="-26" y="-26" width="94" height="136.534" filterUnits="userSpaceOnUse" color-interpolation-filters="sRGB">
<feFlood flood-opacity="0" result="BackgroundImageFix"/>
<feBlend mode="normal" in="SourceGraphic" in2="BackgroundImageFix" result="shape"/>
<feColorMatrix in="SourceAlpha" type="matrix" values="0 0 0 0 0 0 0 0 0 0 0 0 0 0 0 0 0 0 127 0" result="hardAlpha"/>
<feOffset dy="4"/>
<feGaussianBlur stdDeviation="2"/>
<feComposite in2="hardAlpha" operator="arithmetic" k2="-1" k3="1"/>
<feColorMatrix type="matrix" values="0 0 0 0 0.215686 0 0 0 0 0.254902 0 0 0 0 0.317647 0 0 0 0.25 0"/>
<feBlend mode="normal" in2="shape" result="effect1_innerShadow_238_3670"/>
</filter>
<clipPath id="clip0_238_3670">
<path d="M0 32C0 14.3269 14.3269 0 32 0H240V506H32C14.3269 506 0 491.673 0 474V32Z" fill="white"/>
</clipPath>
</defs>
</svg>
