<svg width="100" height="100" viewBox="0 0 100 100" fill="none" xmlns="http://www.w3.org/2000/svg">
<mask id="mask0_403_578" style="mask-type:alpha" maskUnits="userSpaceOnUse" x="0" y="0" width="100" height="100">
<rect width="100" height="100" rx="50" fill="#D9D9D9"/>
</mask>
<g mask="url(#mask0_403_578)">
<mask id="mask1_403_578" style="mask-type:alpha" maskUnits="userSpaceOnUse" x="0" y="0" width="356" height="200">
<rect width="355.729" height="200" fill="#D9D9D9"/>
</mask>
<g mask="url(#mask1_403_578)">
<rect width="355.729" height="200" fill="#FBFBFB"/>
<path fill-rule="evenodd" clip-rule="evenodd" d="M175.74 143.749C197.247 122.459 190.487 75.8791 160.642 39.7108C130.796 3.54251 89.1662 -8.51841 67.6588 12.772C46.1515 34.0625 52.911 80.642 82.7566 116.81C112.602 152.979 154.232 165.04 175.74 143.749ZM172.836 130.344C187.74 116.232 180.232 80.0515 156.065 49.5321C131.899 19.0126 100.226 5.71158 85.3217 19.8234C70.4174 33.9351 77.9258 70.1159 102.092 100.635C126.258 131.155 157.931 144.456 172.836 130.344Z" fill="#1E1E1E"/>
<path fill-rule="evenodd" clip-rule="evenodd" d="M9.75786 37.0563C16.845 34.3062 18.3513 21.1529 13.1222 7.67753C10.5303 0.998049 6.77001 -4.50678 2.77333 -8.02537C14.4165 -10.6923 26.8741 -3.77672 31.6695 8.58103C36.8985 22.0564 31.0367 36.8999 18.5767 41.7349C6.11673 46.5699 -8.22305 39.5656 -13.4521 26.0902C-15.5044 20.8013 -15.8482 15.3017 -14.7552 10.2791C-14.2418 12.6786 -13.5066 15.1521 -12.5425 17.6366C-7.3135 31.112 2.67073 39.8065 9.75786 37.0563Z" fill="#1E1E1E"/>
<path fill-rule="evenodd" clip-rule="evenodd" d="M34.9299 127.852C52.3915 116.129 56.0542 90.997 43.1108 71.7178C30.1674 52.4386 5.51923 46.3133 -11.9424 58.0364C-23.1504 65.5611 -28.6734 78.6104 -27.7689 92.0903C-26.8739 77.0536 -11.5318 64.7923 7.58804 64.2914C27.551 63.7683 44.0727 76.2639 44.4902 92.2009C44.9078 108.138 29.0631 121.481 9.10009 122.005C-6.28298 122.408 -19.6226 115.08 -25.1248 104.405C-23.887 107.759 -22.2238 111.042 -20.1232 114.171C-7.17983 133.45 17.4683 139.576 34.9299 127.852Z" fill="#1E1E1E"/>
</g>
<path d="M47.2556 84.81C43.8356 84.81 40.4156 84.69 36.9956 84.45C33.6356 84.27 30.1256 83.79 26.4656 83.01V22.53C29.3456 21.99 32.4956 21.6 35.9156 21.36C39.3356 21.06 42.5156 20.91 45.4556 20.91C49.4156 20.91 53.0456 21.21 56.3456 21.81C59.7056 22.35 62.5856 23.31 64.9856 24.69C67.3856 26.07 69.2456 27.9 70.5656 30.18C71.9456 32.4 72.6356 35.16 72.6356 38.46C72.6356 43.44 70.2356 47.37 65.4356 50.25C69.3956 51.75 72.0956 53.79 73.5356 56.37C74.9756 58.95 75.6956 61.86 75.6956 65.1C75.6956 71.64 73.2956 76.56 68.4956 79.86C63.7556 83.16 56.6756 84.81 47.2556 84.81ZM40.1456 56.82V72.93C41.1656 73.05 42.2756 73.14 43.4756 73.2C44.6756 73.26 45.9956 73.29 47.4356 73.29C51.6356 73.29 55.0256 72.69 57.6056 71.49C60.1856 70.29 61.4756 68.07 61.4756 64.83C61.4756 61.95 60.3956 59.91 58.2356 58.71C56.0756 57.45 52.9856 56.82 48.9656 56.82H40.1456ZM40.1456 46.11H46.9856C51.3056 46.11 54.3956 45.57 56.2556 44.49C58.1156 43.35 59.0456 41.55 59.0456 39.09C59.0456 36.57 58.0856 34.8 56.1656 33.78C54.2456 32.76 51.4256 32.25 47.7056 32.25C46.5056 32.25 45.2156 32.28 43.8356 32.34C42.4556 32.34 41.2256 32.4 40.1456 32.52V46.11Z" fill="#B2F7EF"/>
<path d="M36.9956 84.45L37.1356 82.4549L37.1191 82.4537L37.1026 82.4529L36.9956 84.45ZM26.4656 83.01H24.4656V84.6287L26.0488 84.9661L26.4656 83.01ZM26.4656 22.53L26.097 20.5643L24.4656 20.8701V22.53H26.4656ZM35.9156 21.36L36.0556 23.3551L36.073 23.3539L36.0904 23.3523L35.9156 21.36ZM56.3456 21.81L55.9879 23.7777L56.008 23.7814L56.0283 23.7847L56.3456 21.81ZM64.9856 24.69L63.9887 26.4238L63.9887 26.4238L64.9856 24.69ZM70.5656 30.18L68.8348 31.1821L68.8505 31.2092L68.8671 31.2359L70.5656 30.18ZM65.4356 50.25L64.4066 48.535L60.8677 50.6584L64.7272 52.1203L65.4356 50.25ZM68.4956 79.86L67.3626 78.2119L67.3529 78.2186L68.4956 79.86ZM40.1456 56.82V54.82H38.1456V56.82H40.1456ZM40.1456 72.93H38.1456V74.7085L39.9119 74.9163L40.1456 72.93ZM43.4756 73.2L43.5755 71.2025L43.5755 71.2025L43.4756 73.2ZM57.6056 71.49L56.7622 69.6766L57.6056 71.49ZM58.2356 58.71L57.2279 60.4376L57.246 60.4481L57.2643 60.4583L58.2356 58.71ZM40.1456 46.11H38.1456V48.11H40.1456V46.11ZM56.2556 44.49L57.2599 46.2196L57.2805 46.2076L57.3008 46.1952L56.2556 44.49ZM43.8356 32.34V34.34H43.8791L43.9225 34.3381L43.8356 32.34ZM40.1456 32.52L39.9248 30.5322L38.1456 30.7299V32.52H40.1456ZM47.2556 82.81C43.8825 82.81 40.5091 82.6916 37.1356 82.4549L36.8556 86.4451C40.3221 86.6884 43.7888 86.81 47.2556 86.81V82.81ZM37.1026 82.4529C33.8576 82.279 30.4516 81.8146 26.8825 81.0539L26.0488 84.9661C29.7996 85.7654 33.4136 86.261 36.8886 86.4471L37.1026 82.4529ZM28.4656 83.01V22.53H24.4656V83.01H28.4656ZM26.8342 24.4957C29.6272 23.972 32.6998 23.5906 36.0556 23.3551L35.7756 19.3649C32.2914 19.6094 29.064 20.0079 26.097 20.5643L26.8342 24.4957ZM36.0904 23.3523C39.4616 23.0566 42.5827 22.91 45.4556 22.91V18.91C42.4486 18.91 39.2096 19.0634 35.7409 19.3676L36.0904 23.3523ZM45.4556 22.91C49.3165 22.91 52.8248 23.2026 55.9879 23.7777L56.7034 19.8423C53.2665 19.2174 49.5148 18.91 45.4556 18.91V22.91ZM56.0283 23.7847C59.202 24.2947 61.8408 25.1888 63.9887 26.4238L65.9826 22.9562C63.3305 21.4312 60.2092 20.4053 56.663 19.8353L56.0283 23.7847ZM63.9887 26.4238C66.1001 27.6379 67.7 29.2219 68.8348 31.1821L72.2965 29.1779C70.7913 26.5781 68.6711 24.5021 65.9826 22.9562L63.9887 26.4238ZM68.8671 31.2359C70.0044 33.0655 70.6356 35.4361 70.6356 38.46H74.6356C74.6356 34.8839 73.8869 31.7345 72.2642 29.1241L68.8671 31.2359ZM70.6356 38.46C70.6356 42.6392 68.6936 45.9628 64.4066 48.535L66.4646 51.965C71.7777 48.7772 74.6356 44.2408 74.6356 38.46H70.6356ZM64.7272 52.1203C68.4338 53.5244 70.6606 55.3226 71.7892 57.3447L75.282 55.3953C73.5307 52.2574 70.3574 49.9756 66.1441 48.3797L64.7272 52.1203ZM71.7892 57.3447C73.0472 59.5986 73.6956 62.1674 73.6956 65.1H77.6956C77.6956 61.5526 76.904 58.3014 75.282 55.3953L71.7892 57.3447ZM73.6956 65.1C73.6956 71.0757 71.5465 75.3354 67.3626 78.2119L69.6287 81.5081C75.0447 77.7846 77.6956 72.2043 77.6956 65.1H73.6956ZM67.3529 78.2186C63.0998 81.1797 56.5019 82.81 47.2556 82.81V86.81C56.8493 86.81 64.4115 85.1403 69.6384 81.5014L67.3529 78.2186ZM38.1456 56.82V72.93H42.1456V56.82H38.1456ZM39.9119 74.9163C40.9831 75.0423 42.1383 75.1356 43.3758 75.1975L43.5755 71.2025C42.4129 71.1444 41.3481 71.0577 40.3793 70.9437L39.9119 74.9163ZM43.3758 75.1975C44.6148 75.2595 45.9686 75.29 47.4356 75.29V71.29C46.0226 71.29 44.7365 71.2605 43.5755 71.2025L43.3758 75.1975ZM47.4356 75.29C51.7998 75.29 55.5098 74.6706 58.4491 73.3034L56.7622 69.6766C54.5415 70.7094 51.4714 71.29 47.4356 71.29V75.29ZM58.4491 73.3034C60.0682 72.5504 61.3647 71.4316 62.2374 69.9298C63.1005 68.4445 63.4756 66.7119 63.4756 64.83H59.4756C59.4756 66.1881 59.2058 67.1855 58.7789 67.9202C58.3615 68.6384 57.7231 69.2296 56.7622 69.6766L58.4491 73.3034ZM63.4756 64.83C63.4756 61.368 62.1187 58.5794 59.2069 56.9617L57.2643 60.4583C58.6725 61.2406 59.4756 62.532 59.4756 64.83H63.4756ZM59.2434 56.9824C56.6449 55.4667 53.1459 54.82 48.9656 54.82V58.82C52.8254 58.82 55.5063 59.4333 57.2279 60.4376L59.2434 56.9824ZM48.9656 54.82H40.1456V58.82H48.9656V54.82ZM40.1456 48.11H46.9856V44.11H40.1456V48.11ZM46.9856 48.11C51.3686 48.11 54.9161 47.5805 57.2599 46.2196L55.2514 42.7604C53.8752 43.5595 51.2427 44.11 46.9856 44.11V48.11ZM57.3008 46.1952C59.8389 44.6396 61.0456 42.1401 61.0456 39.09H57.0456C57.0456 40.9599 56.3924 42.0604 55.2105 42.7848L57.3008 46.1952ZM61.0456 39.09C61.0456 35.973 59.7944 33.4431 57.1039 32.0138L55.2273 35.5462C56.3769 36.1569 57.0456 37.167 57.0456 39.09H61.0456ZM57.1039 32.0138C54.7575 30.7672 51.5501 30.25 47.7056 30.25V34.25C51.3011 34.25 53.7338 34.7528 55.2273 35.5462L57.1039 32.0138ZM47.7056 30.25C46.4727 30.25 45.1535 30.2808 43.7487 30.3419L43.9225 34.3381C45.2778 34.2792 46.5385 34.25 47.7056 34.25V30.25ZM43.8356 30.34C42.4005 30.34 41.0945 30.4023 39.9248 30.5322L40.3665 34.5078C41.3567 34.3977 42.5108 34.34 43.8356 34.34V30.34ZM38.1456 32.52V46.11H42.1456V32.52H38.1456Z" fill="black"/>
</g>
</svg>
