<svg width="40" height="40" viewBox="0 0 40 40" fill="none" xmlns="http://www.w3.org/2000/svg">
<path d="M35.104 20.0081H40C40 8.96358 31.0401 0 20.0001 0C8.96002 0 0 8.96358 0 20.0081H4.89601C4.89601 22.7131 2.70401 24.906 0 24.906V27.547C4.16001 27.547 7.55201 24.1537 7.55201 19.9919H11.136C11.136 26.1384 6.14401 31.1324 0 31.1324V33.7736C7.60002 33.7736 13.776 27.5951 13.776 19.9919H17.36C17.36 29.5639 9.56801 37.3589 0 37.3589V40C11.024 40 20.0001 31.0204 20.0001 19.9919C20.0001 31.0204 28.9761 40 40 40V37.3589C30.432 37.3589 22.64 29.5639 22.64 19.9919H26.224C26.224 27.5951 32.4 33.7736 40 33.7736V31.1324C33.856 31.1324 28.8641 26.1384 28.8641 19.9919H32.448C32.448 24.1537 35.8401 27.547 40 27.547V24.906C37.312 24.906 35.104 22.6971 35.104 20.0081Z" fill="black"/>
</svg>
