<svg width="24" height="24" viewBox="0 0 24 24" fill="none" xmlns="http://www.w3.org/2000/svg">
<mask id="mask0_293_1602" style="mask-type:alpha" maskUnits="userSpaceOnUse" x="0" y="0" width="24" height="24">
<rect width="24" height="24" fill="#D9D9D9"/>
</mask>
<g mask="url(#mask0_293_1602)">
<path fill-rule="evenodd" clip-rule="evenodd" d="M20.5789 21.4737L11.7368 24L2.89474 21.4737L1 0H22.4737C21.8421 7.15707 21.2105 14.3166 20.5789 21.4737ZM21.0946 1.26316H2.37911L4.07648 20.4967L11.7368 22.6875L19.3972 20.4967L21.0946 1.26316ZM6.55839 13.8947H9.0847L9.14638 15.4737L11.7368 16.3569L14.3273 15.4737L14.5148 12.6316H8.95888L8.83059 10.1053H14.6431L14.8306 7.57895H6.11678L5.92681 5.05263H17.4852L17.1694 10.1053L16.7253 17.3684L11.7368 19.0115L6.74836 17.3684L6.55839 13.8947Z" fill="#93C5FD"/>
</g>
</svg>
