<svg width="24" height="24" viewBox="0 0 24 24" fill="none" xmlns="http://www.w3.org/2000/svg">
<path d="M23.5476 10.9306L13.0684 0.452623C12.4654 -0.150874 11.4867 -0.150874 10.883 0.452623L8.70708 2.62874L11.4671 5.3888C12.1088 5.17216 12.8442 5.31741 13.3555 5.82874C13.8694 6.34326 14.0136 7.08499 13.7915 7.72878L16.4517 10.389C17.0953 10.1672 17.8378 10.3105 18.3517 10.8253C19.0702 11.5436 19.0702 12.7075 18.3517 13.4259C17.6332 14.1446 16.4693 14.1446 15.7503 13.4259C15.2101 12.8852 15.0765 12.0915 15.3501 11.4259L12.8691 8.94492L12.8689 15.4735C13.0441 15.5602 13.2094 15.6759 13.3554 15.8213C14.0736 16.5394 14.0736 17.7031 13.3554 18.4225C12.6369 19.1406 11.4725 19.1406 10.7548 18.4225C10.0364 17.7032 10.0364 16.5395 10.7548 15.8213C10.9323 15.644 11.1377 15.5099 11.3569 15.42V8.83077C11.1376 8.74124 10.9324 8.6081 10.7546 8.42946C10.2105 7.88575 10.0795 7.08714 10.3585 6.41895L7.63764 3.69764L0.452887 10.8822C-0.1508 11.4862 -0.1508 12.4649 0.452887 13.0684L10.9315 23.5464C11.5348 24.1499 12.5132 24.1499 13.1173 23.5464L23.5475 13.1179C24.151 12.5141 24.151 11.5351 23.5475 10.9315" fill="#93C5FD"/>
</svg>
