<svg width="16" height="16" viewBox="0 0 16 16" fill="none" xmlns="http://www.w3.org/2000/svg">
<path d="M1.01637 0C0.459821 0 0 0.459821 0 1.01637V14.9836C0 15.5402 0.459821 16 1.01637 16H14.9836C15.5402 16 16 15.5417 16 14.9836V1.01637C16 0.459821 15.5417 0 14.9836 0H1.01637ZM1.01637 0.761905H14.9836C15.125 0.761905 15.2381 0.875 15.2381 1.01637V14.9836C15.2381 15.125 15.125 15.2381 14.9836 15.2381H1.01637C0.875 15.2381 0.761905 15.125 0.761905 14.9836V1.01637C0.761905 0.875 0.875 0.761905 1.01637 0.761905ZM7.2381 7.2381V12.0283C7.2381 12.7634 6.95982 12.9524 6.47619 12.9524C5.97024 12.9524 5.61905 12.6369 5.3869 12.2277L4.19048 12.9524C4.5372 13.686 5.3869 14.4762 6.56548 14.4762C7.86905 14.4762 8.7619 13.7827 8.7619 12.2604V7.2381H7.2381ZM11.9821 7.2381C10.6845 7.2381 9.85268 8.06845 9.85268 9.15923C9.85268 10.3423 10.5506 10.9018 11.5997 11.3482L11.9628 11.5045C12.625 11.7946 12.9524 11.9717 12.9524 12.4702C12.9524 12.8854 12.6369 13.186 12.0342 13.186C11.317 13.186 10.9777 12.6994 10.6667 12.1905L9.52381 12.9524C9.95089 13.7961 10.7173 14.4762 12.067 14.4762C13.4479 14.4762 14.4762 13.7589 14.4762 12.4509C14.4762 11.2366 13.7798 10.6964 12.5432 10.1667L12.1801 10.0119C11.5565 9.74107 11.2857 9.56548 11.2857 9.12946C11.2857 8.77679 11.5565 8.50595 11.9821 8.50595C12.4003 8.50595 12.6682 8.68304 12.9167 9.12946L14.0491 8.40327C13.5714 7.55952 12.9062 7.2381 11.9821 7.2381Z" fill="#93C5FD"/>
</svg>
