<svg width="24" height="24" viewBox="0 0 24 24" fill="none" xmlns="http://www.w3.org/2000/svg">
<mask id="mask0_293_1606" style="mask-type:alpha" maskUnits="userSpaceOnUse" x="0" y="0" width="24" height="24">
<rect width="24" height="24" fill="#D9D9D9"/>
</mask>
<g mask="url(#mask0_293_1606)">
<path fill-rule="evenodd" clip-rule="evenodd" d="M6 5H5.5V7H6V12H7H8H15V16H9V15H6L7 18H9V18.5L11.5 19L15 18.5V18H17V12H17.7225L18 10H8V7H18L18.5 5H8H6Z" fill="#7FFF00"/>
<path d="M1.42712 0C1.15815 0.0489027 0.972728 0.299529 1.00329 0.570531L2.84529 21.1423C2.86974 21.3521 3.01849 21.5253 3.22021 21.5824L11.5663 23.9786C11.662 24.0071 11.7639 24.0071 11.8597 23.9786L20.2057 21.5824C20.4075 21.5253 20.5562 21.3521 20.5807 21.1423L22.4227 0.570531C22.4369 0.423823 22.388 0.279153 22.2882 0.169122C22.1883 0.0611286 22.0477 0 21.901 0H1.52492C1.50862 0 1.49232 0 1.47602 0C1.45972 0 1.44342 0 1.42712 0ZM2.09545 1.04326H21.3305L19.5863 20.6858L11.713 22.919L3.83965 20.6858L2.09545 1.04326ZM5.20892 4.20563C4.93996 4.25453 4.75453 4.50516 4.7851 4.77616L5.48604 12.4865C5.50234 12.7554 5.7224 12.9674 5.99136 12.9755H14.3211L14.0929 15.3717L11.7293 15.8771L9.33304 15.3717L9.25154 14.5241C9.23524 14.249 9.00499 14.0351 8.72991 14.0351H6.18697C6.04027 14.0351 5.89967 14.0962 5.79983 14.2042C5.69998 14.3142 5.65108 14.4589 5.66534 14.6056L5.95876 17.8006C5.97506 18.0104 6.11566 18.1918 6.31738 18.257L11.5011 19.8382L11.5663 19.8545C11.662 19.883 11.7639 19.883 11.8597 19.8545L17.1086 18.257C17.3164 18.1979 17.4651 18.0166 17.4835 17.8006L18.1681 9.95984C18.1824 9.81517 18.1355 9.67254 18.0398 9.56455C17.944 9.45655 17.8075 9.39339 17.6628 9.38931H8.77881L8.64841 7.77552H17.891C18.162 7.77756 18.3882 7.57176 18.4126 7.3028L18.6408 4.77616C18.6551 4.62945 18.6062 4.48478 18.5064 4.37475C18.4065 4.26676 18.2659 4.20563 18.1192 4.20563H5.30673C5.27412 4.20155 5.24152 4.20155 5.20892 4.20563ZM5.87726 5.24889H17.5487L17.4183 6.73227H8.07788C7.93117 6.73227 7.79057 6.79339 7.69073 6.90139C7.59089 7.01142 7.54198 7.15609 7.55625 7.3028L7.80076 9.95984C7.82521 10.2227 8.04324 10.4265 8.30609 10.4326H17.0923L16.4728 17.3604L11.713 18.7949L6.95311 17.3604L6.7575 15.0783H8.25719L8.32239 15.8445C8.33869 16.0747 8.50374 16.2662 8.72991 16.3172L11.6315 16.9203C11.7007 16.9346 11.7741 16.9346 11.8434 16.9203L14.696 16.3172C14.9222 16.2662 15.0873 16.0747 15.1036 15.8445L15.4133 12.4865C15.4214 12.3418 15.3705 12.2012 15.2727 12.0973C15.1728 11.9913 15.0363 11.9322 14.8916 11.9322H6.46409L5.87726 5.24889Z" fill="#7FFF00"/>
</g>
</svg>
