<svg width="23" height="26" viewBox="0 0 23 26" fill="none" xmlns="http://www.w3.org/2000/svg">
<mask id="path-1-outside-1_300_1629" maskUnits="userSpaceOnUse" x="0.103882" y="0" width="23" height="26" fill="black">
<rect fill="white" x="0.103882" width="23" height="26"/>
<path d="M10.7027 11.1255C10.3357 11.3374 10.0397 11.6534 9.85219 12.0336C9.66472 12.4138 9.59419 12.841 9.64952 13.2612C9.70485 13.6815 9.88355 14.0759 10.163 14.3946C10.4425 14.7132 10.8102 14.9419 11.2197 15.0516C11.6291 15.1613 12.0619 15.1471 12.4632 15.0108C12.8646 14.8746 13.2166 14.6223 13.4746 14.2861C13.7326 13.9498 13.8851 13.5445 13.9128 13.1215C13.9405 12.6986 13.8422 12.2769 13.6302 11.9098C13.346 11.4176 12.8779 11.0585 12.3289 10.9114C11.7799 10.7643 11.195 10.8413 10.7027 11.1255V11.1255ZM20.3084 13.4507C20.1677 13.2899 20.0192 13.1287 19.863 12.967C19.9721 12.8523 20.0777 12.7377 20.1798 12.6232C22.1068 10.4581 22.92 8.28677 22.1665 6.98138C21.4439 5.72979 19.2943 5.3568 16.6034 5.88004C16.3383 5.93189 16.0747 5.99039 15.8126 6.05553C15.7624 5.88253 15.709 5.71053 15.6524 5.53953C14.7395 2.7885 13.2649 0.999052 11.7576 1C10.3123 1.00066 8.91546 2.6765 8.02435 5.26899C7.93668 5.52474 7.85558 5.78262 7.78104 6.04264C7.60578 5.99964 7.42978 5.95992 7.25304 5.92348C4.41385 5.34054 2.12705 5.72447 1.37493 7.03059C0.653735 8.2831 1.40797 10.3304 3.20914 12.3971C3.38777 12.6016 3.57146 12.8015 3.7602 12.9968C3.5377 13.226 3.327 13.4551 3.13062 13.6829C1.37311 15.7205 0.662003 17.7343 1.38204 18.9813C2.12566 20.2695 4.38028 20.6906 7.1245 20.1506C7.3469 20.1065 7.56807 20.0569 7.788 20.0018C7.86857 20.283 7.95695 20.5618 8.05314 20.8382C8.94032 23.3786 10.3294 25.0005 11.7695 25C13.2569 24.9991 14.7478 23.2566 15.6512 20.6095C15.7225 20.4003 15.7901 20.1831 15.8541 19.9594C16.1382 20.0301 16.4241 20.0928 16.7119 20.1476C19.3559 20.6478 21.4549 20.2544 22.1736 19.0064C22.9158 17.7173 22.1506 15.5552 20.3083 13.4507H20.3084ZM2.2634 7.54219C2.72643 6.73819 4.59528 6.42452 7.04668 6.92779C7.20335 6.96001 7.3627 6.99601 7.52473 7.03579C7.2854 8.09451 7.11653 9.16793 7.01922 10.249C6.13471 10.8712 5.29139 11.5501 4.49456 12.2813C4.319 12.0997 4.14813 11.9138 3.98195 11.7234L3.98202 11.7235C2.43874 9.95266 1.82877 8.29695 2.2634 7.54219ZM6.92738 14.4159C6.31471 13.952 5.74532 13.4767 5.22853 12.9987C5.74496 12.5236 6.31471 12.05 6.92613 11.5873C6.90416 12.0586 6.89327 12.5303 6.89346 13.0023C6.89379 13.4737 6.9051 13.9449 6.92738 14.4159V14.4159ZM6.92664 19.1446C5.88656 19.3759 4.8128 19.4137 3.759 19.2564C3.47012 19.2339 3.18892 19.1524 2.93278 19.0169C2.67664 18.8815 2.451 18.6949 2.26981 18.4688C1.83292 17.712 2.40392 16.0952 3.90699 14.3525C4.09595 14.1341 4.29112 13.9214 4.49248 13.7144C5.28942 14.4495 6.13411 15.131 7.02101 15.7545C7.11965 16.8494 7.29051 17.9366 7.53246 19.0089C7.33168 19.0591 7.12974 19.1043 6.92664 19.1446ZM15.448 9.49739C15.0455 9.24379 14.6381 8.99833 14.2256 8.76101C13.8198 8.52741 13.4091 8.30259 12.9935 8.08653C13.7051 7.78734 14.4046 7.5318 15.0799 7.32356C15.2391 8.04152 15.3619 8.76705 15.448 9.49739V9.49739ZM8.99395 5.60224C9.75742 3.38088 10.8871 2.02561 11.7582 2.02524C12.6859 2.0248 13.8912 3.48715 14.6794 5.86239C14.7306 6.01723 14.779 6.17294 14.8246 6.32952C13.7891 6.65068 12.776 7.04001 11.792 7.49496C10.812 7.03466 9.80213 6.64099 8.76918 6.31663C8.83823 6.0767 8.91315 5.83857 8.99395 5.60224ZM8.51351 7.31078C9.21788 7.53253 9.91063 7.78966 10.5891 8.08118C9.74844 8.51502 8.9295 8.98758 8.13228 9.49886C8.22859 8.73326 8.35675 7.99974 8.51351 7.31078ZM8.13403 16.5036C8.53159 16.7581 8.93496 17.0032 9.34415 17.2388C9.76154 17.4792 10.1845 17.7094 10.613 17.9295C9.92932 18.2311 9.23062 18.4974 8.51965 18.7274C8.36108 18.0289 8.23152 17.2825 8.13403 16.5036ZM14.6808 20.2782C14.3616 21.2947 13.858 22.2438 13.1951 23.0781L13.1951 23.0781C13.0313 23.3171 12.8202 23.5199 12.5749 23.6741C12.3296 23.8283 12.0553 23.9305 11.769 23.9745C10.8951 23.975 9.77979 22.6725 9.02108 20.5C8.93173 20.2431 8.84953 19.9839 8.77447 19.7224C9.81236 19.3876 10.8264 18.9828 11.8095 18.5108C12.8016 18.9687 13.8228 19.3609 14.8663 19.685C14.8093 19.8842 14.7475 20.0819 14.6808 20.2782ZM15.1155 18.6891C14.4325 18.4779 13.7228 18.2181 13.001 17.9145C13.4079 17.7003 13.8178 17.4742 14.2306 17.236C14.6543 16.9914 15.0671 16.7406 15.4691 16.4837C15.3891 17.2244 15.271 17.9605 15.1155 18.6891V18.6891ZM15.6511 12.9979C15.652 13.7267 15.6292 14.4548 15.5828 15.1824C14.9916 15.5825 14.3674 15.9732 13.718 16.3481C13.0713 16.7215 12.4305 17.0647 11.8019 17.3752C11.1405 17.0582 10.4918 16.7166 9.85584 16.3504C9.22346 15.9864 8.60559 15.5988 8.00223 15.1876C7.94707 14.4603 7.91929 13.7316 7.91887 13.0016L7.91902 13.0018C7.91851 12.2723 7.94569 11.5436 8.00055 10.8156C8.5916 10.412 9.21123 10.0216 9.85188 9.65171C10.4955 9.28008 11.1443 8.93841 11.7895 8.62874C12.4428 8.94624 13.0843 9.2865 13.7141 9.64951C14.346 10.0127 14.9656 10.3962 15.5729 10.7999C15.625 11.5315 15.6511 12.2641 15.6512 12.9979H15.6511ZM16.7991 6.88654C19.1047 6.43807 20.8431 6.73975 21.2786 7.494C21.7425 8.29754 21.0777 10.0722 19.414 11.9416L19.414 11.9417C19.322 12.0448 19.2267 12.1484 19.1279 12.2524C18.3173 11.5196 17.4577 10.8429 16.5551 10.227C16.464 9.15772 16.3015 8.09577 16.0686 7.04825C16.3168 6.98717 16.5604 6.93326 16.7991 6.88654V6.88654ZM16.6433 11.5482C17.2521 11.9927 17.8374 12.4684 18.3969 12.9736C17.8399 13.487 17.2564 13.971 16.6489 14.4235C16.6675 13.9484 16.6766 13.473 16.6763 12.9974C16.6761 12.5142 16.6651 12.0311 16.6433 11.5482V11.5482ZM21.285 18.4947C20.8488 19.252 19.1635 19.5679 16.9023 19.1401C16.6432 19.0911 16.3773 19.0329 16.1047 18.9654C16.332 17.9044 16.4873 16.8292 16.5696 15.7473C17.4707 15.1206 18.3275 14.4326 19.1341 13.6882C19.2752 13.8349 19.4095 13.9808 19.5369 14.1261V14.126C20.2581 14.9102 20.8289 15.8206 21.2205 16.8115C21.3458 17.0727 21.4161 17.3569 21.4272 17.6464C21.4383 17.9359 21.3899 18.2246 21.285 18.4947V18.4947Z"/>
</mask>
<path d="M10.7027 11.1255C10.3357 11.3374 10.0397 11.6534 9.85219 12.0336C9.66472 12.4138 9.59419 12.841 9.64952 13.2612C9.70485 13.6815 9.88355 14.0759 10.163 14.3946C10.4425 14.7132 10.8102 14.9419 11.2197 15.0516C11.6291 15.1613 12.0619 15.1471 12.4632 15.0108C12.8646 14.8746 13.2166 14.6223 13.4746 14.2861C13.7326 13.9498 13.8851 13.5445 13.9128 13.1215C13.9405 12.6986 13.8422 12.2769 13.6302 11.9098C13.346 11.4176 12.8779 11.0585 12.3289 10.9114C11.7799 10.7643 11.195 10.8413 10.7027 11.1255V11.1255ZM20.3084 13.4507C20.1677 13.2899 20.0192 13.1287 19.863 12.967C19.9721 12.8523 20.0777 12.7377 20.1798 12.6232C22.1068 10.4581 22.92 8.28677 22.1665 6.98138C21.4439 5.72979 19.2943 5.3568 16.6034 5.88004C16.3383 5.93189 16.0747 5.99039 15.8126 6.05553C15.7624 5.88253 15.709 5.71053 15.6524 5.53953C14.7395 2.7885 13.2649 0.999052 11.7576 1C10.3123 1.00066 8.91546 2.6765 8.02435 5.26899C7.93668 5.52474 7.85558 5.78262 7.78104 6.04264C7.60578 5.99964 7.42978 5.95992 7.25304 5.92348C4.41385 5.34054 2.12705 5.72447 1.37493 7.03059C0.653735 8.2831 1.40797 10.3304 3.20914 12.3971C3.38777 12.6016 3.57146 12.8015 3.7602 12.9968C3.5377 13.226 3.327 13.4551 3.13062 13.6829C1.37311 15.7205 0.662003 17.7343 1.38204 18.9813C2.12566 20.2695 4.38028 20.6906 7.1245 20.1506C7.3469 20.1065 7.56807 20.0569 7.788 20.0018C7.86857 20.283 7.95695 20.5618 8.05314 20.8382C8.94032 23.3786 10.3294 25.0005 11.7695 25C13.2569 24.9991 14.7478 23.2566 15.6512 20.6095C15.7225 20.4003 15.7901 20.1831 15.8541 19.9594C16.1382 20.0301 16.4241 20.0928 16.7119 20.1476C19.3559 20.6478 21.4549 20.2544 22.1736 19.0064C22.9158 17.7173 22.1506 15.5552 20.3083 13.4507H20.3084ZM2.2634 7.54219C2.72643 6.73819 4.59528 6.42452 7.04668 6.92779C7.20335 6.96001 7.3627 6.99601 7.52473 7.03579C7.2854 8.09451 7.11653 9.16793 7.01922 10.249C6.13471 10.8712 5.29139 11.5501 4.49456 12.2813C4.319 12.0997 4.14813 11.9138 3.98195 11.7234L3.98202 11.7235C2.43874 9.95266 1.82877 8.29695 2.2634 7.54219ZM6.92738 14.4159C6.31471 13.952 5.74532 13.4767 5.22853 12.9987C5.74496 12.5236 6.31471 12.05 6.92613 11.5873C6.90416 12.0586 6.89327 12.5303 6.89346 13.0023C6.89379 13.4737 6.9051 13.9449 6.92738 14.4159V14.4159ZM6.92664 19.1446C5.88656 19.3759 4.8128 19.4137 3.759 19.2564C3.47012 19.2339 3.18892 19.1524 2.93278 19.0169C2.67664 18.8815 2.451 18.6949 2.26981 18.4688C1.83292 17.712 2.40392 16.0952 3.90699 14.3525C4.09595 14.1341 4.29112 13.9214 4.49248 13.7144C5.28942 14.4495 6.13411 15.131 7.02101 15.7545C7.11965 16.8494 7.29051 17.9366 7.53246 19.0089C7.33168 19.0591 7.12974 19.1043 6.92664 19.1446ZM15.448 9.49739C15.0455 9.24379 14.6381 8.99833 14.2256 8.76101C13.8198 8.52741 13.4091 8.30259 12.9935 8.08653C13.7051 7.78734 14.4046 7.5318 15.0799 7.32356C15.2391 8.04152 15.3619 8.76705 15.448 9.49739V9.49739ZM8.99395 5.60224C9.75742 3.38088 10.8871 2.02561 11.7582 2.02524C12.6859 2.0248 13.8912 3.48715 14.6794 5.86239C14.7306 6.01723 14.779 6.17294 14.8246 6.32952C13.7891 6.65068 12.776 7.04001 11.792 7.49496C10.812 7.03466 9.80213 6.64099 8.76918 6.31663C8.83823 6.0767 8.91315 5.83857 8.99395 5.60224ZM8.51351 7.31078C9.21788 7.53253 9.91063 7.78966 10.5891 8.08118C9.74844 8.51502 8.9295 8.98758 8.13228 9.49886C8.22859 8.73326 8.35675 7.99974 8.51351 7.31078ZM8.13403 16.5036C8.53159 16.7581 8.93496 17.0032 9.34415 17.2388C9.76154 17.4792 10.1845 17.7094 10.613 17.9295C9.92932 18.2311 9.23062 18.4974 8.51965 18.7274C8.36108 18.0289 8.23152 17.2825 8.13403 16.5036ZM14.6808 20.2782C14.3616 21.2947 13.858 22.2438 13.1951 23.0781L13.1951 23.0781C13.0313 23.3171 12.8202 23.5199 12.5749 23.6741C12.3296 23.8283 12.0553 23.9305 11.769 23.9745C10.8951 23.975 9.77979 22.6725 9.02108 20.5C8.93173 20.2431 8.84953 19.9839 8.77447 19.7224C9.81236 19.3876 10.8264 18.9828 11.8095 18.5108C12.8016 18.9687 13.8228 19.3609 14.8663 19.685C14.8093 19.8842 14.7475 20.0819 14.6808 20.2782ZM15.1155 18.6891C14.4325 18.4779 13.7228 18.2181 13.001 17.9145C13.4079 17.7003 13.8178 17.4742 14.2306 17.236C14.6543 16.9914 15.0671 16.7406 15.4691 16.4837C15.3891 17.2244 15.271 17.9605 15.1155 18.6891V18.6891ZM15.6511 12.9979C15.652 13.7267 15.6292 14.4548 15.5828 15.1824C14.9916 15.5825 14.3674 15.9732 13.718 16.3481C13.0713 16.7215 12.4305 17.0647 11.8019 17.3752C11.1405 17.0582 10.4918 16.7166 9.85584 16.3504C9.22346 15.9864 8.60559 15.5988 8.00223 15.1876C7.94707 14.4603 7.91929 13.7316 7.91887 13.0016L7.91902 13.0018C7.91851 12.2723 7.94569 11.5436 8.00055 10.8156C8.5916 10.412 9.21123 10.0216 9.85188 9.65171C10.4955 9.28008 11.1443 8.93841 11.7895 8.62874C12.4428 8.94624 13.0843 9.2865 13.7141 9.64951C14.346 10.0127 14.9656 10.3962 15.5729 10.7999C15.625 11.5315 15.6511 12.2641 15.6512 12.9979H15.6511ZM16.7991 6.88654C19.1047 6.43807 20.8431 6.73975 21.2786 7.494C21.7425 8.29754 21.0777 10.0722 19.414 11.9416L19.414 11.9417C19.322 12.0448 19.2267 12.1484 19.1279 12.2524C18.3173 11.5196 17.4577 10.8429 16.5551 10.227C16.464 9.15772 16.3015 8.09577 16.0686 7.04825C16.3168 6.98717 16.5604 6.93326 16.7991 6.88654V6.88654ZM16.6433 11.5482C17.2521 11.9927 17.8374 12.4684 18.3969 12.9736C17.8399 13.487 17.2564 13.971 16.6489 14.4235C16.6675 13.9484 16.6766 13.473 16.6763 12.9974C16.6761 12.5142 16.6651 12.0311 16.6433 11.5482V11.5482ZM21.285 18.4947C20.8488 19.252 19.1635 19.5679 16.9023 19.1401C16.6432 19.0911 16.3773 19.0329 16.1047 18.9654C16.332 17.9044 16.4873 16.8292 16.5696 15.7473C17.4707 15.1206 18.3275 14.4326 19.1341 13.6882C19.2752 13.8349 19.4095 13.9808 19.5369 14.1261V14.126C20.2581 14.9102 20.8289 15.8206 21.2205 16.8115C21.3458 17.0727 21.4161 17.3569 21.4272 17.6464C21.4383 17.9359 21.3899 18.2246 21.285 18.4947V18.4947Z" fill="#93C5FD"/>
<path d="M10.7027 11.1255C10.3357 11.3374 10.0397 11.6534 9.85219 12.0336C9.66472 12.4138 9.59419 12.841 9.64952 13.2612C9.70485 13.6815 9.88355 14.0759 10.163 14.3946C10.4425 14.7132 10.8102 14.9419 11.2197 15.0516C11.6291 15.1613 12.0619 15.1471 12.4632 15.0108C12.8646 14.8746 13.2166 14.6223 13.4746 14.2861C13.7326 13.9498 13.8851 13.5445 13.9128 13.1215C13.9405 12.6986 13.8422 12.2769 13.6302 11.9098C13.346 11.4176 12.8779 11.0585 12.3289 10.9114C11.7799 10.7643 11.195 10.8413 10.7027 11.1255V11.1255ZM20.3084 13.4507C20.1677 13.2899 20.0192 13.1287 19.863 12.967C19.9721 12.8523 20.0777 12.7377 20.1798 12.6232C22.1068 10.4581 22.92 8.28677 22.1665 6.98138C21.4439 5.72979 19.2943 5.3568 16.6034 5.88004C16.3383 5.93189 16.0747 5.99039 15.8126 6.05553C15.7624 5.88253 15.709 5.71053 15.6524 5.53953C14.7395 2.7885 13.2649 0.999052 11.7576 1C10.3123 1.00066 8.91546 2.6765 8.02435 5.26899C7.93668 5.52474 7.85558 5.78262 7.78104 6.04264C7.60578 5.99964 7.42978 5.95992 7.25304 5.92348C4.41385 5.34054 2.12705 5.72447 1.37493 7.03059C0.653735 8.2831 1.40797 10.3304 3.20914 12.3971C3.38777 12.6016 3.57146 12.8015 3.7602 12.9968C3.5377 13.226 3.327 13.4551 3.13062 13.6829C1.37311 15.7205 0.662003 17.7343 1.38204 18.9813C2.12566 20.2695 4.38028 20.6906 7.1245 20.1506C7.3469 20.1065 7.56807 20.0569 7.788 20.0018C7.86857 20.283 7.95695 20.5618 8.05314 20.8382C8.94032 23.3786 10.3294 25.0005 11.7695 25C13.2569 24.9991 14.7478 23.2566 15.6512 20.6095C15.7225 20.4003 15.7901 20.1831 15.8541 19.9594C16.1382 20.0301 16.4241 20.0928 16.7119 20.1476C19.3559 20.6478 21.4549 20.2544 22.1736 19.0064C22.9158 17.7173 22.1506 15.5552 20.3083 13.4507H20.3084ZM2.2634 7.54219C2.72643 6.73819 4.59528 6.42452 7.04668 6.92779C7.20335 6.96001 7.3627 6.99601 7.52473 7.03579C7.2854 8.09451 7.11653 9.16793 7.01922 10.249C6.13471 10.8712 5.29139 11.5501 4.49456 12.2813C4.319 12.0997 4.14813 11.9138 3.98195 11.7234L3.98202 11.7235C2.43874 9.95266 1.82877 8.29695 2.2634 7.54219ZM6.92738 14.4159C6.31471 13.952 5.74532 13.4767 5.22853 12.9987C5.74496 12.5236 6.31471 12.05 6.92613 11.5873C6.90416 12.0586 6.89327 12.5303 6.89346 13.0023C6.89379 13.4737 6.9051 13.9449 6.92738 14.4159V14.4159ZM6.92664 19.1446C5.88656 19.3759 4.8128 19.4137 3.759 19.2564C3.47012 19.2339 3.18892 19.1524 2.93278 19.0169C2.67664 18.8815 2.451 18.6949 2.26981 18.4688C1.83292 17.712 2.40392 16.0952 3.90699 14.3525C4.09595 14.1341 4.29112 13.9214 4.49248 13.7144C5.28942 14.4495 6.13411 15.131 7.02101 15.7545C7.11965 16.8494 7.29051 17.9366 7.53246 19.0089C7.33168 19.0591 7.12974 19.1043 6.92664 19.1446ZM15.448 9.49739C15.0455 9.24379 14.6381 8.99833 14.2256 8.76101C13.8198 8.52741 13.4091 8.30259 12.9935 8.08653C13.7051 7.78734 14.4046 7.5318 15.0799 7.32356C15.2391 8.04152 15.3619 8.76705 15.448 9.49739V9.49739ZM8.99395 5.60224C9.75742 3.38088 10.8871 2.02561 11.7582 2.02524C12.6859 2.0248 13.8912 3.48715 14.6794 5.86239C14.7306 6.01723 14.779 6.17294 14.8246 6.32952C13.7891 6.65068 12.776 7.04001 11.792 7.49496C10.812 7.03466 9.80213 6.64099 8.76918 6.31663C8.83823 6.0767 8.91315 5.83857 8.99395 5.60224ZM8.51351 7.31078C9.21788 7.53253 9.91063 7.78966 10.5891 8.08118C9.74844 8.51502 8.9295 8.98758 8.13228 9.49886C8.22859 8.73326 8.35675 7.99974 8.51351 7.31078ZM8.13403 16.5036C8.53159 16.7581 8.93496 17.0032 9.34415 17.2388C9.76154 17.4792 10.1845 17.7094 10.613 17.9295C9.92932 18.2311 9.23062 18.4974 8.51965 18.7274C8.36108 18.0289 8.23152 17.2825 8.13403 16.5036ZM14.6808 20.2782C14.3616 21.2947 13.858 22.2438 13.1951 23.0781L13.1951 23.0781C13.0313 23.3171 12.8202 23.5199 12.5749 23.6741C12.3296 23.8283 12.0553 23.9305 11.769 23.9745C10.8951 23.975 9.77979 22.6725 9.02108 20.5C8.93173 20.2431 8.84953 19.9839 8.77447 19.7224C9.81236 19.3876 10.8264 18.9828 11.8095 18.5108C12.8016 18.9687 13.8228 19.3609 14.8663 19.685C14.8093 19.8842 14.7475 20.0819 14.6808 20.2782ZM15.1155 18.6891C14.4325 18.4779 13.7228 18.2181 13.001 17.9145C13.4079 17.7003 13.8178 17.4742 14.2306 17.236C14.6543 16.9914 15.0671 16.7406 15.4691 16.4837C15.3891 17.2244 15.271 17.9605 15.1155 18.6891V18.6891ZM15.6511 12.9979C15.652 13.7267 15.6292 14.4548 15.5828 15.1824C14.9916 15.5825 14.3674 15.9732 13.718 16.3481C13.0713 16.7215 12.4305 17.0647 11.8019 17.3752C11.1405 17.0582 10.4918 16.7166 9.85584 16.3504C9.22346 15.9864 8.60559 15.5988 8.00223 15.1876C7.94707 14.4603 7.91929 13.7316 7.91887 13.0016L7.91902 13.0018C7.91851 12.2723 7.94569 11.5436 8.00055 10.8156C8.5916 10.412 9.21123 10.0216 9.85188 9.65171C10.4955 9.28008 11.1443 8.93841 11.7895 8.62874C12.4428 8.94624 13.0843 9.2865 13.7141 9.64951C14.346 10.0127 14.9656 10.3962 15.5729 10.7999C15.625 11.5315 15.6511 12.2641 15.6512 12.9979H15.6511ZM16.7991 6.88654C19.1047 6.43807 20.8431 6.73975 21.2786 7.494C21.7425 8.29754 21.0777 10.0722 19.414 11.9416L19.414 11.9417C19.322 12.0448 19.2267 12.1484 19.1279 12.2524C18.3173 11.5196 17.4577 10.8429 16.5551 10.227C16.464 9.15772 16.3015 8.09577 16.0686 7.04825C16.3168 6.98717 16.5604 6.93326 16.7991 6.88654V6.88654ZM16.6433 11.5482C17.2521 11.9927 17.8374 12.4684 18.3969 12.9736C17.8399 13.487 17.2564 13.971 16.6489 14.4235C16.6675 13.9484 16.6766 13.473 16.6763 12.9974C16.6761 12.5142 16.6651 12.0311 16.6433 11.5482V11.5482ZM21.285 18.4947C20.8488 19.252 19.1635 19.5679 16.9023 19.1401C16.6432 19.0911 16.3773 19.0329 16.1047 18.9654C16.332 17.9044 16.4873 16.8292 16.5696 15.7473C17.4707 15.1206 18.3275 14.4326 19.1341 13.6882C19.2752 13.8349 19.4095 13.9808 19.5369 14.1261V14.126C20.2581 14.9102 20.8289 15.8206 21.2205 16.8115C21.3458 17.0727 21.4161 17.3569 21.4272 17.6464C21.4383 17.9359 21.3899 18.2246 21.285 18.4947V18.4947Z" stroke="#93C5FD" stroke-width="0.5" mask="url(#path-1-outside-1_300_1629)"/>
</svg>
