<svg width="24" height="24" viewBox="0 0 24 24" fill="none" xmlns="http://www.w3.org/2000/svg">
<path d="M21.1509 0H2.85297C1.27884 0 0.00216781 1.27495 2.29989e-05 2.84908L2.29989e-05 21.1355C-0.00302094 21.8942 0.296199 22.6228 0.831558 23.1603C1.36692 23.6978 2.09432 24 2.85297 24H21.1509C21.9089 23.999 22.6353 23.6964 23.1698 23.159C23.7043 22.6216 24.003 21.8935 24 21.1355V2.84908C23.9978 1.27645 22.7235 0.00211801 21.1509 0ZM10.5 17.0503C10.499 17.3038 10.397 17.5466 10.2166 17.7248C10.0363 17.903 9.79233 18.002 9.53877 18H5.3906C4.86761 17.9979 4.44476 17.5733 4.44476 17.0503V5.37518C4.44476 4.85218 4.86761 4.4276 5.3906 4.42549H9.53877C10.0624 4.42759 10.4864 4.85155 10.4885 5.37518L10.5 17.0503ZM19.5783 11.8002C19.5783 12.0541 19.4767 12.2974 19.2961 12.4759C19.1155 12.6543 18.8709 12.753 18.6171 12.75H14.4497C13.9261 12.7478 13.5021 12.3239 13.5 11.8002V5.37518C13.5021 4.85155 13.9261 4.42759 14.4497 4.42549H18.6171C19.1401 4.4276 19.5629 4.85218 19.5629 5.37518L19.5783 11.8002Z" fill="#93C5FD"/>
</svg>
