<svg width="28" height="40" viewBox="0 0 28 40" fill="none" xmlns="http://www.w3.org/2000/svg">
<mask id="mask0_10_212" style="mask-type:alpha" maskUnits="userSpaceOnUse" x="0" y="0" width="28" height="40">
<rect width="27.0968" height="40" fill="#D9D9D9"/>
</mask>
<g mask="url(#mask0_10_212)">
<path fill-rule="evenodd" clip-rule="evenodd" d="M18.4614 20.4065C18.4272 20.6261 18.3437 20.835 18.2172 21.0177C18.0907 21.2004 17.9245 21.3521 17.7311 21.4615C17.3416 21.713 17.0008 21.8388 16.6559 21.9646C15.9215 22.2182 15.1485 22.4718 14.3309 22.7659C13.4687 23.0601 12.6958 23.3543 12.006 23.5673C11.1458 23.8614 10.3283 24.115 9.55126 24.4092C8.96667 24.6594 8.41758 24.9854 7.91813 25.3789C7.45363 25.7998 7.04825 26.2816 6.71307 26.8112C6.36818 27.3996 6.15111 28.1583 6.15111 29.0428C6.15111 30.8139 6.5812 32.161 7.44341 33.0029C8.30359 33.8895 9.89817 34.3094 12.2616 34.3094C14.6718 34.3094 16.3069 33.8469 17.1712 32.9197C18.0293 31.9926 18.4594 30.6881 18.4594 29.0043V20.4065H18.4614ZM12.2637 1.74221C16.4834 1.74221 19.5813 2.54356 21.5593 4.18683C23.5393 5.78952 24.5294 7.85072 24.5294 10.2933V31.1081C24.5294 31.95 24.359 32.8771 24.0587 33.8874C23.7544 34.9018 23.1539 35.8269 22.2065 36.6668C21.3037 37.5128 20.056 38.2289 18.4635 38.7767C16.8709 39.3244 14.8057 39.6186 12.2657 39.6186C9.72979 39.6186 7.66048 39.3244 6.06996 38.7767C4.47943 38.2289 3.22974 37.5128 2.32695 36.6668C1.48712 35.91 0.85091 34.9543 0.476751 33.8874C0.172442 32.8792 0 31.952 0 31.1101V27.783C0 26.0119 0.472694 24.3686 1.42011 22.9343C2.36753 21.4615 3.7004 20.4512 5.42279 19.8182C6.28298 19.524 7.273 19.2299 8.39083 18.8505C9.51068 18.4691 10.5413 18.0897 11.5759 17.755C12.6106 17.4162 13.5134 17.0774 14.2863 16.7812C14.7528 16.5946 15.2265 16.4267 15.7064 16.2781L16.4814 15.8987C16.7857 15.7303 17.0839 15.4767 17.3862 15.1399C17.6865 14.8052 17.9441 14.4258 18.1612 14.0039C18.3905 13.5469 18.5087 13.0423 18.5061 12.531V11.1819C18.5092 10.6874 18.4054 10.1981 18.2018 9.74758C18.0313 9.24039 17.6865 8.77784 17.2138 8.3579C16.7411 7.93592 16.0939 7.59915 15.321 7.34353C14.546 7.094 13.5154 6.96619 12.3509 6.96619C9.94077 6.96619 8.34822 7.4328 7.48804 8.39847C6.7577 9.24242 6.32761 10.2953 6.2424 11.474C6.2424 11.7276 6.02735 11.896 5.76768 11.896L0.519355 11.9812C0.394685 11.9818 0.274848 11.933 0.185936 11.8456C0.0970232 11.7582 0.0462361 11.6393 0.044632 11.5146V10.2974C0.044632 9.11461 0.261706 8.0191 0.7344 6.96619C1.20912 5.91125 1.94149 5.02875 2.92949 4.26798C3.91951 3.51126 5.21181 2.88033 6.75973 2.45835C8.26707 1.95117 10.1173 1.74221 12.2677 1.74221H12.2637ZM107.411 20.4065C107.377 20.6261 107.293 20.835 107.167 21.0177C107.04 21.2004 106.874 21.3521 106.681 21.4615C106.295 21.713 105.95 21.8388 105.606 21.9646C104.875 22.2182 104.098 22.4718 103.281 22.7659C102.418 23.0601 101.643 23.3543 100.956 23.5673C100.093 23.8614 99.2759 24.115 98.5009 24.4092C97.9156 24.6592 97.3658 24.9852 96.8657 25.3789C96.402 25.7999 95.9973 26.2817 95.6627 26.8112C95.3178 27.3996 95.1028 28.1583 95.1028 29.0428C95.1028 30.8139 95.5288 32.161 96.391 33.0029C97.2512 33.8895 98.8458 34.3094 101.211 34.3094C103.625 34.3094 105.259 33.8469 106.121 32.9197C106.979 31.9926 107.409 30.6881 107.409 29.0043V20.4065H107.411ZM101.215 1.74221C105.435 1.74221 108.533 2.54356 110.513 4.18683C112.491 5.78952 113.481 7.85072 113.481 10.2933V31.1081C113.481 31.95 113.311 32.8771 113.008 33.8874C112.708 34.9018 112.106 35.8269 111.158 36.6668C110.255 37.5128 109.008 38.2289 107.415 38.7767C105.825 39.3244 103.757 39.6186 101.219 39.6186C98.6835 39.6186 96.6142 39.3244 95.0237 38.7767C93.4331 38.2289 92.1834 37.5128 91.2806 36.6668C90.4422 35.9095 89.8074 34.9539 89.4345 33.8874C89.1302 32.8771 88.9577 31.95 88.9577 31.1081V27.7809C88.9577 26.0099 89.4325 24.3666 90.3779 22.9323C91.3253 21.4594 92.6602 20.4491 94.3805 19.8162C95.2407 19.522 96.2308 19.2278 97.3506 18.8485C98.4664 18.4671 99.5011 18.0877 100.536 17.7529C101.57 17.4141 102.471 17.0753 103.246 16.7792C103.713 16.5925 104.186 16.4247 104.666 16.276L105.441 15.8967C105.741 15.7283 106.044 15.4747 106.344 15.1379C106.652 14.7955 106.913 14.4134 107.119 14.0018C107.348 13.5449 107.466 13.0402 107.464 12.529V11.1799C107.467 10.6854 107.363 10.1961 107.16 9.74555C106.989 9.23837 106.646 8.77581 106.172 8.35587C105.699 7.93389 105.056 7.59712 104.279 7.3415C103.504 7.09197 102.473 6.96416 101.309 6.96416C98.8985 6.96416 97.308 7.43077 96.4458 8.39644C95.7155 9.24039 95.2854 10.2933 95.1981 11.472C95.1981 11.7256 94.9851 11.894 94.7275 11.894H89.5075C89.3843 11.8935 89.2661 11.8448 89.1781 11.7584C89.0902 11.672 89.0395 11.5547 89.0369 11.4314V10.2081C89.0369 9.03143 89.2519 7.93592 89.7266 6.88098C90.1993 5.8301 90.9297 4.94354 91.9177 4.18683C92.9117 3.42808 94.2 2.79512 95.752 2.37517C97.2127 1.94914 99.0629 1.74018 101.215 1.74018V1.74221ZM82.7539 1.91059H86.1987C86.4989 1.91059 86.714 2.20679 86.6288 2.49893L85.4663 6.88098C85.4257 7.094 85.2087 7.21978 85.0362 7.21978H82.6261C81.3358 7.21978 80.3032 7.38816 79.4856 7.72696C78.7086 8.0617 78.0655 8.44107 77.6334 8.90362C77.2033 9.37023 76.9436 9.83075 76.8158 10.2953C76.7 10.7494 76.642 11.2164 76.6434 11.685V38.7767C76.6407 38.901 76.5892 39.0192 76.4999 39.1058C76.4107 39.1924 76.2909 39.2403 76.1666 39.2392H71.0055C70.8819 39.2392 70.7632 39.1908 70.6748 39.1044C70.5865 39.0179 70.5355 38.9003 70.5328 38.7767V10.4617C70.5328 9.95856 70.618 9.19982 70.8331 8.23009C71.0055 7.26238 71.5229 6.33525 72.3404 5.36552C73.158 4.43839 74.3631 3.59647 75.9982 2.92293C77.6354 2.24534 79.8731 1.90857 82.7539 1.90857V1.91059ZM65.3677 30.1809V31.4448C65.3677 31.9926 65.2865 32.7513 65.0695 33.7211C64.897 34.6462 64.3797 35.6159 63.5621 36.541C62.7445 37.4702 61.5395 38.3121 59.9043 38.9856C58.2692 39.6612 56.0294 40 53.1487 40C50.2679 40 48.0281 39.6612 46.393 38.9856C44.7578 38.3121 43.5528 37.5128 42.7352 36.543C41.9176 35.6179 41.4003 34.6482 41.2278 33.6825C41.0574 32.7087 40.9296 31.9946 40.9296 31.4469V3.09132C40.9296 2.83772 41.1447 2.62471 41.4023 2.62471H46.5228C46.7825 2.62471 46.9975 2.83772 46.9975 3.09132V29.6332C46.9975 30.5177 47.1254 31.1507 47.2552 31.6558C47.3871 32.163 47.6447 32.6661 48.0322 33.0881C48.4177 33.5507 49.0222 33.93 49.8378 34.2242C50.6127 34.5204 51.69 34.6908 53.0229 34.6908C54.4024 34.6908 55.5182 34.5204 56.3378 34.2242C57.1554 33.93 57.7579 33.5507 58.188 33.1287C58.614 32.7087 58.9184 32.2462 59.0462 31.739C59.176 31.2318 59.3505 30.8139 59.3505 29.5886V3.05074C59.3505 2.79918 59.5635 2.58819 59.8211 2.58819H64.9417C65.1973 2.58819 65.4123 2.79918 65.4123 3.0548V30.185H65.3717L65.3677 30.1809ZM30.1266 -11.6109H35.2492C35.5068 -11.6109 35.7219 -11.4019 35.7219 -11.1504V39.0282C35.7203 39.1525 35.6698 39.2712 35.5813 39.3585C35.4928 39.4459 35.3735 39.4948 35.2492 39.4948H30.1266C30.0023 39.4948 29.883 39.4459 29.7945 39.3585C29.706 39.2712 29.6555 39.1525 29.6539 39.0282V-11.1504C29.6945 -11.4019 29.869 -11.6129 30.1266 -11.6129V-11.6109Z" fill="black"/>
</g>
</svg>
