<svg width="24" height="24" viewBox="0 0 24 24" fill="none" xmlns="http://www.w3.org/2000/svg">
<path d="M0.571429 0C0.419881 1.51525e-05 0.274545 0.0602239 0.167384 0.167384C0.0602239 0.274545 1.51525e-05 0.419881 0 0.571429V23.4286C1.51525e-05 23.5801 0.0602239 23.7255 0.167384 23.8326C0.274545 23.9398 0.419881 24 0.571429 24H23.4286C23.5801 24 23.7255 23.9398 23.8326 23.8326C23.9398 23.7255 24 23.5801 24 23.4286V0.571429C24 0.419881 23.9398 0.274545 23.8326 0.167384C23.7255 0.0602239 23.5801 1.51525e-05 23.4286 0H0.571429ZM1.14286 1.14286H22.8571V22.8571H1.14286V1.14286ZM6.28571 10.8571V12.8259H9.14286V21.7143H11.4286V12.8259H14.2857V10.8571H6.28571ZM18.6808 10.8627C16.901 10.8556 14.8672 11.395 14.8672 13.8996C14.8672 17.1738 19.279 17.1746 19.279 18.6518C19.279 18.7918 19.3384 19.8092 17.7813 19.8092C16.2241 19.8092 14.9263 18.8304 14.9263 18.8304V21.2065C14.9263 21.2065 21.7154 23.4023 21.7154 18.4509C21.7148 15.2366 17.2623 15.3974 17.2623 13.8002C17.2623 13.1814 17.7019 12.6027 18.9196 12.6027C20.1374 12.6027 21.2154 13.3214 21.2154 13.3214L21.2958 11.2042C21.2958 11.2042 20.0651 10.8682 18.6808 10.8627Z" fill="#7FFF00"/>
</svg>
