<svg width="21" height="33" viewBox="0 0 21 33" fill="none" xmlns="http://www.w3.org/2000/svg">
<rect x="2.0625" y="2.0625" width="16.5" height="28.875" rx="8.25" fill="#60779C"/>
<path d="M10.3125 6.1875C10.882 6.1875 11.3438 6.64921 11.3438 7.21875V11.3438C11.3438 11.9133 10.882 12.375 10.3125 12.375C9.74296 12.375 9.28125 11.9133 9.28125 11.3438V7.21875C9.28125 6.64921 9.74296 6.1875 10.3125 6.1875ZM18.5625 22.6875C18.5625 27.2438 14.8688 30.9375 10.3125 30.9375C5.75615 30.9375 2.0625 27.2438 2.0625 22.6875V10.3125C2.0625 5.75615 5.75615 2.0625 10.3125 2.0625C14.8688 2.0625 18.5625 5.75615 18.5625 10.3125V22.6875ZM10.3125 0C4.61706 0 0 4.61706 0 10.3125V22.6875C0 28.3829 4.61706 33 10.3125 33C16.0079 33 20.625 28.3829 20.625 22.6875V10.3125C20.625 4.61706 16.0079 0 10.3125 0Z" fill="#F9FAFB"/>
<rect x="8.9375" y="6.1875" width="2.75" height="8.25" rx="1.375" fill="#F9FAFB"/>
</svg>
