<svg width="32" height="32" viewBox="0 0 32 32" fill="none" xmlns="http://www.w3.org/2000/svg">
<path d="M18.5858 0H8C5.79086 0 4 1.79086 4 4V28C4 30.2091 5.79086 32 8 32H24C26.2091 32 28 30.2091 28 28V9.41421C28 8.88378 27.7893 8.37507 27.4142 8L20 0.585786C19.6249 0.210714 19.1162 0 18.5858 0ZM19 7V3L25 9H21C19.8954 9 19 8.10457 19 7ZM9 18C8.44772 18 8 17.5523 8 17C8 16.4477 8.44772 16 9 16H23C23.5523 16 24 16.4477 24 17C24 17.5523 23.5523 18 23 18H9ZM8 21C8 20.4477 8.44772 20 9 20H23C23.5523 20 24 20.4477 24 21C24 21.5523 23.5523 22 23 22H9C8.44772 22 8 21.5523 8 21ZM9 26C8.44772 26 8 25.5523 8 25C8 24.4477 8.44772 24 9 24H17C17.5523 24 18 24.4477 18 25C18 25.5523 17.5523 26 17 26H9Z" fill="#7FFF00"/>
</svg>
