<svg width="641" height="237" viewBox="0 0 641 237" fill="none" xmlns="http://www.w3.org/2000/svg">
<path d="M27.4342 175.93H75.2804V198.594H27.4342V175.93ZM29.508 234.145H0.178101V130.453H81.5019V153.117H29.508V234.145Z" fill="#F9FAFB"/>
<path d="M117.735 170.597H165.877V192.52H117.735V170.597ZM119.809 211.481H174.025L167.852 234.145H90.7751V130.453H172.099V153.117H119.809V211.481Z" fill="#F9FAFB"/>
<path d="M185.857 234.145V130.453H215.186V234.145H185.857Z" fill="#F9FAFB"/>
<path d="M253.681 234.145V153.71H221.833V130.453H314.711V153.71H283.011V234.145H253.681Z" fill="#F9FAFB"/>
<path d="M372.037 236.219C363.742 236.219 356.088 234.886 349.077 232.219C342.065 229.553 335.943 225.8 330.709 220.961C325.574 216.024 321.574 210.296 318.71 203.778C315.846 197.26 314.414 190.101 314.414 182.299C314.414 174.498 315.846 167.338 318.71 160.82C321.574 154.303 325.574 148.624 330.709 143.785C335.943 138.848 342.065 135.046 349.077 132.379C356.088 129.713 363.742 128.38 372.037 128.38C380.431 128.38 388.085 129.713 394.997 132.379C402.009 135.046 408.082 138.848 413.218 143.785C418.353 148.624 422.352 154.303 425.216 160.82C428.179 167.338 429.66 174.498 429.66 182.299C429.66 190.101 428.179 197.31 425.216 203.926C422.352 210.444 418.353 216.122 413.218 220.961C408.082 225.8 402.009 229.553 394.997 232.219C388.085 234.886 380.431 236.219 372.037 236.219ZM372.037 211.925C375.987 211.925 379.641 211.234 382.999 209.852C386.455 208.469 389.418 206.494 391.887 203.926C394.454 201.26 396.429 198.1 397.812 194.446C399.293 190.792 400.034 186.743 400.034 182.299C400.034 177.757 399.293 173.708 397.812 170.153C396.429 166.499 394.454 163.388 391.887 160.82C389.418 158.154 386.455 156.129 382.999 154.747C379.641 153.364 375.987 152.673 372.037 152.673C368.087 152.673 364.384 153.364 360.927 154.747C357.57 156.129 354.607 158.154 352.04 160.82C349.571 163.388 347.596 166.499 346.114 170.153C344.732 173.708 344.04 177.757 344.04 182.299C344.04 186.743 344.732 190.792 346.114 194.446C347.596 198.1 349.571 201.26 352.04 203.926C354.607 206.494 357.57 208.469 360.927 209.852C364.384 211.234 368.087 211.925 372.037 211.925Z" fill="#F9FAFB"/>
<path d="M477.018 236.219C468.525 236.219 460.329 235.182 452.428 233.108C444.627 230.935 438.257 228.17 433.319 224.813L446.034 206.272C450.675 209.234 452.922 208.617 458.946 210.592C465.069 212.469 471.142 213.407 477.166 213.407C481.215 213.407 484.474 213.061 486.943 212.37C489.412 211.58 491.189 210.592 492.275 209.407C493.46 208.123 494.053 206.642 494.053 204.963C494.053 202.593 492.967 200.717 490.794 199.334C488.622 197.952 485.807 196.816 482.351 195.927C478.894 195.038 475.043 194.15 470.796 193.261C466.649 192.372 462.452 191.236 458.205 189.854C454.058 188.471 450.256 186.694 446.799 184.521C443.343 182.25 440.528 179.337 438.356 175.781C436.183 172.128 435.097 167.536 435.097 162.005C435.097 155.784 436.776 150.155 440.133 145.118C443.59 140.082 448.725 136.033 455.539 132.972C462.353 129.91 470.846 128.38 481.017 128.38C487.831 128.38 494.497 129.17 501.015 130.75C507.632 132.231 513.508 134.453 518.643 137.416L506.521 156.105C501.583 153.438 499.781 154.549 494.942 153.266C490.103 151.883 485.412 151.192 480.869 151.192C476.82 151.192 473.562 151.636 471.093 152.525C468.624 153.315 466.846 154.401 465.76 155.784C464.674 157.166 464.131 158.746 464.131 160.524C464.131 162.795 465.167 164.622 467.241 166.005C469.414 167.289 472.228 168.375 475.685 169.264C479.24 170.054 483.091 170.893 487.239 171.782C491.485 172.671 495.682 173.806 499.83 175.189C504.076 176.473 507.928 178.25 511.384 180.522C514.841 182.694 517.606 185.607 519.68 189.261C521.852 192.817 522.938 197.31 522.938 202.741C522.938 208.765 521.21 214.345 517.754 219.48C514.396 224.516 509.31 228.565 502.496 231.627C495.781 234.688 487.288 236.219 477.018 236.219Z" fill="#F9FAFB"/>
<path d="M519.6 234.145L565.372 135.083L594.258 130.453L640.178 234.145L609.663 231.059L573.816 144.822H585.37L549.522 231.059L519.6 234.145ZM544.634 213.999L552.188 192.372H602.849L610.404 213.999H544.634Z" fill="#F9FAFB"/>
<path d="M331.929 103.692V0H384.96C398.588 0 408.76 2.51822 415.475 7.55467C422.19 12.4924 425.548 19.0101 425.548 27.1079C425.548 32.4406 424.116 37.1314 421.252 41.1804C418.487 45.1305 414.537 48.2906 409.402 50.6607C404.365 52.9321 398.341 54.0677 391.33 54.0677L394.292 46.9575C401.6 46.9575 407.97 48.0931 413.401 50.3645C418.833 52.537 423.03 55.7465 425.992 59.993C429.054 64.1406 430.584 69.2264 430.584 75.2504C430.584 84.237 426.93 91.2486 419.623 96.285C412.414 101.223 401.847 103.692 387.923 103.692H331.929ZM360.963 82.5088H385.553C390.589 82.5088 394.391 81.6694 396.959 79.9906C399.625 78.213 400.958 75.5467 400.958 71.9915C400.958 68.4364 399.625 65.8194 396.959 64.1406C394.391 62.363 390.589 61.4743 385.553 61.4743H358.889V41.1804H381.109C386.046 41.1804 389.75 40.3409 392.218 38.6621C394.687 36.9833 395.922 34.4651 395.922 31.1075C395.922 27.7498 394.687 25.281 392.218 23.7009C389.75 22.0221 386.046 21.1827 381.109 21.1827H360.963V82.5088Z" fill="#F9FAFB"/>
<path d="M468.292 40.1434H516.434V62.0668H468.292V40.1434ZM470.365 81.0275H532.308L522.656 103.692H441.332V0H522.656L532.308 22.664H470.365V81.0275Z" fill="#F9FAFB"/>
<path d="M566.815 103.692L522.656 0H554.224L591.553 89.7672H572.888L611.106 4.62909L640.139 0L595.7 103.692H566.815Z" fill="#F9FAFB"/>
</svg>
