<svg width="293" height="32" viewBox="0 0 293 32" fill="none" xmlns="http://www.w3.org/2000/svg">
<path d="M110.761 14.1099H124.959V20.8352H110.761V14.1099ZM111.376 31.3846H102.673V0.615385H126.805V7.34066H111.376V31.3846Z" fill="#F9FAFB"/>
<path d="M137.556 12.5275H151.842V19.033H137.556V12.5275ZM138.172 24.6593H154.26L152.428 31.3846H129.556V0.615385H153.688V7.34066H138.172V24.6593Z" fill="#F9FAFB"/>
<path d="M157.771 31.3846V0.615385H166.474V31.3846H157.771Z" fill="#F9FAFB"/>
<path d="M177.897 31.3846V7.51649H168.446V0.615385H196.007V7.51649H186.6V31.3846H177.897Z" fill="#F9FAFB"/>
<path d="M213.018 32C210.556 32 208.285 31.6044 206.204 30.8132C204.124 30.022 202.307 28.9084 200.754 27.4725C199.23 26.0073 198.043 24.3077 197.193 22.3736C196.344 20.4396 195.919 18.315 195.919 16C195.919 13.685 196.344 11.5604 197.193 9.62638C198.043 7.69231 199.23 6.00732 200.754 4.57143C202.307 3.10623 204.124 1.97802 206.204 1.18681C208.285 0.395605 210.556 0 213.018 0C215.508 0 217.78 0.395605 219.831 1.18681C221.911 1.97802 223.714 3.10623 225.237 4.57143C226.761 6.00732 227.948 7.69231 228.798 9.62638C229.677 11.5604 230.117 13.685 230.117 16C230.117 18.315 229.677 20.4542 228.798 22.4176C227.948 24.3516 226.761 26.0366 225.237 27.4725C223.714 28.9084 221.911 30.022 219.831 30.8132C217.78 31.6044 215.508 32 213.018 32ZM213.018 24.7912C214.19 24.7912 215.274 24.5861 216.27 24.1758C217.296 23.7656 218.175 23.1795 218.908 22.4176C219.67 21.6264 220.256 20.6886 220.666 19.6044C221.106 18.5201 221.325 17.3187 221.325 16C221.325 14.652 221.106 13.4505 220.666 12.3956C220.256 11.3114 219.67 10.3883 218.908 9.62638C218.175 8.83517 217.296 8.23443 216.27 7.82418C215.274 7.41392 214.19 7.2088 213.018 7.2088C211.845 7.2088 210.747 7.41392 209.721 7.82418C208.725 8.23443 207.845 8.83517 207.084 9.62638C206.351 10.3883 205.765 11.3114 205.325 12.3956C204.915 13.4505 204.71 14.652 204.71 16C204.71 17.3187 204.915 18.5201 205.325 19.6044C205.765 20.6886 206.351 21.6264 207.084 22.4176C207.845 23.1795 208.725 23.7656 209.721 24.1758C210.747 24.5861 211.845 24.7912 213.018 24.7912Z" fill="#F9FAFB"/>
<path d="M244.169 32C241.649 32 239.217 31.6923 236.873 31.0769C234.558 30.4322 232.668 29.6117 231.202 28.6154L234.975 23.1136C236.353 23.9927 237.019 23.8095 238.807 24.3956C240.624 24.9524 242.426 25.2308 244.213 25.2308C245.415 25.2308 246.382 25.1282 247.114 24.9231C247.847 24.6886 248.375 24.3956 248.697 24.044C249.049 23.663 249.224 23.2234 249.224 22.7253C249.224 22.022 248.902 21.4652 248.257 21.0549C247.613 20.6447 246.777 20.3077 245.752 20.044C244.726 19.7802 243.583 19.5165 242.323 19.2528C241.092 18.989 239.847 18.652 238.587 18.2418C237.356 17.8315 236.228 17.304 235.202 16.6593C234.177 15.9854 233.342 15.1209 232.697 14.0659C232.052 12.9817 231.73 11.619 231.73 9.97802C231.73 8.13187 232.228 6.46154 233.224 4.96704C234.25 3.47253 235.774 2.27106 237.796 1.36264C239.818 0.454214 242.338 0 245.356 0C247.378 0 249.356 0.234433 251.29 0.703298C253.254 1.14286 254.997 1.8022 256.521 2.68132L252.924 8.2271C251.459 7.43589 250.924 7.76556 249.488 7.38461C248.052 6.97436 246.66 6.76923 245.312 6.76923C244.111 6.76923 243.144 6.9011 242.411 7.16484C241.679 7.39927 241.151 7.72161 240.829 8.13187C240.506 8.54212 240.345 9.01099 240.345 9.53846C240.345 10.2125 240.653 10.7546 241.268 11.1648C241.913 11.5458 242.748 11.8681 243.774 12.1319C244.829 12.3663 245.972 12.6154 247.202 12.8791C248.462 13.1429 249.708 13.4799 250.939 13.8901C252.199 14.2711 253.342 14.7985 254.367 15.4725C255.393 16.1172 256.213 16.9817 256.829 18.0659C257.473 19.1209 257.796 20.4542 257.796 22.0659C257.796 23.8535 257.283 25.5092 256.257 27.033C255.261 28.5275 253.752 29.7289 251.73 30.6374C249.737 31.5458 247.217 32 244.169 32Z" fill="#F9FAFB"/>
<path d="M256.805 31.3846L270.387 1.98901L278.959 0.615385L292.585 31.3846L283.53 30.4689L272.893 4.87912H276.322L265.684 30.4689L256.805 31.3846ZM264.234 25.4066L266.475 18.989H281.508L283.75 25.4066H264.234Z" fill="#F9FAFB"/>
<path d="M0 31.4702V0.700928H15.7363C19.7802 0.700928 22.7985 1.44818 24.7912 2.94269C26.7839 4.40789 27.7802 6.34195 27.7802 8.74488C27.7802 10.3273 27.3553 11.7192 26.5055 12.9207C25.685 14.0929 24.5128 15.0306 22.989 15.7339C21.4945 16.4079 19.707 16.7449 17.6264 16.7449L18.5055 14.635C20.674 14.635 22.5641 14.972 24.1758 15.646C25.7875 16.2907 27.033 17.2431 27.9121 18.5031C28.8205 19.7339 29.2747 21.2431 29.2747 23.0306C29.2747 25.6973 28.1905 27.7778 26.022 29.2724C23.8828 30.7376 20.7472 31.4702 16.6154 31.4702H0ZM8.61538 25.1844H15.9121C17.4066 25.1844 18.5348 24.9354 19.2967 24.4372C20.0879 23.9097 20.4835 23.1185 20.4835 22.0636C20.4835 21.0086 20.0879 20.2321 19.2967 19.7339C18.5348 19.2064 17.4066 18.9427 15.9121 18.9427H8V12.9207H14.5934C16.0586 12.9207 17.1575 12.6716 17.8901 12.1735C18.6227 11.6753 18.989 10.928 18.989 9.9317C18.989 8.93536 18.6227 8.20276 17.8901 7.73389C17.1575 7.23573 16.0586 6.98664 14.5934 6.98664H8.61538V25.1844Z" fill="#F9FAFB"/>
<path d="M40.4639 12.613H54.7496V19.1185H40.4639V12.613ZM41.0793 24.7449H59.4599L56.5958 31.4702H32.4639V0.700928H56.5958L59.4599 7.4262H41.0793V24.7449Z" fill="#F9FAFB"/>
<path d="M69.6995 31.4702L56.5958 0.700928H65.9632L77.0402 27.3383H71.5017L82.8424 2.07455L91.4577 0.700928L78.2709 31.4702H69.6995Z" fill="#F9FAFB"/>
</svg>
