<svg width="1080" height="1080" viewBox="0 0 1080 1080" fill="none" xmlns="http://www.w3.org/2000/svg">
<rect width="1080" height="1080" fill="#374151"/>
<g filter="url(#filter0_i_215_3665)">
<g clip-path="url(#clip0_215_3665)">
<rect x="32" y="32" width="1016" height="1016" rx="16" fill="#60779C"/>
<g filter="url(#filter1_i_215_3665)">
<path fill-rule="evenodd" clip-rule="evenodd" d="M1059.44 997.997C1064.05 995.335 1069.72 995.334 1074.33 997.994L1100.42 1013.05C1105.04 1015.71 1107.88 1020.63 1107.88 1025.95V1056.05C1107.88 1061.37 1105.04 1066.29 1100.42 1068.95L1074.33 1084.01C1069.72 1086.67 1064.05 1086.66 1059.44 1084L1033.37 1068.95C1028.76 1066.29 1025.92 1061.37 1025.92 1056.05V1025.95C1025.92 1020.63 1028.76 1015.71 1033.37 1013.05L1059.44 997.997ZM1070.61 1011.07C1068.3 1009.74 1065.47 1009.74 1063.16 1011.07L1042.83 1022.8C1040.53 1024.13 1039.1 1026.59 1039.1 1029.25V1052.75C1039.1 1055.41 1040.53 1057.87 1042.83 1059.2L1063.16 1070.93C1065.47 1072.26 1068.3 1072.26 1070.61 1070.93L1090.97 1059.18C1093.27 1057.84 1094.7 1055.38 1094.7 1052.72V1029.25C1094.7 1026.59 1093.27 1024.13 1090.97 1022.8L1070.61 1011.07Z" fill="#7FFF00"/>
<path fill-rule="evenodd" clip-rule="evenodd" d="M1012.44 919.997C1017.05 917.335 1022.72 917.334 1027.33 919.994L1053.42 935.046C1058.04 937.707 1060.88 942.628 1060.88 947.954V978.046C1060.88 983.372 1058.04 988.293 1053.42 990.954L1027.33 1006.01C1022.72 1008.67 1017.05 1008.66 1012.44 1006L986.371 990.954C981.76 988.292 978.92 983.372 978.92 978.049V947.951C978.92 942.628 981.76 937.708 986.371 935.046L1012.44 919.997ZM1023.61 933.066C1021.3 931.738 1018.47 931.739 1016.16 933.067L995.832 944.797C993.526 946.128 992.105 948.588 992.105 951.251V974.749C992.105 977.412 993.526 979.872 995.832 981.203L1016.16 992.93C1018.47 994.26 1021.3 994.259 1023.61 992.929L1043.97 981.175C1046.27 979.845 1047.7 977.385 1047.7 974.723V951.254C1047.7 948.59 1046.27 946.129 1043.97 944.798L1023.61 933.066Z" fill="#7FFF00"/>
</g>
<g filter="url(#filter2_i_215_3665)">
<path fill-rule="evenodd" clip-rule="evenodd" d="M1012.44 919.997C1017.05 917.335 1022.72 917.334 1027.33 919.994L1053.42 935.046C1058.04 937.707 1060.88 942.628 1060.88 947.954V978.046C1060.88 983.372 1058.04 988.293 1053.42 990.954L1027.33 1006.01C1022.72 1008.67 1017.05 1008.66 1012.44 1006L986.371 990.954C981.76 988.292 978.92 983.372 978.92 978.049V947.951C978.92 942.628 981.76 937.708 986.371 935.046L1012.44 919.997ZM1023.61 933.066C1021.3 931.738 1018.47 931.739 1016.16 933.067L995.832 944.797C993.526 946.128 992.105 948.588 992.105 951.251V974.749C992.105 977.412 993.526 979.872 995.832 981.203L1016.16 992.93C1018.47 994.26 1021.3 994.259 1023.61 992.929L1043.97 981.175C1046.27 979.845 1047.7 977.385 1047.7 974.723V951.254C1047.7 948.59 1046.27 946.129 1043.97 944.798L1023.61 933.066Z" fill="#7FFF00"/>
<path fill-rule="evenodd" clip-rule="evenodd" d="M1059.44 841.997C1064.05 839.335 1069.72 839.334 1074.33 841.994L1100.42 857.046C1105.04 859.707 1107.88 864.628 1107.88 869.954V900.046C1107.88 905.372 1105.04 910.293 1100.42 912.954L1074.33 928.006C1069.72 930.666 1064.05 930.665 1059.44 928.003L1033.37 912.954C1028.76 910.292 1025.92 905.372 1025.92 900.049V869.951C1025.92 864.628 1028.76 859.708 1033.37 857.046L1059.44 841.997ZM1070.61 855.066C1068.3 853.738 1065.47 853.739 1063.16 855.067L1042.83 866.797C1040.53 868.128 1039.1 870.588 1039.1 873.251V896.749C1039.1 899.412 1040.53 901.872 1042.83 903.203L1063.16 914.93C1065.47 916.26 1068.3 916.259 1070.61 914.929L1090.97 903.175C1093.27 901.845 1094.7 899.385 1094.7 896.723V873.254C1094.7 870.59 1093.27 868.129 1090.97 866.798L1070.61 855.066Z" fill="#7FFF00"/>
<path fill-rule="evenodd" clip-rule="evenodd" d="M1012.44 763.997C1017.05 761.335 1022.72 761.334 1027.33 763.994L1053.42 779.046C1058.04 781.707 1060.88 786.628 1060.88 791.954V822.046C1060.88 827.372 1058.04 832.293 1053.42 834.954L1027.33 850.006C1022.72 852.666 1017.05 852.665 1012.44 850.003L986.371 834.954C981.76 832.292 978.92 827.372 978.92 822.049V791.951C978.92 786.628 981.76 781.708 986.371 779.046L1012.44 763.997ZM1023.61 777.066C1021.3 775.738 1018.47 775.739 1016.16 777.067L995.832 788.797C993.526 790.128 992.105 792.588 992.105 795.251V818.749C992.105 821.412 993.526 823.872 995.832 825.203L1016.16 836.93C1018.47 838.26 1021.3 838.259 1023.61 836.929L1043.97 825.175C1046.27 823.845 1047.7 821.385 1047.7 818.723V795.254C1047.7 792.59 1046.27 790.129 1043.97 788.798L1023.61 777.066Z" fill="#7FFF00"/>
</g>
<g filter="url(#filter3_i_215_3665)">
<path fill-rule="evenodd" clip-rule="evenodd" d="M1012.44 763.997C1017.05 761.335 1022.72 761.334 1027.33 763.994L1053.42 779.046C1058.04 781.707 1060.88 786.628 1060.88 791.954V822.046C1060.88 827.372 1058.04 832.293 1053.42 834.954L1027.33 850.006C1022.72 852.666 1017.05 852.665 1012.44 850.003L986.371 834.954C981.76 832.292 978.92 827.372 978.92 822.049V791.951C978.92 786.628 981.76 781.708 986.371 779.046L1012.44 763.997ZM1023.61 777.066C1021.3 775.738 1018.47 775.739 1016.16 777.067L995.832 788.797C993.526 790.128 992.105 792.588 992.105 795.251V818.749C992.105 821.412 993.526 823.872 995.832 825.203L1016.16 836.93C1018.47 838.26 1021.3 838.259 1023.61 836.929L1043.97 825.175C1046.27 823.845 1047.7 821.385 1047.7 818.723V795.254C1047.7 792.59 1046.27 790.129 1043.97 788.798L1023.61 777.066Z" fill="#7FFF00"/>
<path fill-rule="evenodd" clip-rule="evenodd" d="M1059.44 685.997C1064.05 683.335 1069.72 683.334 1074.33 685.994L1100.42 701.046C1105.04 703.707 1107.88 708.628 1107.88 713.954V744.046C1107.88 749.372 1105.04 754.293 1100.42 756.954L1074.33 772.006C1069.72 774.666 1064.05 774.665 1059.44 772.003L1033.37 756.954C1028.76 754.292 1025.92 749.372 1025.92 744.049V713.951C1025.92 708.628 1028.76 703.708 1033.37 701.046L1059.44 685.997ZM1070.61 699.066C1068.3 697.738 1065.47 697.739 1063.16 699.067L1042.83 710.797C1040.53 712.128 1039.1 714.588 1039.1 717.251V740.749C1039.1 743.412 1040.53 745.872 1042.83 747.203L1063.16 758.93C1065.47 760.26 1068.3 760.259 1070.61 758.929L1090.97 747.175C1093.27 745.845 1094.7 743.385 1094.7 740.723V717.254C1094.7 714.59 1093.27 712.129 1090.97 710.798L1070.61 699.066Z" fill="#7FFF00"/>
<path fill-rule="evenodd" clip-rule="evenodd" d="M1012.44 607.997C1017.05 605.335 1022.72 605.334 1027.33 607.994L1053.42 623.046C1058.04 625.707 1060.88 630.628 1060.88 635.954V666.046C1060.88 671.372 1058.04 676.293 1053.42 678.954L1027.33 694.006C1022.72 696.666 1017.05 696.665 1012.44 694.003L986.371 678.954C981.76 676.292 978.92 671.372 978.92 666.049V635.951C978.92 630.628 981.76 625.708 986.371 623.046L1012.44 607.997ZM1023.61 621.066C1021.3 619.738 1018.47 619.739 1016.16 621.067L995.832 632.797C993.526 634.128 992.105 636.588 992.105 639.251V662.749C992.105 665.412 993.526 667.872 995.832 669.203L1016.16 680.93C1018.47 682.26 1021.3 682.259 1023.61 680.929L1043.97 669.175C1046.27 667.845 1047.7 665.385 1047.7 662.723V639.254C1047.7 636.59 1046.27 634.129 1043.97 632.798L1023.61 621.066Z" fill="#7FFF00"/>
</g>
<g filter="url(#filter4_i_215_3665)">
<path fill-rule="evenodd" clip-rule="evenodd" d="M1012.44 607.997C1017.05 605.335 1022.72 605.334 1027.33 607.994L1053.42 623.046C1058.04 625.707 1060.88 630.628 1060.88 635.954V666.046C1060.88 671.372 1058.04 676.293 1053.42 678.954L1027.33 694.006C1022.72 696.666 1017.05 696.665 1012.44 694.003L986.371 678.954C981.76 676.292 978.92 671.372 978.92 666.049V635.951C978.92 630.628 981.76 625.708 986.371 623.046L1012.44 607.997ZM1023.61 621.066C1021.3 619.738 1018.47 619.739 1016.16 621.067L995.832 632.797C993.526 634.128 992.105 636.588 992.105 639.251V662.749C992.105 665.412 993.526 667.872 995.832 669.203L1016.16 680.93C1018.47 682.26 1021.3 682.259 1023.61 680.929L1043.97 669.175C1046.27 667.845 1047.7 665.385 1047.7 662.723V639.254C1047.7 636.59 1046.27 634.129 1043.97 632.798L1023.61 621.066Z" fill="#7FFF00"/>
<path fill-rule="evenodd" clip-rule="evenodd" d="M1059.44 529.997C1064.05 527.335 1069.72 527.334 1074.33 529.994L1100.42 545.046C1105.04 547.707 1107.88 552.628 1107.88 557.954V588.046C1107.88 593.372 1105.04 598.293 1100.42 600.954L1074.33 616.006C1069.72 618.666 1064.05 618.665 1059.44 616.003L1033.37 600.954C1028.76 598.292 1025.92 593.372 1025.92 588.049V557.951C1025.92 552.628 1028.76 547.708 1033.37 545.046L1059.44 529.997ZM1070.61 543.066C1068.3 541.738 1065.47 541.739 1063.16 543.067L1042.83 554.797C1040.53 556.128 1039.1 558.588 1039.1 561.251V584.749C1039.1 587.412 1040.53 589.872 1042.83 591.203L1063.16 602.93C1065.47 604.26 1068.3 604.259 1070.61 602.929L1090.97 591.175C1093.27 589.845 1094.7 587.385 1094.7 584.723V561.254C1094.7 558.59 1093.27 556.129 1090.97 554.798L1070.61 543.066Z" fill="#7FFF00"/>
<path fill-rule="evenodd" clip-rule="evenodd" d="M1012.44 451.997C1017.05 449.335 1022.72 449.334 1027.33 451.994L1053.42 467.046C1058.04 469.707 1060.88 474.628 1060.88 479.954V510.046C1060.88 515.372 1058.04 520.293 1053.42 522.954L1027.33 538.006C1022.72 540.666 1017.05 540.665 1012.44 538.003L986.371 522.954C981.76 520.292 978.92 515.372 978.92 510.049V479.951C978.92 474.628 981.76 469.708 986.371 467.046L1012.44 451.997ZM1023.61 465.066C1021.3 463.738 1018.47 463.739 1016.16 465.067L995.832 476.797C993.526 478.128 992.105 480.588 992.105 483.251V506.749C992.105 509.412 993.526 511.872 995.832 513.203L1016.16 524.93C1018.47 526.26 1021.3 526.259 1023.61 524.929L1043.97 513.175C1046.27 511.845 1047.7 509.385 1047.7 506.723V483.254C1047.7 480.59 1046.27 478.129 1043.97 476.798L1023.61 465.066Z" fill="#7FFF00"/>
</g>
<g filter="url(#filter5_i_215_3665)">
<path fill-rule="evenodd" clip-rule="evenodd" d="M1012.44 451.997C1017.05 449.335 1022.72 449.334 1027.33 451.994L1053.42 467.046C1058.04 469.707 1060.88 474.628 1060.88 479.954V510.046C1060.88 515.372 1058.04 520.293 1053.42 522.954L1027.33 538.006C1022.72 540.666 1017.05 540.665 1012.44 538.003L986.371 522.954C981.76 520.292 978.92 515.372 978.92 510.049V479.951C978.92 474.628 981.76 469.708 986.371 467.046L1012.44 451.997ZM1023.61 465.066C1021.3 463.738 1018.47 463.739 1016.16 465.067L995.832 476.797C993.526 478.128 992.105 480.588 992.105 483.251V506.749C992.105 509.412 993.526 511.872 995.832 513.203L1016.16 524.93C1018.47 526.26 1021.3 526.259 1023.61 524.929L1043.97 513.175C1046.27 511.845 1047.7 509.385 1047.7 506.723V483.254C1047.7 480.59 1046.27 478.129 1043.97 476.798L1023.61 465.066Z" fill="#7FFF00"/>
<path fill-rule="evenodd" clip-rule="evenodd" d="M1059.44 373.997C1064.05 371.335 1069.72 371.334 1074.33 373.994L1100.42 389.046C1105.04 391.707 1107.88 396.628 1107.88 401.954V432.046C1107.88 437.372 1105.04 442.293 1100.42 444.954L1074.33 460.006C1069.72 462.666 1064.05 462.665 1059.44 460.003L1033.37 444.954C1028.76 442.292 1025.92 437.372 1025.92 432.049V401.951C1025.92 396.628 1028.76 391.708 1033.37 389.046L1059.44 373.997ZM1070.61 387.066C1068.3 385.738 1065.47 385.739 1063.16 387.067L1042.83 398.797C1040.53 400.128 1039.1 402.588 1039.1 405.251V428.749C1039.1 431.412 1040.53 433.872 1042.83 435.203L1063.16 446.93C1065.47 448.26 1068.3 448.259 1070.61 446.929L1090.97 435.175C1093.27 433.845 1094.7 431.385 1094.7 428.723V405.254C1094.7 402.59 1093.27 400.129 1090.97 398.798L1070.61 387.066Z" fill="#7FFF00"/>
<path fill-rule="evenodd" clip-rule="evenodd" d="M1012.44 295.997C1017.05 293.335 1022.72 293.334 1027.33 295.994L1053.42 311.046C1058.04 313.707 1060.88 318.628 1060.88 323.954V354.046C1060.88 359.372 1058.04 364.293 1053.42 366.954L1027.33 382.006C1022.72 384.666 1017.05 384.665 1012.44 382.003L986.371 366.954C981.76 364.292 978.92 359.372 978.92 354.049V323.951C978.92 318.628 981.76 313.708 986.371 311.046L1012.44 295.997ZM1023.61 309.066C1021.3 307.738 1018.47 307.739 1016.16 309.067L995.832 320.797C993.526 322.128 992.105 324.588 992.105 327.251V350.749C992.105 353.412 993.526 355.872 995.832 357.203L1016.16 368.93C1018.47 370.26 1021.3 370.259 1023.61 368.929L1043.97 357.175C1046.27 355.845 1047.7 353.385 1047.7 350.723V327.254C1047.7 324.59 1046.27 322.129 1043.97 320.798L1023.61 309.066Z" fill="#7FFF00"/>
</g>
<g filter="url(#filter6_i_215_3665)">
<path fill-rule="evenodd" clip-rule="evenodd" d="M1012.44 295.997C1017.05 293.335 1022.72 293.334 1027.33 295.994L1053.42 311.046C1058.04 313.707 1060.88 318.628 1060.88 323.954V354.046C1060.88 359.372 1058.04 364.293 1053.42 366.954L1027.33 382.006C1022.72 384.666 1017.05 384.665 1012.44 382.003L986.371 366.954C981.76 364.292 978.92 359.372 978.92 354.049V323.951C978.92 318.628 981.76 313.708 986.371 311.046L1012.44 295.997ZM1023.61 309.066C1021.3 307.738 1018.47 307.739 1016.16 309.067L995.832 320.797C993.526 322.128 992.105 324.588 992.105 327.251V350.749C992.105 353.412 993.526 355.872 995.832 357.203L1016.16 368.93C1018.47 370.26 1021.3 370.259 1023.61 368.929L1043.97 357.175C1046.27 355.845 1047.7 353.385 1047.7 350.723V327.254C1047.7 324.59 1046.27 322.129 1043.97 320.798L1023.61 309.066Z" fill="#7FFF00"/>
<path fill-rule="evenodd" clip-rule="evenodd" d="M1059.44 217.997C1064.05 215.335 1069.72 215.334 1074.33 217.994L1100.42 233.046C1105.04 235.707 1107.88 240.628 1107.88 245.954V276.046C1107.88 281.372 1105.04 286.293 1100.42 288.954L1074.33 304.006C1069.72 306.666 1064.05 306.665 1059.44 304.003L1033.37 288.954C1028.76 286.292 1025.92 281.372 1025.92 276.049V245.951C1025.92 240.628 1028.76 235.708 1033.37 233.046L1059.44 217.997ZM1070.61 231.066C1068.3 229.738 1065.47 229.739 1063.16 231.067L1042.83 242.797C1040.53 244.128 1039.1 246.588 1039.1 249.251V272.749C1039.1 275.412 1040.53 277.872 1042.83 279.203L1063.16 290.93C1065.47 292.26 1068.3 292.259 1070.61 290.929L1090.97 279.175C1093.27 277.845 1094.7 275.385 1094.7 272.723V249.254C1094.7 246.59 1093.27 244.129 1090.97 242.798L1070.61 231.066Z" fill="#7FFF00"/>
<path fill-rule="evenodd" clip-rule="evenodd" d="M1012.44 139.997C1017.05 137.335 1022.72 137.334 1027.33 139.994L1053.42 155.046C1058.04 157.707 1060.88 162.628 1060.88 167.954V198.046C1060.88 203.372 1058.04 208.293 1053.42 210.954L1027.33 226.006C1022.72 228.666 1017.05 228.665 1012.44 226.003L986.371 210.954C981.76 208.292 978.92 203.372 978.92 198.049V167.951C978.92 162.628 981.76 157.708 986.371 155.046L1012.44 139.997ZM1023.61 153.066C1021.3 151.738 1018.47 151.739 1016.16 153.067L995.832 164.797C993.526 166.128 992.105 168.588 992.105 171.251V194.749C992.105 197.412 993.526 199.872 995.832 201.203L1016.16 212.93C1018.47 214.26 1021.3 214.259 1023.61 212.929L1043.97 201.175C1046.27 199.845 1047.7 197.385 1047.7 194.723V171.254C1047.7 168.59 1046.27 166.129 1043.97 164.798L1023.61 153.066Z" fill="#7FFF00"/>
</g>
<g filter="url(#filter7_i_215_3665)">
<path fill-rule="evenodd" clip-rule="evenodd" d="M1012.44 139.997C1017.05 137.335 1022.72 137.334 1027.33 139.994L1053.42 155.046C1058.04 157.707 1060.88 162.628 1060.88 167.954V198.046C1060.88 203.372 1058.04 208.293 1053.42 210.954L1027.33 226.006C1022.72 228.666 1017.05 228.665 1012.44 226.003L986.371 210.954C981.76 208.292 978.92 203.372 978.92 198.049V167.951C978.92 162.628 981.76 157.708 986.371 155.046L1012.44 139.997ZM1023.61 153.066C1021.3 151.738 1018.47 151.739 1016.16 153.067L995.832 164.797C993.526 166.128 992.105 168.588 992.105 171.251V194.749C992.105 197.412 993.526 199.872 995.832 201.203L1016.16 212.93C1018.47 214.26 1021.3 214.259 1023.61 212.929L1043.97 201.175C1046.27 199.845 1047.7 197.385 1047.7 194.723V171.254C1047.7 168.59 1046.27 166.129 1043.97 164.798L1023.61 153.066Z" fill="#7FFF00"/>
<path fill-rule="evenodd" clip-rule="evenodd" d="M1059.44 61.9966C1064.05 59.3354 1069.72 59.3344 1074.33 61.9941L1100.42 77.0462C1105.04 79.7075 1107.88 84.6283 1107.88 89.9538V120.046C1107.88 125.372 1105.04 130.293 1100.42 132.954L1074.33 148.006C1069.72 150.666 1064.05 150.665 1059.44 148.003L1033.37 132.954C1028.76 130.292 1025.92 125.372 1025.92 120.049V89.9514C1025.92 84.6275 1028.76 79.7081 1033.37 77.0462L1059.44 61.9966ZM1070.61 75.0658C1068.3 73.738 1065.47 73.7386 1063.16 75.0673L1042.83 86.7969C1040.53 88.1276 1039.1 90.588 1039.1 93.2509V116.749C1039.1 119.412 1040.53 121.872 1042.83 123.203L1063.16 134.93C1065.47 136.26 1068.3 136.259 1070.61 134.929L1090.97 123.175C1093.27 121.845 1094.7 119.385 1094.7 116.723V93.2538C1094.7 90.5899 1093.27 88.1287 1090.97 86.7984L1070.61 75.0658Z" fill="#7FFF00"/>
<path fill-rule="evenodd" clip-rule="evenodd" d="M1012.44 -16.0034C1017.05 -18.6646 1022.72 -18.6656 1027.33 -16.0059L1053.42 -0.953846C1058.04 1.70747 1060.88 6.62825 1060.88 11.9538V42.0462C1060.88 47.3718 1058.04 52.2925 1053.42 54.9539L1027.33 70.0059C1022.72 72.6656 1017.05 72.6646 1012.44 70.0035L986.371 54.9539C981.76 52.2919 978.92 47.3725 978.92 42.0486V11.9514C978.92 6.62754 981.76 1.70812 986.371 -0.953846L1012.44 -16.0034ZM1023.61 -2.93418C1021.3 -4.262 1018.47 -4.26144 1016.16 -2.93271L995.832 8.79695C993.526 10.1276 992.105 12.588 992.105 15.2509V38.7491C992.105 41.412 993.526 43.8724 995.832 45.2031L1016.16 56.9302C1018.47 58.2598 1021.3 58.2594 1023.61 56.9291L1043.97 45.1755C1046.27 43.8446 1047.7 41.3847 1047.7 38.7226V15.2538C1047.7 12.5899 1046.27 10.1287 1043.97 8.79842L1023.61 -2.93418Z" fill="#7FFF00"/>
</g>
<g filter="url(#filter8_i_215_3665)">
<path fill-rule="evenodd" clip-rule="evenodd" d="M5.51663 997.997C10.1258 995.335 15.8044 995.334 20.4144 997.994L46.5047 1013.05C51.1176 1015.71 53.9597 1020.63 53.9597 1025.95V1056.05C53.9597 1061.37 51.1176 1066.29 46.5047 1068.95L20.4144 1084.01C15.8044 1086.67 10.1258 1086.66 5.51662 1084L-20.5493 1068.95C-25.1598 1066.29 -28 1061.37 -28 1056.05V1025.95C-28 1020.63 -25.1598 1015.71 -20.5493 1013.05L5.51663 997.997ZM16.6887 1011.07C14.3849 1009.74 11.5481 1009.74 9.24486 1011.07L-11.0878 1022.8C-13.3944 1024.13 -14.8155 1026.59 -14.8155 1029.25V1052.75C-14.8155 1055.41 -13.3944 1057.87 -11.0878 1059.2L9.24046 1070.93C11.5453 1072.26 14.3843 1072.26 16.6887 1070.93L37.0494 1059.18C39.3549 1057.84 40.7752 1055.38 40.7752 1052.72V1029.25C40.7752 1026.59 39.353 1024.13 37.045 1022.8L16.6887 1011.07Z" fill="#7FFF00"/>
<path fill-rule="evenodd" clip-rule="evenodd" d="M52.4763 919.997C57.0855 917.335 62.7641 917.334 67.3741 919.994L93.4644 935.046C98.0774 937.707 100.919 942.628 100.919 947.954V978.046C100.919 983.372 98.0774 988.293 93.4644 990.954L67.3741 1006.01C62.7641 1008.67 57.0855 1008.66 52.4763 1006L26.4104 990.954C21.7999 988.292 18.9597 983.372 18.9597 978.049V947.951C18.9597 942.628 21.7999 937.708 26.4104 935.046L52.4763 919.997ZM63.6484 933.066C61.3447 931.738 58.5078 931.739 56.2046 933.067L35.8719 944.797C33.5654 946.128 32.1443 948.588 32.1443 951.251V974.749C32.1443 977.412 33.5654 979.872 35.8719 981.203L56.2002 992.93C58.505 994.26 61.344 994.259 63.6484 992.929L84.0091 981.175C86.3146 979.845 87.7349 977.385 87.7349 974.723V951.254C87.7349 948.59 86.3127 946.129 84.0047 944.798L63.6484 933.066Z" fill="#7FFF00"/>
</g>
<g filter="url(#filter9_i_215_3665)">
<path fill-rule="evenodd" clip-rule="evenodd" d="M52.4763 919.997C57.0855 917.335 62.7641 917.334 67.3741 919.994L93.4644 935.046C98.0774 937.707 100.919 942.628 100.919 947.954V978.046C100.919 983.372 98.0774 988.293 93.4644 990.954L67.3741 1006.01C62.7641 1008.67 57.0855 1008.66 52.4763 1006L26.4104 990.954C21.7999 988.292 18.9597 983.372 18.9597 978.049V947.951C18.9597 942.628 21.7999 937.708 26.4104 935.046L52.4763 919.997ZM63.6484 933.066C61.3447 931.738 58.5078 931.739 56.2046 933.067L35.8719 944.797C33.5654 946.128 32.1443 948.588 32.1443 951.251V974.749C32.1443 977.412 33.5654 979.872 35.8719 981.203L56.2002 992.93C58.505 994.26 61.344 994.259 63.6484 992.929L84.0091 981.175C86.3146 979.845 87.7349 977.385 87.7349 974.723V951.254C87.7349 948.59 86.3127 946.129 84.0047 944.798L63.6484 933.066Z" fill="#7FFF00"/>
<path fill-rule="evenodd" clip-rule="evenodd" d="M5.51663 841.997C10.1258 839.335 15.8044 839.334 20.4144 841.994L46.5047 857.046C51.1176 859.707 53.9597 864.628 53.9597 869.954V900.046C53.9597 905.372 51.1176 910.293 46.5047 912.954L20.4144 928.006C15.8044 930.666 10.1258 930.665 5.51662 928.003L-20.5493 912.954C-25.1598 910.292 -28 905.372 -28 900.049V869.951C-28 864.628 -25.1598 859.708 -20.5493 857.046L5.51663 841.997ZM16.6887 855.066C14.3849 853.738 11.5481 853.739 9.24486 855.067L-11.0878 866.797C-13.3944 868.128 -14.8155 870.588 -14.8155 873.251V896.749C-14.8155 899.412 -13.3944 901.872 -11.0878 903.203L9.24046 914.93C11.5453 916.26 14.3843 916.259 16.6887 914.929L37.0494 903.175C39.3549 901.845 40.7752 899.385 40.7752 896.723V873.254C40.7752 870.59 39.353 868.129 37.045 866.798L16.6887 855.066Z" fill="#7FFF00"/>
<path fill-rule="evenodd" clip-rule="evenodd" d="M52.4763 763.997C57.0855 761.335 62.7641 761.334 67.3741 763.994L93.4644 779.046C98.0774 781.707 100.919 786.628 100.919 791.954V822.046C100.919 827.372 98.0774 832.293 93.4644 834.954L67.3741 850.006C62.7641 852.666 57.0855 852.665 52.4763 850.003L26.4104 834.954C21.7999 832.292 18.9597 827.372 18.9597 822.049V791.951C18.9597 786.628 21.7999 781.708 26.4104 779.046L52.4763 763.997ZM63.6484 777.066C61.3447 775.738 58.5078 775.739 56.2046 777.067L35.8719 788.797C33.5654 790.128 32.1443 792.588 32.1443 795.251V818.749C32.1443 821.412 33.5654 823.872 35.8719 825.203L56.2002 836.93C58.505 838.26 61.344 838.259 63.6484 836.929L84.0091 825.175C86.3146 823.845 87.7349 821.385 87.7349 818.723V795.254C87.7349 792.59 86.3127 790.129 84.0047 788.798L63.6484 777.066Z" fill="#7FFF00"/>
</g>
<g filter="url(#filter10_i_215_3665)">
<path fill-rule="evenodd" clip-rule="evenodd" d="M52.4763 763.997C57.0855 761.335 62.7641 761.334 67.3741 763.994L93.4644 779.046C98.0774 781.707 100.919 786.628 100.919 791.954V822.046C100.919 827.372 98.0774 832.293 93.4644 834.954L67.3741 850.006C62.7641 852.666 57.0855 852.665 52.4763 850.003L26.4104 834.954C21.7999 832.292 18.9597 827.372 18.9597 822.049V791.951C18.9597 786.628 21.7999 781.708 26.4104 779.046L52.4763 763.997ZM63.6484 777.066C61.3447 775.738 58.5078 775.739 56.2046 777.067L35.8719 788.797C33.5654 790.128 32.1443 792.588 32.1443 795.251V818.749C32.1443 821.412 33.5654 823.872 35.8719 825.203L56.2002 836.93C58.505 838.26 61.344 838.259 63.6484 836.929L84.0091 825.175C86.3146 823.845 87.7349 821.385 87.7349 818.723V795.254C87.7349 792.59 86.3127 790.129 84.0047 788.798L63.6484 777.066Z" fill="#7FFF00"/>
<path fill-rule="evenodd" clip-rule="evenodd" d="M5.51663 685.997C10.1258 683.335 15.8044 683.334 20.4144 685.994L46.5047 701.046C51.1176 703.707 53.9597 708.628 53.9597 713.954V744.046C53.9597 749.372 51.1176 754.293 46.5047 756.954L20.4144 772.006C15.8044 774.666 10.1258 774.665 5.51662 772.003L-20.5493 756.954C-25.1598 754.292 -28 749.372 -28 744.049V713.951C-28 708.628 -25.1598 703.708 -20.5493 701.046L5.51663 685.997ZM16.6887 699.066C14.3849 697.738 11.5481 697.739 9.24486 699.067L-11.0878 710.797C-13.3944 712.128 -14.8155 714.588 -14.8155 717.251V740.749C-14.8155 743.412 -13.3944 745.872 -11.0878 747.203L9.24046 758.93C11.5453 760.26 14.3843 760.259 16.6887 758.929L37.0494 747.175C39.3549 745.845 40.7752 743.385 40.7752 740.723V717.254C40.7752 714.59 39.353 712.129 37.045 710.798L16.6887 699.066Z" fill="#7FFF00"/>
<path fill-rule="evenodd" clip-rule="evenodd" d="M52.4763 607.997C57.0855 605.335 62.7641 605.334 67.3741 607.994L93.4644 623.046C98.0774 625.707 100.919 630.628 100.919 635.954V666.046C100.919 671.372 98.0774 676.293 93.4644 678.954L67.3741 694.006C62.7641 696.666 57.0855 696.665 52.4763 694.003L26.4104 678.954C21.7999 676.292 18.9597 671.372 18.9597 666.049V635.951C18.9597 630.628 21.7999 625.708 26.4104 623.046L52.4763 607.997ZM63.6484 621.066C61.3447 619.738 58.5078 619.739 56.2046 621.067L35.8719 632.797C33.5654 634.128 32.1443 636.588 32.1443 639.251V662.749C32.1443 665.412 33.5654 667.872 35.8719 669.203L56.2002 680.93C58.505 682.26 61.344 682.259 63.6484 680.929L84.0091 669.175C86.3146 667.845 87.7349 665.385 87.7349 662.723V639.254C87.7349 636.59 86.3127 634.129 84.0047 632.798L63.6484 621.066Z" fill="#7FFF00"/>
</g>
<g filter="url(#filter11_i_215_3665)">
<path fill-rule="evenodd" clip-rule="evenodd" d="M52.4763 607.997C57.0855 605.335 62.7641 605.334 67.3741 607.994L93.4644 623.046C98.0774 625.707 100.919 630.628 100.919 635.954V666.046C100.919 671.372 98.0774 676.293 93.4644 678.954L67.3741 694.006C62.7641 696.666 57.0855 696.665 52.4763 694.003L26.4104 678.954C21.7999 676.292 18.9597 671.372 18.9597 666.049V635.951C18.9597 630.628 21.7999 625.708 26.4104 623.046L52.4763 607.997ZM63.6484 621.066C61.3447 619.738 58.5078 619.739 56.2046 621.067L35.8719 632.797C33.5654 634.128 32.1443 636.588 32.1443 639.251V662.749C32.1443 665.412 33.5654 667.872 35.8719 669.203L56.2002 680.93C58.505 682.26 61.344 682.259 63.6484 680.929L84.0091 669.175C86.3146 667.845 87.7349 665.385 87.7349 662.723V639.254C87.7349 636.59 86.3127 634.129 84.0047 632.798L63.6484 621.066Z" fill="#7FFF00"/>
<path fill-rule="evenodd" clip-rule="evenodd" d="M5.51663 529.997C10.1258 527.335 15.8044 527.334 20.4144 529.994L46.5047 545.046C51.1176 547.707 53.9597 552.628 53.9597 557.954V588.046C53.9597 593.372 51.1176 598.293 46.5047 600.954L20.4144 616.006C15.8044 618.666 10.1258 618.665 5.51662 616.003L-20.5493 600.954C-25.1598 598.292 -28 593.372 -28 588.049V557.951C-28 552.628 -25.1598 547.708 -20.5493 545.046L5.51663 529.997ZM16.6887 543.066C14.3849 541.738 11.5481 541.739 9.24486 543.067L-11.0878 554.797C-13.3944 556.128 -14.8155 558.588 -14.8155 561.251V584.749C-14.8155 587.412 -13.3944 589.872 -11.0878 591.203L9.24046 602.93C11.5453 604.26 14.3843 604.259 16.6887 602.929L37.0494 591.175C39.3549 589.845 40.7752 587.385 40.7752 584.723V561.254C40.7752 558.59 39.353 556.129 37.045 554.798L16.6887 543.066Z" fill="#7FFF00"/>
<path fill-rule="evenodd" clip-rule="evenodd" d="M52.4763 451.997C57.0855 449.335 62.7641 449.334 67.3741 451.994L93.4644 467.046C98.0774 469.707 100.919 474.628 100.919 479.954V510.046C100.919 515.372 98.0774 520.293 93.4644 522.954L67.3741 538.006C62.7641 540.666 57.0855 540.665 52.4763 538.003L26.4104 522.954C21.7999 520.292 18.9597 515.372 18.9597 510.049V479.951C18.9597 474.628 21.7999 469.708 26.4104 467.046L52.4763 451.997ZM63.6484 465.066C61.3447 463.738 58.5078 463.739 56.2046 465.067L35.8719 476.797C33.5654 478.128 32.1443 480.588 32.1443 483.251V506.749C32.1443 509.412 33.5654 511.872 35.8719 513.203L56.2002 524.93C58.505 526.26 61.344 526.259 63.6484 524.929L84.0091 513.175C86.3146 511.845 87.7349 509.385 87.7349 506.723V483.254C87.7349 480.59 86.3127 478.129 84.0047 476.798L63.6484 465.066Z" fill="#7FFF00"/>
</g>
<g filter="url(#filter12_i_215_3665)">
<path fill-rule="evenodd" clip-rule="evenodd" d="M52.4763 451.997C57.0855 449.335 62.7641 449.334 67.3741 451.994L93.4644 467.046C98.0774 469.707 100.919 474.628 100.919 479.954V510.046C100.919 515.372 98.0774 520.293 93.4644 522.954L67.3741 538.006C62.7641 540.666 57.0855 540.665 52.4763 538.003L26.4104 522.954C21.7999 520.292 18.9597 515.372 18.9597 510.049V479.951C18.9597 474.628 21.7999 469.708 26.4104 467.046L52.4763 451.997ZM63.6484 465.066C61.3447 463.738 58.5078 463.739 56.2046 465.067L35.8719 476.797C33.5654 478.128 32.1443 480.588 32.1443 483.251V506.749C32.1443 509.412 33.5654 511.872 35.8719 513.203L56.2002 524.93C58.505 526.26 61.344 526.259 63.6484 524.929L84.0091 513.175C86.3146 511.845 87.7349 509.385 87.7349 506.723V483.254C87.7349 480.59 86.3127 478.129 84.0047 476.798L63.6484 465.066Z" fill="#7FFF00"/>
<path fill-rule="evenodd" clip-rule="evenodd" d="M5.51663 373.997C10.1258 371.335 15.8044 371.334 20.4144 373.994L46.5047 389.046C51.1176 391.707 53.9597 396.628 53.9597 401.954V432.046C53.9597 437.372 51.1176 442.293 46.5047 444.954L20.4144 460.006C15.8044 462.666 10.1258 462.665 5.51662 460.003L-20.5493 444.954C-25.1598 442.292 -28 437.372 -28 432.049V401.951C-28 396.628 -25.1598 391.708 -20.5493 389.046L5.51663 373.997ZM16.6887 387.066C14.3849 385.738 11.5481 385.739 9.24486 387.067L-11.0878 398.797C-13.3944 400.128 -14.8155 402.588 -14.8155 405.251V428.749C-14.8155 431.412 -13.3944 433.872 -11.0878 435.203L9.24046 446.93C11.5453 448.26 14.3843 448.259 16.6887 446.929L37.0494 435.175C39.3549 433.845 40.7752 431.385 40.7752 428.723V405.254C40.7752 402.59 39.353 400.129 37.045 398.798L16.6887 387.066Z" fill="#7FFF00"/>
<path fill-rule="evenodd" clip-rule="evenodd" d="M52.4763 295.997C57.0855 293.335 62.7641 293.334 67.3741 295.994L93.4644 311.046C98.0774 313.707 100.919 318.628 100.919 323.954V354.046C100.919 359.372 98.0774 364.293 93.4644 366.954L67.3741 382.006C62.7641 384.666 57.0855 384.665 52.4763 382.003L26.4104 366.954C21.7999 364.292 18.9597 359.372 18.9597 354.049V323.951C18.9597 318.628 21.7999 313.708 26.4104 311.046L52.4763 295.997ZM63.6484 309.066C61.3447 307.738 58.5078 307.739 56.2046 309.067L35.8719 320.797C33.5654 322.128 32.1443 324.588 32.1443 327.251V350.749C32.1443 353.412 33.5654 355.872 35.8719 357.203L56.2002 368.93C58.505 370.26 61.344 370.259 63.6484 368.929L84.0091 357.175C86.3146 355.845 87.7349 353.385 87.7349 350.723V327.254C87.7349 324.59 86.3127 322.129 84.0047 320.798L63.6484 309.066Z" fill="#7FFF00"/>
</g>
<g filter="url(#filter13_i_215_3665)">
<path fill-rule="evenodd" clip-rule="evenodd" d="M52.4763 295.997C57.0855 293.335 62.7641 293.334 67.3741 295.994L93.4644 311.046C98.0774 313.707 100.919 318.628 100.919 323.954V354.046C100.919 359.372 98.0774 364.293 93.4644 366.954L67.3741 382.006C62.7641 384.666 57.0855 384.665 52.4763 382.003L26.4104 366.954C21.7999 364.292 18.9597 359.372 18.9597 354.049V323.951C18.9597 318.628 21.7999 313.708 26.4104 311.046L52.4763 295.997ZM63.6484 309.066C61.3447 307.738 58.5078 307.739 56.2046 309.067L35.8719 320.797C33.5654 322.128 32.1443 324.588 32.1443 327.251V350.749C32.1443 353.412 33.5654 355.872 35.8719 357.203L56.2002 368.93C58.505 370.26 61.344 370.259 63.6484 368.929L84.0091 357.175C86.3146 355.845 87.7349 353.385 87.7349 350.723V327.254C87.7349 324.59 86.3127 322.129 84.0047 320.798L63.6484 309.066Z" fill="#7FFF00"/>
<path fill-rule="evenodd" clip-rule="evenodd" d="M5.51663 217.997C10.1258 215.335 15.8044 215.334 20.4144 217.994L46.5047 233.046C51.1176 235.707 53.9597 240.628 53.9597 245.954V276.046C53.9597 281.372 51.1176 286.293 46.5047 288.954L20.4144 304.006C15.8044 306.666 10.1258 306.665 5.51662 304.003L-20.5493 288.954C-25.1598 286.292 -28 281.372 -28 276.049V245.951C-28 240.628 -25.1598 235.708 -20.5493 233.046L5.51663 217.997ZM16.6887 231.066C14.3849 229.738 11.5481 229.739 9.24486 231.067L-11.0878 242.797C-13.3944 244.128 -14.8155 246.588 -14.8155 249.251V272.749C-14.8155 275.412 -13.3944 277.872 -11.0878 279.203L9.24046 290.93C11.5453 292.26 14.3843 292.259 16.6887 290.929L37.0494 279.175C39.3549 277.845 40.7752 275.385 40.7752 272.723V249.254C40.7752 246.59 39.353 244.129 37.045 242.798L16.6887 231.066Z" fill="#7FFF00"/>
<path fill-rule="evenodd" clip-rule="evenodd" d="M52.4763 139.997C57.0855 137.335 62.7641 137.334 67.3741 139.994L93.4644 155.046C98.0774 157.707 100.919 162.628 100.919 167.954V198.046C100.919 203.372 98.0774 208.293 93.4644 210.954L67.3741 226.006C62.7641 228.666 57.0855 228.665 52.4763 226.003L26.4104 210.954C21.7999 208.292 18.9597 203.372 18.9597 198.049V167.951C18.9597 162.628 21.7999 157.708 26.4104 155.046L52.4763 139.997ZM63.6484 153.066C61.3447 151.738 58.5078 151.739 56.2046 153.067L35.8719 164.797C33.5654 166.128 32.1443 168.588 32.1443 171.251V194.749C32.1443 197.412 33.5654 199.872 35.8719 201.203L56.2002 212.93C58.505 214.26 61.344 214.259 63.6484 212.929L84.0091 201.175C86.3146 199.845 87.7349 197.385 87.7349 194.723V171.254C87.7349 168.59 86.3127 166.129 84.0047 164.798L63.6484 153.066Z" fill="#7FFF00"/>
</g>
<g filter="url(#filter14_i_215_3665)">
<path fill-rule="evenodd" clip-rule="evenodd" d="M52.4763 139.997C57.0855 137.335 62.7641 137.334 67.3741 139.994L93.4644 155.046C98.0774 157.707 100.919 162.628 100.919 167.954V198.046C100.919 203.372 98.0774 208.293 93.4644 210.954L67.3741 226.006C62.7641 228.666 57.0855 228.665 52.4763 226.003L26.4104 210.954C21.7999 208.292 18.9597 203.372 18.9597 198.049V167.951C18.9597 162.628 21.7999 157.708 26.4104 155.046L52.4763 139.997ZM63.6484 153.066C61.3447 151.738 58.5078 151.739 56.2046 153.067L35.8719 164.797C33.5654 166.128 32.1443 168.588 32.1443 171.251V194.749C32.1443 197.412 33.5654 199.872 35.8719 201.203L56.2002 212.93C58.505 214.26 61.344 214.259 63.6484 212.929L84.0091 201.175C86.3146 199.845 87.7349 197.385 87.7349 194.723V171.254C87.7349 168.59 86.3127 166.129 84.0047 164.798L63.6484 153.066Z" fill="#7FFF00"/>
<path fill-rule="evenodd" clip-rule="evenodd" d="M5.51663 61.9966C10.1258 59.3354 15.8044 59.3344 20.4144 61.9941L46.5047 77.0462C51.1176 79.7075 53.9597 84.6283 53.9597 89.9538V120.046C53.9597 125.372 51.1176 130.293 46.5047 132.954L20.4144 148.006C15.8044 150.666 10.1258 150.665 5.51662 148.003L-20.5493 132.954C-25.1598 130.292 -28 125.372 -28 120.049V89.9514C-28 84.6275 -25.1598 79.7081 -20.5493 77.0462L5.51663 61.9966ZM16.6887 75.0658C14.3849 73.738 11.5481 73.7386 9.24486 75.0673L-11.0878 86.7969C-13.3944 88.1276 -14.8155 90.588 -14.8155 93.2509V116.749C-14.8155 119.412 -13.3944 121.872 -11.0878 123.203L9.24046 134.93C11.5453 136.26 14.3843 136.259 16.6887 134.929L37.0494 123.175C39.3549 121.845 40.7752 119.385 40.7752 116.723V93.2538C40.7752 90.5899 39.353 88.1287 37.045 86.7984L16.6887 75.0658Z" fill="#7FFF00"/>
<path fill-rule="evenodd" clip-rule="evenodd" d="M52.4763 -16.0034C57.0855 -18.6646 62.7641 -18.6656 67.3741 -16.0059L93.4644 -0.953846C98.0774 1.70747 100.919 6.62825 100.919 11.9538V42.0462C100.919 47.3718 98.0774 52.2925 93.4644 54.9539L67.3741 70.0059C62.7641 72.6656 57.0855 72.6646 52.4763 70.0035L26.4104 54.9539C21.7999 52.2919 18.9597 47.3725 18.9597 42.0486V11.9514C18.9597 6.62754 21.7999 1.70812 26.4104 -0.953846L52.4763 -16.0034ZM63.6484 -2.93418C61.3447 -4.262 58.5078 -4.26144 56.2046 -2.93271L35.8719 8.79695C33.5654 10.1276 32.1443 12.588 32.1443 15.2509V38.7491C32.1443 41.412 33.5654 43.8724 35.8719 45.2031L56.2002 56.9302C58.505 58.2598 61.344 58.2594 63.6484 56.9291L84.0091 45.1755C86.3146 43.8446 87.7349 41.3847 87.7349 38.7226V15.2538C87.7349 12.5899 86.3127 10.1287 84.0047 8.79842L63.6484 -2.93418Z" fill="#7FFF00"/>
</g>
<path d="M424.143 973.512C427.855 973.512 431.071 974.2 433.791 975.576C436.511 976.952 438.591 978.888 440.031 981.384C441.503 983.88 442.239 986.76 442.239 990.024C442.239 992.648 441.775 995.128 440.847 997.464C439.951 999.8 438.639 1001.69 436.911 1003.13C435.183 1004.57 433.135 1005.29 430.767 1005.29C429.103 1005.29 427.759 1004.95 426.735 1004.28C425.711 1003.58 425.055 1002.58 424.767 1001.3C423.839 1002.55 422.639 1003.54 421.167 1004.28C419.695 1004.98 418.143 1005.34 416.511 1005.34C414.079 1005.34 412.175 1004.62 410.799 1003.18C409.423 1001.7 408.735 999.704 408.735 997.176C408.735 994.776 409.231 992.536 410.223 990.456C411.215 988.376 412.591 986.712 414.351 985.464C416.111 984.184 418.095 983.544 420.303 983.544C423.055 983.544 424.943 984.504 425.967 986.424L426.399 983.928H432.015L429.759 996.888C429.663 997.496 429.615 998.056 429.615 998.568C429.615 999.336 429.775 999.912 430.095 1000.3C430.415 1000.68 430.959 1000.87 431.727 1000.87C432.879 1000.87 433.839 1000.33 434.607 999.24C435.407 998.152 435.999 996.792 436.383 995.16C436.799 993.528 437.007 991.896 437.007 990.264C437.007 986.392 435.823 983.4 433.455 981.288C431.087 979.144 427.743 978.072 423.423 978.072C419.743 978.072 416.415 978.968 413.439 980.76C410.463 982.52 408.127 984.936 406.431 988.008C404.767 991.048 403.935 994.44 403.935 998.184C403.935 1002.15 405.103 1005.21 407.439 1007.35C409.807 1009.5 413.151 1010.57 417.471 1010.57C420.575 1010.57 423.311 1010.01 425.679 1008.89L426.639 1013.3C423.599 1014.58 420.223 1015.22 416.511 1015.22C412.927 1015.22 409.791 1014.54 407.103 1013.16C404.415 1011.82 402.335 1009.9 400.863 1007.4C399.391 1004.9 398.655 1002.01 398.655 998.712C398.655 994.008 399.743 989.736 401.919 985.896C404.127 982.056 407.167 979.032 411.039 976.824C414.943 974.616 419.311 973.512 424.143 973.512ZM418.623 1000.34C419.775 1000.34 420.831 1000.01 421.791 999.336C422.751 998.664 423.503 997.768 424.047 996.648C424.623 995.528 424.911 994.328 424.911 993.048C424.911 991.704 424.543 990.616 423.807 989.784C423.071 988.952 422.047 988.536 420.735 988.536C419.551 988.536 418.511 988.904 417.615 989.64C416.719 990.344 416.015 991.272 415.503 992.424C415.023 993.576 414.783 994.792 414.783 996.072C414.783 997.384 415.103 998.424 415.743 999.192C416.383 999.96 417.343 1000.34 418.623 1000.34ZM445.828 991.608C445.828 988.92 446.356 986.536 447.412 984.456C448.5 982.376 449.972 980.776 451.828 979.656C453.684 978.536 455.748 977.976 458.02 977.976C459.748 977.976 461.396 978.36 462.964 979.128C464.532 979.864 465.78 980.856 466.708 982.104V969.48H473.524V1005H466.708V1001.06C465.876 1002.38 464.708 1003.43 463.204 1004.23C461.7 1005.03 459.956 1005.43 457.972 1005.43C455.732 1005.43 453.684 1004.86 451.828 1003.7C449.972 1002.55 448.5 1000.94 447.412 998.856C446.356 996.744 445.828 994.328 445.828 991.608ZM466.756 991.704C466.756 990.072 466.436 988.68 465.796 987.528C465.156 986.344 464.292 985.448 463.204 984.84C462.116 984.2 460.948 983.88 459.7 983.88C458.452 983.88 457.3 984.184 456.244 984.792C455.188 985.4 454.324 986.296 453.652 987.48C453.012 988.632 452.692 990.008 452.692 991.608C452.692 993.208 453.012 994.616 453.652 995.832C454.324 997.016 455.188 997.928 456.244 998.568C457.332 999.208 458.484 999.528 459.7 999.528C460.948 999.528 462.116 999.224 463.204 998.616C464.292 997.976 465.156 997.08 465.796 995.928C466.436 994.744 466.756 993.336 466.756 991.704ZM503.368 991.128C503.368 992.088 503.304 992.952 503.176 993.72H483.736C483.896 995.64 484.568 997.144 485.752 998.232C486.936 999.32 488.392 999.864 490.12 999.864C492.616 999.864 494.392 998.792 495.448 996.648H502.696C501.928 999.208 500.456 1001.32 498.28 1002.98C496.104 1004.62 493.432 1005.43 490.264 1005.43C487.704 1005.43 485.4 1004.87 483.352 1003.75C481.336 1002.6 479.752 1000.98 478.6 998.904C477.48 996.824 476.92 994.424 476.92 991.704C476.92 988.952 477.48 986.536 478.6 984.456C479.72 982.376 481.288 980.776 483.304 979.656C485.32 978.536 487.64 977.976 490.264 977.976C492.792 977.976 495.048 978.52 497.032 979.608C499.048 980.696 500.6 982.248 501.688 984.264C502.808 986.248 503.368 988.536 503.368 991.128ZM496.408 989.208C496.376 987.48 495.752 986.104 494.536 985.08C493.32 984.024 491.832 983.496 490.072 983.496C488.408 983.496 487 984.008 485.848 985.032C484.728 986.024 484.04 987.416 483.784 989.208H496.408ZM517.921 998.808L524.641 978.408H531.793L521.953 1005H513.793L504.001 978.408H511.201L517.921 998.808ZM558.847 991.128C558.847 992.088 558.783 992.952 558.655 993.72H539.215C539.375 995.64 540.047 997.144 541.231 998.232C542.415 999.32 543.871 999.864 545.599 999.864C548.095 999.864 549.871 998.792 550.927 996.648H558.175C557.407 999.208 555.935 1001.32 553.759 1002.98C551.583 1004.62 548.911 1005.43 545.743 1005.43C543.183 1005.43 540.879 1004.87 538.831 1003.75C536.815 1002.6 535.231 1000.98 534.079 998.904C532.959 996.824 532.399 994.424 532.399 991.704C532.399 988.952 532.959 986.536 534.079 984.456C535.199 982.376 536.767 980.776 538.783 979.656C540.799 978.536 543.119 977.976 545.743 977.976C548.271 977.976 550.527 978.52 552.511 979.608C554.527 980.696 556.079 982.248 557.167 984.264C558.287 986.248 558.847 988.536 558.847 991.128ZM551.887 989.208C551.855 987.48 551.231 986.104 550.015 985.08C548.799 984.024 547.311 983.496 545.551 983.496C543.887 983.496 542.479 984.008 541.327 985.032C540.207 986.024 539.519 987.416 539.263 989.208H551.887ZM569.032 969.48V1005H562.312V969.48H569.032ZM599.671 978.408L583.207 1017.58H576.055L581.815 1004.33L571.159 978.408H578.695L585.559 996.984L592.519 978.408H599.671ZM608.574 982.536C609.438 981.128 610.558 980.024 611.934 979.224C613.342 978.424 614.942 978.024 616.734 978.024V985.08H614.958C612.846 985.08 611.246 985.576 610.158 986.568C609.102 987.56 608.574 989.288 608.574 991.752V1005H601.854V978.408H608.574V982.536ZM623.228 975.24C622.044 975.24 621.052 974.872 620.252 974.136C619.484 973.368 619.1 972.424 619.1 971.304C619.1 970.184 619.484 969.256 620.252 968.52C621.052 967.752 622.044 967.368 623.228 967.368C624.412 967.368 625.388 967.752 626.156 968.52C626.956 969.256 627.356 970.184 627.356 971.304C627.356 972.424 626.956 973.368 626.156 974.136C625.388 974.872 624.412 975.24 623.228 975.24ZM626.54 978.408V1005H619.82V978.408H626.54ZM643.547 1005.43C640.987 1005.43 638.683 1004.87 636.635 1003.75C634.587 1002.6 632.971 1000.98 631.787 998.904C630.635 996.824 630.059 994.424 630.059 991.704C630.059 988.984 630.651 986.584 631.835 984.504C633.051 982.424 634.699 980.824 636.779 979.704C638.859 978.552 641.179 977.976 643.739 977.976C646.299 977.976 648.619 978.552 650.699 979.704C652.779 980.824 654.411 982.424 655.595 984.504C656.811 986.584 657.419 988.984 657.419 991.704C657.419 994.424 656.795 996.824 655.547 998.904C654.331 1000.98 652.667 1002.6 650.555 1003.75C648.475 1004.87 646.139 1005.43 643.547 1005.43ZM643.547 999.576C644.763 999.576 645.899 999.288 646.955 998.712C648.043 998.104 648.907 997.208 649.547 996.024C650.187 994.84 650.507 993.4 650.507 991.704C650.507 989.176 649.835 987.24 648.491 985.896C647.179 984.52 645.563 983.832 643.643 983.832C641.723 983.832 640.107 984.52 638.795 985.896C637.515 987.24 636.875 989.176 636.875 991.704C636.875 994.232 637.499 996.184 638.747 997.56C640.027 998.904 641.627 999.576 643.547 999.576ZM671.085 1005.43C668.909 1005.43 666.957 1005.05 665.229 1004.28C663.501 1003.48 662.125 1002.41 661.101 1001.06C660.109 999.72 659.565 998.232 659.469 996.6H666.237C666.365 997.624 666.861 998.472 667.725 999.144C668.621 999.816 669.725 1000.15 671.037 1000.15C672.317 1000.15 673.309 999.896 674.013 999.384C674.749 998.872 675.117 998.216 675.117 997.416C675.117 996.552 674.669 995.912 673.773 995.496C672.909 995.048 671.517 994.568 669.597 994.056C667.613 993.576 665.981 993.08 664.701 992.568C663.453 992.056 662.365 991.272 661.437 990.216C660.541 989.16 660.093 987.736 660.093 985.944C660.093 984.472 660.509 983.128 661.341 981.912C662.205 980.696 663.421 979.736 664.989 979.032C666.589 978.328 668.461 977.976 670.605 977.976C673.773 977.976 676.301 978.776 678.189 980.376C680.077 981.944 681.117 984.072 681.309 986.76H674.877C674.781 985.704 674.333 984.872 673.533 984.264C672.765 983.624 671.725 983.304 670.413 983.304C669.197 983.304 668.253 983.528 667.581 983.976C666.941 984.424 666.621 985.048 666.621 985.848C666.621 986.744 667.069 987.432 667.965 987.912C668.861 988.36 670.253 988.824 672.141 989.304C674.061 989.784 675.645 990.28 676.893 990.792C678.141 991.304 679.213 992.104 680.109 993.192C681.037 994.248 681.517 995.656 681.549 997.416C681.549 998.952 681.117 1000.33 680.253 1001.54C679.421 1002.76 678.205 1003.72 676.605 1004.42C675.037 1005.1 673.197 1005.43 671.085 1005.43Z" fill="#7FFF00"/>
</g>
</g>
<g filter="url(#filter15_d_215_3665)">
<path d="M792 956C789.791 956 788 957.791 788 960C788 962.209 789.791 964 792 964V956ZM922.828 962.828C924.391 961.266 924.391 958.734 922.828 957.172L897.373 931.716C895.81 930.154 893.278 930.154 891.716 931.716C890.154 933.278 890.154 935.81 891.716 937.373L914.343 960L891.716 982.627C890.154 984.19 890.154 986.722 891.716 988.284C893.278 989.846 895.81 989.846 897.373 988.284L922.828 962.828ZM792 964H920V956H792V964Z" fill="#7FFF00"/>
</g>
<g filter="url(#filter16_d_215_3665)">
<path d="M182.657 343.792C175.489 343.792 168.875 342.64 162.817 340.336C156.758 338.032 151.467 334.789 146.945 330.608C142.507 326.341 139.051 321.392 136.577 315.76C134.102 310.128 132.865 303.941 132.865 297.2C132.865 290.459 134.102 284.272 136.577 278.64C139.051 273.008 142.507 268.101 146.945 263.92C151.467 259.653 156.758 256.368 162.817 254.064C168.875 251.76 175.489 250.608 182.657 250.608C189.91 250.608 196.523 251.76 202.497 254.064C208.555 256.368 213.803 259.653 218.241 263.92C222.678 268.101 226.134 273.008 228.609 278.64C231.169 284.272 232.449 290.459 232.449 297.2C232.449 303.941 231.169 310.171 228.609 315.888C226.134 321.52 222.678 326.427 218.241 330.608C213.803 334.789 208.555 338.032 202.497 340.336C196.523 342.64 189.91 343.792 182.657 343.792ZM182.657 322.8C186.07 322.8 189.227 322.203 192.129 321.008C195.115 319.813 197.675 318.107 199.809 315.888C202.027 313.584 203.734 310.853 204.929 307.696C206.209 304.539 206.849 301.04 206.849 297.2C206.849 293.275 206.209 289.776 204.929 286.704C203.734 283.547 202.027 280.859 199.809 278.64C197.675 276.336 195.115 274.587 192.129 273.392C189.227 272.197 186.07 271.6 182.657 271.6C179.243 271.6 176.043 272.197 173.057 273.392C170.155 274.587 167.595 276.336 165.377 278.64C163.243 280.859 161.537 283.547 160.257 286.704C159.062 289.776 158.465 293.275 158.465 297.2C158.465 301.04 159.062 304.539 160.257 307.696C161.537 310.853 163.243 313.584 165.377 315.888C167.595 318.107 170.155 319.813 173.057 321.008C176.043 322.203 179.243 322.8 182.657 322.8ZM320.477 343.792C313.309 343.792 306.695 342.64 300.637 340.336C294.578 338.032 289.287 334.789 284.765 330.608C280.327 326.341 276.871 321.392 274.397 315.76C271.922 310.128 270.685 303.941 270.685 297.2C270.685 290.459 271.922 284.272 274.397 278.64C276.871 273.008 280.327 268.101 284.765 263.92C289.287 259.653 294.578 256.368 300.637 254.064C306.695 251.76 313.309 250.608 320.477 250.608C327.73 250.608 334.343 251.76 340.317 254.064C346.375 256.368 351.623 259.611 356.061 263.792C360.498 267.973 363.954 272.923 366.429 278.64C368.989 284.272 370.269 290.459 370.269 297.2C370.269 303.941 368.989 310.171 366.429 315.888C363.954 321.52 360.498 326.427 356.061 330.608C351.623 334.789 346.375 338.032 340.317 340.336C334.343 342.64 327.73 343.792 320.477 343.792ZM349.789 363.632C345.949 363.632 342.365 363.205 339.037 362.352C335.709 361.584 332.423 360.304 329.181 358.512C326.023 356.72 322.695 354.288 319.197 351.216C315.783 348.144 311.943 344.347 307.677 339.824L334.173 333.168C336.306 336.325 338.226 338.8 339.933 340.592C341.639 342.384 343.303 343.664 344.925 344.432C346.631 345.2 348.423 345.584 350.301 345.584C355.25 345.584 359.773 343.493 363.869 339.312L374.877 352.368C368.647 359.877 360.285 363.632 349.789 363.632ZM320.477 322.8C323.89 322.8 327.047 322.203 329.949 321.008C332.935 319.813 335.495 318.107 337.629 315.888C339.847 313.584 341.554 310.853 342.749 307.696C344.029 304.539 344.669 301.04 344.669 297.2C344.669 293.275 344.029 289.776 342.749 286.704C341.554 283.547 339.847 280.859 337.629 278.64C335.495 276.336 332.935 274.587 329.949 273.392C327.047 272.197 323.89 271.6 320.477 271.6C317.063 271.6 313.863 272.197 310.877 273.392C307.975 274.587 305.415 276.336 303.197 278.64C301.063 280.859 299.357 283.547 298.077 286.704C296.882 289.776 296.285 293.275 296.285 297.2C296.285 301.04 296.882 304.539 298.077 307.696C299.357 310.853 301.063 313.584 303.197 315.888C305.415 318.107 307.975 319.813 310.877 321.008C313.863 322.203 317.063 322.8 320.477 322.8ZM421.046 343.792C407.82 343.792 397.494 340.165 390.07 332.912C382.646 325.659 378.934 315.376 378.934 302.064V252.4H404.278V301.296C404.278 308.976 405.772 314.48 408.758 317.808C411.83 321.136 416.012 322.8 421.302 322.8C426.593 322.8 430.732 321.136 433.718 317.808C436.705 314.48 438.198 308.976 438.198 301.296V252.4H463.159V302.064C463.159 315.376 459.447 325.659 452.022 332.912C444.598 340.165 434.273 343.792 421.046 343.792ZM499.784 287.088H541.384V306.032H499.784V287.088ZM501.576 322.416H548.424V342H476.488V252.4H546.76V271.984H501.576V322.416ZM619.578 342L581.306 252.4H608.698L640.954 329.968H624.826L657.85 252.4H682.938L644.538 342H619.578ZM728.402 343.792C721.234 343.792 714.62 342.64 708.562 340.336C702.503 338.032 697.212 334.789 692.69 330.608C688.252 326.341 684.796 321.392 682.322 315.76C679.847 310.128 678.61 303.941 678.61 297.2C678.61 290.459 679.847 284.272 682.322 278.64C684.796 273.008 688.252 268.101 692.69 263.92C697.212 259.653 702.503 256.368 708.562 254.064C714.62 251.76 721.234 250.608 728.402 250.608C735.655 250.608 742.268 251.76 748.242 254.064C754.3 256.368 759.548 259.653 763.986 263.92C768.423 268.101 771.879 273.008 774.354 278.64C776.914 284.272 778.194 290.459 778.194 297.2C778.194 303.941 776.914 310.171 774.354 315.888C771.879 321.52 768.423 326.427 763.986 330.608C759.548 334.789 754.3 338.032 748.242 340.336C742.268 342.64 735.655 343.792 728.402 343.792ZM728.402 322.8C731.815 322.8 734.972 322.203 737.874 321.008C740.86 319.813 743.42 318.107 745.554 315.888C747.772 313.584 749.479 310.853 750.674 307.696C751.954 304.539 752.594 301.04 752.594 297.2C752.594 293.275 751.954 289.776 750.674 286.704C749.479 283.547 747.772 280.859 745.554 278.64C743.42 276.336 740.86 274.587 737.874 273.392C734.972 272.197 731.815 271.6 728.402 271.6C724.988 271.6 721.788 272.197 718.802 273.392C715.9 274.587 713.34 276.336 711.122 278.64C708.988 280.859 707.282 283.547 706.002 286.704C704.807 289.776 704.21 293.275 704.21 297.2C704.21 301.04 704.807 304.539 706.002 307.696C707.282 310.853 708.988 313.584 711.122 315.888C713.34 318.107 715.9 319.813 718.802 321.008C721.788 322.203 724.988 322.8 728.402 322.8ZM832.3 343.792C825.217 343.792 818.646 342.683 812.588 340.464C806.614 338.16 801.409 334.917 796.972 330.736C792.62 326.555 789.206 321.648 786.732 316.016C784.257 310.299 783.02 304.027 783.02 297.2C783.02 290.373 784.257 284.144 786.732 278.512C789.206 272.795 792.62 267.845 796.972 263.664C801.409 259.483 806.614 256.283 812.588 254.064C818.646 251.76 825.217 250.608 832.3 250.608C840.577 250.608 847.958 252.059 854.444 254.96C861.014 257.861 866.476 262.043 870.828 267.504L854.7 282.096C851.798 278.683 848.598 276.08 845.1 274.288C841.686 272.496 837.846 271.6 833.58 271.6C829.91 271.6 826.54 272.197 823.468 273.392C820.396 274.587 817.75 276.336 815.532 278.64C813.398 280.859 811.692 283.547 810.412 286.704C809.217 289.861 808.62 293.36 808.62 297.2C808.62 301.04 809.217 304.539 810.412 307.696C811.692 310.853 813.398 313.584 815.532 315.888C817.75 318.107 820.396 319.813 823.468 321.008C826.54 322.203 829.91 322.8 833.58 322.8C837.846 322.8 841.686 321.904 845.1 320.112C848.598 318.32 851.798 315.717 854.7 312.304L870.828 326.896C866.476 332.272 861.014 336.453 854.444 339.44C847.958 342.341 840.577 343.792 832.3 343.792ZM901.584 287.088H943.184V306.032H901.584V287.088ZM903.376 322.416H950.224V342H878.288V252.4H948.56V271.984H903.376V322.416ZM886.352 245.104L902.992 225.648H923.984L940.624 245.104H924.496L906.448 229.104H920.528L902.48 245.104H886.352ZM264.775 464V374.4H305.735C313.927 374.4 320.967 375.723 326.855 378.368C332.828 381.013 337.436 384.853 340.679 389.888C343.922 394.837 345.543 400.725 345.543 407.552C345.543 414.293 343.922 420.139 340.679 425.088C337.436 430.037 332.828 433.877 326.855 436.608C320.967 439.253 313.927 440.576 305.735 440.576H278.855L290.119 429.568V464H264.775ZM290.119 432.256L278.855 420.608H304.199C309.49 420.608 313.415 419.456 315.975 417.152C318.62 414.848 319.943 411.648 319.943 407.552C319.943 403.371 318.62 400.128 315.975 397.824C313.415 395.52 309.49 394.368 304.199 394.368H278.855L290.119 382.72V432.256ZM354.06 464V374.4H395.02C403.212 374.4 410.252 375.723 416.14 378.368C422.113 381.013 426.721 384.853 429.964 389.888C433.207 394.837 434.828 400.725 434.828 407.552C434.828 414.293 433.207 420.139 429.964 425.088C426.721 429.952 422.113 433.707 416.14 436.352C410.252 438.912 403.212 440.192 395.02 440.192H368.14L379.404 429.568V464H354.06ZM409.484 464L387.212 431.36H414.22L436.62 464H409.484ZM379.404 432.256L368.14 420.608H393.484C398.775 420.608 402.7 419.456 405.26 417.152C407.905 414.848 409.228 411.648 409.228 407.552C409.228 403.371 407.905 400.128 405.26 397.824C402.7 395.52 398.775 394.368 393.484 394.368H368.14L379.404 382.72V432.256ZM468.266 409.088H509.866V428.032H468.266V409.088ZM470.058 444.416H516.906V464H444.97V374.4H515.242V393.984H470.058V444.416ZM571.802 465.792C564.719 465.792 558.149 464.683 552.09 462.464C546.117 460.16 540.911 456.917 536.474 452.736C532.122 448.555 528.709 443.648 526.234 438.016C523.759 432.299 522.522 426.027 522.522 419.2C522.522 412.373 523.759 406.144 526.234 400.512C528.709 394.795 532.122 389.845 536.474 385.664C540.911 381.483 546.117 378.283 552.09 376.064C558.149 373.76 564.719 372.608 571.802 372.608C580.079 372.608 587.461 374.059 593.946 376.96C600.517 379.861 605.978 384.043 610.33 389.504L594.202 404.096C591.301 400.683 588.101 398.08 584.602 396.288C581.189 394.496 577.349 393.6 573.082 393.6C569.413 393.6 566.042 394.197 562.97 395.392C559.898 396.587 557.253 398.336 555.034 400.64C552.901 402.859 551.194 405.547 549.914 408.704C548.719 411.861 548.122 415.36 548.122 419.2C548.122 423.04 548.719 426.539 549.914 429.696C551.194 432.853 552.901 435.584 555.034 437.888C557.253 440.107 559.898 441.813 562.97 443.008C566.042 444.203 569.413 444.8 573.082 444.8C577.349 444.8 581.189 443.904 584.602 442.112C588.101 440.32 591.301 437.717 594.202 434.304L610.33 448.896C605.978 454.272 600.517 458.453 593.946 461.44C587.461 464.341 580.079 465.792 571.802 465.792ZM617.79 464V374.4H643.134V464H617.79ZM688.813 465.792C681.474 465.792 674.392 464.896 667.565 463.104C660.824 461.227 655.32 458.837 651.053 455.936L659.373 437.248C663.384 439.808 667.992 441.941 673.197 443.648C678.488 445.269 683.736 446.08 688.941 446.08C692.44 446.08 695.256 445.781 697.389 445.184C699.522 444.501 701.058 443.648 701.997 442.624C703.021 441.515 703.533 440.235 703.533 438.784C703.533 436.736 702.594 435.115 700.717 433.92C698.84 432.725 696.408 431.744 693.421 430.976C690.434 430.208 687.106 429.44 683.437 428.672C679.853 427.904 676.226 426.923 672.557 425.728C668.973 424.533 665.688 422.997 662.701 421.12C659.714 419.157 657.282 416.64 655.405 413.568C653.528 410.411 652.589 406.443 652.589 401.664C652.589 396.288 654.04 391.424 656.941 387.072C659.928 382.72 664.365 379.221 670.253 376.576C676.141 373.931 683.48 372.608 692.269 372.608C698.157 372.608 703.917 373.291 709.549 374.656C715.266 375.936 720.344 377.856 724.781 380.416L716.973 399.232C712.706 396.928 708.482 395.221 704.301 394.112C700.12 392.917 696.066 392.32 692.141 392.32C688.642 392.32 685.826 392.704 683.693 393.472C681.56 394.155 680.024 395.093 679.085 396.288C678.146 397.483 677.677 398.848 677.677 400.384C677.677 402.347 678.573 403.925 680.365 405.12C682.242 406.229 684.674 407.168 687.661 407.936C690.733 408.619 694.061 409.344 697.645 410.112C701.314 410.88 704.941 411.861 708.525 413.056C712.194 414.165 715.522 415.701 718.509 417.664C721.496 419.541 723.885 422.059 725.677 425.216C727.554 428.288 728.493 432.171 728.493 436.864C728.493 442.069 727 446.891 724.013 451.328C721.112 455.68 716.717 459.179 710.829 461.824C705.026 464.469 697.688 465.792 688.813 465.792ZM725.608 464L765.16 374.4H790.12L829.8 464H803.432L772.456 386.816H782.44L751.464 464H725.608ZM747.24 446.592L753.768 427.904H797.544L804.072 446.592H747.24ZM358.736 587.792C351.397 587.792 344.314 586.896 337.488 585.104C330.746 583.227 325.242 580.837 320.976 577.936L329.296 559.248C333.306 561.808 337.914 563.941 343.12 565.648C348.41 567.269 353.658 568.08 358.864 568.08C362.362 568.08 365.178 567.781 367.312 567.184C369.445 566.501 370.981 565.648 371.92 564.624C372.944 563.515 373.456 562.235 373.456 560.784C373.456 558.736 372.517 557.115 370.64 555.92C368.762 554.725 366.33 553.744 363.344 552.976C360.357 552.208 357.029 551.44 353.36 550.672C349.776 549.904 346.149 548.923 342.48 547.728C338.896 546.533 335.61 544.997 332.624 543.12C329.637 541.157 327.205 538.64 325.328 535.568C323.45 532.411 322.512 528.443 322.512 523.664C322.512 518.288 323.962 513.424 326.864 509.072C329.85 504.72 334.288 501.221 340.176 498.576C346.064 495.931 353.402 494.608 362.192 494.608C368.08 494.608 373.84 495.291 379.472 496.656C385.189 497.936 390.266 499.856 394.704 502.416L386.896 521.232C382.629 518.928 378.405 517.221 374.224 516.112C370.042 514.917 365.989 514.32 362.064 514.32C358.565 514.32 355.749 514.704 353.616 515.472C351.482 516.155 349.946 517.093 349.008 518.288C348.069 519.483 347.6 520.848 347.6 522.384C347.6 524.347 348.496 525.925 350.288 527.12C352.165 528.229 354.597 529.168 357.584 529.936C360.656 530.619 363.984 531.344 367.568 532.112C371.237 532.88 374.864 533.861 378.448 535.056C382.117 536.165 385.445 537.701 388.432 539.664C391.418 541.541 393.808 544.059 395.6 547.216C397.477 550.288 398.416 554.171 398.416 558.864C398.416 564.069 396.922 568.891 393.936 573.328C391.034 577.68 386.64 581.179 380.752 583.824C374.949 586.469 367.61 587.792 358.736 587.792ZM395.531 586L435.083 496.4H460.043L499.723 586H473.355L442.379 508.816H452.363L421.387 586H395.531ZM417.163 568.592L423.691 549.904H467.467L473.995 568.592H417.163ZM503.068 586V496.4H548.892C560.668 496.4 569.457 498.576 575.26 502.928C581.062 507.195 583.964 512.827 583.964 519.824C583.964 524.432 582.726 528.485 580.252 531.984C577.862 535.397 574.449 538.128 570.012 540.176C565.66 542.139 560.454 543.12 554.396 543.12L556.956 536.976C563.27 536.976 568.774 537.957 573.468 539.92C578.161 541.797 581.788 544.571 584.348 548.24C586.993 551.824 588.316 556.219 588.316 561.424C588.316 569.189 585.158 575.248 578.844 579.6C572.614 583.867 563.484 586 551.452 586H503.068ZM528.156 567.696H549.404C553.756 567.696 557.041 566.971 559.26 565.52C561.564 563.984 562.716 561.68 562.716 558.608C562.716 555.536 561.564 553.275 559.26 551.824C557.041 550.288 553.756 549.52 549.404 549.52H526.364V531.984H545.564C549.83 531.984 553.03 531.259 555.164 529.808C557.297 528.357 558.364 526.181 558.364 523.28C558.364 520.379 557.297 518.245 555.164 516.88C553.03 515.429 549.83 514.704 545.564 514.704H528.156V567.696ZM620.899 531.088H662.499V550.032H620.899V531.088ZM622.691 566.416H669.539V586H597.603V496.4H667.875V515.984H622.691V566.416ZM679.762 586V496.4H720.722C728.914 496.4 735.954 497.723 741.842 500.368C747.816 503.013 752.424 506.853 755.666 511.888C758.909 516.837 760.53 522.725 760.53 529.552C760.53 536.293 758.909 542.139 755.666 547.088C752.424 551.952 747.816 555.707 741.842 558.352C735.954 560.912 728.914 562.192 720.722 562.192H693.842L705.106 551.568V586H679.762ZM735.186 586L712.914 553.36H739.922L762.322 586H735.186ZM705.106 554.256L693.842 542.608H719.186C724.477 542.608 728.402 541.456 730.962 539.152C733.608 536.848 734.93 533.648 734.93 529.552C734.93 525.371 733.608 522.128 730.962 519.824C728.402 517.52 724.477 516.368 719.186 516.368H693.842L705.106 504.72V554.256ZM141.568 709.792C134.229 709.792 127.147 708.896 120.32 707.104C113.579 705.227 108.075 702.837 103.808 699.936L112.128 681.248C116.139 683.808 120.747 685.941 125.952 687.648C131.243 689.269 136.491 690.08 141.696 690.08C145.195 690.08 148.011 689.781 150.144 689.184C152.277 688.501 153.813 687.648 154.752 686.624C155.776 685.515 156.288 684.235 156.288 682.784C156.288 680.736 155.349 679.115 153.472 677.92C151.595 676.725 149.163 675.744 146.176 674.976C143.189 674.208 139.861 673.44 136.192 672.672C132.608 671.904 128.981 670.923 125.312 669.728C121.728 668.533 118.443 666.997 115.456 665.12C112.469 663.157 110.037 660.64 108.16 657.568C106.283 654.411 105.344 650.443 105.344 645.664C105.344 640.288 106.795 635.424 109.696 631.072C112.683 626.72 117.12 623.221 123.008 620.576C128.896 617.931 136.235 616.608 145.024 616.608C150.912 616.608 156.672 617.291 162.304 618.656C168.021 619.936 173.099 621.856 177.536 624.416L169.728 643.232C165.461 640.928 161.237 639.221 157.056 638.112C152.875 636.917 148.821 636.32 144.896 636.32C141.397 636.32 138.581 636.704 136.448 637.472C134.315 638.155 132.779 639.093 131.84 640.288C130.901 641.483 130.432 642.848 130.432 644.384C130.432 646.347 131.328 647.925 133.12 649.12C134.997 650.229 137.429 651.168 140.416 651.936C143.488 652.619 146.816 653.344 150.4 654.112C154.069 654.88 157.696 655.861 161.28 657.056C164.949 658.165 168.277 659.701 171.264 661.664C174.251 663.541 176.64 666.059 178.432 669.216C180.309 672.288 181.248 676.171 181.248 680.864C181.248 686.069 179.755 690.891 176.768 695.328C173.867 699.68 169.472 703.179 163.584 705.824C157.781 708.469 150.443 709.792 141.568 709.792ZM234.299 709.792C227.131 709.792 220.518 708.64 214.459 706.336C208.4 704.032 203.11 700.789 198.587 696.608C194.15 692.341 190.694 687.392 188.219 681.76C185.744 676.128 184.507 669.941 184.507 663.2C184.507 656.459 185.744 650.272 188.219 644.64C190.694 639.008 194.15 634.101 198.587 629.92C203.11 625.653 208.4 622.368 214.459 620.064C220.518 617.76 227.131 616.608 234.299 616.608C241.552 616.608 248.166 617.76 254.139 620.064C260.198 622.368 265.446 625.653 269.883 629.92C274.32 634.101 277.776 639.008 280.251 644.64C282.811 650.272 284.091 656.459 284.091 663.2C284.091 669.941 282.811 676.171 280.251 681.888C277.776 687.52 274.32 692.427 269.883 696.608C265.446 700.789 260.198 704.032 254.139 706.336C248.166 708.64 241.552 709.792 234.299 709.792ZM234.299 688.8C237.712 688.8 240.87 688.203 243.771 687.008C246.758 685.813 249.318 684.107 251.451 681.888C253.67 679.584 255.376 676.853 256.571 673.696C257.851 670.539 258.491 667.04 258.491 663.2C258.491 659.275 257.851 655.776 256.571 652.704C255.376 649.547 253.67 646.859 251.451 644.64C249.318 642.336 246.758 640.587 243.771 639.392C240.87 638.197 237.712 637.6 234.299 637.6C230.886 637.6 227.686 638.197 224.699 639.392C221.798 640.587 219.238 642.336 217.019 644.64C214.886 646.859 213.179 649.547 211.899 652.704C210.704 655.776 210.107 659.275 210.107 663.2C210.107 667.04 210.704 670.539 211.899 673.696C213.179 676.853 214.886 679.584 217.019 681.888C219.238 684.107 221.798 685.813 224.699 687.008C227.686 688.203 230.886 688.8 234.299 688.8ZM293.525 708V618.4H339.349C351.125 618.4 359.914 620.576 365.717 624.928C371.52 629.195 374.421 634.827 374.421 641.824C374.421 646.432 373.184 650.485 370.709 653.984C368.32 657.397 364.906 660.128 360.469 662.176C356.117 664.139 350.912 665.12 344.853 665.12L347.413 658.976C353.728 658.976 359.232 659.957 363.925 661.92C368.618 663.797 372.245 666.571 374.805 670.24C377.45 673.824 378.773 678.219 378.773 683.424C378.773 691.189 375.616 697.248 369.301 701.6C363.072 705.867 353.941 708 341.909 708H293.525ZM318.613 689.696H339.861C344.213 689.696 347.498 688.971 349.717 687.52C352.021 685.984 353.173 683.68 353.173 680.608C353.173 677.536 352.021 675.275 349.717 673.824C347.498 672.288 344.213 671.52 339.861 671.52H316.821V653.984H336.021C340.288 653.984 343.488 653.259 345.621 651.808C347.754 650.357 348.821 648.181 348.821 645.28C348.821 642.379 347.754 640.245 345.621 638.88C343.488 637.429 340.288 636.704 336.021 636.704H318.613V689.696ZM388.06 708V618.4H429.02C437.212 618.4 444.252 619.723 450.14 622.368C456.113 625.013 460.721 628.853 463.964 633.888C467.207 638.837 468.828 644.725 468.828 651.552C468.828 658.293 467.207 664.139 463.964 669.088C460.721 673.952 456.113 677.707 450.14 680.352C444.252 682.912 437.212 684.192 429.02 684.192H402.14L413.404 673.568V708H388.06ZM443.484 708L421.212 675.36H448.22L470.62 708H443.484ZM413.404 676.256L402.14 664.608H427.484C432.775 664.608 436.7 663.456 439.26 661.152C441.905 658.848 443.228 655.648 443.228 651.552C443.228 647.371 441.905 644.128 439.26 641.824C436.7 639.52 432.775 638.368 427.484 638.368H402.14L413.404 626.72V676.256ZM502.266 653.088H543.866V672.032H502.266V653.088ZM504.058 688.416H550.906V708H478.97V618.4H549.242V637.984H504.058V688.416ZM583.788 708L623.34 618.4H648.3L687.98 708H661.612L630.636 630.816H640.62L609.644 708H583.788ZM605.42 690.592L611.948 671.904H655.724L662.252 690.592H605.42ZM743.807 708V638.496H716.287V618.4H796.543V638.496H769.151V708H743.807ZM786.893 708L826.445 618.4H851.405L891.085 708H864.717L833.741 630.816H843.725L812.749 708H786.893ZM808.525 690.592L815.053 671.904H858.829L865.357 690.592H808.525ZM937.98 709.792C930.897 709.792 924.327 708.683 918.268 706.464C912.209 704.16 906.961 700.917 902.524 696.736C898.172 692.555 894.759 687.648 892.284 682.016C889.809 676.299 888.572 670.027 888.572 663.2C888.572 656.373 889.809 650.144 892.284 644.512C894.759 638.795 898.215 633.845 902.652 629.664C907.089 625.483 912.337 622.283 918.396 620.064C924.54 617.76 931.239 616.608 938.492 616.608C946.94 616.608 954.492 618.016 961.148 620.832C967.804 623.648 973.308 627.701 977.66 632.992L961.532 647.584C958.46 644.256 955.132 641.781 951.548 640.16C948.049 638.453 944.124 637.6 939.772 637.6C935.932 637.6 932.433 638.197 929.276 639.392C926.119 640.587 923.431 642.336 921.212 644.64C918.993 646.859 917.244 649.547 915.964 652.704C914.769 655.776 914.172 659.275 914.172 663.2C914.172 666.955 914.769 670.411 915.964 673.568C917.244 676.725 918.993 679.456 921.212 681.76C923.431 683.979 926.076 685.728 929.148 687.008C932.305 688.203 935.761 688.8 939.516 688.8C943.271 688.8 946.94 688.203 950.524 687.008C954.108 685.728 957.735 683.595 961.404 680.608L975.612 698.4C970.492 702.069 964.561 704.885 957.82 706.848C951.079 708.811 944.465 709.792 937.98 709.792ZM953.212 695.072V661.28H975.612V698.4L953.212 695.072Z" fill="#F9FAFB"/>
<path d="M378.753 818.352L315.649 795.056V775.344L378.753 752.048V770.736L322.817 790.576V779.824L378.753 799.664V818.352ZM393.009 830V761.392C393.009 753.029 395.484 746.373 400.433 741.424C405.468 736.389 412.636 733.872 421.937 733.872C424.924 733.872 427.868 734.171 430.769 734.768C433.67 735.365 436.102 736.261 438.065 737.456L432.049 754.608C431.025 754.011 429.873 753.541 428.593 753.2C427.313 752.773 426.033 752.56 424.753 752.56C422.193 752.56 420.188 753.328 418.737 754.864C417.372 756.315 416.689 758.576 416.689 761.648V766.64L417.329 776.752V830H393.009ZM382.897 781.36V763.184H433.201V781.36H382.897ZM472.419 831.152C464.824 831.152 458.083 829.616 452.195 826.544C446.307 823.472 441.656 819.248 438.243 813.872C434.915 808.411 433.251 802.181 433.251 795.184C433.251 788.187 434.915 782 438.243 776.624C441.656 771.248 446.307 767.067 452.195 764.08C458.083 761.008 464.824 759.472 472.419 759.472C480.014 759.472 486.755 761.008 492.643 764.08C498.616 767.067 503.267 771.248 506.595 776.624C509.923 782 511.587 788.187 511.587 795.184C511.587 802.181 509.923 808.411 506.595 813.872C503.267 819.248 498.616 823.472 492.643 826.544C486.755 829.616 480.014 831.152 472.419 831.152ZM472.419 811.824C475.235 811.824 477.71 811.184 479.843 809.904C482.062 808.624 483.811 806.747 485.091 804.272C486.371 801.712 487.011 798.683 487.011 795.184C487.011 791.685 486.371 788.741 485.091 786.352C483.811 783.877 482.062 782 479.843 780.72C477.71 779.44 475.235 778.8 472.419 778.8C469.688 778.8 467.214 779.44 464.995 780.72C462.862 782 461.112 783.877 459.747 786.352C458.467 788.741 457.827 791.685 457.827 795.184C457.827 798.683 458.467 801.712 459.747 804.272C461.112 806.747 462.862 808.624 464.995 809.904C467.214 811.184 469.688 811.824 472.419 811.824ZM519.013 830V760.624H542.181V780.848L538.725 775.088C540.773 769.883 544.101 766 548.709 763.44C553.317 760.795 558.906 759.472 565.477 759.472V781.36C564.368 781.189 563.386 781.104 562.533 781.104C561.765 781.019 560.912 780.976 559.973 780.976C555.024 780.976 551.013 782.341 547.941 785.072C544.869 787.717 543.333 792.069 543.333 798.128V830H519.013ZM662.041 759.472C667.417 759.472 672.196 760.581 676.377 762.8C680.644 764.933 683.972 768.261 686.361 772.784C688.836 777.307 690.073 783.152 690.073 790.32V830H665.753V794.288C665.753 789.339 664.814 785.755 662.937 783.536C661.06 781.232 658.5 780.08 655.257 780.08C652.953 780.08 650.862 780.635 648.985 781.744C647.108 782.853 645.657 784.56 644.633 786.864C643.609 789.083 643.097 791.984 643.097 795.568V830H618.777V794.288C618.777 789.339 617.838 785.755 615.961 783.536C614.169 781.232 611.609 780.08 608.281 780.08C605.892 780.08 603.758 780.635 601.881 781.744C600.089 782.853 598.638 784.56 597.529 786.864C596.505 789.083 595.993 791.984 595.993 795.568V830H571.673V760.624H594.841V779.952L590.233 774.448C592.793 769.499 596.292 765.787 600.729 763.312C605.166 760.752 610.116 759.472 615.577 759.472C621.806 759.472 627.268 761.093 631.961 764.336C636.74 767.493 639.94 772.443 641.561 779.184L633.625 777.52C636.1 771.888 639.812 767.493 644.761 764.336C649.796 761.093 655.556 759.472 662.041 759.472ZM701.199 818.352V799.664L757.263 779.824V790.576L701.199 770.736V752.048L764.303 775.344V795.056L701.199 818.352Z" fill="#7FFF00"/>
</g>
<defs>
<filter id="filter0_i_215_3665" x="32" y="32" width="1016" height="1020" filterUnits="userSpaceOnUse" color-interpolation-filters="sRGB">
<feFlood flood-opacity="0" result="BackgroundImageFix"/>
<feBlend mode="normal" in="SourceGraphic" in2="BackgroundImageFix" result="shape"/>
<feColorMatrix in="SourceAlpha" type="matrix" values="0 0 0 0 0 0 0 0 0 0 0 0 0 0 0 0 0 0 127 0" result="hardAlpha"/>
<feOffset dy="4"/>
<feGaussianBlur stdDeviation="2"/>
<feComposite in2="hardAlpha" operator="arithmetic" k2="-1" k3="1"/>
<feColorMatrix type="matrix" values="0 0 0 0 0 0 0 0 0 0 0 0 0 0 0 0 0 0 0.25 0"/>
<feBlend mode="normal" in2="shape" result="effect1_innerShadow_215_3665"/>
</filter>
<filter id="filter1_i_215_3665" x="978.92" y="918" width="175.919" height="250" filterUnits="userSpaceOnUse" color-interpolation-filters="sRGB">
<feFlood flood-opacity="0" result="BackgroundImageFix"/>
<feBlend mode="normal" in="SourceGraphic" in2="BackgroundImageFix" result="shape"/>
<feColorMatrix in="SourceAlpha" type="matrix" values="0 0 0 0 0 0 0 0 0 0 0 0 0 0 0 0 0 0 127 0" result="hardAlpha"/>
<feOffset dy="4"/>
<feGaussianBlur stdDeviation="2"/>
<feComposite in2="hardAlpha" operator="arithmetic" k2="-1" k3="1"/>
<feColorMatrix type="matrix" values="0 0 0 0 0 0 0 0 0 0 0 0 0 0 0 0 0 0 0.25 0"/>
<feBlend mode="normal" in2="shape" result="effect1_innerShadow_215_3665"/>
</filter>
<filter id="filter2_i_215_3665" x="978.92" y="762" width="175.919" height="250" filterUnits="userSpaceOnUse" color-interpolation-filters="sRGB">
<feFlood flood-opacity="0" result="BackgroundImageFix"/>
<feBlend mode="normal" in="SourceGraphic" in2="BackgroundImageFix" result="shape"/>
<feColorMatrix in="SourceAlpha" type="matrix" values="0 0 0 0 0 0 0 0 0 0 0 0 0 0 0 0 0 0 127 0" result="hardAlpha"/>
<feOffset dy="4"/>
<feGaussianBlur stdDeviation="2"/>
<feComposite in2="hardAlpha" operator="arithmetic" k2="-1" k3="1"/>
<feColorMatrix type="matrix" values="0 0 0 0 0 0 0 0 0 0 0 0 0 0 0 0 0 0 0.25 0"/>
<feBlend mode="normal" in2="shape" result="effect1_innerShadow_215_3665"/>
</filter>
<filter id="filter3_i_215_3665" x="978.92" y="606" width="175.919" height="250" filterUnits="userSpaceOnUse" color-interpolation-filters="sRGB">
<feFlood flood-opacity="0" result="BackgroundImageFix"/>
<feBlend mode="normal" in="SourceGraphic" in2="BackgroundImageFix" result="shape"/>
<feColorMatrix in="SourceAlpha" type="matrix" values="0 0 0 0 0 0 0 0 0 0 0 0 0 0 0 0 0 0 127 0" result="hardAlpha"/>
<feOffset dy="4"/>
<feGaussianBlur stdDeviation="2"/>
<feComposite in2="hardAlpha" operator="arithmetic" k2="-1" k3="1"/>
<feColorMatrix type="matrix" values="0 0 0 0 0 0 0 0 0 0 0 0 0 0 0 0 0 0 0.25 0"/>
<feBlend mode="normal" in2="shape" result="effect1_innerShadow_215_3665"/>
</filter>
<filter id="filter4_i_215_3665" x="978.92" y="450" width="175.919" height="250" filterUnits="userSpaceOnUse" color-interpolation-filters="sRGB">
<feFlood flood-opacity="0" result="BackgroundImageFix"/>
<feBlend mode="normal" in="SourceGraphic" in2="BackgroundImageFix" result="shape"/>
<feColorMatrix in="SourceAlpha" type="matrix" values="0 0 0 0 0 0 0 0 0 0 0 0 0 0 0 0 0 0 127 0" result="hardAlpha"/>
<feOffset dy="4"/>
<feGaussianBlur stdDeviation="2"/>
<feComposite in2="hardAlpha" operator="arithmetic" k2="-1" k3="1"/>
<feColorMatrix type="matrix" values="0 0 0 0 0 0 0 0 0 0 0 0 0 0 0 0 0 0 0.25 0"/>
<feBlend mode="normal" in2="shape" result="effect1_innerShadow_215_3665"/>
</filter>
<filter id="filter5_i_215_3665" x="978.92" y="294" width="175.919" height="250" filterUnits="userSpaceOnUse" color-interpolation-filters="sRGB">
<feFlood flood-opacity="0" result="BackgroundImageFix"/>
<feBlend mode="normal" in="SourceGraphic" in2="BackgroundImageFix" result="shape"/>
<feColorMatrix in="SourceAlpha" type="matrix" values="0 0 0 0 0 0 0 0 0 0 0 0 0 0 0 0 0 0 127 0" result="hardAlpha"/>
<feOffset dy="4"/>
<feGaussianBlur stdDeviation="2"/>
<feComposite in2="hardAlpha" operator="arithmetic" k2="-1" k3="1"/>
<feColorMatrix type="matrix" values="0 0 0 0 0 0 0 0 0 0 0 0 0 0 0 0 0 0 0.25 0"/>
<feBlend mode="normal" in2="shape" result="effect1_innerShadow_215_3665"/>
</filter>
<filter id="filter6_i_215_3665" x="978.92" y="138" width="175.919" height="250" filterUnits="userSpaceOnUse" color-interpolation-filters="sRGB">
<feFlood flood-opacity="0" result="BackgroundImageFix"/>
<feBlend mode="normal" in="SourceGraphic" in2="BackgroundImageFix" result="shape"/>
<feColorMatrix in="SourceAlpha" type="matrix" values="0 0 0 0 0 0 0 0 0 0 0 0 0 0 0 0 0 0 127 0" result="hardAlpha"/>
<feOffset dy="4"/>
<feGaussianBlur stdDeviation="2"/>
<feComposite in2="hardAlpha" operator="arithmetic" k2="-1" k3="1"/>
<feColorMatrix type="matrix" values="0 0 0 0 0 0 0 0 0 0 0 0 0 0 0 0 0 0 0.25 0"/>
<feBlend mode="normal" in2="shape" result="effect1_innerShadow_215_3665"/>
</filter>
<filter id="filter7_i_215_3665" x="978.92" y="-18" width="175.919" height="250" filterUnits="userSpaceOnUse" color-interpolation-filters="sRGB">
<feFlood flood-opacity="0" result="BackgroundImageFix"/>
<feBlend mode="normal" in="SourceGraphic" in2="BackgroundImageFix" result="shape"/>
<feColorMatrix in="SourceAlpha" type="matrix" values="0 0 0 0 0 0 0 0 0 0 0 0 0 0 0 0 0 0 127 0" result="hardAlpha"/>
<feOffset dy="4"/>
<feGaussianBlur stdDeviation="2"/>
<feComposite in2="hardAlpha" operator="arithmetic" k2="-1" k3="1"/>
<feColorMatrix type="matrix" values="0 0 0 0 0 0 0 0 0 0 0 0 0 0 0 0 0 0 0.25 0"/>
<feBlend mode="normal" in2="shape" result="effect1_innerShadow_215_3665"/>
</filter>
<filter id="filter8_i_215_3665" x="-75" y="918" width="175.919" height="250" filterUnits="userSpaceOnUse" color-interpolation-filters="sRGB">
<feFlood flood-opacity="0" result="BackgroundImageFix"/>
<feBlend mode="normal" in="SourceGraphic" in2="BackgroundImageFix" result="shape"/>
<feColorMatrix in="SourceAlpha" type="matrix" values="0 0 0 0 0 0 0 0 0 0 0 0 0 0 0 0 0 0 127 0" result="hardAlpha"/>
<feOffset dy="4"/>
<feGaussianBlur stdDeviation="2"/>
<feComposite in2="hardAlpha" operator="arithmetic" k2="-1" k3="1"/>
<feColorMatrix type="matrix" values="0 0 0 0 0 0 0 0 0 0 0 0 0 0 0 0 0 0 0.25 0"/>
<feBlend mode="normal" in2="shape" result="effect1_innerShadow_215_3665"/>
</filter>
<filter id="filter9_i_215_3665" x="-75" y="762" width="175.919" height="250" filterUnits="userSpaceOnUse" color-interpolation-filters="sRGB">
<feFlood flood-opacity="0" result="BackgroundImageFix"/>
<feBlend mode="normal" in="SourceGraphic" in2="BackgroundImageFix" result="shape"/>
<feColorMatrix in="SourceAlpha" type="matrix" values="0 0 0 0 0 0 0 0 0 0 0 0 0 0 0 0 0 0 127 0" result="hardAlpha"/>
<feOffset dy="4"/>
<feGaussianBlur stdDeviation="2"/>
<feComposite in2="hardAlpha" operator="arithmetic" k2="-1" k3="1"/>
<feColorMatrix type="matrix" values="0 0 0 0 0 0 0 0 0 0 0 0 0 0 0 0 0 0 0.25 0"/>
<feBlend mode="normal" in2="shape" result="effect1_innerShadow_215_3665"/>
</filter>
<filter id="filter10_i_215_3665" x="-75" y="606" width="175.919" height="250" filterUnits="userSpaceOnUse" color-interpolation-filters="sRGB">
<feFlood flood-opacity="0" result="BackgroundImageFix"/>
<feBlend mode="normal" in="SourceGraphic" in2="BackgroundImageFix" result="shape"/>
<feColorMatrix in="SourceAlpha" type="matrix" values="0 0 0 0 0 0 0 0 0 0 0 0 0 0 0 0 0 0 127 0" result="hardAlpha"/>
<feOffset dy="4"/>
<feGaussianBlur stdDeviation="2"/>
<feComposite in2="hardAlpha" operator="arithmetic" k2="-1" k3="1"/>
<feColorMatrix type="matrix" values="0 0 0 0 0 0 0 0 0 0 0 0 0 0 0 0 0 0 0.25 0"/>
<feBlend mode="normal" in2="shape" result="effect1_innerShadow_215_3665"/>
</filter>
<filter id="filter11_i_215_3665" x="-75" y="450" width="175.919" height="250" filterUnits="userSpaceOnUse" color-interpolation-filters="sRGB">
<feFlood flood-opacity="0" result="BackgroundImageFix"/>
<feBlend mode="normal" in="SourceGraphic" in2="BackgroundImageFix" result="shape"/>
<feColorMatrix in="SourceAlpha" type="matrix" values="0 0 0 0 0 0 0 0 0 0 0 0 0 0 0 0 0 0 127 0" result="hardAlpha"/>
<feOffset dy="4"/>
<feGaussianBlur stdDeviation="2"/>
<feComposite in2="hardAlpha" operator="arithmetic" k2="-1" k3="1"/>
<feColorMatrix type="matrix" values="0 0 0 0 0 0 0 0 0 0 0 0 0 0 0 0 0 0 0.25 0"/>
<feBlend mode="normal" in2="shape" result="effect1_innerShadow_215_3665"/>
</filter>
<filter id="filter12_i_215_3665" x="-75" y="294" width="175.919" height="250" filterUnits="userSpaceOnUse" color-interpolation-filters="sRGB">
<feFlood flood-opacity="0" result="BackgroundImageFix"/>
<feBlend mode="normal" in="SourceGraphic" in2="BackgroundImageFix" result="shape"/>
<feColorMatrix in="SourceAlpha" type="matrix" values="0 0 0 0 0 0 0 0 0 0 0 0 0 0 0 0 0 0 127 0" result="hardAlpha"/>
<feOffset dy="4"/>
<feGaussianBlur stdDeviation="2"/>
<feComposite in2="hardAlpha" operator="arithmetic" k2="-1" k3="1"/>
<feColorMatrix type="matrix" values="0 0 0 0 0 0 0 0 0 0 0 0 0 0 0 0 0 0 0.25 0"/>
<feBlend mode="normal" in2="shape" result="effect1_innerShadow_215_3665"/>
</filter>
<filter id="filter13_i_215_3665" x="-75" y="138" width="175.919" height="250" filterUnits="userSpaceOnUse" color-interpolation-filters="sRGB">
<feFlood flood-opacity="0" result="BackgroundImageFix"/>
<feBlend mode="normal" in="SourceGraphic" in2="BackgroundImageFix" result="shape"/>
<feColorMatrix in="SourceAlpha" type="matrix" values="0 0 0 0 0 0 0 0 0 0 0 0 0 0 0 0 0 0 127 0" result="hardAlpha"/>
<feOffset dy="4"/>
<feGaussianBlur stdDeviation="2"/>
<feComposite in2="hardAlpha" operator="arithmetic" k2="-1" k3="1"/>
<feColorMatrix type="matrix" values="0 0 0 0 0 0 0 0 0 0 0 0 0 0 0 0 0 0 0.25 0"/>
<feBlend mode="normal" in2="shape" result="effect1_innerShadow_215_3665"/>
</filter>
<filter id="filter14_i_215_3665" x="-75" y="-18" width="175.919" height="250" filterUnits="userSpaceOnUse" color-interpolation-filters="sRGB">
<feFlood flood-opacity="0" result="BackgroundImageFix"/>
<feBlend mode="normal" in="SourceGraphic" in2="BackgroundImageFix" result="shape"/>
<feColorMatrix in="SourceAlpha" type="matrix" values="0 0 0 0 0 0 0 0 0 0 0 0 0 0 0 0 0 0 127 0" result="hardAlpha"/>
<feOffset dy="4"/>
<feGaussianBlur stdDeviation="2"/>
<feComposite in2="hardAlpha" operator="arithmetic" k2="-1" k3="1"/>
<feColorMatrix type="matrix" values="0 0 0 0 0 0 0 0 0 0 0 0 0 0 0 0 0 0 0.25 0"/>
<feBlend mode="normal" in2="shape" result="effect1_innerShadow_215_3665"/>
</filter>
<filter id="filter15_d_215_3665" x="784" y="930.544" width="144" height="66.9121" filterUnits="userSpaceOnUse" color-interpolation-filters="sRGB">
<feFlood flood-opacity="0" result="BackgroundImageFix"/>
<feColorMatrix in="SourceAlpha" type="matrix" values="0 0 0 0 0 0 0 0 0 0 0 0 0 0 0 0 0 0 127 0" result="hardAlpha"/>
<feOffset dy="4"/>
<feGaussianBlur stdDeviation="2"/>
<feComposite in2="hardAlpha" operator="out"/>
<feColorMatrix type="matrix" values="0 0 0 0 0 0 0 0 0 0 0 0 0 0 0 0 0 0 0.25 0"/>
<feBlend mode="normal" in2="BackgroundImageFix" result="effect1_dropShadow_215_3665"/>
<feBlend mode="normal" in="SourceGraphic" in2="effect1_dropShadow_215_3665" result="shape"/>
</filter>
<filter id="filter16_d_215_3665" x="99.8081" y="225.648" width="881.852" height="613.504" filterUnits="userSpaceOnUse" color-interpolation-filters="sRGB">
<feFlood flood-opacity="0" result="BackgroundImageFix"/>
<feColorMatrix in="SourceAlpha" type="matrix" values="0 0 0 0 0 0 0 0 0 0 0 0 0 0 0 0 0 0 127 0" result="hardAlpha"/>
<feOffset dy="4"/>
<feGaussianBlur stdDeviation="2"/>
<feComposite in2="hardAlpha" operator="out"/>
<feColorMatrix type="matrix" values="0 0 0 0 0 0 0 0 0 0 0 0 0 0 0 0 0 0 0.25 0"/>
<feBlend mode="normal" in2="BackgroundImageFix" result="effect1_dropShadow_215_3665"/>
<feBlend mode="normal" in="SourceGraphic" in2="effect1_dropShadow_215_3665" result="shape"/>
</filter>
<clipPath id="clip0_215_3665">
<rect x="32" y="32" width="1016" height="1016" rx="16" fill="white"/>
</clipPath>
</defs>
</svg>
