<svg width="1080" height="1080" viewBox="0 0 1080 1080" fill="none" xmlns="http://www.w3.org/2000/svg">
<rect width="1080" height="1080" fill="#374151"/>
<g filter="url(#filter0_i_137_1615)">
<g clip-path="url(#clip0_137_1615)">
<rect x="32" y="32" width="1016" height="1016" rx="16" fill="#93C5FD"/>
<g filter="url(#filter1_i_137_1615)">
<path fill-rule="evenodd" clip-rule="evenodd" d="M1059.44 997.997C1064.05 995.335 1069.72 995.334 1074.33 997.994L1100.42 1013.05C1105.04 1015.71 1107.88 1020.63 1107.88 1025.95V1056.05C1107.88 1061.37 1105.04 1066.29 1100.42 1068.95L1074.33 1084.01C1069.72 1086.67 1064.05 1086.66 1059.44 1084L1033.37 1068.95C1028.76 1066.29 1025.92 1061.37 1025.92 1056.05V1025.95C1025.92 1020.63 1028.76 1015.71 1033.37 1013.05L1059.44 997.997ZM1070.61 1011.07C1068.3 1009.74 1065.47 1009.74 1063.16 1011.07L1042.83 1022.8C1040.53 1024.13 1039.1 1026.59 1039.1 1029.25V1052.75C1039.1 1055.41 1040.53 1057.87 1042.83 1059.2L1063.16 1070.93C1065.47 1072.26 1068.3 1072.26 1070.61 1070.93L1090.97 1059.18C1093.27 1057.84 1094.7 1055.38 1094.7 1052.72V1029.25C1094.7 1026.59 1093.27 1024.13 1090.97 1022.8L1070.61 1011.07Z" fill="#E5E7EB"/>
<path fill-rule="evenodd" clip-rule="evenodd" d="M1012.44 919.997C1017.05 917.335 1022.72 917.334 1027.33 919.994L1053.42 935.046C1058.04 937.707 1060.88 942.628 1060.88 947.954V978.046C1060.88 983.372 1058.04 988.293 1053.42 990.954L1027.33 1006.01C1022.72 1008.67 1017.05 1008.66 1012.44 1006L986.371 990.954C981.76 988.292 978.92 983.372 978.92 978.049V947.951C978.92 942.628 981.76 937.708 986.371 935.046L1012.44 919.997ZM1023.61 933.066C1021.3 931.738 1018.47 931.739 1016.16 933.067L995.832 944.797C993.526 946.128 992.105 948.588 992.105 951.251V974.749C992.105 977.412 993.526 979.872 995.832 981.203L1016.16 992.93C1018.47 994.26 1021.3 994.259 1023.61 992.929L1043.97 981.175C1046.27 979.845 1047.7 977.385 1047.7 974.723V951.254C1047.7 948.59 1046.27 946.129 1043.97 944.798L1023.61 933.066Z" fill="#E5E7EB"/>
</g>
<g filter="url(#filter2_i_137_1615)">
<path fill-rule="evenodd" clip-rule="evenodd" d="M1012.44 919.997C1017.05 917.335 1022.72 917.334 1027.33 919.994L1053.42 935.046C1058.04 937.707 1060.88 942.628 1060.88 947.954V978.046C1060.88 983.372 1058.04 988.293 1053.42 990.954L1027.33 1006.01C1022.72 1008.67 1017.05 1008.66 1012.44 1006L986.371 990.954C981.76 988.292 978.92 983.372 978.92 978.049V947.951C978.92 942.628 981.76 937.708 986.371 935.046L1012.44 919.997ZM1023.61 933.066C1021.3 931.738 1018.47 931.739 1016.16 933.067L995.832 944.797C993.526 946.128 992.105 948.588 992.105 951.251V974.749C992.105 977.412 993.526 979.872 995.832 981.203L1016.16 992.93C1018.47 994.26 1021.3 994.259 1023.61 992.929L1043.97 981.175C1046.27 979.845 1047.7 977.385 1047.7 974.723V951.254C1047.7 948.59 1046.27 946.129 1043.97 944.798L1023.61 933.066Z" fill="#E5E7EB"/>
<path fill-rule="evenodd" clip-rule="evenodd" d="M1059.44 841.997C1064.05 839.335 1069.72 839.334 1074.33 841.994L1100.42 857.046C1105.04 859.707 1107.88 864.628 1107.88 869.954V900.046C1107.88 905.372 1105.04 910.293 1100.42 912.954L1074.33 928.006C1069.72 930.666 1064.05 930.665 1059.44 928.003L1033.37 912.954C1028.76 910.292 1025.92 905.372 1025.92 900.049V869.951C1025.92 864.628 1028.76 859.708 1033.37 857.046L1059.44 841.997ZM1070.61 855.066C1068.3 853.738 1065.47 853.739 1063.16 855.067L1042.83 866.797C1040.53 868.128 1039.1 870.588 1039.1 873.251V896.749C1039.1 899.412 1040.53 901.872 1042.83 903.203L1063.16 914.93C1065.47 916.26 1068.3 916.259 1070.61 914.929L1090.97 903.175C1093.27 901.845 1094.7 899.385 1094.7 896.723V873.254C1094.7 870.59 1093.27 868.129 1090.97 866.798L1070.61 855.066Z" fill="#E5E7EB"/>
<path fill-rule="evenodd" clip-rule="evenodd" d="M1012.44 763.997C1017.05 761.335 1022.72 761.334 1027.33 763.994L1053.42 779.046C1058.04 781.707 1060.88 786.628 1060.88 791.954V822.046C1060.88 827.372 1058.04 832.293 1053.42 834.954L1027.33 850.006C1022.72 852.666 1017.05 852.665 1012.44 850.003L986.371 834.954C981.76 832.292 978.92 827.372 978.92 822.049V791.951C978.92 786.628 981.76 781.708 986.371 779.046L1012.44 763.997ZM1023.61 777.066C1021.3 775.738 1018.47 775.739 1016.16 777.067L995.832 788.797C993.526 790.128 992.105 792.588 992.105 795.251V818.749C992.105 821.412 993.526 823.872 995.832 825.203L1016.16 836.93C1018.47 838.26 1021.3 838.259 1023.61 836.929L1043.97 825.175C1046.27 823.845 1047.7 821.385 1047.7 818.723V795.254C1047.7 792.59 1046.27 790.129 1043.97 788.798L1023.61 777.066Z" fill="#E5E7EB"/>
</g>
<g filter="url(#filter3_i_137_1615)">
<path fill-rule="evenodd" clip-rule="evenodd" d="M1012.44 763.997C1017.05 761.335 1022.72 761.334 1027.33 763.994L1053.42 779.046C1058.04 781.707 1060.88 786.628 1060.88 791.954V822.046C1060.88 827.372 1058.04 832.293 1053.42 834.954L1027.33 850.006C1022.72 852.666 1017.05 852.665 1012.44 850.003L986.371 834.954C981.76 832.292 978.92 827.372 978.92 822.049V791.951C978.92 786.628 981.76 781.708 986.371 779.046L1012.44 763.997ZM1023.61 777.066C1021.3 775.738 1018.47 775.739 1016.16 777.067L995.832 788.797C993.526 790.128 992.105 792.588 992.105 795.251V818.749C992.105 821.412 993.526 823.872 995.832 825.203L1016.16 836.93C1018.47 838.26 1021.3 838.259 1023.61 836.929L1043.97 825.175C1046.27 823.845 1047.7 821.385 1047.7 818.723V795.254C1047.7 792.59 1046.27 790.129 1043.97 788.798L1023.61 777.066Z" fill="#E5E7EB"/>
<path fill-rule="evenodd" clip-rule="evenodd" d="M1059.44 685.997C1064.05 683.335 1069.72 683.334 1074.33 685.994L1100.42 701.046C1105.04 703.707 1107.88 708.628 1107.88 713.954V744.046C1107.88 749.372 1105.04 754.293 1100.42 756.954L1074.33 772.006C1069.72 774.666 1064.05 774.665 1059.44 772.003L1033.37 756.954C1028.76 754.292 1025.92 749.372 1025.92 744.049V713.951C1025.92 708.628 1028.76 703.708 1033.37 701.046L1059.44 685.997ZM1070.61 699.066C1068.3 697.738 1065.47 697.739 1063.16 699.067L1042.83 710.797C1040.53 712.128 1039.1 714.588 1039.1 717.251V740.749C1039.1 743.412 1040.53 745.872 1042.83 747.203L1063.16 758.93C1065.47 760.26 1068.3 760.259 1070.61 758.929L1090.97 747.175C1093.27 745.845 1094.7 743.385 1094.7 740.723V717.254C1094.7 714.59 1093.27 712.129 1090.97 710.798L1070.61 699.066Z" fill="#E5E7EB"/>
<path fill-rule="evenodd" clip-rule="evenodd" d="M1012.44 607.997C1017.05 605.335 1022.72 605.334 1027.33 607.994L1053.42 623.046C1058.04 625.707 1060.88 630.628 1060.88 635.954V666.046C1060.88 671.372 1058.04 676.293 1053.42 678.954L1027.33 694.006C1022.72 696.666 1017.05 696.665 1012.44 694.003L986.371 678.954C981.76 676.292 978.92 671.372 978.92 666.049V635.951C978.92 630.628 981.76 625.708 986.371 623.046L1012.44 607.997ZM1023.61 621.066C1021.3 619.738 1018.47 619.739 1016.16 621.067L995.832 632.797C993.526 634.128 992.105 636.588 992.105 639.251V662.749C992.105 665.412 993.526 667.872 995.832 669.203L1016.16 680.93C1018.47 682.26 1021.3 682.259 1023.61 680.929L1043.97 669.175C1046.27 667.845 1047.7 665.385 1047.7 662.723V639.254C1047.7 636.59 1046.27 634.129 1043.97 632.798L1023.61 621.066Z" fill="#E5E7EB"/>
</g>
<g filter="url(#filter4_i_137_1615)">
<path fill-rule="evenodd" clip-rule="evenodd" d="M1012.44 607.997C1017.05 605.335 1022.72 605.334 1027.33 607.994L1053.42 623.046C1058.04 625.707 1060.88 630.628 1060.88 635.954V666.046C1060.88 671.372 1058.04 676.293 1053.42 678.954L1027.33 694.006C1022.72 696.666 1017.05 696.665 1012.44 694.003L986.371 678.954C981.76 676.292 978.92 671.372 978.92 666.049V635.951C978.92 630.628 981.76 625.708 986.371 623.046L1012.44 607.997ZM1023.61 621.066C1021.3 619.738 1018.47 619.739 1016.16 621.067L995.832 632.797C993.526 634.128 992.105 636.588 992.105 639.251V662.749C992.105 665.412 993.526 667.872 995.832 669.203L1016.16 680.93C1018.47 682.26 1021.3 682.259 1023.61 680.929L1043.97 669.175C1046.27 667.845 1047.7 665.385 1047.7 662.723V639.254C1047.7 636.59 1046.27 634.129 1043.97 632.798L1023.61 621.066Z" fill="#E5E7EB"/>
<path fill-rule="evenodd" clip-rule="evenodd" d="M1059.44 529.997C1064.05 527.335 1069.72 527.334 1074.33 529.994L1100.42 545.046C1105.04 547.707 1107.88 552.628 1107.88 557.954V588.046C1107.88 593.372 1105.04 598.293 1100.42 600.954L1074.33 616.006C1069.72 618.666 1064.05 618.665 1059.44 616.003L1033.37 600.954C1028.76 598.292 1025.92 593.372 1025.92 588.049V557.951C1025.92 552.628 1028.76 547.708 1033.37 545.046L1059.44 529.997ZM1070.61 543.066C1068.3 541.738 1065.47 541.739 1063.16 543.067L1042.83 554.797C1040.53 556.128 1039.1 558.588 1039.1 561.251V584.749C1039.1 587.412 1040.53 589.872 1042.83 591.203L1063.16 602.93C1065.47 604.26 1068.3 604.259 1070.61 602.929L1090.97 591.175C1093.27 589.845 1094.7 587.385 1094.7 584.723V561.254C1094.7 558.59 1093.27 556.129 1090.97 554.798L1070.61 543.066Z" fill="#E5E7EB"/>
<path fill-rule="evenodd" clip-rule="evenodd" d="M1012.44 451.997C1017.05 449.335 1022.72 449.334 1027.33 451.994L1053.42 467.046C1058.04 469.707 1060.88 474.628 1060.88 479.954V510.046C1060.88 515.372 1058.04 520.293 1053.42 522.954L1027.33 538.006C1022.72 540.666 1017.05 540.665 1012.44 538.003L986.371 522.954C981.76 520.292 978.92 515.372 978.92 510.049V479.951C978.92 474.628 981.76 469.708 986.371 467.046L1012.44 451.997ZM1023.61 465.066C1021.3 463.738 1018.47 463.739 1016.16 465.067L995.832 476.797C993.526 478.128 992.105 480.588 992.105 483.251V506.749C992.105 509.412 993.526 511.872 995.832 513.203L1016.16 524.93C1018.47 526.26 1021.3 526.259 1023.61 524.929L1043.97 513.175C1046.27 511.845 1047.7 509.385 1047.7 506.723V483.254C1047.7 480.59 1046.27 478.129 1043.97 476.798L1023.61 465.066Z" fill="#E5E7EB"/>
</g>
<g filter="url(#filter5_i_137_1615)">
<path fill-rule="evenodd" clip-rule="evenodd" d="M1012.44 451.997C1017.05 449.335 1022.72 449.334 1027.33 451.994L1053.42 467.046C1058.04 469.707 1060.88 474.628 1060.88 479.954V510.046C1060.88 515.372 1058.04 520.293 1053.42 522.954L1027.33 538.006C1022.72 540.666 1017.05 540.665 1012.44 538.003L986.371 522.954C981.76 520.292 978.92 515.372 978.92 510.049V479.951C978.92 474.628 981.76 469.708 986.371 467.046L1012.44 451.997ZM1023.61 465.066C1021.3 463.738 1018.47 463.739 1016.16 465.067L995.832 476.797C993.526 478.128 992.105 480.588 992.105 483.251V506.749C992.105 509.412 993.526 511.872 995.832 513.203L1016.16 524.93C1018.47 526.26 1021.3 526.259 1023.61 524.929L1043.97 513.175C1046.27 511.845 1047.7 509.385 1047.7 506.723V483.254C1047.7 480.59 1046.27 478.129 1043.97 476.798L1023.61 465.066Z" fill="#E5E7EB"/>
<path fill-rule="evenodd" clip-rule="evenodd" d="M1059.44 373.997C1064.05 371.335 1069.72 371.334 1074.33 373.994L1100.42 389.046C1105.04 391.707 1107.88 396.628 1107.88 401.954V432.046C1107.88 437.372 1105.04 442.293 1100.42 444.954L1074.33 460.006C1069.72 462.666 1064.05 462.665 1059.44 460.003L1033.37 444.954C1028.76 442.292 1025.92 437.372 1025.92 432.049V401.951C1025.92 396.628 1028.76 391.708 1033.37 389.046L1059.44 373.997ZM1070.61 387.066C1068.3 385.738 1065.47 385.739 1063.16 387.067L1042.83 398.797C1040.53 400.128 1039.1 402.588 1039.1 405.251V428.749C1039.1 431.412 1040.53 433.872 1042.83 435.203L1063.16 446.93C1065.47 448.26 1068.3 448.259 1070.61 446.929L1090.97 435.175C1093.27 433.845 1094.7 431.385 1094.7 428.723V405.254C1094.7 402.59 1093.27 400.129 1090.97 398.798L1070.61 387.066Z" fill="#E5E7EB"/>
<path fill-rule="evenodd" clip-rule="evenodd" d="M1012.44 295.997C1017.05 293.335 1022.72 293.334 1027.33 295.994L1053.42 311.046C1058.04 313.707 1060.88 318.628 1060.88 323.954V354.046C1060.88 359.372 1058.04 364.293 1053.42 366.954L1027.33 382.006C1022.72 384.666 1017.05 384.665 1012.44 382.003L986.371 366.954C981.76 364.292 978.92 359.372 978.92 354.049V323.951C978.92 318.628 981.76 313.708 986.371 311.046L1012.44 295.997ZM1023.61 309.066C1021.3 307.738 1018.47 307.739 1016.16 309.067L995.832 320.797C993.526 322.128 992.105 324.588 992.105 327.251V350.749C992.105 353.412 993.526 355.872 995.832 357.203L1016.16 368.93C1018.47 370.26 1021.3 370.259 1023.61 368.929L1043.97 357.175C1046.27 355.845 1047.7 353.385 1047.7 350.723V327.254C1047.7 324.59 1046.27 322.129 1043.97 320.798L1023.61 309.066Z" fill="#E5E7EB"/>
</g>
<g filter="url(#filter6_i_137_1615)">
<path fill-rule="evenodd" clip-rule="evenodd" d="M1012.44 295.997C1017.05 293.335 1022.72 293.334 1027.33 295.994L1053.42 311.046C1058.04 313.707 1060.88 318.628 1060.88 323.954V354.046C1060.88 359.372 1058.04 364.293 1053.42 366.954L1027.33 382.006C1022.72 384.666 1017.05 384.665 1012.44 382.003L986.371 366.954C981.76 364.292 978.92 359.372 978.92 354.049V323.951C978.92 318.628 981.76 313.708 986.371 311.046L1012.44 295.997ZM1023.61 309.066C1021.3 307.738 1018.47 307.739 1016.16 309.067L995.832 320.797C993.526 322.128 992.105 324.588 992.105 327.251V350.749C992.105 353.412 993.526 355.872 995.832 357.203L1016.16 368.93C1018.47 370.26 1021.3 370.259 1023.61 368.929L1043.97 357.175C1046.27 355.845 1047.7 353.385 1047.7 350.723V327.254C1047.7 324.59 1046.27 322.129 1043.97 320.798L1023.61 309.066Z" fill="#E5E7EB"/>
<path fill-rule="evenodd" clip-rule="evenodd" d="M1059.44 217.997C1064.05 215.335 1069.72 215.334 1074.33 217.994L1100.42 233.046C1105.04 235.707 1107.88 240.628 1107.88 245.954V276.046C1107.88 281.372 1105.04 286.293 1100.42 288.954L1074.33 304.006C1069.72 306.666 1064.05 306.665 1059.44 304.003L1033.37 288.954C1028.76 286.292 1025.92 281.372 1025.92 276.049V245.951C1025.92 240.628 1028.76 235.708 1033.37 233.046L1059.44 217.997ZM1070.61 231.066C1068.3 229.738 1065.47 229.739 1063.16 231.067L1042.83 242.797C1040.53 244.128 1039.1 246.588 1039.1 249.251V272.749C1039.1 275.412 1040.53 277.872 1042.83 279.203L1063.16 290.93C1065.47 292.26 1068.3 292.259 1070.61 290.929L1090.97 279.175C1093.27 277.845 1094.7 275.385 1094.7 272.723V249.254C1094.7 246.59 1093.27 244.129 1090.97 242.798L1070.61 231.066Z" fill="#E5E7EB"/>
<path fill-rule="evenodd" clip-rule="evenodd" d="M1012.44 139.997C1017.05 137.335 1022.72 137.334 1027.33 139.994L1053.42 155.046C1058.04 157.707 1060.88 162.628 1060.88 167.954V198.046C1060.88 203.372 1058.04 208.293 1053.42 210.954L1027.33 226.006C1022.72 228.666 1017.05 228.665 1012.44 226.003L986.371 210.954C981.76 208.292 978.92 203.372 978.92 198.049V167.951C978.92 162.628 981.76 157.708 986.371 155.046L1012.44 139.997ZM1023.61 153.066C1021.3 151.738 1018.47 151.739 1016.16 153.067L995.832 164.797C993.526 166.128 992.105 168.588 992.105 171.251V194.749C992.105 197.412 993.526 199.872 995.832 201.203L1016.16 212.93C1018.47 214.26 1021.3 214.259 1023.61 212.929L1043.97 201.175C1046.27 199.845 1047.7 197.385 1047.7 194.723V171.254C1047.7 168.59 1046.27 166.129 1043.97 164.798L1023.61 153.066Z" fill="#E5E7EB"/>
</g>
<g filter="url(#filter7_i_137_1615)">
<path fill-rule="evenodd" clip-rule="evenodd" d="M1012.44 139.997C1017.05 137.335 1022.72 137.334 1027.33 139.994L1053.42 155.046C1058.04 157.707 1060.88 162.628 1060.88 167.954V198.046C1060.88 203.372 1058.04 208.293 1053.42 210.954L1027.33 226.006C1022.72 228.666 1017.05 228.665 1012.44 226.003L986.371 210.954C981.76 208.292 978.92 203.372 978.92 198.049V167.951C978.92 162.628 981.76 157.708 986.371 155.046L1012.44 139.997ZM1023.61 153.066C1021.3 151.738 1018.47 151.739 1016.16 153.067L995.832 164.797C993.526 166.128 992.105 168.588 992.105 171.251V194.749C992.105 197.412 993.526 199.872 995.832 201.203L1016.16 212.93C1018.47 214.26 1021.3 214.259 1023.61 212.929L1043.97 201.175C1046.27 199.845 1047.7 197.385 1047.7 194.723V171.254C1047.7 168.59 1046.27 166.129 1043.97 164.798L1023.61 153.066Z" fill="#E5E7EB"/>
<path fill-rule="evenodd" clip-rule="evenodd" d="M1059.44 61.9966C1064.05 59.3354 1069.72 59.3344 1074.33 61.9941L1100.42 77.0462C1105.04 79.7075 1107.88 84.6283 1107.88 89.9538V120.046C1107.88 125.372 1105.04 130.293 1100.42 132.954L1074.33 148.006C1069.72 150.666 1064.05 150.665 1059.44 148.003L1033.37 132.954C1028.76 130.292 1025.92 125.372 1025.92 120.049V89.9514C1025.92 84.6275 1028.76 79.7081 1033.37 77.0462L1059.44 61.9966ZM1070.61 75.0658C1068.3 73.738 1065.47 73.7386 1063.16 75.0673L1042.83 86.7969C1040.53 88.1276 1039.1 90.588 1039.1 93.2509V116.749C1039.1 119.412 1040.53 121.872 1042.83 123.203L1063.16 134.93C1065.47 136.26 1068.3 136.259 1070.61 134.929L1090.97 123.175C1093.27 121.845 1094.7 119.385 1094.7 116.723V93.2538C1094.7 90.5899 1093.27 88.1287 1090.97 86.7984L1070.61 75.0658Z" fill="#E5E7EB"/>
<path fill-rule="evenodd" clip-rule="evenodd" d="M1012.44 -16.0034C1017.05 -18.6646 1022.72 -18.6656 1027.33 -16.0059L1053.42 -0.953846C1058.04 1.70747 1060.88 6.62825 1060.88 11.9538V42.0462C1060.88 47.3718 1058.04 52.2925 1053.42 54.9539L1027.33 70.0059C1022.72 72.6656 1017.05 72.6646 1012.44 70.0035L986.371 54.9539C981.76 52.2919 978.92 47.3725 978.92 42.0486V11.9514C978.92 6.62754 981.76 1.70812 986.371 -0.953846L1012.44 -16.0034ZM1023.61 -2.93418C1021.3 -4.262 1018.47 -4.26144 1016.16 -2.93271L995.832 8.79695C993.526 10.1276 992.105 12.588 992.105 15.2509V38.7491C992.105 41.412 993.526 43.8724 995.832 45.2031L1016.16 56.9302C1018.47 58.2598 1021.3 58.2594 1023.61 56.9291L1043.97 45.1755C1046.27 43.8446 1047.7 41.3847 1047.7 38.7226V15.2538C1047.7 12.5899 1046.27 10.1287 1043.97 8.79842L1023.61 -2.93418Z" fill="#E5E7EB"/>
</g>
<g filter="url(#filter8_i_137_1615)">
<path fill-rule="evenodd" clip-rule="evenodd" d="M5.51663 997.997C10.1258 995.335 15.8044 995.334 20.4144 997.994L46.5047 1013.05C51.1176 1015.71 53.9597 1020.63 53.9597 1025.95V1056.05C53.9597 1061.37 51.1176 1066.29 46.5047 1068.95L20.4144 1084.01C15.8044 1086.67 10.1258 1086.66 5.51662 1084L-20.5493 1068.95C-25.1598 1066.29 -28 1061.37 -28 1056.05V1025.95C-28 1020.63 -25.1598 1015.71 -20.5493 1013.05L5.51663 997.997ZM16.6887 1011.07C14.3849 1009.74 11.5481 1009.74 9.24486 1011.07L-11.0878 1022.8C-13.3944 1024.13 -14.8155 1026.59 -14.8155 1029.25V1052.75C-14.8155 1055.41 -13.3944 1057.87 -11.0878 1059.2L9.24046 1070.93C11.5453 1072.26 14.3843 1072.26 16.6887 1070.93L37.0494 1059.18C39.3549 1057.84 40.7752 1055.38 40.7752 1052.72V1029.25C40.7752 1026.59 39.353 1024.13 37.045 1022.8L16.6887 1011.07Z" fill="#E5E7EB"/>
<path fill-rule="evenodd" clip-rule="evenodd" d="M52.4763 919.997C57.0855 917.335 62.7641 917.334 67.3741 919.994L93.4644 935.046C98.0774 937.707 100.919 942.628 100.919 947.954V978.046C100.919 983.372 98.0774 988.293 93.4644 990.954L67.3741 1006.01C62.7641 1008.67 57.0855 1008.66 52.4763 1006L26.4104 990.954C21.7999 988.292 18.9597 983.372 18.9597 978.049V947.951C18.9597 942.628 21.7999 937.708 26.4104 935.046L52.4763 919.997ZM63.6484 933.066C61.3447 931.738 58.5078 931.739 56.2046 933.067L35.8719 944.797C33.5654 946.128 32.1443 948.588 32.1443 951.251V974.749C32.1443 977.412 33.5654 979.872 35.8719 981.203L56.2002 992.93C58.505 994.26 61.344 994.259 63.6484 992.929L84.0091 981.175C86.3146 979.845 87.7349 977.385 87.7349 974.723V951.254C87.7349 948.59 86.3127 946.129 84.0047 944.798L63.6484 933.066Z" fill="#E5E7EB"/>
</g>
<g filter="url(#filter9_i_137_1615)">
<path fill-rule="evenodd" clip-rule="evenodd" d="M52.4763 919.997C57.0855 917.335 62.7641 917.334 67.3741 919.994L93.4644 935.046C98.0774 937.707 100.919 942.628 100.919 947.954V978.046C100.919 983.372 98.0774 988.293 93.4644 990.954L67.3741 1006.01C62.7641 1008.67 57.0855 1008.66 52.4763 1006L26.4104 990.954C21.7999 988.292 18.9597 983.372 18.9597 978.049V947.951C18.9597 942.628 21.7999 937.708 26.4104 935.046L52.4763 919.997ZM63.6484 933.066C61.3447 931.738 58.5078 931.739 56.2046 933.067L35.8719 944.797C33.5654 946.128 32.1443 948.588 32.1443 951.251V974.749C32.1443 977.412 33.5654 979.872 35.8719 981.203L56.2002 992.93C58.505 994.26 61.344 994.259 63.6484 992.929L84.0091 981.175C86.3146 979.845 87.7349 977.385 87.7349 974.723V951.254C87.7349 948.59 86.3127 946.129 84.0047 944.798L63.6484 933.066Z" fill="#E5E7EB"/>
<path fill-rule="evenodd" clip-rule="evenodd" d="M5.51663 841.997C10.1258 839.335 15.8044 839.334 20.4144 841.994L46.5047 857.046C51.1176 859.707 53.9597 864.628 53.9597 869.954V900.046C53.9597 905.372 51.1176 910.293 46.5047 912.954L20.4144 928.006C15.8044 930.666 10.1258 930.665 5.51662 928.003L-20.5493 912.954C-25.1598 910.292 -28 905.372 -28 900.049V869.951C-28 864.628 -25.1598 859.708 -20.5493 857.046L5.51663 841.997ZM16.6887 855.066C14.3849 853.738 11.5481 853.739 9.24486 855.067L-11.0878 866.797C-13.3944 868.128 -14.8155 870.588 -14.8155 873.251V896.749C-14.8155 899.412 -13.3944 901.872 -11.0878 903.203L9.24046 914.93C11.5453 916.26 14.3843 916.259 16.6887 914.929L37.0494 903.175C39.3549 901.845 40.7752 899.385 40.7752 896.723V873.254C40.7752 870.59 39.353 868.129 37.045 866.798L16.6887 855.066Z" fill="#E5E7EB"/>
<path fill-rule="evenodd" clip-rule="evenodd" d="M52.4763 763.997C57.0855 761.335 62.7641 761.334 67.3741 763.994L93.4644 779.046C98.0774 781.707 100.919 786.628 100.919 791.954V822.046C100.919 827.372 98.0774 832.293 93.4644 834.954L67.3741 850.006C62.7641 852.666 57.0855 852.665 52.4763 850.003L26.4104 834.954C21.7999 832.292 18.9597 827.372 18.9597 822.049V791.951C18.9597 786.628 21.7999 781.708 26.4104 779.046L52.4763 763.997ZM63.6484 777.066C61.3447 775.738 58.5078 775.739 56.2046 777.067L35.8719 788.797C33.5654 790.128 32.1443 792.588 32.1443 795.251V818.749C32.1443 821.412 33.5654 823.872 35.8719 825.203L56.2002 836.93C58.505 838.26 61.344 838.259 63.6484 836.929L84.0091 825.175C86.3146 823.845 87.7349 821.385 87.7349 818.723V795.254C87.7349 792.59 86.3127 790.129 84.0047 788.798L63.6484 777.066Z" fill="#E5E7EB"/>
</g>
<g filter="url(#filter10_i_137_1615)">
<path fill-rule="evenodd" clip-rule="evenodd" d="M52.4763 763.997C57.0855 761.335 62.7641 761.334 67.3741 763.994L93.4644 779.046C98.0774 781.707 100.919 786.628 100.919 791.954V822.046C100.919 827.372 98.0774 832.293 93.4644 834.954L67.3741 850.006C62.7641 852.666 57.0855 852.665 52.4763 850.003L26.4104 834.954C21.7999 832.292 18.9597 827.372 18.9597 822.049V791.951C18.9597 786.628 21.7999 781.708 26.4104 779.046L52.4763 763.997ZM63.6484 777.066C61.3447 775.738 58.5078 775.739 56.2046 777.067L35.8719 788.797C33.5654 790.128 32.1443 792.588 32.1443 795.251V818.749C32.1443 821.412 33.5654 823.872 35.8719 825.203L56.2002 836.93C58.505 838.26 61.344 838.259 63.6484 836.929L84.0091 825.175C86.3146 823.845 87.7349 821.385 87.7349 818.723V795.254C87.7349 792.59 86.3127 790.129 84.0047 788.798L63.6484 777.066Z" fill="#E5E7EB"/>
<path fill-rule="evenodd" clip-rule="evenodd" d="M5.51663 685.997C10.1258 683.335 15.8044 683.334 20.4144 685.994L46.5047 701.046C51.1176 703.707 53.9597 708.628 53.9597 713.954V744.046C53.9597 749.372 51.1176 754.293 46.5047 756.954L20.4144 772.006C15.8044 774.666 10.1258 774.665 5.51662 772.003L-20.5493 756.954C-25.1598 754.292 -28 749.372 -28 744.049V713.951C-28 708.628 -25.1598 703.708 -20.5493 701.046L5.51663 685.997ZM16.6887 699.066C14.3849 697.738 11.5481 697.739 9.24486 699.067L-11.0878 710.797C-13.3944 712.128 -14.8155 714.588 -14.8155 717.251V740.749C-14.8155 743.412 -13.3944 745.872 -11.0878 747.203L9.24046 758.93C11.5453 760.26 14.3843 760.259 16.6887 758.929L37.0494 747.175C39.3549 745.845 40.7752 743.385 40.7752 740.723V717.254C40.7752 714.59 39.353 712.129 37.045 710.798L16.6887 699.066Z" fill="#E5E7EB"/>
<path fill-rule="evenodd" clip-rule="evenodd" d="M52.4763 607.997C57.0855 605.335 62.7641 605.334 67.3741 607.994L93.4644 623.046C98.0774 625.707 100.919 630.628 100.919 635.954V666.046C100.919 671.372 98.0774 676.293 93.4644 678.954L67.3741 694.006C62.7641 696.666 57.0855 696.665 52.4763 694.003L26.4104 678.954C21.7999 676.292 18.9597 671.372 18.9597 666.049V635.951C18.9597 630.628 21.7999 625.708 26.4104 623.046L52.4763 607.997ZM63.6484 621.066C61.3447 619.738 58.5078 619.739 56.2046 621.067L35.8719 632.797C33.5654 634.128 32.1443 636.588 32.1443 639.251V662.749C32.1443 665.412 33.5654 667.872 35.8719 669.203L56.2002 680.93C58.505 682.26 61.344 682.259 63.6484 680.929L84.0091 669.175C86.3146 667.845 87.7349 665.385 87.7349 662.723V639.254C87.7349 636.59 86.3127 634.129 84.0047 632.798L63.6484 621.066Z" fill="#E5E7EB"/>
</g>
<g filter="url(#filter11_i_137_1615)">
<path fill-rule="evenodd" clip-rule="evenodd" d="M52.4763 607.997C57.0855 605.335 62.7641 605.334 67.3741 607.994L93.4644 623.046C98.0774 625.707 100.919 630.628 100.919 635.954V666.046C100.919 671.372 98.0774 676.293 93.4644 678.954L67.3741 694.006C62.7641 696.666 57.0855 696.665 52.4763 694.003L26.4104 678.954C21.7999 676.292 18.9597 671.372 18.9597 666.049V635.951C18.9597 630.628 21.7999 625.708 26.4104 623.046L52.4763 607.997ZM63.6484 621.066C61.3447 619.738 58.5078 619.739 56.2046 621.067L35.8719 632.797C33.5654 634.128 32.1443 636.588 32.1443 639.251V662.749C32.1443 665.412 33.5654 667.872 35.8719 669.203L56.2002 680.93C58.505 682.26 61.344 682.259 63.6484 680.929L84.0091 669.175C86.3146 667.845 87.7349 665.385 87.7349 662.723V639.254C87.7349 636.59 86.3127 634.129 84.0047 632.798L63.6484 621.066Z" fill="#E5E7EB"/>
<path fill-rule="evenodd" clip-rule="evenodd" d="M5.51663 529.997C10.1258 527.335 15.8044 527.334 20.4144 529.994L46.5047 545.046C51.1176 547.707 53.9597 552.628 53.9597 557.954V588.046C53.9597 593.372 51.1176 598.293 46.5047 600.954L20.4144 616.006C15.8044 618.666 10.1258 618.665 5.51662 616.003L-20.5493 600.954C-25.1598 598.292 -28 593.372 -28 588.049V557.951C-28 552.628 -25.1598 547.708 -20.5493 545.046L5.51663 529.997ZM16.6887 543.066C14.3849 541.738 11.5481 541.739 9.24486 543.067L-11.0878 554.797C-13.3944 556.128 -14.8155 558.588 -14.8155 561.251V584.749C-14.8155 587.412 -13.3944 589.872 -11.0878 591.203L9.24046 602.93C11.5453 604.26 14.3843 604.259 16.6887 602.929L37.0494 591.175C39.3549 589.845 40.7752 587.385 40.7752 584.723V561.254C40.7752 558.59 39.353 556.129 37.045 554.798L16.6887 543.066Z" fill="#E5E7EB"/>
<path fill-rule="evenodd" clip-rule="evenodd" d="M52.4763 451.997C57.0855 449.335 62.7641 449.334 67.3741 451.994L93.4644 467.046C98.0774 469.707 100.919 474.628 100.919 479.954V510.046C100.919 515.372 98.0774 520.293 93.4644 522.954L67.3741 538.006C62.7641 540.666 57.0855 540.665 52.4763 538.003L26.4104 522.954C21.7999 520.292 18.9597 515.372 18.9597 510.049V479.951C18.9597 474.628 21.7999 469.708 26.4104 467.046L52.4763 451.997ZM63.6484 465.066C61.3447 463.738 58.5078 463.739 56.2046 465.067L35.8719 476.797C33.5654 478.128 32.1443 480.588 32.1443 483.251V506.749C32.1443 509.412 33.5654 511.872 35.8719 513.203L56.2002 524.93C58.505 526.26 61.344 526.259 63.6484 524.929L84.0091 513.175C86.3146 511.845 87.7349 509.385 87.7349 506.723V483.254C87.7349 480.59 86.3127 478.129 84.0047 476.798L63.6484 465.066Z" fill="#E5E7EB"/>
</g>
<g filter="url(#filter12_i_137_1615)">
<path fill-rule="evenodd" clip-rule="evenodd" d="M52.4763 451.997C57.0855 449.335 62.7641 449.334 67.3741 451.994L93.4644 467.046C98.0774 469.707 100.919 474.628 100.919 479.954V510.046C100.919 515.372 98.0774 520.293 93.4644 522.954L67.3741 538.006C62.7641 540.666 57.0855 540.665 52.4763 538.003L26.4104 522.954C21.7999 520.292 18.9597 515.372 18.9597 510.049V479.951C18.9597 474.628 21.7999 469.708 26.4104 467.046L52.4763 451.997ZM63.6484 465.066C61.3447 463.738 58.5078 463.739 56.2046 465.067L35.8719 476.797C33.5654 478.128 32.1443 480.588 32.1443 483.251V506.749C32.1443 509.412 33.5654 511.872 35.8719 513.203L56.2002 524.93C58.505 526.26 61.344 526.259 63.6484 524.929L84.0091 513.175C86.3146 511.845 87.7349 509.385 87.7349 506.723V483.254C87.7349 480.59 86.3127 478.129 84.0047 476.798L63.6484 465.066Z" fill="#E5E7EB"/>
<path fill-rule="evenodd" clip-rule="evenodd" d="M5.51663 373.997C10.1258 371.335 15.8044 371.334 20.4144 373.994L46.5047 389.046C51.1176 391.707 53.9597 396.628 53.9597 401.954V432.046C53.9597 437.372 51.1176 442.293 46.5047 444.954L20.4144 460.006C15.8044 462.666 10.1258 462.665 5.51662 460.003L-20.5493 444.954C-25.1598 442.292 -28 437.372 -28 432.049V401.951C-28 396.628 -25.1598 391.708 -20.5493 389.046L5.51663 373.997ZM16.6887 387.066C14.3849 385.738 11.5481 385.739 9.24486 387.067L-11.0878 398.797C-13.3944 400.128 -14.8155 402.588 -14.8155 405.251V428.749C-14.8155 431.412 -13.3944 433.872 -11.0878 435.203L9.24046 446.93C11.5453 448.26 14.3843 448.259 16.6887 446.929L37.0494 435.175C39.3549 433.845 40.7752 431.385 40.7752 428.723V405.254C40.7752 402.59 39.353 400.129 37.045 398.798L16.6887 387.066Z" fill="#E5E7EB"/>
<path fill-rule="evenodd" clip-rule="evenodd" d="M52.4763 295.997C57.0855 293.335 62.7641 293.334 67.3741 295.994L93.4644 311.046C98.0774 313.707 100.919 318.628 100.919 323.954V354.046C100.919 359.372 98.0774 364.293 93.4644 366.954L67.3741 382.006C62.7641 384.666 57.0855 384.665 52.4763 382.003L26.4104 366.954C21.7999 364.292 18.9597 359.372 18.9597 354.049V323.951C18.9597 318.628 21.7999 313.708 26.4104 311.046L52.4763 295.997ZM63.6484 309.066C61.3447 307.738 58.5078 307.739 56.2046 309.067L35.8719 320.797C33.5654 322.128 32.1443 324.588 32.1443 327.251V350.749C32.1443 353.412 33.5654 355.872 35.8719 357.203L56.2002 368.93C58.505 370.26 61.344 370.259 63.6484 368.929L84.0091 357.175C86.3146 355.845 87.7349 353.385 87.7349 350.723V327.254C87.7349 324.59 86.3127 322.129 84.0047 320.798L63.6484 309.066Z" fill="#E5E7EB"/>
</g>
<g filter="url(#filter13_i_137_1615)">
<path fill-rule="evenodd" clip-rule="evenodd" d="M52.4763 295.997C57.0855 293.335 62.7641 293.334 67.3741 295.994L93.4644 311.046C98.0774 313.707 100.919 318.628 100.919 323.954V354.046C100.919 359.372 98.0774 364.293 93.4644 366.954L67.3741 382.006C62.7641 384.666 57.0855 384.665 52.4763 382.003L26.4104 366.954C21.7999 364.292 18.9597 359.372 18.9597 354.049V323.951C18.9597 318.628 21.7999 313.708 26.4104 311.046L52.4763 295.997ZM63.6484 309.066C61.3447 307.738 58.5078 307.739 56.2046 309.067L35.8719 320.797C33.5654 322.128 32.1443 324.588 32.1443 327.251V350.749C32.1443 353.412 33.5654 355.872 35.8719 357.203L56.2002 368.93C58.505 370.26 61.344 370.259 63.6484 368.929L84.0091 357.175C86.3146 355.845 87.7349 353.385 87.7349 350.723V327.254C87.7349 324.59 86.3127 322.129 84.0047 320.798L63.6484 309.066Z" fill="#E5E7EB"/>
<path fill-rule="evenodd" clip-rule="evenodd" d="M5.51663 217.997C10.1258 215.335 15.8044 215.334 20.4144 217.994L46.5047 233.046C51.1176 235.707 53.9597 240.628 53.9597 245.954V276.046C53.9597 281.372 51.1176 286.293 46.5047 288.954L20.4144 304.006C15.8044 306.666 10.1258 306.665 5.51662 304.003L-20.5493 288.954C-25.1598 286.292 -28 281.372 -28 276.049V245.951C-28 240.628 -25.1598 235.708 -20.5493 233.046L5.51663 217.997ZM16.6887 231.066C14.3849 229.738 11.5481 229.739 9.24486 231.067L-11.0878 242.797C-13.3944 244.128 -14.8155 246.588 -14.8155 249.251V272.749C-14.8155 275.412 -13.3944 277.872 -11.0878 279.203L9.24046 290.93C11.5453 292.26 14.3843 292.259 16.6887 290.929L37.0494 279.175C39.3549 277.845 40.7752 275.385 40.7752 272.723V249.254C40.7752 246.59 39.353 244.129 37.045 242.798L16.6887 231.066Z" fill="#E5E7EB"/>
<path fill-rule="evenodd" clip-rule="evenodd" d="M52.4763 139.997C57.0855 137.335 62.7641 137.334 67.3741 139.994L93.4644 155.046C98.0774 157.707 100.919 162.628 100.919 167.954V198.046C100.919 203.372 98.0774 208.293 93.4644 210.954L67.3741 226.006C62.7641 228.666 57.0855 228.665 52.4763 226.003L26.4104 210.954C21.7999 208.292 18.9597 203.372 18.9597 198.049V167.951C18.9597 162.628 21.7999 157.708 26.4104 155.046L52.4763 139.997ZM63.6484 153.066C61.3447 151.738 58.5078 151.739 56.2046 153.067L35.8719 164.797C33.5654 166.128 32.1443 168.588 32.1443 171.251V194.749C32.1443 197.412 33.5654 199.872 35.8719 201.203L56.2002 212.93C58.505 214.26 61.344 214.259 63.6484 212.929L84.0091 201.175C86.3146 199.845 87.7349 197.385 87.7349 194.723V171.254C87.7349 168.59 86.3127 166.129 84.0047 164.798L63.6484 153.066Z" fill="#E5E7EB"/>
</g>
<g filter="url(#filter14_i_137_1615)">
<path fill-rule="evenodd" clip-rule="evenodd" d="M52.4763 139.997C57.0855 137.335 62.7641 137.334 67.3741 139.994L93.4644 155.046C98.0774 157.707 100.919 162.628 100.919 167.954V198.046C100.919 203.372 98.0774 208.293 93.4644 210.954L67.3741 226.006C62.7641 228.666 57.0855 228.665 52.4763 226.003L26.4104 210.954C21.7999 208.292 18.9597 203.372 18.9597 198.049V167.951C18.9597 162.628 21.7999 157.708 26.4104 155.046L52.4763 139.997ZM63.6484 153.066C61.3447 151.738 58.5078 151.739 56.2046 153.067L35.8719 164.797C33.5654 166.128 32.1443 168.588 32.1443 171.251V194.749C32.1443 197.412 33.5654 199.872 35.8719 201.203L56.2002 212.93C58.505 214.26 61.344 214.259 63.6484 212.929L84.0091 201.175C86.3146 199.845 87.7349 197.385 87.7349 194.723V171.254C87.7349 168.59 86.3127 166.129 84.0047 164.798L63.6484 153.066Z" fill="#E5E7EB"/>
<path fill-rule="evenodd" clip-rule="evenodd" d="M5.51663 61.9966C10.1258 59.3354 15.8044 59.3344 20.4144 61.9941L46.5047 77.0462C51.1176 79.7075 53.9597 84.6283 53.9597 89.9538V120.046C53.9597 125.372 51.1176 130.293 46.5047 132.954L20.4144 148.006C15.8044 150.666 10.1258 150.665 5.51662 148.003L-20.5493 132.954C-25.1598 130.292 -28 125.372 -28 120.049V89.9514C-28 84.6275 -25.1598 79.7081 -20.5493 77.0462L5.51663 61.9966ZM16.6887 75.0658C14.3849 73.738 11.5481 73.7386 9.24486 75.0673L-11.0878 86.7969C-13.3944 88.1276 -14.8155 90.588 -14.8155 93.2509V116.749C-14.8155 119.412 -13.3944 121.872 -11.0878 123.203L9.24046 134.93C11.5453 136.26 14.3843 136.259 16.6887 134.929L37.0494 123.175C39.3549 121.845 40.7752 119.385 40.7752 116.723V93.2538C40.7752 90.5899 39.353 88.1287 37.045 86.7984L16.6887 75.0658Z" fill="#E5E7EB"/>
<path fill-rule="evenodd" clip-rule="evenodd" d="M52.4763 -16.0034C57.0855 -18.6646 62.7641 -18.6656 67.3741 -16.0059L93.4644 -0.953846C98.0774 1.70747 100.919 6.62825 100.919 11.9538V42.0462C100.919 47.3718 98.0774 52.2925 93.4644 54.9539L67.3741 70.0059C62.7641 72.6656 57.0855 72.6646 52.4763 70.0035L26.4104 54.9539C21.7999 52.2919 18.9597 47.3725 18.9597 42.0486V11.9514C18.9597 6.62754 21.7999 1.70812 26.4104 -0.953846L52.4763 -16.0034ZM63.6484 -2.93418C61.3447 -4.262 58.5078 -4.26144 56.2046 -2.93271L35.8719 8.79695C33.5654 10.1276 32.1443 12.588 32.1443 15.2509V38.7491C32.1443 41.412 33.5654 43.8724 35.8719 45.2031L56.2002 56.9302C58.505 58.2598 61.344 58.2594 63.6484 56.9291L84.0091 45.1755C86.3146 43.8446 87.7349 41.3847 87.7349 38.7226V15.2538C87.7349 12.5899 86.3127 10.1287 84.0047 8.79842L63.6484 -2.93418Z" fill="#E5E7EB"/>
</g>
<path d="M424.143 973.512C427.855 973.512 431.071 974.2 433.791 975.576C436.511 976.952 438.591 978.888 440.031 981.384C441.503 983.88 442.239 986.76 442.239 990.024C442.239 992.648 441.775 995.128 440.847 997.464C439.951 999.8 438.639 1001.69 436.911 1003.13C435.183 1004.57 433.135 1005.29 430.767 1005.29C429.103 1005.29 427.759 1004.95 426.735 1004.28C425.711 1003.58 425.055 1002.58 424.767 1001.3C423.839 1002.55 422.639 1003.54 421.167 1004.28C419.695 1004.98 418.143 1005.34 416.511 1005.34C414.079 1005.34 412.175 1004.62 410.799 1003.18C409.423 1001.7 408.735 999.704 408.735 997.176C408.735 994.776 409.231 992.536 410.223 990.456C411.215 988.376 412.591 986.712 414.351 985.464C416.111 984.184 418.095 983.544 420.303 983.544C423.055 983.544 424.943 984.504 425.967 986.424L426.399 983.928H432.015L429.759 996.888C429.663 997.496 429.615 998.056 429.615 998.568C429.615 999.336 429.775 999.912 430.095 1000.3C430.415 1000.68 430.959 1000.87 431.727 1000.87C432.879 1000.87 433.839 1000.33 434.607 999.24C435.407 998.152 435.999 996.792 436.383 995.16C436.799 993.528 437.007 991.896 437.007 990.264C437.007 986.392 435.823 983.4 433.455 981.288C431.087 979.144 427.743 978.072 423.423 978.072C419.743 978.072 416.415 978.968 413.439 980.76C410.463 982.52 408.127 984.936 406.431 988.008C404.767 991.048 403.935 994.44 403.935 998.184C403.935 1002.15 405.103 1005.21 407.439 1007.35C409.807 1009.5 413.151 1010.57 417.471 1010.57C420.575 1010.57 423.311 1010.01 425.679 1008.89L426.639 1013.3C423.599 1014.58 420.223 1015.22 416.511 1015.22C412.927 1015.22 409.791 1014.54 407.103 1013.16C404.415 1011.82 402.335 1009.9 400.863 1007.4C399.391 1004.9 398.655 1002.01 398.655 998.712C398.655 994.008 399.743 989.736 401.919 985.896C404.127 982.056 407.167 979.032 411.039 976.824C414.943 974.616 419.311 973.512 424.143 973.512ZM418.623 1000.34C419.775 1000.34 420.831 1000.01 421.791 999.336C422.751 998.664 423.503 997.768 424.047 996.648C424.623 995.528 424.911 994.328 424.911 993.048C424.911 991.704 424.543 990.616 423.807 989.784C423.071 988.952 422.047 988.536 420.735 988.536C419.551 988.536 418.511 988.904 417.615 989.64C416.719 990.344 416.015 991.272 415.503 992.424C415.023 993.576 414.783 994.792 414.783 996.072C414.783 997.384 415.103 998.424 415.743 999.192C416.383 999.96 417.343 1000.34 418.623 1000.34ZM445.828 991.608C445.828 988.92 446.356 986.536 447.412 984.456C448.5 982.376 449.972 980.776 451.828 979.656C453.684 978.536 455.748 977.976 458.02 977.976C459.748 977.976 461.396 978.36 462.964 979.128C464.532 979.864 465.78 980.856 466.708 982.104V969.48H473.524V1005H466.708V1001.06C465.876 1002.38 464.708 1003.43 463.204 1004.23C461.7 1005.03 459.956 1005.43 457.972 1005.43C455.732 1005.43 453.684 1004.86 451.828 1003.7C449.972 1002.55 448.5 1000.94 447.412 998.856C446.356 996.744 445.828 994.328 445.828 991.608ZM466.756 991.704C466.756 990.072 466.436 988.68 465.796 987.528C465.156 986.344 464.292 985.448 463.204 984.84C462.116 984.2 460.948 983.88 459.7 983.88C458.452 983.88 457.3 984.184 456.244 984.792C455.188 985.4 454.324 986.296 453.652 987.48C453.012 988.632 452.692 990.008 452.692 991.608C452.692 993.208 453.012 994.616 453.652 995.832C454.324 997.016 455.188 997.928 456.244 998.568C457.332 999.208 458.484 999.528 459.7 999.528C460.948 999.528 462.116 999.224 463.204 998.616C464.292 997.976 465.156 997.08 465.796 995.928C466.436 994.744 466.756 993.336 466.756 991.704ZM503.368 991.128C503.368 992.088 503.304 992.952 503.176 993.72H483.736C483.896 995.64 484.568 997.144 485.752 998.232C486.936 999.32 488.392 999.864 490.12 999.864C492.616 999.864 494.392 998.792 495.448 996.648H502.696C501.928 999.208 500.456 1001.32 498.28 1002.98C496.104 1004.62 493.432 1005.43 490.264 1005.43C487.704 1005.43 485.4 1004.87 483.352 1003.75C481.336 1002.6 479.752 1000.98 478.6 998.904C477.48 996.824 476.92 994.424 476.92 991.704C476.92 988.952 477.48 986.536 478.6 984.456C479.72 982.376 481.288 980.776 483.304 979.656C485.32 978.536 487.64 977.976 490.264 977.976C492.792 977.976 495.048 978.52 497.032 979.608C499.048 980.696 500.6 982.248 501.688 984.264C502.808 986.248 503.368 988.536 503.368 991.128ZM496.408 989.208C496.376 987.48 495.752 986.104 494.536 985.08C493.32 984.024 491.832 983.496 490.072 983.496C488.408 983.496 487 984.008 485.848 985.032C484.728 986.024 484.04 987.416 483.784 989.208H496.408ZM517.921 998.808L524.641 978.408H531.793L521.953 1005H513.793L504.001 978.408H511.201L517.921 998.808ZM558.847 991.128C558.847 992.088 558.783 992.952 558.655 993.72H539.215C539.375 995.64 540.047 997.144 541.231 998.232C542.415 999.32 543.871 999.864 545.599 999.864C548.095 999.864 549.871 998.792 550.927 996.648H558.175C557.407 999.208 555.935 1001.32 553.759 1002.98C551.583 1004.62 548.911 1005.43 545.743 1005.43C543.183 1005.43 540.879 1004.87 538.831 1003.75C536.815 1002.6 535.231 1000.98 534.079 998.904C532.959 996.824 532.399 994.424 532.399 991.704C532.399 988.952 532.959 986.536 534.079 984.456C535.199 982.376 536.767 980.776 538.783 979.656C540.799 978.536 543.119 977.976 545.743 977.976C548.271 977.976 550.527 978.52 552.511 979.608C554.527 980.696 556.079 982.248 557.167 984.264C558.287 986.248 558.847 988.536 558.847 991.128ZM551.887 989.208C551.855 987.48 551.231 986.104 550.015 985.08C548.799 984.024 547.311 983.496 545.551 983.496C543.887 983.496 542.479 984.008 541.327 985.032C540.207 986.024 539.519 987.416 539.263 989.208H551.887ZM569.032 969.48V1005H562.312V969.48H569.032ZM599.671 978.408L583.207 1017.58H576.055L581.815 1004.33L571.159 978.408H578.695L585.559 996.984L592.519 978.408H599.671ZM608.574 982.536C609.438 981.128 610.558 980.024 611.934 979.224C613.342 978.424 614.942 978.024 616.734 978.024V985.08H614.958C612.846 985.08 611.246 985.576 610.158 986.568C609.102 987.56 608.574 989.288 608.574 991.752V1005H601.854V978.408H608.574V982.536ZM623.228 975.24C622.044 975.24 621.052 974.872 620.252 974.136C619.484 973.368 619.1 972.424 619.1 971.304C619.1 970.184 619.484 969.256 620.252 968.52C621.052 967.752 622.044 967.368 623.228 967.368C624.412 967.368 625.388 967.752 626.156 968.52C626.956 969.256 627.356 970.184 627.356 971.304C627.356 972.424 626.956 973.368 626.156 974.136C625.388 974.872 624.412 975.24 623.228 975.24ZM626.54 978.408V1005H619.82V978.408H626.54ZM643.547 1005.43C640.987 1005.43 638.683 1004.87 636.635 1003.75C634.587 1002.6 632.971 1000.98 631.787 998.904C630.635 996.824 630.059 994.424 630.059 991.704C630.059 988.984 630.651 986.584 631.835 984.504C633.051 982.424 634.699 980.824 636.779 979.704C638.859 978.552 641.179 977.976 643.739 977.976C646.299 977.976 648.619 978.552 650.699 979.704C652.779 980.824 654.411 982.424 655.595 984.504C656.811 986.584 657.419 988.984 657.419 991.704C657.419 994.424 656.795 996.824 655.547 998.904C654.331 1000.98 652.667 1002.6 650.555 1003.75C648.475 1004.87 646.139 1005.43 643.547 1005.43ZM643.547 999.576C644.763 999.576 645.899 999.288 646.955 998.712C648.043 998.104 648.907 997.208 649.547 996.024C650.187 994.84 650.507 993.4 650.507 991.704C650.507 989.176 649.835 987.24 648.491 985.896C647.179 984.52 645.563 983.832 643.643 983.832C641.723 983.832 640.107 984.52 638.795 985.896C637.515 987.24 636.875 989.176 636.875 991.704C636.875 994.232 637.499 996.184 638.747 997.56C640.027 998.904 641.627 999.576 643.547 999.576ZM671.085 1005.43C668.909 1005.43 666.957 1005.05 665.229 1004.28C663.501 1003.48 662.125 1002.41 661.101 1001.06C660.109 999.72 659.565 998.232 659.469 996.6H666.237C666.365 997.624 666.861 998.472 667.725 999.144C668.621 999.816 669.725 1000.15 671.037 1000.15C672.317 1000.15 673.309 999.896 674.013 999.384C674.749 998.872 675.117 998.216 675.117 997.416C675.117 996.552 674.669 995.912 673.773 995.496C672.909 995.048 671.517 994.568 669.597 994.056C667.613 993.576 665.981 993.08 664.701 992.568C663.453 992.056 662.365 991.272 661.437 990.216C660.541 989.16 660.093 987.736 660.093 985.944C660.093 984.472 660.509 983.128 661.341 981.912C662.205 980.696 663.421 979.736 664.989 979.032C666.589 978.328 668.461 977.976 670.605 977.976C673.773 977.976 676.301 978.776 678.189 980.376C680.077 981.944 681.117 984.072 681.309 986.76H674.877C674.781 985.704 674.333 984.872 673.533 984.264C672.765 983.624 671.725 983.304 670.413 983.304C669.197 983.304 668.253 983.528 667.581 983.976C666.941 984.424 666.621 985.048 666.621 985.848C666.621 986.744 667.069 987.432 667.965 987.912C668.861 988.36 670.253 988.824 672.141 989.304C674.061 989.784 675.645 990.28 676.893 990.792C678.141 991.304 679.213 992.104 680.109 993.192C681.037 994.248 681.517 995.656 681.549 997.416C681.549 998.952 681.117 1000.33 680.253 1001.54C679.421 1002.76 678.205 1003.72 676.605 1004.42C675.037 1005.1 673.197 1005.43 671.085 1005.43Z" fill="#E5E7EB"/>
</g>
</g>
<g filter="url(#filter15_d_137_1615)">
<path d="M792 956C789.791 956 788 957.791 788 960C788 962.209 789.791 964 792 964V956ZM922.828 962.828C924.391 961.266 924.391 958.734 922.828 957.172L897.373 931.716C895.81 930.154 893.278 930.154 891.716 931.716C890.154 933.278 890.154 935.81 891.716 937.373L914.343 960L891.716 982.627C890.154 984.19 890.154 986.722 891.716 988.284C893.278 989.846 895.81 989.846 897.373 988.284L922.828 962.828ZM792 964H920V956H792V964Z" fill="#E5E7EB"/>
</g>
<g filter="url(#filter16_d_137_1615)">
<path d="M434.377 343.792C421.15 343.792 410.825 340.165 403.401 332.912C395.977 325.659 392.265 315.376 392.265 302.064V252.4H417.609V301.296C417.609 308.976 419.102 314.48 422.089 317.808C425.161 321.136 429.342 322.8 434.633 322.8C439.923 322.8 444.062 321.136 447.049 317.808C450.035 314.48 451.529 308.976 451.529 301.296V252.4H476.489V302.064C476.489 315.376 472.777 325.659 465.353 332.912C457.929 340.165 447.603 343.792 434.377 343.792ZM489.818 342V252.4H510.682L547.802 313.328H536.794L572.89 252.4H593.754L594.01 342H570.714L570.458 287.856H574.426L547.418 333.168H536.154L508.378 287.856H513.242V342H489.818ZM597.351 342L636.903 252.4H661.863L701.543 342H675.175L644.199 264.816H654.183L623.207 342H597.351ZM618.983 324.592L625.511 305.904H669.287L675.815 324.592H618.983ZM99.285 464V374.4H124.629V464H99.285ZM138.82 464V374.4H159.684L209.092 434.048H199.236V374.4H224.068V464H203.204L153.796 404.352H163.652V464H138.82ZM257.177 464V394.496H229.657V374.4H309.913V394.496H282.521V464H257.177ZM315.515 464V374.4H356.475C364.667 374.4 371.707 375.723 377.595 378.368C383.568 381.013 388.176 384.853 391.419 389.888C394.662 394.837 396.283 400.725 396.283 407.552C396.283 414.293 394.662 420.139 391.419 425.088C388.176 429.952 383.568 433.707 377.595 436.352C371.707 438.912 364.667 440.192 356.475 440.192H329.595L340.859 429.568V464H315.515ZM370.939 464L348.667 431.36H375.675L398.075 464H370.939ZM340.859 432.256L329.595 420.608H354.939C360.23 420.608 364.155 419.456 366.715 417.152C369.36 414.848 370.683 411.648 370.683 407.552C370.683 403.371 369.36 400.128 366.715 397.824C364.155 395.52 360.23 394.368 354.939 394.368H329.595L340.859 382.72V432.256ZM451.609 465.792C444.441 465.792 437.828 464.64 431.769 462.336C425.71 460.032 420.42 456.789 415.897 452.608C411.46 448.341 408.004 443.392 405.529 437.76C403.054 432.128 401.817 425.941 401.817 419.2C401.817 412.459 403.054 406.272 405.529 400.64C408.004 395.008 411.46 390.101 415.897 385.92C420.42 381.653 425.71 378.368 431.769 376.064C437.828 373.76 444.441 372.608 451.609 372.608C458.862 372.608 465.476 373.76 471.449 376.064C477.508 378.368 482.756 381.653 487.193 385.92C491.63 390.101 495.086 395.008 497.561 400.64C500.121 406.272 501.401 412.459 501.401 419.2C501.401 425.941 500.121 432.171 497.561 437.888C495.086 443.52 491.63 448.427 487.193 452.608C482.756 456.789 477.508 460.032 471.449 462.336C465.476 464.64 458.862 465.792 451.609 465.792ZM451.609 444.8C455.022 444.8 458.18 444.203 461.081 443.008C464.068 441.813 466.628 440.107 468.761 437.888C470.98 435.584 472.686 432.853 473.881 429.696C475.161 426.539 475.801 423.04 475.801 419.2C475.801 415.275 475.161 411.776 473.881 408.704C472.686 405.547 470.98 402.859 468.761 400.64C466.628 398.336 464.068 396.587 461.081 395.392C458.18 394.197 455.022 393.6 451.609 393.6C448.196 393.6 444.996 394.197 442.009 395.392C439.108 396.587 436.548 398.336 434.329 400.64C432.196 402.859 430.489 405.547 429.209 408.704C428.014 411.776 427.417 415.275 427.417 419.2C427.417 423.04 428.014 426.539 429.209 429.696C430.489 432.853 432.196 435.584 434.329 437.888C436.548 440.107 439.108 441.813 442.009 443.008C444.996 444.203 448.196 444.8 451.609 444.8ZM510.835 464V374.4H553.203C563.102 374.4 571.806 376.235 579.315 379.904C586.824 383.573 592.67 388.736 596.851 395.392C601.118 402.048 603.251 409.984 603.251 419.2C603.251 428.331 601.118 436.267 596.851 443.008C592.67 449.664 586.824 454.827 579.315 458.496C571.806 462.165 563.102 464 553.203 464H510.835ZM536.179 443.776H552.179C557.299 443.776 561.736 442.837 565.491 440.96C569.331 438.997 572.318 436.181 574.451 432.512C576.584 428.757 577.651 424.32 577.651 419.2C577.651 413.995 576.584 409.557 574.451 405.888C572.318 402.219 569.331 399.445 565.491 397.568C561.736 395.605 557.299 394.624 552.179 394.624H536.179V443.776ZM654.089 465.792C640.862 465.792 630.537 462.165 623.113 454.912C615.689 447.659 611.977 437.376 611.977 424.064V374.4H637.321V423.296C637.321 430.976 638.814 436.48 641.801 439.808C644.873 443.136 649.054 444.8 654.345 444.8C659.636 444.8 663.774 443.136 666.761 439.808C669.748 436.48 671.241 430.976 671.241 423.296V374.4H696.201V424.064C696.201 437.376 692.489 447.659 685.065 454.912C677.641 462.165 667.316 465.792 654.089 465.792ZM754.202 465.792C747.119 465.792 740.549 464.683 734.49 462.464C728.517 460.16 723.311 456.917 718.874 452.736C714.522 448.555 711.109 443.648 708.634 438.016C706.159 432.299 704.922 426.027 704.922 419.2C704.922 412.373 706.159 406.144 708.634 400.512C711.109 394.795 714.522 389.845 718.874 385.664C723.311 381.483 728.517 378.283 734.49 376.064C740.549 373.76 747.119 372.608 754.202 372.608C762.479 372.608 769.861 374.059 776.346 376.96C782.917 379.861 788.378 384.043 792.73 389.504L776.602 404.096C773.701 400.683 770.501 398.08 767.002 396.288C763.589 394.496 759.749 393.6 755.482 393.6C751.813 393.6 748.442 394.197 745.37 395.392C742.298 396.587 739.653 398.336 737.434 400.64C735.301 402.859 733.594 405.547 732.314 408.704C731.119 411.861 730.522 415.36 730.522 419.2C730.522 423.04 731.119 426.539 732.314 429.696C733.594 432.853 735.301 435.584 737.434 437.888C739.653 440.107 742.298 441.813 745.37 443.008C748.442 444.203 751.813 444.8 755.482 444.8C759.749 444.8 763.589 443.904 767.002 442.112C770.501 440.32 773.701 437.717 776.602 434.304L792.73 448.896C788.378 454.272 782.917 458.453 776.346 461.44C769.861 464.341 762.479 465.792 754.202 465.792ZM746.394 494.208C744.261 494.208 742.042 493.952 739.738 493.44C737.519 492.928 735.685 492.288 734.234 491.52L737.562 481.92C738.671 482.432 739.866 482.859 741.146 483.2C742.511 483.541 743.962 483.712 745.498 483.712C747.802 483.712 749.423 483.371 750.362 482.688C751.386 482.005 751.898 481.152 751.898 480.128C751.898 479.104 751.429 478.293 750.49 477.696C749.637 477.184 748.186 476.928 746.138 476.928H741.402L744.73 462.848H757.402L755.61 470.528C759.535 470.955 762.351 472.192 764.058 474.24C765.765 476.288 766.618 478.507 766.618 480.896C766.618 484.992 764.783 488.235 761.114 490.624C757.445 493.013 752.538 494.208 746.394 494.208ZM787.938 464L827.49 374.4H852.45L892.13 464H865.762L834.786 386.816H844.77L813.794 464H787.938ZM809.57 446.592L816.098 427.904H859.874L866.402 446.592H809.57ZM850.018 368C847.714 368 845.666 367.616 843.874 366.848C842.167 365.995 840.589 365.056 839.138 364.032C837.687 363.008 836.365 362.112 835.17 361.344C833.975 360.491 832.781 360.064 831.586 360.064C829.879 360.064 828.514 360.661 827.49 361.856C826.466 363.051 825.869 364.715 825.698 366.848H813.794C813.965 360.619 815.458 355.669 818.274 352C821.175 348.331 825.101 346.496 830.05 346.496C832.354 346.496 834.402 346.88 836.194 347.648C837.986 348.416 839.565 349.355 840.93 350.464C842.381 351.488 843.703 352.384 844.898 353.152C846.178 353.92 847.373 354.304 848.482 354.304C850.189 354.304 851.554 353.749 852.578 352.64C853.687 351.445 854.285 349.867 854.37 347.904H866.274C866.189 353.877 864.695 358.741 861.794 362.496C858.893 366.165 854.967 368 850.018 368ZM939.409 465.792C932.241 465.792 925.628 464.64 919.569 462.336C913.51 460.032 908.22 456.789 903.697 452.608C899.26 448.341 895.804 443.392 893.329 437.76C890.854 432.128 889.617 425.941 889.617 419.2C889.617 412.459 890.854 406.272 893.329 400.64C895.804 395.008 899.26 390.101 903.697 385.92C908.22 381.653 913.51 378.368 919.569 376.064C925.628 373.76 932.241 372.608 939.409 372.608C946.662 372.608 953.276 373.76 959.249 376.064C965.308 378.368 970.556 381.653 974.993 385.92C979.43 390.101 982.886 395.008 985.361 400.64C987.921 406.272 989.201 412.459 989.201 419.2C989.201 425.941 987.921 432.171 985.361 437.888C982.886 443.52 979.43 448.427 974.993 452.608C970.556 456.789 965.308 460.032 959.249 462.336C953.276 464.64 946.662 465.792 939.409 465.792ZM939.409 444.8C942.822 444.8 945.98 444.203 948.881 443.008C951.868 441.813 954.428 440.107 956.561 437.888C958.78 435.584 960.486 432.853 961.681 429.696C962.961 426.539 963.601 423.04 963.601 419.2C963.601 415.275 962.961 411.776 961.681 408.704C960.486 405.547 958.78 402.859 956.561 400.64C954.428 398.336 951.868 396.587 948.881 395.392C945.98 394.197 942.822 393.6 939.409 393.6C935.996 393.6 932.796 394.197 929.809 395.392C926.908 396.587 924.348 398.336 922.129 400.64C919.996 402.859 918.289 405.547 917.009 408.704C915.814 411.776 915.217 415.275 915.217 419.2C915.217 423.04 915.814 426.539 917.009 429.696C918.289 432.853 919.996 435.584 922.129 437.888C924.348 440.107 926.908 441.813 929.809 443.008C932.796 444.203 935.996 444.8 939.409 444.8ZM143.443 587.792C136.104 587.792 129.022 586.896 122.195 585.104C115.454 583.227 109.95 580.837 105.683 577.936L114.003 559.248C118.014 561.808 122.622 563.941 127.827 565.648C133.118 567.269 138.366 568.08 143.571 568.08C147.07 568.08 149.886 567.781 152.019 567.184C154.152 566.501 155.688 565.648 156.627 564.624C157.651 563.515 158.163 562.235 158.163 560.784C158.163 558.736 157.224 557.115 155.347 555.92C153.47 554.725 151.038 553.744 148.051 552.976C145.064 552.208 141.736 551.44 138.067 550.672C134.483 549.904 130.856 548.923 127.187 547.728C123.603 546.533 120.318 544.997 117.331 543.12C114.344 541.157 111.912 538.64 110.035 535.568C108.158 532.411 107.219 528.443 107.219 523.664C107.219 518.288 108.67 513.424 111.571 509.072C114.558 504.72 118.995 501.221 124.883 498.576C130.771 495.931 138.11 494.608 146.899 494.608C152.787 494.608 158.547 495.291 164.179 496.656C169.896 497.936 174.974 499.856 179.411 502.416L171.603 521.232C167.336 518.928 163.112 517.221 158.931 516.112C154.75 514.917 150.696 514.32 146.771 514.32C143.272 514.32 140.456 514.704 138.323 515.472C136.19 516.155 134.654 517.093 133.715 518.288C132.776 519.483 132.307 520.848 132.307 522.384C132.307 524.347 133.203 525.925 134.995 527.12C136.872 528.229 139.304 529.168 142.291 529.936C145.363 530.619 148.691 531.344 152.275 532.112C155.944 532.88 159.571 533.861 163.155 535.056C166.824 536.165 170.152 537.701 173.139 539.664C176.126 541.541 178.515 544.059 180.307 547.216C182.184 550.288 183.123 554.171 183.123 558.864C183.123 564.069 181.63 568.891 178.643 573.328C175.742 577.68 171.347 581.179 165.459 583.824C159.656 586.469 152.318 587.792 143.443 587.792ZM190.99 586V496.4H216.334V586H190.99ZM230.525 586V496.4H251.389L288.509 557.328H277.501L313.597 496.4H334.461L334.717 586H311.421L311.165 531.856H315.133L288.125 577.168H276.861L249.085 531.856H253.949V586H230.525ZM348.81 586V496.4H389.77C397.962 496.4 405.002 497.723 410.89 500.368C416.863 503.013 421.471 506.853 424.714 511.888C427.957 516.837 429.578 522.725 429.578 529.552C429.578 536.293 427.957 542.139 424.714 547.088C421.471 552.037 416.863 555.877 410.89 558.608C405.002 561.253 397.962 562.576 389.77 562.576H362.89L374.154 551.568V586H348.81ZM374.154 554.256L362.89 542.608H388.234C393.525 542.608 397.45 541.456 400.01 539.152C402.655 536.848 403.978 533.648 403.978 529.552C403.978 525.371 402.655 522.128 400.01 519.824C397.45 517.52 393.525 516.368 388.234 516.368H362.89L374.154 504.72V554.256ZM438.095 586V496.4H463.439V565.904H506.191V586H438.095ZM535.676 531.088H577.276V550.032H535.676V531.088ZM537.468 566.416H584.316V586H512.38V496.4H582.652V515.984H537.468V566.416ZM626.028 587.792C618.689 587.792 611.607 586.896 604.78 585.104C598.039 583.227 592.535 580.837 588.268 577.936L596.588 559.248C600.599 561.808 605.207 563.941 610.412 565.648C615.703 567.269 620.951 568.08 626.156 568.08C629.655 568.08 632.471 567.781 634.604 567.184C636.737 566.501 638.273 565.648 639.212 564.624C640.236 563.515 640.748 562.235 640.748 560.784C640.748 558.736 639.809 557.115 637.932 555.92C636.055 554.725 633.623 553.744 630.636 552.976C627.649 552.208 624.321 551.44 620.652 550.672C617.068 549.904 613.441 548.923 609.772 547.728C606.188 546.533 602.903 544.997 599.916 543.12C596.929 541.157 594.497 538.64 592.62 535.568C590.743 532.411 589.804 528.443 589.804 523.664C589.804 518.288 591.255 513.424 594.156 509.072C597.143 504.72 601.58 501.221 607.468 498.576C613.356 495.931 620.695 494.608 629.484 494.608C635.372 494.608 641.132 495.291 646.764 496.656C652.481 497.936 657.559 499.856 661.996 502.416L654.188 521.232C649.921 518.928 645.697 517.221 641.516 516.112C637.335 514.917 633.281 514.32 629.356 514.32C625.857 514.32 623.041 514.704 620.908 515.472C618.775 516.155 617.239 517.093 616.3 518.288C615.361 519.483 614.892 520.848 614.892 522.384C614.892 524.347 615.788 525.925 617.58 527.12C619.457 528.229 621.889 529.168 624.876 529.936C627.948 530.619 631.276 531.344 634.86 532.112C638.529 532.88 642.156 533.861 645.74 535.056C649.409 536.165 652.737 537.701 655.724 539.664C658.711 541.541 661.1 544.059 662.892 547.216C664.769 550.288 665.708 554.171 665.708 558.864C665.708 564.069 664.215 568.891 661.228 573.328C658.327 577.68 653.932 581.179 648.044 583.824C642.241 586.469 634.903 587.792 626.028 587.792ZM696.233 586L735.785 496.4H760.745L800.425 586H774.057L743.081 508.816H753.065L722.089 586H696.233ZM717.865 568.592L724.393 549.904H768.169L774.697 568.592H717.865ZM847.704 587.792C840.536 587.792 833.923 586.64 827.864 584.336C821.805 582.032 816.515 578.789 811.992 574.608C807.555 570.341 804.099 565.392 801.624 559.76C799.149 554.128 797.912 547.941 797.912 541.2C797.912 534.459 799.149 528.272 801.624 522.64C804.099 517.008 807.555 512.101 811.992 507.92C816.515 503.653 821.805 500.368 827.864 498.064C833.923 495.76 840.536 494.608 847.704 494.608C854.957 494.608 861.571 495.76 867.544 498.064C873.603 500.368 878.851 503.653 883.288 507.92C887.725 512.101 891.181 517.008 893.656 522.64C896.216 528.272 897.496 534.459 897.496 541.2C897.496 547.941 896.216 554.171 893.656 559.888C891.181 565.52 887.725 570.427 883.288 574.608C878.851 578.789 873.603 582.032 867.544 584.336C861.571 586.64 854.957 587.792 847.704 587.792ZM847.704 566.8C851.117 566.8 854.275 566.203 857.176 565.008C860.163 563.813 862.723 562.107 864.856 559.888C867.075 557.584 868.781 554.853 869.976 551.696C871.256 548.539 871.896 545.04 871.896 541.2C871.896 537.275 871.256 533.776 869.976 530.704C868.781 527.547 867.075 524.859 864.856 522.64C862.723 520.336 860.163 518.587 857.176 517.392C854.275 516.197 851.117 515.6 847.704 515.6C844.291 515.6 841.091 516.197 838.104 517.392C835.203 518.587 832.643 520.336 830.424 522.64C828.291 524.859 826.584 527.547 825.304 530.704C824.109 533.776 823.512 537.275 823.512 541.2C823.512 545.04 824.109 548.539 825.304 551.696C826.584 554.853 828.291 557.584 830.424 559.888C832.643 562.107 835.203 563.813 838.104 565.008C841.091 566.203 844.291 566.8 847.704 566.8ZM938.418 587.792C931.079 587.792 923.997 586.896 917.17 585.104C910.429 583.227 904.925 580.837 900.658 577.936L908.978 559.248C912.989 561.808 917.597 563.941 922.802 565.648C928.093 567.269 933.341 568.08 938.546 568.08C942.045 568.08 944.861 567.781 946.994 567.184C949.127 566.501 950.663 565.648 951.602 564.624C952.626 563.515 953.138 562.235 953.138 560.784C953.138 558.736 952.199 557.115 950.322 555.92C948.445 554.725 946.013 553.744 943.026 552.976C940.039 552.208 936.711 551.44 933.042 550.672C929.458 549.904 925.831 548.923 922.162 547.728C918.578 546.533 915.293 544.997 912.306 543.12C909.319 541.157 906.887 538.64 905.01 535.568C903.133 532.411 902.194 528.443 902.194 523.664C902.194 518.288 903.645 513.424 906.546 509.072C909.533 504.72 913.97 501.221 919.858 498.576C925.746 495.931 933.085 494.608 941.874 494.608C947.762 494.608 953.522 495.291 959.154 496.656C964.871 497.936 969.949 499.856 974.386 502.416L966.578 521.232C962.311 518.928 958.087 517.221 953.906 516.112C949.725 514.917 945.671 514.32 941.746 514.32C938.247 514.32 935.431 514.704 933.298 515.472C931.165 516.155 929.629 517.093 928.69 518.288C927.751 519.483 927.282 520.848 927.282 522.384C927.282 524.347 928.178 525.925 929.97 527.12C931.847 528.229 934.279 529.168 937.266 529.936C940.338 530.619 943.666 531.344 947.25 532.112C950.919 532.88 954.546 533.861 958.13 535.056C961.799 536.165 965.127 537.701 968.114 539.664C971.101 541.541 973.49 544.059 975.282 547.216C977.159 550.288 978.098 554.171 978.098 558.864C978.098 564.069 976.605 568.891 973.618 573.328C970.717 577.68 966.322 581.179 960.434 583.824C954.631 586.469 947.293 587.792 938.418 587.792Z" fill="#F9FAFB"/>
<path d="M173.286 653.088H214.886V672.032H173.286V653.088ZM175.078 688.416H221.926V708H149.99V618.4H220.262V637.984H175.078V688.416ZM232.15 708V618.4H257.494V687.904H300.246V708H232.15ZM329.731 653.088H371.331V672.032H329.731V653.088ZM331.523 688.416H378.371V708H306.435V618.4H376.707V637.984H331.523V688.416ZM388.595 708V618.4H409.459L446.579 679.328H435.571L471.667 618.4H492.531L492.787 708H469.491L469.235 653.856H473.203L446.195 699.168H434.931L407.155 653.856H412.019V708H388.595ZM530.176 653.088H571.776V672.032H530.176V653.088ZM531.968 688.416H578.816V708H506.88V618.4H577.152V637.984H531.968V688.416ZM589.04 708V618.4H609.904L659.312 678.048H649.456V618.4H674.288V708H653.424L604.016 648.352H613.872V708H589.04ZM707.397 708V638.496H679.877V618.4H760.133V638.496H732.741V708H707.397ZM809.669 709.792C802.501 709.792 795.888 708.64 789.829 706.336C783.77 704.032 778.48 700.789 773.957 696.608C769.52 692.341 766.064 687.392 763.589 681.76C761.114 676.128 759.877 669.941 759.877 663.2C759.877 656.459 761.114 650.272 763.589 644.64C766.064 639.008 769.52 634.101 773.957 629.92C778.48 625.653 783.77 622.368 789.829 620.064C795.888 617.76 802.501 616.608 809.669 616.608C816.922 616.608 823.536 617.76 829.509 620.064C835.568 622.368 840.816 625.653 845.253 629.92C849.69 634.101 853.146 639.008 855.621 644.64C858.181 650.272 859.461 656.459 859.461 663.2C859.461 669.941 858.181 676.171 855.621 681.888C853.146 687.52 849.69 692.427 845.253 696.608C840.816 700.789 835.568 704.032 829.509 706.336C823.536 708.64 816.922 709.792 809.669 709.792ZM809.669 688.8C813.082 688.8 816.24 688.203 819.141 687.008C822.128 685.813 824.688 684.107 826.821 681.888C829.04 679.584 830.746 676.853 831.941 673.696C833.221 670.539 833.861 667.04 833.861 663.2C833.861 659.275 833.221 655.776 831.941 652.704C830.746 649.547 829.04 646.859 826.821 644.64C824.688 642.336 822.128 640.587 819.141 639.392C816.24 638.197 813.082 637.6 809.669 637.6C806.256 637.6 803.056 638.197 800.069 639.392C797.168 640.587 794.608 642.336 792.389 644.64C790.256 646.859 788.549 649.547 787.269 652.704C786.074 655.776 785.477 659.275 785.477 663.2C785.477 667.04 786.074 670.539 787.269 673.696C788.549 676.853 790.256 679.584 792.389 681.888C794.608 684.107 797.168 685.813 800.069 687.008C803.056 688.203 806.256 688.8 809.669 688.8ZM900.383 709.792C893.044 709.792 885.962 708.896 879.135 707.104C872.394 705.227 866.89 702.837 862.623 699.936L870.943 681.248C874.954 683.808 879.562 685.941 884.767 687.648C890.058 689.269 895.306 690.08 900.511 690.08C904.01 690.08 906.826 689.781 908.959 689.184C911.092 688.501 912.628 687.648 913.567 686.624C914.591 685.515 915.103 684.235 915.103 682.784C915.103 680.736 914.164 679.115 912.287 677.92C910.41 676.725 907.978 675.744 904.991 674.976C902.004 674.208 898.676 673.44 895.007 672.672C891.423 671.904 887.796 670.923 884.127 669.728C880.543 668.533 877.258 666.997 874.271 665.12C871.284 663.157 868.852 660.64 866.975 657.568C865.098 654.411 864.159 650.443 864.159 645.664C864.159 640.288 865.61 635.424 868.511 631.072C871.498 626.72 875.935 623.221 881.823 620.576C887.711 617.931 895.05 616.608 903.839 616.608C909.727 616.608 915.487 617.291 921.119 618.656C926.836 619.936 931.914 621.856 936.351 624.416L928.543 643.232C924.276 640.928 920.052 639.221 915.871 638.112C911.69 636.917 907.636 636.32 903.711 636.32C900.212 636.32 897.396 636.704 895.263 637.472C893.13 638.155 891.594 639.093 890.655 640.288C889.716 641.483 889.247 642.848 889.247 644.384C889.247 646.347 890.143 647.925 891.935 649.12C893.812 650.229 896.244 651.168 899.231 651.936C902.303 652.619 905.631 653.344 909.215 654.112C912.884 654.88 916.511 655.861 920.095 657.056C923.764 658.165 927.092 659.701 930.079 661.664C933.066 663.541 935.455 666.059 937.247 669.216C939.124 672.288 940.063 676.171 940.063 680.864C940.063 686.069 938.57 690.891 935.583 695.328C932.682 699.68 928.287 703.179 922.399 705.824C916.596 708.469 909.258 709.792 900.383 709.792ZM422.312 740.4H447.656V830H422.312V740.4ZM387.752 830H362.408V740.4H387.752V830ZM424.104 795.056H385.96V774.064H424.104V795.056ZM480.765 830V760.496H453.245V740.4H533.501V760.496H506.109V830H480.765ZM539.103 830V740.4H559.967L597.087 801.328H586.079L622.175 740.4H643.039L643.295 830H619.999L619.743 775.856H623.711L596.703 821.168H585.439L557.663 775.856H562.527V830H539.103ZM657.387 830V740.4H682.731V809.904H725.483V830H657.387Z" fill="#374151"/>
</g>
<defs>
<filter id="filter0_i_137_1615" x="32" y="32" width="1016" height="1020" filterUnits="userSpaceOnUse" color-interpolation-filters="sRGB">
<feFlood flood-opacity="0" result="BackgroundImageFix"/>
<feBlend mode="normal" in="SourceGraphic" in2="BackgroundImageFix" result="shape"/>
<feColorMatrix in="SourceAlpha" type="matrix" values="0 0 0 0 0 0 0 0 0 0 0 0 0 0 0 0 0 0 127 0" result="hardAlpha"/>
<feOffset dy="4"/>
<feGaussianBlur stdDeviation="2"/>
<feComposite in2="hardAlpha" operator="arithmetic" k2="-1" k3="1"/>
<feColorMatrix type="matrix" values="0 0 0 0 0 0 0 0 0 0 0 0 0 0 0 0 0 0 0.25 0"/>
<feBlend mode="normal" in2="shape" result="effect1_innerShadow_137_1615"/>
</filter>
<filter id="filter1_i_137_1615" x="978.92" y="918" width="175.919" height="250" filterUnits="userSpaceOnUse" color-interpolation-filters="sRGB">
<feFlood flood-opacity="0" result="BackgroundImageFix"/>
<feBlend mode="normal" in="SourceGraphic" in2="BackgroundImageFix" result="shape"/>
<feColorMatrix in="SourceAlpha" type="matrix" values="0 0 0 0 0 0 0 0 0 0 0 0 0 0 0 0 0 0 127 0" result="hardAlpha"/>
<feOffset dy="4"/>
<feGaussianBlur stdDeviation="2"/>
<feComposite in2="hardAlpha" operator="arithmetic" k2="-1" k3="1"/>
<feColorMatrix type="matrix" values="0 0 0 0 0 0 0 0 0 0 0 0 0 0 0 0 0 0 0.25 0"/>
<feBlend mode="normal" in2="shape" result="effect1_innerShadow_137_1615"/>
</filter>
<filter id="filter2_i_137_1615" x="978.92" y="762" width="175.919" height="250" filterUnits="userSpaceOnUse" color-interpolation-filters="sRGB">
<feFlood flood-opacity="0" result="BackgroundImageFix"/>
<feBlend mode="normal" in="SourceGraphic" in2="BackgroundImageFix" result="shape"/>
<feColorMatrix in="SourceAlpha" type="matrix" values="0 0 0 0 0 0 0 0 0 0 0 0 0 0 0 0 0 0 127 0" result="hardAlpha"/>
<feOffset dy="4"/>
<feGaussianBlur stdDeviation="2"/>
<feComposite in2="hardAlpha" operator="arithmetic" k2="-1" k3="1"/>
<feColorMatrix type="matrix" values="0 0 0 0 0 0 0 0 0 0 0 0 0 0 0 0 0 0 0.25 0"/>
<feBlend mode="normal" in2="shape" result="effect1_innerShadow_137_1615"/>
</filter>
<filter id="filter3_i_137_1615" x="978.92" y="606" width="175.919" height="250" filterUnits="userSpaceOnUse" color-interpolation-filters="sRGB">
<feFlood flood-opacity="0" result="BackgroundImageFix"/>
<feBlend mode="normal" in="SourceGraphic" in2="BackgroundImageFix" result="shape"/>
<feColorMatrix in="SourceAlpha" type="matrix" values="0 0 0 0 0 0 0 0 0 0 0 0 0 0 0 0 0 0 127 0" result="hardAlpha"/>
<feOffset dy="4"/>
<feGaussianBlur stdDeviation="2"/>
<feComposite in2="hardAlpha" operator="arithmetic" k2="-1" k3="1"/>
<feColorMatrix type="matrix" values="0 0 0 0 0 0 0 0 0 0 0 0 0 0 0 0 0 0 0.25 0"/>
<feBlend mode="normal" in2="shape" result="effect1_innerShadow_137_1615"/>
</filter>
<filter id="filter4_i_137_1615" x="978.92" y="450" width="175.919" height="250" filterUnits="userSpaceOnUse" color-interpolation-filters="sRGB">
<feFlood flood-opacity="0" result="BackgroundImageFix"/>
<feBlend mode="normal" in="SourceGraphic" in2="BackgroundImageFix" result="shape"/>
<feColorMatrix in="SourceAlpha" type="matrix" values="0 0 0 0 0 0 0 0 0 0 0 0 0 0 0 0 0 0 127 0" result="hardAlpha"/>
<feOffset dy="4"/>
<feGaussianBlur stdDeviation="2"/>
<feComposite in2="hardAlpha" operator="arithmetic" k2="-1" k3="1"/>
<feColorMatrix type="matrix" values="0 0 0 0 0 0 0 0 0 0 0 0 0 0 0 0 0 0 0.25 0"/>
<feBlend mode="normal" in2="shape" result="effect1_innerShadow_137_1615"/>
</filter>
<filter id="filter5_i_137_1615" x="978.92" y="294" width="175.919" height="250" filterUnits="userSpaceOnUse" color-interpolation-filters="sRGB">
<feFlood flood-opacity="0" result="BackgroundImageFix"/>
<feBlend mode="normal" in="SourceGraphic" in2="BackgroundImageFix" result="shape"/>
<feColorMatrix in="SourceAlpha" type="matrix" values="0 0 0 0 0 0 0 0 0 0 0 0 0 0 0 0 0 0 127 0" result="hardAlpha"/>
<feOffset dy="4"/>
<feGaussianBlur stdDeviation="2"/>
<feComposite in2="hardAlpha" operator="arithmetic" k2="-1" k3="1"/>
<feColorMatrix type="matrix" values="0 0 0 0 0 0 0 0 0 0 0 0 0 0 0 0 0 0 0.25 0"/>
<feBlend mode="normal" in2="shape" result="effect1_innerShadow_137_1615"/>
</filter>
<filter id="filter6_i_137_1615" x="978.92" y="138" width="175.919" height="250" filterUnits="userSpaceOnUse" color-interpolation-filters="sRGB">
<feFlood flood-opacity="0" result="BackgroundImageFix"/>
<feBlend mode="normal" in="SourceGraphic" in2="BackgroundImageFix" result="shape"/>
<feColorMatrix in="SourceAlpha" type="matrix" values="0 0 0 0 0 0 0 0 0 0 0 0 0 0 0 0 0 0 127 0" result="hardAlpha"/>
<feOffset dy="4"/>
<feGaussianBlur stdDeviation="2"/>
<feComposite in2="hardAlpha" operator="arithmetic" k2="-1" k3="1"/>
<feColorMatrix type="matrix" values="0 0 0 0 0 0 0 0 0 0 0 0 0 0 0 0 0 0 0.25 0"/>
<feBlend mode="normal" in2="shape" result="effect1_innerShadow_137_1615"/>
</filter>
<filter id="filter7_i_137_1615" x="978.92" y="-18" width="175.919" height="250" filterUnits="userSpaceOnUse" color-interpolation-filters="sRGB">
<feFlood flood-opacity="0" result="BackgroundImageFix"/>
<feBlend mode="normal" in="SourceGraphic" in2="BackgroundImageFix" result="shape"/>
<feColorMatrix in="SourceAlpha" type="matrix" values="0 0 0 0 0 0 0 0 0 0 0 0 0 0 0 0 0 0 127 0" result="hardAlpha"/>
<feOffset dy="4"/>
<feGaussianBlur stdDeviation="2"/>
<feComposite in2="hardAlpha" operator="arithmetic" k2="-1" k3="1"/>
<feColorMatrix type="matrix" values="0 0 0 0 0 0 0 0 0 0 0 0 0 0 0 0 0 0 0.25 0"/>
<feBlend mode="normal" in2="shape" result="effect1_innerShadow_137_1615"/>
</filter>
<filter id="filter8_i_137_1615" x="-75" y="918" width="175.919" height="250" filterUnits="userSpaceOnUse" color-interpolation-filters="sRGB">
<feFlood flood-opacity="0" result="BackgroundImageFix"/>
<feBlend mode="normal" in="SourceGraphic" in2="BackgroundImageFix" result="shape"/>
<feColorMatrix in="SourceAlpha" type="matrix" values="0 0 0 0 0 0 0 0 0 0 0 0 0 0 0 0 0 0 127 0" result="hardAlpha"/>
<feOffset dy="4"/>
<feGaussianBlur stdDeviation="2"/>
<feComposite in2="hardAlpha" operator="arithmetic" k2="-1" k3="1"/>
<feColorMatrix type="matrix" values="0 0 0 0 0 0 0 0 0 0 0 0 0 0 0 0 0 0 0.25 0"/>
<feBlend mode="normal" in2="shape" result="effect1_innerShadow_137_1615"/>
</filter>
<filter id="filter9_i_137_1615" x="-75" y="762" width="175.919" height="250" filterUnits="userSpaceOnUse" color-interpolation-filters="sRGB">
<feFlood flood-opacity="0" result="BackgroundImageFix"/>
<feBlend mode="normal" in="SourceGraphic" in2="BackgroundImageFix" result="shape"/>
<feColorMatrix in="SourceAlpha" type="matrix" values="0 0 0 0 0 0 0 0 0 0 0 0 0 0 0 0 0 0 127 0" result="hardAlpha"/>
<feOffset dy="4"/>
<feGaussianBlur stdDeviation="2"/>
<feComposite in2="hardAlpha" operator="arithmetic" k2="-1" k3="1"/>
<feColorMatrix type="matrix" values="0 0 0 0 0 0 0 0 0 0 0 0 0 0 0 0 0 0 0.25 0"/>
<feBlend mode="normal" in2="shape" result="effect1_innerShadow_137_1615"/>
</filter>
<filter id="filter10_i_137_1615" x="-75" y="606" width="175.919" height="250" filterUnits="userSpaceOnUse" color-interpolation-filters="sRGB">
<feFlood flood-opacity="0" result="BackgroundImageFix"/>
<feBlend mode="normal" in="SourceGraphic" in2="BackgroundImageFix" result="shape"/>
<feColorMatrix in="SourceAlpha" type="matrix" values="0 0 0 0 0 0 0 0 0 0 0 0 0 0 0 0 0 0 127 0" result="hardAlpha"/>
<feOffset dy="4"/>
<feGaussianBlur stdDeviation="2"/>
<feComposite in2="hardAlpha" operator="arithmetic" k2="-1" k3="1"/>
<feColorMatrix type="matrix" values="0 0 0 0 0 0 0 0 0 0 0 0 0 0 0 0 0 0 0.25 0"/>
<feBlend mode="normal" in2="shape" result="effect1_innerShadow_137_1615"/>
</filter>
<filter id="filter11_i_137_1615" x="-75" y="450" width="175.919" height="250" filterUnits="userSpaceOnUse" color-interpolation-filters="sRGB">
<feFlood flood-opacity="0" result="BackgroundImageFix"/>
<feBlend mode="normal" in="SourceGraphic" in2="BackgroundImageFix" result="shape"/>
<feColorMatrix in="SourceAlpha" type="matrix" values="0 0 0 0 0 0 0 0 0 0 0 0 0 0 0 0 0 0 127 0" result="hardAlpha"/>
<feOffset dy="4"/>
<feGaussianBlur stdDeviation="2"/>
<feComposite in2="hardAlpha" operator="arithmetic" k2="-1" k3="1"/>
<feColorMatrix type="matrix" values="0 0 0 0 0 0 0 0 0 0 0 0 0 0 0 0 0 0 0.25 0"/>
<feBlend mode="normal" in2="shape" result="effect1_innerShadow_137_1615"/>
</filter>
<filter id="filter12_i_137_1615" x="-75" y="294" width="175.919" height="250" filterUnits="userSpaceOnUse" color-interpolation-filters="sRGB">
<feFlood flood-opacity="0" result="BackgroundImageFix"/>
<feBlend mode="normal" in="SourceGraphic" in2="BackgroundImageFix" result="shape"/>
<feColorMatrix in="SourceAlpha" type="matrix" values="0 0 0 0 0 0 0 0 0 0 0 0 0 0 0 0 0 0 127 0" result="hardAlpha"/>
<feOffset dy="4"/>
<feGaussianBlur stdDeviation="2"/>
<feComposite in2="hardAlpha" operator="arithmetic" k2="-1" k3="1"/>
<feColorMatrix type="matrix" values="0 0 0 0 0 0 0 0 0 0 0 0 0 0 0 0 0 0 0.25 0"/>
<feBlend mode="normal" in2="shape" result="effect1_innerShadow_137_1615"/>
</filter>
<filter id="filter13_i_137_1615" x="-75" y="138" width="175.919" height="250" filterUnits="userSpaceOnUse" color-interpolation-filters="sRGB">
<feFlood flood-opacity="0" result="BackgroundImageFix"/>
<feBlend mode="normal" in="SourceGraphic" in2="BackgroundImageFix" result="shape"/>
<feColorMatrix in="SourceAlpha" type="matrix" values="0 0 0 0 0 0 0 0 0 0 0 0 0 0 0 0 0 0 127 0" result="hardAlpha"/>
<feOffset dy="4"/>
<feGaussianBlur stdDeviation="2"/>
<feComposite in2="hardAlpha" operator="arithmetic" k2="-1" k3="1"/>
<feColorMatrix type="matrix" values="0 0 0 0 0 0 0 0 0 0 0 0 0 0 0 0 0 0 0.25 0"/>
<feBlend mode="normal" in2="shape" result="effect1_innerShadow_137_1615"/>
</filter>
<filter id="filter14_i_137_1615" x="-75" y="-18" width="175.919" height="250" filterUnits="userSpaceOnUse" color-interpolation-filters="sRGB">
<feFlood flood-opacity="0" result="BackgroundImageFix"/>
<feBlend mode="normal" in="SourceGraphic" in2="BackgroundImageFix" result="shape"/>
<feColorMatrix in="SourceAlpha" type="matrix" values="0 0 0 0 0 0 0 0 0 0 0 0 0 0 0 0 0 0 127 0" result="hardAlpha"/>
<feOffset dy="4"/>
<feGaussianBlur stdDeviation="2"/>
<feComposite in2="hardAlpha" operator="arithmetic" k2="-1" k3="1"/>
<feColorMatrix type="matrix" values="0 0 0 0 0 0 0 0 0 0 0 0 0 0 0 0 0 0 0.25 0"/>
<feBlend mode="normal" in2="shape" result="effect1_innerShadow_137_1615"/>
</filter>
<filter id="filter15_d_137_1615" x="784" y="930.544" width="144" height="66.9116" filterUnits="userSpaceOnUse" color-interpolation-filters="sRGB">
<feFlood flood-opacity="0" result="BackgroundImageFix"/>
<feColorMatrix in="SourceAlpha" type="matrix" values="0 0 0 0 0 0 0 0 0 0 0 0 0 0 0 0 0 0 127 0" result="hardAlpha"/>
<feOffset dy="4"/>
<feGaussianBlur stdDeviation="2"/>
<feComposite in2="hardAlpha" operator="out"/>
<feColorMatrix type="matrix" values="0 0 0 0 0 0 0 0 0 0 0 0 0 0 0 0 0 0 0.25 0"/>
<feBlend mode="normal" in2="BackgroundImageFix" result="effect1_dropShadow_137_1615"/>
<feBlend mode="normal" in="SourceGraphic" in2="effect1_dropShadow_137_1615" result="shape"/>
</filter>
<filter id="filter16_d_137_1615" x="95.2849" y="252.4" width="897.916" height="585.6" filterUnits="userSpaceOnUse" color-interpolation-filters="sRGB">
<feFlood flood-opacity="0" result="BackgroundImageFix"/>
<feColorMatrix in="SourceAlpha" type="matrix" values="0 0 0 0 0 0 0 0 0 0 0 0 0 0 0 0 0 0 127 0" result="hardAlpha"/>
<feOffset dy="4"/>
<feGaussianBlur stdDeviation="2"/>
<feComposite in2="hardAlpha" operator="out"/>
<feColorMatrix type="matrix" values="0 0 0 0 0 0 0 0 0 0 0 0 0 0 0 0 0 0 0.25 0"/>
<feBlend mode="normal" in2="BackgroundImageFix" result="effect1_dropShadow_137_1615"/>
<feBlend mode="normal" in="SourceGraphic" in2="effect1_dropShadow_137_1615" result="shape"/>
</filter>
<clipPath id="clip0_137_1615">
<rect x="32" y="32" width="1016" height="1016" rx="16" fill="white"/>
</clipPath>
</defs>
</svg>
