<svg id="visual" viewBox="0 0 960 540" width="960" height="540" xmlns="http://www.w3.org/2000/svg" xmlns:xlink="http://www.w3.org/1999/xlink" version="1.1"><rect x="0" y="0" width="960" height="540" fill="#2e2e52"></rect><path d="M0 432L32 442C64 452 128 472 192 483C256 494 320 496 384 484C448 472 512 446 576 443C640 440 704 460 768 471.3C832 482.7 896 485.3 928 486.7L960 488L960 0L928 0C896 0 832 0 768 0C704 0 640 0 576 0C512 0 448 0 384 0C320 0 256 0 192 0C128 0 64 0 32 0L0 0Z" fill="#e8a39b"></path><path d="M0 352L32 348.7C64 345.3 128 338.7 192 344.5C256 350.3 320 368.7 384 367.7C448 366.7 512 346.3 576 342.7C640 339 704 352 768 356.3C832 360.7 896 356.3 928 354.2L960 352L960 0L928 0C896 0 832 0 768 0C704 0 640 0 576 0C512 0 448 0 384 0C320 0 256 0 192 0C128 0 64 0 32 0L0 0Z" fill="#ecb0a6"></path><path d="M0 242L32 242.5C64 243 128 244 192 247.3C256 250.7 320 256.3 384 266.5C448 276.7 512 291.3 576 295.3C640 299.3 704 292.7 768 279.8C832 267 896 248 928 238.5L960 229L960 0L928 0C896 0 832 0 768 0C704 0 640 0 576 0C512 0 448 0 384 0C320 0 256 0 192 0C128 0 64 0 32 0L0 0Z" fill="#efbcb2"></path><path d="M0 154L32 158.5C64 163 128 172 192 173.5C256 175 320 169 384 162.2C448 155.3 512 147.7 576 152.3C640 157 704 174 768 189.3C832 204.7 896 218.3 928 225.2L960 232L960 0L928 0C896 0 832 0 768 0C704 0 640 0 576 0C512 0 448 0 384 0C320 0 256 0 192 0C128 0 64 0 32 0L0 0Z" fill="#f3c8be"></path><path d="M0 128L32 113C64 98 128 68 192 59.8C256 51.7 320 65.3 384 67.2C448 69 512 59 576 58C640 57 704 65 768 64.5C832 64 896 55 928 50.5L960 46L960 0L928 0C896 0 832 0 768 0C704 0 640 0 576 0C512 0 448 0 384 0C320 0 256 0 192 0C128 0 64 0 32 0L0 0Z" fill="#f6d4cb"></path></svg>